<svg width="163" height="207" viewBox="0 0 163 207" fill="none" xmlns="http://www.w3.org/2000/svg">
<g clip-path="url(#clip0_1309_4413)">
<path d="M136.723 176.416C138.629 176.484 140.271 177.478 141.636 178.533C144.233 180.536 146.809 183.026 147.98 186.282L148.089 186.599L148.191 186.926C150.231 193.792 146.056 200.558 140.494 204.152C134.84 207.806 127.155 208.781 121.104 205.309H121.103C115.723 202.217 112.261 196.017 113.773 189.742L113.92 189.19C114.713 186.443 116.426 183.927 118.87 182.349C120.346 181.396 122.006 180.856 123.576 180.321C125.012 179.831 126.379 179.343 127.59 178.561C127.678 178.475 127.782 178.405 127.901 178.352C127.927 178.334 127.954 178.316 127.98 178.297L127.981 178.296C128.228 178.12 128.51 178.056 128.782 178.113C129.549 177.922 130.326 177.729 131.052 177.549C132.002 177.314 132.951 177.079 133.9 176.843H133.901C134.761 176.631 135.729 176.379 136.723 176.416ZM136.406 178.617C135.66 178.639 134.939 178.858 134.116 179.059L134.115 179.058C132.363 179.493 130.611 179.927 128.859 180.362C127.457 181.294 125.886 181.837 124.38 182.35C122.842 182.874 121.371 183.369 120.071 184.195L119.813 184.365C117.564 185.901 116.115 188.527 115.718 191.238L115.654 191.781C115.149 197.142 118.817 202.091 123.72 204.165L124.246 204.374C129.711 206.419 136.186 204.871 140.732 201.287C143.044 199.465 144.903 197.233 145.867 194.317C146.833 191.394 146.712 188.122 145.185 185.459C144.448 184.172 143.502 183.101 142.343 182.02C141.162 180.919 139.936 179.84 138.556 179.145V179.144C137.871 178.798 137.119 178.596 136.406 178.617Z" fill="#4D58D8" stroke="#4D58D8"/>
<path d="M130.364 74.8401C133.414 73.9896 136.314 74.6475 139.082 75.7815L139.513 75.9631C140.522 76.4027 141.556 76.9621 142.334 77.8821L142.502 78.0891C143.318 79.1384 143.78 80.3824 144.141 81.5618L144.296 82.0901C145.048 84.7475 145.393 87.6646 145.011 90.425C144.824 91.7907 144.375 93.1107 143.519 94.26C142.684 95.3807 141.619 96.2972 140.584 97.1321C138.537 98.7899 136.168 100.322 133.481 100.933C130.927 101.513 128.255 101.128 126.043 99.6555C123.918 98.2419 122.405 96.119 121.574 93.7522V93.7512C120.665 91.1541 120.551 88.3065 120.93 85.6379C121.255 83.3153 122.108 80.8511 124.028 79.2141V79.1975L124.193 79.0667C125.711 77.0182 127.896 75.5281 130.364 74.8401ZM136.392 77.1292C134.389 76.5031 132.364 76.4576 130.391 77.135H130.39C128.625 77.7374 127.054 78.8748 125.96 80.3713C125.929 80.4251 125.894 80.4769 125.853 80.5256C125.816 80.5778 125.78 80.6299 125.744 80.6829V80.6838C125.599 80.9028 125.413 81.0383 125.216 81.1116C123.814 82.5142 123.217 84.559 123.021 86.6292C122.786 89.1231 122.997 91.7079 124.024 93.9504L124.24 94.3948C125.131 96.1228 126.544 97.5924 128.296 98.3899C130.28 99.2926 132.474 99.1116 134.583 98.2747C136.696 97.4363 138.606 96.0139 140.321 94.4602C141.195 93.6682 141.954 92.8642 142.387 91.8313C142.826 90.7838 142.931 89.6081 142.941 88.4055C142.955 85.9035 142.54 83.3389 141.631 81.0217C141.212 79.9538 140.604 79.0609 139.688 78.5022C138.949 78.0516 138.111 77.7061 137.253 77.4104L136.392 77.1292Z" fill="#4D58D8" stroke="#4D58D8"/>
<path d="M141.194 40.7734C143.29 38.0351 146.889 37.1142 150.044 37.3975C153.205 37.6814 156.19 39.0208 158.567 41.0898H158.568C162.993 44.9455 164.586 51.0454 162.766 56.5908V56.5918C161.887 59.263 160.37 61.6528 158.043 63.4902C155.718 65.325 152.866 66.3665 149.933 66.5996H149.932C147.225 66.8137 144.434 66.2957 142.014 65.0332L141.534 64.7705C140.079 63.9317 138.821 62.7831 138.012 61.25V61.249C137.253 59.8208 136.846 58.2269 136.62 56.6807C135.813 51.1702 137.433 45.4404 140.999 41.1758C141.033 41.0351 141.098 40.8986 141.194 40.7734ZM149.456 39.5635C147.432 39.4692 145.27 39.9271 143.783 41.1943C143.737 41.3666 143.646 41.5318 143.507 41.6758H143.506C139.441 45.8615 137.681 52.1409 139.084 57.8047L139.218 58.3066C139.55 59.4718 140.032 60.5798 140.791 61.4219C141.669 62.3955 142.896 63.1036 144.169 63.5967H144.17C146.454 64.4749 148.998 64.6702 151.402 64.1748C156.324 63.1634 160.011 59.3879 161.046 54.4912C162.032 49.8225 160.214 45.0649 156.43 42.1875L156.057 41.9141C154.116 40.5441 151.826 39.6739 149.456 39.5635Z" fill="#4D58D8" stroke="#4D58D8"/>
<path d="M114.045 -0.500366C117.65 -0.444966 120.884 1.32296 123.156 4.00256C125.677 6.97958 126.939 10.6809 127.598 14.399C127.963 16.4453 128.167 18.5078 128.365 20.5436L128.501 21.9928C128.63 23.4458 128.73 24.91 128.734 26.3824C128.744 30.0607 128.028 34.0596 125.754 37.0406C123.557 39.9205 120.277 41.6965 116.711 42.0992L116.366 42.1334C114.217 42.3219 112.069 42.0485 110.011 41.691H110.01C108.309 41.393 106.417 40.9635 104.972 39.6998C103.614 38.5145 103.025 36.7803 102.559 35.233L102.366 34.5836C101.947 33.1891 101.531 31.7922 101.116 30.3951C101.004 30.2545 100.931 30.0807 100.904 29.8854L100.854 29.5182C100.735 29.1171 100.615 28.7162 100.495 28.3151L100.466 28.1949C100.414 27.9184 100.469 27.6536 100.612 27.4352L100.539 26.6569C100.175 22.3234 100.286 17.9243 100.923 13.6158C101.43 10.1869 102.46 6.5891 104.701 3.81506C106.96 1.01838 110.457 -0.555419 114.045 -0.500366ZM120.004 3.9635C117.674 2.00538 114.684 1.23527 111.613 1.95764C108.553 2.6774 106.313 4.67676 104.879 7.62561C103.434 10.597 102.976 14.0153 102.711 17.3629C102.408 21.2292 102.499 25.1304 102.992 28.9772C103.011 29.041 103.03 29.1048 103.049 29.1686C103.194 29.6539 103.338 30.1393 103.483 30.6246C104.027 32.4474 104.491 34.304 105.128 35.983C105.723 37.5495 106.749 38.5588 108.329 39.0582C110.01 39.589 111.825 39.83 113.658 39.9537C115.467 40.0759 117.26 39.9613 118.94 39.3844L119.214 39.2858C122.033 38.2295 124.321 35.9683 125.437 33.1774C126.696 30.0294 126.646 26.5069 126.381 23.067C126.122 19.7018 125.875 16.0555 125.008 12.6666C124.144 9.28478 122.674 6.20846 120.004 3.9635Z" fill="#4D58D8" stroke="#4D58D8"/>
<path d="M55.9286 60.2371C59.5491 58.266 63.5894 57.2501 67.8807 58.4089C71.4563 59.3741 74.6897 61.8426 75.8221 65.5466C77.0839 69.6698 75.7488 74.2492 73.8387 77.8162C71.0205 83.0799 66.2069 87.0211 60.995 89.6765C58.5845 90.9052 55.8594 92.1712 52.9794 92.2166C49.638 92.2674 46.6909 90.4703 44.6444 88.0476C44.6366 88.0386 44.6276 88.0305 44.62 88.0212C43.9549 87.2142 43.3668 86.3487 42.9071 85.3914V85.3904C41.5611 82.5995 41.2279 79.4102 41.6737 76.3962L41.7245 76.0798C42.2959 72.8273 44.1486 70.148 46.3798 67.8845C49.0849 65.1402 52.3154 62.2042 55.9286 60.2371ZM65.0135 60.1404C61.3556 59.8962 57.8249 61.4166 54.7811 63.5007C53.353 64.4836 52.0281 65.603 50.7362 66.781L50.1844 67.2898C48.8641 68.5152 47.5605 69.7224 46.4491 71.0847C44.8583 73.0324 43.9024 75.3579 43.7362 77.8347C43.5258 80.9553 44.2679 84.1168 46.2499 86.5242L46.4569 86.7761L46.455 86.7791C46.6982 87.058 46.9488 87.3252 47.2118 87.5769L47.2128 87.5779C48.3427 88.6637 49.7104 89.4694 51.2255 89.8259C52.5708 90.1425 53.9569 90.0176 55.329 89.6384H55.33C57.363 89.0776 59.3452 88.1059 61.2216 87.0554L61.6776 86.7947C66.3654 84.0696 70.4684 80.2244 72.6356 75.2605L72.9081 74.6062C74.1773 71.4013 74.7369 67.6416 73.0809 64.6892L72.9012 64.3865C71.3728 61.9412 68.4899 60.5284 65.5927 60.1931L65.0135 60.1404Z" fill="#4D58D8" stroke="#4D58D8"/>
<path d="M14.5321 76.5149C16.2666 76.2797 17.9996 76.4608 19.661 76.7053C21.5112 76.9773 23.3583 77.3621 25.161 77.9192C28.3559 78.9082 31.4485 80.4637 33.9091 82.8049L34.3925 83.2834L34.3934 83.2844C36.6294 85.5962 38.2596 88.5558 38.6512 91.8059L38.6854 92.1213C38.973 95.1807 37.9555 98.3274 35.9823 100.667L35.9813 100.666C34.9971 101.84 33.7383 102.783 32.3173 103.372C30.7034 104.044 28.96 104.207 27.2831 104.198L26.5692 104.185C24.5077 104.122 22.399 103.963 20.4022 103.848C18.4026 103.733 16.3738 103.646 14.3544 103.467H14.3534C10.7866 103.148 7.00736 102.437 3.97644 100.184L3.50085 99.8127C1.16461 97.9059 -0.519345 95.1845 -0.500122 92.0159C-0.479557 88.3936 1.63626 85.2136 3.90613 82.7405L4.7616 81.8284C5.65405 80.9014 6.65541 79.9513 7.75378 79.1633C8.94628 78.3079 10.2773 77.6249 11.7323 77.3811C12.5049 76.9902 13.3254 76.7137 14.1844 76.5676L14.5321 76.5149ZM17.246 78.6409C16.0184 78.5585 14.8108 78.606 13.7001 78.9495C13.6669 79.0089 13.6285 79.0665 13.5829 79.1204C13.3914 79.3464 13.1091 79.4871 12.7743 79.4934H12.7733C11.1237 79.5239 9.66669 80.4478 8.31531 81.5823C6.9661 82.7149 5.69855 83.9574 4.5946 85.3127C2.5508 87.8234 1.09951 90.9535 1.98914 94.0178L2.08289 94.3137V94.3147C2.92839 96.7997 5.16925 98.6944 7.61121 99.761C10.7751 101.146 14.3358 101.31 17.8671 101.508C18.8116 101.561 19.756 101.615 20.7001 101.669C21.6445 101.723 22.5891 101.777 23.5331 101.83C25.3563 101.933 27.1223 102.096 28.8788 101.947C31.6943 101.706 33.9938 100.202 35.3495 97.7336C38.1468 92.6428 35.5074 86.648 31.0526 83.26C28.4695 81.2948 25.3495 80.125 22.1522 79.4036H22.1512C20.5331 79.037 18.8839 78.7491 17.2469 78.6409H17.246Z" fill="#4D58D8" stroke="#4D58D8"/>
<path d="M18.2523 157.666C21.4099 154.92 25.2175 154.781 28.8685 155.738C32.5085 156.692 36.0695 158.753 38.8461 160.521H38.847C41.2541 162.055 43.8045 164.215 44.3236 167.384V167.385C44.9016 170.938 42.8333 174.127 40.8256 176.587L40.8246 176.586C39.7412 177.918 38.5707 179.271 37.2172 180.404C35.8478 181.549 34.3895 182.331 32.5922 182.868C30.8218 183.398 28.992 183.697 27.2064 183.993C25.4056 184.293 23.5566 184.537 21.6937 184.537C18.4218 184.547 15.0166 183.702 12.433 181.688C9.82958 179.658 8.47683 176.613 8.68982 173.325C8.91006 169.892 10.4816 166.612 12.4105 163.902L12.7689 163.41C14.2198 161.476 15.9454 159.768 17.89 158.339C17.9163 158.087 18.0397 157.851 18.2523 157.666ZM27.3539 157.631C25.2352 157.231 22.9413 157.403 21.0795 158.377C21.0499 158.673 20.9012 158.969 20.5707 159.175C17.8642 160.864 15.5749 163.062 13.7894 165.779C11.9849 168.524 10.5495 171.823 10.9242 175.04C11.209 177.489 12.7769 179.459 14.9056 180.711L15.3392 180.952L15.5902 181.08C18.0322 182.283 20.8227 182.477 23.5912 182.252L24.1635 182.199C25.8353 182.029 27.4931 181.725 29.1644 181.404H29.1654C30.6878 181.114 32.1199 180.83 33.5316 180.181C34.924 179.541 36.145 178.495 37.1791 177.403C38.2261 176.296 39.2301 175.147 40.1029 173.923C41.7895 171.559 42.9687 168.731 41.6244 166.179L41.6234 166.178C40.6379 164.299 38.7935 163.02 36.8724 161.888L36.0463 161.41C33.4216 159.916 30.7972 158.418 27.9301 157.753L27.3539 157.631Z" fill="#4D58D8" stroke="#4D58D8"/>
<path d="M101.832 26.6637C102.167 26.6471 102.461 26.7679 102.665 26.9948C102.857 27.2098 102.937 27.4844 102.936 27.736C102.935 28.2332 102.596 28.8281 101.881 28.8639C98.2121 29.0457 94.7415 30.4833 91.5592 32.3746V32.3756C81.3137 38.4563 73.389 48.3871 69.4655 59.5953C69.2303 60.2675 68.5678 60.432 68.0895 60.3014C67.8472 60.2352 67.6033 60.0859 67.4479 59.8414C67.2834 59.5826 67.2492 59.2649 67.36 58.9479L67.5807 58.3268C68.7033 55.23 70.1071 52.2384 71.776 49.4C74.9508 44.0021 78.8676 39.3044 83.8912 35.1324C88.8858 30.9847 95.0115 27.0039 101.832 26.6637Z" fill="#4D58D8" stroke="#4D58D8"/>
<path d="M101.699 13.5571C102.017 13.4488 102.334 13.4852 102.592 13.6499C102.835 13.8056 102.984 14.0488 103.05 14.2905C103.18 14.768 103.015 15.4302 102.342 15.6616L102.34 15.6626C100.933 16.1402 99.5064 16.5505 98.0996 16.9644C96.6885 17.3795 95.2941 17.7987 93.9277 18.2974H93.9268C91.6644 19.121 89.463 20.0979 87.3271 21.2036C79.6967 25.1595 72.9718 30.7856 67.6611 37.5278C64.9998 40.907 62.7062 44.5865 60.8428 48.4614C59.9161 50.3912 59.0995 52.3683 58.3975 54.3882C57.569 56.7695 56.6514 59.2052 56.9648 61.5708C57.0088 61.903 56.9111 62.2113 56.6816 62.4282C56.4677 62.6304 56.1891 62.7065 55.9414 62.7056C55.4575 62.7036 54.8615 62.3884 54.7695 61.7026C54.374 58.7333 55.5954 55.641 56.5244 53.0688C57.3654 50.7269 58.3615 48.4393 59.4883 46.2251V46.2241C63.5354 38.2905 69.3506 31.2513 76.335 25.7231C79.8459 22.9427 83.6498 20.5235 87.6885 18.5649L88.4414 18.2065C90.2046 17.3828 92.008 16.6455 93.8447 15.9966C95.1507 15.5348 96.4749 15.143 97.7871 14.7593C99.0927 14.3775 100.385 14.0039 101.659 13.5728L101.668 13.5679L101.699 13.5571Z" fill="#4D58D8" stroke="#4D58D8"/>
<path d="M28.3069 29.115C30.0891 28.7357 32.1561 28.2846 34.0432 28.6169C35.9759 28.9575 37.3925 30.1623 38.7258 31.4011C40.0558 32.6368 41.4383 33.9216 42.5979 35.3787C43.7676 36.8484 44.6294 38.4663 45.2991 40.2L45.5559 40.8875C46.1394 42.4968 46.6096 44.1457 47.1028 45.7468L48.9436 51.7068L50.7844 57.6648C51.3855 59.6118 51.986 61.559 52.5881 63.5046L52.5969 63.5134L52.634 63.6306C52.7344 63.9517 52.6895 64.2671 52.5227 64.5203C52.3645 64.7604 52.121 64.9087 51.8782 64.9744C51.3989 65.1039 50.7307 64.935 50.5178 64.2449L46.8362 52.3289L44.9954 46.3689V46.3679C44.4219 44.5065 43.9053 42.669 43.2151 40.8884L43.2141 40.8875C42.6038 39.3046 41.7911 37.8308 40.7141 36.5388V36.5378C39.7016 35.3212 38.5294 34.2223 37.3508 33.1238C36.1548 32.0089 35.09 31.0154 33.5618 30.7605C31.9783 30.4965 30.3906 30.9153 28.6125 31.2996C26.8879 31.6723 25.1788 32.0962 23.4905 32.5876L23.4915 32.5886C22.0175 33.019 20.5932 33.5048 19.3313 34.2771L19.0813 34.4353C16.9284 35.8485 15.4625 38.2814 14.2434 40.6941L13.7346 41.7244C10.9674 47.4158 9.70558 53.7628 9.38989 60.0896C9.23229 63.2917 9.3513 66.4901 9.56274 69.7068L9.64575 71.0085C9.72164 72.314 9.76948 73.6322 9.71802 74.9558C9.68357 75.849 9.59921 76.7386 9.46118 77.6238V77.6267C9.38861 78.0707 9.30462 78.5162 9.19653 78.9646C9.34194 79.122 9.44936 79.3209 9.49927 79.5496C9.59091 79.9701 9.48747 80.412 9.23462 80.7361C8.97127 81.0735 8.53767 81.2875 8.03052 81.1912L8.02954 81.1902C7.50215 81.088 7.17122 80.7381 7.00317 80.3435C6.84253 79.9662 6.82153 79.5393 6.87817 79.1794C6.95339 78.6971 7.06163 78.2299 7.15845 77.7859C7.25675 77.3351 7.34581 76.8991 7.39575 76.4441C7.49892 75.5038 7.52746 74.5486 7.52271 73.5886C7.51075 71.7276 7.39275 69.8714 7.28345 67.9949C7.17445 66.1237 7.07453 64.2345 7.10376 62.3347C7.21537 55.2013 8.42316 47.976 11.4329 41.4265C12.8337 38.3774 14.653 34.8931 17.5667 32.8035C19.0622 31.73 20.8086 31.0907 22.4895 30.5867L23.2102 30.3748C24.8951 29.891 26.5988 29.4786 28.3069 29.115Z" fill="#4D58D8" stroke="#4D58D8"/>
<path d="M28.6536 39.6866C31.1537 39.2332 33.1803 40.6055 34.3977 42.5294L34.6301 42.921L34.8352 43.3087C35.1652 43.9599 35.4345 44.6355 35.6711 45.3116L35.9417 46.1212L36.6292 48.299C36.8565 49.0255 37.0827 49.7529 37.3069 50.4816C38.1217 53.1307 38.905 55.8008 39.5813 58.4982L39.8645 59.6554L40.1184 60.7618C40.6932 63.345 41.1424 65.9501 41.469 68.5773L41.6018 69.6241C41.9165 72.0386 42.32 74.3851 43.5002 76.4396L43.5012 76.4406L43.5344 76.4962C43.7037 76.786 43.7301 77.101 43.6321 77.3829C43.5386 77.6518 43.3442 77.8577 43.1262 77.9845C42.9083 78.1113 42.6334 78.1782 42.3538 78.1271C42.0607 78.0734 41.7994 77.8961 41.6301 77.6066V77.6056C40.0574 74.9077 39.6652 71.8241 39.301 68.9132V68.9122C38.8988 65.6786 38.3004 62.4825 37.5149 59.3195H37.5139C36.7946 56.411 35.9452 53.5328 35.0549 50.6622C34.6303 49.2999 34.2129 47.9437 33.7756 46.5968L33.7747 46.5958C33.441 45.5594 33.0661 44.5672 32.5159 43.6827L32.5139 43.6808C32.0019 42.8492 31.3262 42.1717 30.4709 41.9181L30.469 41.9171C29.4919 41.6231 28.4678 41.9049 27.5344 42.4913C25.5702 43.7339 24.3086 46.0038 23.4465 48.2413C21.7285 52.7048 21.611 57.4557 21.4417 62.4171C21.2735 67.3439 21.1011 72.4871 19.3538 77.2706C19.1108 77.9361 18.4493 78.0971 17.9729 77.9669C17.7313 77.9009 17.4869 77.7519 17.3323 77.506C17.1681 77.2449 17.138 76.9259 17.2532 76.6105C19.2382 71.1757 19.0814 65.3245 19.3489 59.4786L19.3958 58.5382C19.6554 53.8228 20.2832 48.9215 22.72 44.67L22.9573 44.2687C24.189 42.2547 26.0921 40.1544 28.6536 39.6876V39.6866Z" fill="#4D58D8" stroke="#4D58D8"/>
<path d="M60.4972 87.8835C60.8509 87.5318 61.5127 87.353 62.0411 87.8396L62.0421 87.8406C63.8452 89.509 65.61 91.2208 67.3312 92.9763L67.3322 92.9773C70.1557 95.8662 72.8636 98.8764 75.4269 101.998C78.2157 105.396 80.9025 108.849 83.1212 112.698C85.5497 116.911 87.6725 121.176 89.0665 126.072C90.4615 130.972 90.8584 136.073 91.09 141.087C91.5727 151.579 91.4807 162.1 90.8195 172.582C90.4864 177.869 90.0085 183.141 89.3859 188.399C89.0818 190.961 88.7438 193.522 88.3722 196.079V196.08C88.0499 198.281 87.8842 200.248 89.3468 201.747C90.5581 202.982 92.2959 203.66 94.0372 204.212C94.5302 204.368 94.9979 204.535 95.4884 204.664C95.971 204.79 96.4265 204.864 96.8517 204.838C97.6531 204.787 98.1034 204.153 98.4064 203.205C99.128 200.938 99.3147 198.546 99.2872 196.105C99.2596 193.645 99.0195 191.213 98.9044 188.773L98.8644 187.844C98.7871 185.673 98.8223 183.48 99.1447 181.302C99.5135 178.805 100.284 176.408 101.12 174.079L102.466 170.368C103.823 166.661 105.212 162.963 106.572 159.265L107.804 155.912C110.684 148.078 113.646 140.206 117.636 132.821L118.062 132.044C119.067 130.231 120.157 128.417 121.248 126.765C122.483 124.896 123.79 122.938 125.409 121.288L125.685 121.013C127.085 119.652 128.853 118.433 130.943 118.214H130.943C132.965 118.005 134.835 118.916 136.119 120.358L136.368 120.653V120.654C137.831 122.494 138.311 124.781 138.375 126.993C138.448 129.557 138.165 132.153 137.954 134.648V134.649C137.524 139.699 136.897 144.731 136.066 149.728C134.399 159.772 131.916 169.676 128.664 179.324L128.658 179.323C128.426 179.988 127.769 180.153 127.294 180.024C127.052 179.958 126.808 179.809 126.651 179.566C126.486 179.309 126.448 178.993 126.555 178.675V178.674C127.334 176.362 128.074 174.037 128.761 171.703C131.62 162.004 133.706 152.076 134.965 142.048C135.277 139.554 135.542 137.057 135.753 134.554H135.754C135.967 132.058 136.233 129.575 136.176 127.12V127.119C136.129 124.985 135.647 122.879 134.141 121.465V121.464C132.781 120.183 131.018 120.058 129.275 121.018C127.478 122.008 126.126 123.673 124.869 125.397C123.677 127.037 122.561 128.738 121.511 130.478L121.066 131.226C118.681 135.287 116.637 139.587 114.817 143.909C112.995 148.233 111.361 152.636 109.736 157.049L104.301 171.815C103.435 174.161 102.549 176.475 101.915 178.855C101.288 181.213 101.036 183.611 101.041 186.061C101.046 188.478 101.25 190.88 101.371 193.338C101.492 195.78 101.53 198.25 101.186 200.724C101.062 201.623 100.911 202.803 100.552 203.882C100.193 204.958 99.5973 206.022 98.5236 206.603L98.5226 206.604C97.5056 207.152 96.3438 207.111 95.2833 206.891C94.2234 206.672 93.1679 206.25 92.3527 205.956C90.6576 205.344 88.8421 204.502 87.5558 203.044C85.9735 201.25 85.7738 199.047 86.047 196.882L86.547 193.032C87.0497 189.193 87.5463 185.375 87.9142 181.469C88.4048 176.258 88.7562 170.993 88.963 165.797C89.1698 160.6 89.2324 155.332 89.1603 150.207C89.088 145.073 88.9778 139.925 88.4503 134.841C87.9715 130.207 86.8885 125.731 85.0909 121.45L84.7218 120.596C82.9173 116.54 80.7285 112.577 78.129 108.973L77.6036 108.258C72.5308 101.474 66.7306 95.1804 60.5099 89.4255L60.5089 89.4246C60.2633 89.1961 60.1458 88.9009 60.1642 88.5984C60.1817 88.3111 60.3186 88.0612 60.4972 87.8835Z" fill="#4D58D8" stroke="#4D58D8"/>
<path d="M137.476 57.4065C138.003 56.912 138.668 57.0946 139.021 57.4465C139.199 57.6242 139.335 57.8734 139.354 58.1594C139.371 58.4232 139.285 58.683 139.099 58.8977L139.013 58.9866C135.42 62.3611 131.93 65.8417 128.567 69.4377L127.132 70.9866C123.883 74.5245 120.8 78.2044 118.28 82.2659C115.696 86.4366 113.662 90.9094 111.561 95.3801C109.34 100.105 107.123 104.826 104.902 109.546C103.864 111.755 102.704 113.949 101.798 116.239C100.923 118.451 100.311 120.699 100.309 123.014L100.477 123.474L100.278 123.5C100.235 123.686 100.147 123.852 100.017 123.986C99.8296 124.178 99.5857 124.276 99.3508 124.299C98.9571 124.337 98.5054 124.168 98.2581 123.77L98.1174 123.789L98.1116 123.444C96.8654 120.024 95.3861 116.698 93.6897 113.479C90.6817 107.774 87.0226 102.442 82.7502 97.5637C78.4776 92.6853 73.6353 88.304 68.3293 84.5637L67.6448 84.0813L67.9026 83.9524C67.8147 83.6343 67.8775 83.2973 68.0227 83.0471C68.1486 82.8304 68.3565 82.6319 68.635 82.5461C68.9306 82.4552 69.2469 82.5102 69.5217 82.7034H69.5227C72.2115 84.5987 74.7961 86.654 77.2483 88.8518L78.2913 89.802C83.2018 94.3619 87.5785 99.531 91.2717 105.086C94.1574 109.427 96.6296 114.031 98.6604 118.823C98.9881 117.538 99.4404 116.28 99.9592 115.033C101.049 112.414 102.322 109.861 103.515 107.323C105.789 102.492 108.059 97.6658 110.328 92.8352L111.121 91.1497C112.981 87.2159 114.924 83.281 117.361 79.6243L117.874 78.8665C120.471 75.0972 123.496 71.6496 126.591 68.3274C130.093 64.5648 133.729 60.9282 137.476 57.4075V57.4065Z" fill="#4D58D8" stroke="#4D58D8"/>
<path d="M147.049 64.5739C147.38 64.6457 147.653 64.8717 147.803 65.1276C147.93 65.344 148 65.6213 147.94 65.9049C147.878 66.2051 147.681 66.457 147.38 66.6071H147.379C146.437 67.0748 145.69 67.8228 144.959 68.6803L144.958 68.6813C144.134 69.6423 143.329 70.6546 142.531 71.6246C141.735 72.593 140.951 73.5266 140.257 74.525L140.256 74.526C139.646 75.3979 138.965 76.3925 137.887 77.0055L137.886 77.0045C137.595 77.1702 137.28 77.1941 137 77.0963C136.732 77.0027 136.526 76.8103 136.398 76.5924C136.271 76.3744 136.204 76.0987 136.257 75.818C136.312 75.5235 136.494 75.2644 136.785 75.0983L136.937 75.0045C137.282 74.7757 137.574 74.4691 137.855 74.108C138.016 73.9017 138.169 73.6835 138.326 73.4547L138.812 72.7604C139.56 71.7416 140.383 70.7741 141.166 69.8219L141.701 69.153C142.247 68.4587 142.825 67.7045 143.43 67.025C144.251 66.1022 145.185 65.238 146.326 64.6686L147.049 64.3082V64.5739Z" fill="#4D58D8" stroke="#4D58D8"/>
<path d="M123.332 95.1968C123.615 95.1381 123.892 95.2067 124.109 95.3335C124.538 95.5838 124.885 96.1753 124.559 96.813V96.814C122.514 100.807 120.449 104.787 118.431 108.793V108.794C117.445 110.747 116.485 112.71 115.593 114.7L115.592 114.701C115.35 115.238 115.115 115.774 114.885 116.314C116.353 114.626 117.949 113.049 119.654 111.596L120.189 111.146C122.883 108.906 125.92 106.889 129.399 105.943C132.59 105.071 136.185 105.18 139.201 106.76L139.484 106.914C140.879 107.704 142.032 108.821 143.085 109.925C144.311 111.211 145.502 112.549 146.578 113.989C150.985 119.871 151.911 127.186 151.186 134.23C150.797 138.005 150.005 141.719 149.226 145.391C148.407 149.238 147.627 153.089 146.91 156.953C145.481 164.639 144.254 172.37 143.238 180.124V180.125C143.147 180.812 142.552 181.129 142.066 181.13C141.817 181.131 141.539 181.053 141.325 180.85C141.097 180.633 140.998 180.325 141.042 179.993C142.132 171.644 143.459 163.324 145.026 155.052C145.712 151.418 146.451 147.833 147.227 144.183C148.003 140.532 148.757 136.899 149.068 133.214C149.344 129.917 149.28 126.683 148.528 123.378C147.78 120.087 146.302 117.118 144.184 114.482V114.481C143.17 113.223 142.097 112.039 140.938 110.873C139.792 109.72 138.566 108.759 137.089 108.222C134.376 107.24 131.374 107.488 128.651 108.49L128.109 108.7C125.182 109.898 122.592 111.882 120.213 114.026C117.839 116.167 115.697 118.552 113.869 121.166L113.932 121.399L113.727 121.372C113.687 121.429 113.647 121.485 113.608 121.542L113.609 121.543C113.358 121.913 112.934 122.08 112.544 122.042C112.136 122.003 111.741 121.734 111.612 121.248L111.576 121.089L111.287 121.052L111.509 120.727C111.363 119.699 111.571 118.675 111.893 117.724C112.264 116.627 112.824 115.53 113.218 114.627L113.219 114.626C114.149 112.501 115.154 110.411 116.188 108.345C118.299 104.122 120.486 99.9337 122.633 95.7378L122.635 95.7388C122.788 95.4472 123.038 95.2579 123.332 95.1968Z" fill="#4D58D8" stroke="#4D58D8"/>
<path d="M89.3597 71.061C93.254 70.5561 96.7961 71.931 100.168 73.3706C101.843 74.085 103.483 74.7912 105.198 75.2612C106.692 75.6717 108.227 75.9015 109.8 76.189H109.801C112.726 76.7256 116.011 77.5098 118.12 80.0688L118.121 80.0708C118.565 80.6148 118.375 81.2653 118.028 81.6128C117.851 81.7894 117.6 81.9289 117.309 81.9399C116.999 81.9515 116.709 81.8146 116.495 81.5562H116.495C115.493 80.3418 114.157 79.6126 112.655 79.1177C111.142 78.6193 109.508 78.3712 107.912 78.0864C106.346 77.8066 104.768 77.4846 103.227 76.9575L103.226 76.9565C101.567 76.3871 99.9671 75.6584 98.3773 74.9937C96.7728 74.3228 95.1727 73.7104 93.5092 73.3794C91.8813 73.0555 90.2286 73.0862 88.598 73.4165L88.2728 73.4868C84.819 74.2754 81.4738 76.047 78.5004 77.9575C75.5449 79.8565 72.854 82.1315 70.4623 84.7026L69.597 85.6343V85.0376C69.3265 85.0108 69.0913 84.8806 68.9213 84.7104C68.5683 84.3573 68.388 83.6949 68.8773 83.1665L69.4213 82.5923C72.1626 79.7472 75.2793 77.2708 78.6791 75.2515L79.2865 74.895C82.3472 73.1253 85.7526 71.5288 89.3597 71.061Z" fill="#4D58D8" stroke="#4D58D8"/>
<path d="M84.7727 59.2616C88.6758 58.72 92.6162 58.8872 96.4856 59.3563L97.9504 59.5389C101.373 59.9811 104.81 60.5422 108.18 61.2821C109.936 61.6664 111.674 62.1706 113.345 62.8934L113.935 63.163C115.097 63.7244 116.164 64.4124 117.184 65.1757L117.691 65.5634V65.5643C118.899 66.5117 120.046 67.5479 121.325 68.3729C122.586 69.1862 123.899 69.7376 125.359 69.7157C125.693 69.7124 125.979 69.8448 126.175 70.0702C126.362 70.2856 126.444 70.5572 126.444 70.8094C126.444 71.062 126.363 71.3327 126.179 71.5487C125.986 71.7747 125.703 71.9126 125.368 71.9169L125.369 71.9178L125.367 71.9169H125.366C123.473 71.947 121.835 71.2699 120.364 70.3505C118.907 69.4407 117.554 68.252 116.288 67.2596L116.287 67.2587C114.965 66.2177 113.599 65.3562 112.02 64.7196C110.426 64.0771 108.744 63.6468 107.036 63.2938C103.214 62.5036 99.3124 61.8672 95.4319 61.4462C88.2669 60.6717 80.6686 61.1183 74.7395 65.3641H74.7385C74.4655 65.5594 74.1496 65.6176 73.8528 65.5272C73.5737 65.4422 73.3662 65.2434 73.2405 65.0272C72.9933 64.6019 72.9767 63.922 73.55 63.5126L74.178 63.08C77.3544 60.9764 81.0391 59.7832 84.7727 59.2616Z" fill="#4D58D8" stroke="#4D58D8"/>
<path d="M64.2925 91.2018C64.5494 91.0815 64.8313 91.0748 65.0747 91.1412C65.318 91.2077 65.5594 91.3573 65.7183 91.5944C65.8849 91.8432 65.938 92.1554 65.8462 92.4781L65.8452 92.4772C65.3614 94.2022 64.9315 95.941 64.563 97.693L64.562 97.6949C64.4593 98.1732 64.3572 98.6286 64.2827 99.0885V99.0905C64.2772 99.1237 64.2637 99.22 64.2534 99.2965C64.2521 99.3066 64.25 99.3179 64.2485 99.3287C64.1779 99.8703 64.1115 100.41 64.0552 100.949V100.951C63.8827 102.557 63.7533 104.169 63.6548 105.785L63.5659 107.401C63.2011 114.996 63.47 122.631 64.3296 130.19C64.8209 134.496 65.5366 138.771 66.4351 143.014L66.8306 144.832C67.3685 147.246 67.9457 149.698 68.396 152.137C68.8462 154.576 69.1897 157.029 69.5503 159.465C70.2419 164.155 71.1569 168.725 72.6431 173.211C74.0537 177.47 75.7796 181.751 77.02 186.128C78.1654 190.169 79.0035 194.552 78.5708 198.839L78.5249 199.254C78.3316 200.863 77.8524 202.683 76.9546 204.205C76.0534 205.733 74.7087 206.992 72.7896 207.384C70.6511 207.823 68.5591 206.993 66.9917 205.687C65.2978 204.279 64.316 202.258 63.6089 200.327C62.7865 198.079 62.1875 195.871 61.5151 193.49C60.839 191.095 60.206 188.696 59.6167 186.282V186.281C58.4333 181.458 57.3902 176.37 56.5933 171.692C55.7923 166.99 55.2138 162.301 53.355 157.982V157.981C51.5978 153.911 49.0719 150.143 46.603 146.393C44.3051 142.907 41.7989 139.511 38.5112 137.004H38.5103C37.6737 136.364 36.7744 135.825 35.8413 135.301C34.9187 134.784 33.9408 134.271 33.0054 133.709L33.0044 133.708C32.0482 133.129 31.1417 132.459 30.3315 131.691C29.5104 130.912 28.8403 130.165 28.0278 129.482L27.7241 129.243C27.004 128.709 26.2059 128.35 25.4429 128.269C24.6486 128.186 23.872 128.399 23.2046 129.086L23.0728 129.229C22.036 130.422 21.67 132.099 21.6206 133.758L21.6157 134.09C21.6087 135.19 21.7429 136.282 21.9341 137.386L22.1411 138.495L22.3159 139.354C22.7377 141.355 23.2572 143.336 23.8442 145.302C24.8986 148.835 26.1652 152.304 27.5718 155.718L27.6128 155.836C27.6933 156.109 27.6628 156.385 27.519 156.62C27.3656 156.87 27.1179 157.018 26.8784 157.083C26.4103 157.209 25.75 157.061 25.4858 156.418C25.0468 155.354 24.6213 154.281 24.2114 153.203L23.8071 152.122C22.2644 147.93 20.9253 143.63 20.0464 139.227C19.4089 136.038 18.8203 132.249 20.5454 129.057L20.7456 128.71C21.7903 127.002 23.5028 125.74 25.8003 126.06C28.1671 126.39 29.8402 128.097 31.2925 129.541C32.0832 130.325 32.9118 131.043 33.7993 131.602C34.7115 132.177 35.6643 132.656 36.6479 133.196C38.529 134.22 40.2603 135.456 41.8247 136.919C44.5465 139.463 46.7172 142.512 48.7183 145.582L49.5669 146.897L50.4917 148.344C52.6539 151.736 54.799 155.235 56.1558 159.094C57.7683 163.682 58.248 168.476 59.1108 173.259C59.9809 178.083 61.0235 182.883 62.2349 187.635H62.2358C62.8464 190.033 63.4951 192.417 64.1919 194.79L64.6694 196.454C65.1057 197.973 65.5589 199.469 66.2017 200.864L66.3823 201.242L66.5532 201.577C67.3779 203.122 68.5536 204.448 70.1382 205.027L70.4849 205.139L70.7788 205.213C72.2458 205.516 73.6564 204.946 74.6157 203.742C75.7328 202.339 76.2569 200.539 76.438 198.615C76.6189 196.692 76.4534 194.686 76.2261 192.908V192.907C75.6651 188.493 74.2379 184.33 72.6948 180.001C71.157 175.686 69.5441 171.339 68.5815 166.795C68.0696 164.381 67.6982 161.947 67.3423 159.525C66.9857 157.098 66.6443 154.685 66.189 152.293C65.7184 149.819 65.1636 147.366 64.6206 144.896C64.0784 142.43 63.549 139.951 63.1323 137.443C62.4637 133.42 61.9724 129.368 61.6528 125.303L61.5269 123.56C61.0869 116.896 61.0767 110.185 61.6089 103.52V103.519C61.7297 102.059 61.8706 100.593 62.0649 99.1344L62.1304 98.6725C62.4764 96.366 63.1022 94.0902 63.7241 91.8873H63.7222C63.814 91.5646 64.0233 91.3278 64.2925 91.2018ZM63.7896 99.0084L63.7554 99.2369L64.2476 99.2985C64.2476 99.2963 64.2486 99.294 64.2485 99.2916C64.2485 99.2883 64.2483 99.251 64.2397 99.2057C64.2325 99.1737 64.1967 99.0786 64.1616 99.0182C64.0961 98.9507 63.9577 98.8936 63.814 98.8668C63.8058 98.9139 63.7972 98.9612 63.7896 99.0084Z" fill="#4D58D8" stroke="#4D58D8"/>
<path d="M43.0657 83.8441C43.5428 83.7151 44.2098 83.8804 44.4309 84.5638L44.6194 85.182C45.499 88.2803 45.5148 91.508 45.429 94.6283V94.6293C45.3415 97.6775 45.1719 100.789 45.6438 103.627C46.1181 106.48 47.1596 109.098 48.0657 112C48.9709 114.9 49.4235 117.845 49.8 120.801C50.1607 123.633 50.5477 126.422 51.5178 129.044L51.7385 129.208L51.6145 129.302C51.6259 129.332 51.6371 129.361 51.6487 129.391L51.6497 129.393C51.8493 129.907 51.5671 130.369 51.2668 130.6C50.9657 130.831 50.4448 130.983 49.9993 130.654L49.9983 130.653C49.973 130.634 49.9474 130.615 49.9221 130.596L49.7991 130.691L49.6946 130.426C44.581 126.612 39.4742 122.786 34.3528 118.988C32.2346 117.416 30.2302 116.198 27.6809 116.434L27.6819 116.435C26.3554 116.559 25.0613 116.952 23.7151 117.336H23.7141C22.5121 117.677 21.3272 118.032 20.1858 118.484L20.1848 118.483C17.9996 119.352 16.132 120.696 14.8206 122.613C13.5685 124.444 12.8089 126.574 12.428 128.783L12.429 128.784C11.963 131.502 12.0734 134.372 12.2991 137.093C12.5247 139.814 12.8321 142.532 13.2493 145.23C14.0636 150.496 15.3252 155.713 17.4524 160.583L17.4573 160.595L17.4631 160.607C17.7443 161.247 17.389 161.825 16.968 162.071C16.7531 162.196 16.4743 162.268 16.1887 162.203C15.8836 162.133 15.6405 161.921 15.5061 161.614C12.946 155.754 11.5787 149.517 10.7512 143.233C10.3747 140.382 10.0446 137.394 9.93774 134.597C9.83072 131.797 9.97478 128.901 10.7815 126.146C11.4588 123.833 12.5903 121.605 14.2581 119.812C16.084 117.85 18.4635 116.701 20.8997 115.891L20.9006 115.89C22.2089 115.458 23.5404 115.076 24.8704 114.737L25.4094 114.604C26.6797 114.306 28.0352 114.101 29.3879 114.244H29.3889C31.8594 114.507 33.8731 115.896 35.7034 117.256L36.4768 117.834L43.842 123.324C45.418 124.498 46.9946 125.673 48.5706 126.847C48.0606 124.667 47.7995 122.443 47.5217 120.274C47.1394 117.289 46.5521 114.428 45.6194 111.575C44.7206 108.828 43.7178 106.028 43.3489 103.06L43.2844 102.491C42.9976 99.6433 43.1892 96.7508 43.2512 93.9535C43.3179 90.9456 43.2378 88.0176 42.3186 85.1898V85.1888C42.2146 84.8697 42.2559 84.554 42.4221 84.2992C42.5797 84.0578 42.8234 83.9097 43.0657 83.8441Z" fill="#4D58D8" stroke="#4D58D8"/>
</g>
<defs>
<clipPath id="clip0_1309_4413">
<rect width="163" height="207" fill="white"/>
</clipPath>
</defs>
</svg>
