<svg width="27" height="27" viewBox="0 0 27 27" fill="none" xmlns="http://www.w3.org/2000/svg">
<path d="M23.5 22.0003V6.76953H3.5V22.0003C3.5 23.8859 3.5 24.8287 4.08579 25.4145C4.67157 26.0003 5.61438 26.0003 7.5 26.0003H19.5C21.3856 26.0003 22.3284 26.0003 22.9142 25.4145C23.5 24.8287 23.5 23.8859 23.5 22.0003Z" stroke="#949ADD" stroke-width="2"/>
<path d="M22 1H5C3.11438 1 2.17157 1 1.58579 1.58579C1 2.17157 1 3.11438 1 5V6.36923C1 6.55779 1 6.65207 1.05858 6.71065C1.11716 6.76923 1.21144 6.76923 1.4 6.76923H3.77778H23.2222H25.6C25.7886 6.76923 25.8828 6.76923 25.9414 6.71065C26 6.65207 26 6.55779 26 6.36923V5C26 3.11438 26 2.17157 25.4142 1.58579C24.8284 1 23.8856 1 22 1Z" stroke="#949ADD" stroke-width="2"/>
<path d="M11 19.2695H16" stroke="#949ADD" stroke-width="2" stroke-linecap="round"/>
</svg>
