<svg width="164" height="144" viewBox="0 0 164 144" fill="none" xmlns="http://www.w3.org/2000/svg">
<path d="M41.0866 54.8118C42.5401 54.1879 44.1852 55.2277 45.5748 55.6596C46.8526 56.0595 48.1463 56.3474 49.456 56.5873C52.6504 57.1792 55.8928 57.4831 59.1351 57.6751C66.8017 58.123 74.5002 57.899 82.1508 57.3871C88.8911 56.9233 95.6153 56.2194 102.26 55.0037C106.237 54.2679 111.619 53.3881 114.255 57.3552C116.411 60.5704 115.852 65.3852 115.069 68.9683C114.846 70.0241 114.51 70.9519 113.248 70.8719C112.258 70.8079 111.332 70.6159 110.437 71.1758C108.776 72.1996 108.776 74.567 108.649 76.2786C108.201 81.7812 107.754 87.2999 107.307 92.8026C107.083 95.5539 106.86 98.3052 106.636 101.073C106.428 103.584 106.476 106.303 105.821 108.751C105.167 111.198 103.282 112.286 100.998 112.942C98.5062 113.662 95.9507 114.157 93.4112 114.653C88.0445 115.677 82.614 116.413 77.1676 117.021C74.4843 117.325 71.8009 117.629 69.1176 117.9C66.9135 118.124 64.5496 118.204 62.7607 116.701C60.0615 114.429 59.6781 110.254 59.5663 106.975C59.4865 104.784 59.5983 102.576 59.5663 100.369C59.5184 97.6494 59.3587 94.93 59.0872 92.2107C58.6559 88.0197 58.1448 83.7488 56.2761 79.9257C54.7907 76.8864 52.2671 74.1991 48.7053 73.9271C47.6512 73.8472 46.629 74.1511 45.5748 74.1831C44.2811 74.2151 43.195 73.6072 42.4443 72.5675C41.5019 71.2558 40.9908 69.5442 40.5436 67.9926C39.6172 64.7934 38.8506 61.1302 39.4415 57.7871C39.6332 56.6513 40.0165 55.4196 41.0866 54.8438C41.997 54.3639 41.1825 52.9722 40.288 53.4681C37.6047 54.9078 37.5728 58.8428 37.7485 61.4662C37.9881 64.9693 38.8026 68.5364 40.2082 71.7517C41.0387 73.6552 42.4123 75.3508 44.5686 75.7187C45.6866 75.9107 46.7408 75.6067 47.8428 75.5268C48.7852 75.4628 49.7435 75.6387 50.606 76.0226C54.1678 77.6382 55.733 82.0852 56.5157 85.6203C57.6816 90.915 57.9531 96.5297 57.9531 101.92C57.9531 105.887 57.6816 110.014 59.0552 113.805C59.6462 115.453 60.5566 117.005 61.9621 118.092C63.7191 119.436 65.8753 119.74 68.0315 119.596C73.5898 119.212 79.18 118.444 84.6904 117.693C90.2008 116.941 95.8868 116.061 101.285 114.541C103.346 113.965 105.422 113.038 106.588 111.118C107.818 109.087 107.802 106.527 107.994 104.24C108.457 98.4652 108.936 92.6906 109.399 86.916C109.639 84.0367 109.862 81.1414 110.102 78.2621C110.214 76.9504 110.214 75.5747 110.469 74.2791C110.549 73.8472 110.661 73.3833 110.901 72.9994C111.316 72.3435 111.955 72.3755 112.658 72.4395C113.6 72.5355 114.51 72.5675 115.293 71.9436C116.076 71.3198 116.427 70.36 116.619 69.4162C117.05 67.4167 117.289 65.3052 117.289 63.2577C117.289 59.2587 115.916 55.1637 111.955 53.5481C107.994 51.9325 103.665 53.2122 99.7042 53.868C96.2702 54.4439 92.8202 54.8598 89.3702 55.2117C81.3043 56.0275 73.1745 56.4434 65.0607 56.3314C61.3073 56.2674 57.5379 56.1075 53.8004 55.6596C50.9095 55.3236 47.9706 54.8438 45.2074 53.884C43.5144 53.2921 42.0609 52.7163 40.288 53.4681C39.3457 53.868 40.1603 55.2437 41.0866 54.8438V54.8118Z" fill="#4D58D8"/>
<path d="M41.0866 54.8438C40.0165 55.4196 39.6332 56.6513 39.4415 57.7871C38.8506 61.1302 39.6172 64.7934 40.5436 67.9926C40.9908 69.5442 41.5019 71.2558 42.4443 72.5675C43.195 73.6072 44.2811 74.2151 45.5748 74.1831C46.629 74.1511 47.6512 73.8472 48.7053 73.9271C52.2671 74.1991 54.7907 76.8864 56.2761 79.9257C58.1448 83.7488 58.6559 88.0197 59.0872 92.2107C59.3587 94.93 59.5184 97.6494 59.5663 100.369C59.5983 102.576 59.4865 104.784 59.5663 106.975C59.6781 110.254 60.0615 114.429 62.7607 116.701C64.5496 118.204 66.9135 118.124 69.1176 117.9C71.8009 117.629 74.4843 117.325 77.1676 117.021C82.614 116.413 88.0445 115.677 93.4112 114.653C95.9507 114.157 98.5063 113.662 100.998 112.942C103.282 112.286 105.167 111.198 105.821 108.751C106.476 106.303 106.428 103.584 106.636 101.073C106.86 98.3052 107.083 95.5539 107.307 92.8026C107.754 87.2999 108.201 81.7812 108.649 76.2786C108.776 74.567 108.776 72.1996 110.437 71.1758C111.332 70.6159 112.258 70.8079 113.248 70.8719C114.51 70.9519 114.846 70.0241 115.069 68.9683C115.852 65.3852 116.411 60.5704 114.255 57.3552C111.619 53.3881 106.237 54.2679 102.26 55.0037C95.6153 56.2194 88.8911 56.9233 82.1508 57.3871C74.5002 57.899 66.8017 58.123 59.1351 57.6751C55.8928 57.4831 52.6504 57.1792 49.456 56.5873C48.1463 56.3474 46.8526 56.0595 45.5748 55.6596C44.1852 55.2277 42.5401 54.1879 41.0866 54.8118V54.8438ZM41.0866 54.8438C41.997 54.3639 41.1825 52.9722 40.288 53.4681M41.0866 54.8438C40.1603 55.2437 39.3457 53.868 40.288 53.4681M40.288 53.4681C37.6047 54.9078 37.5728 58.8428 37.7485 61.4662C37.9881 64.9693 38.8026 68.5364 40.2082 71.7517C41.0387 73.6552 42.4123 75.3508 44.5686 75.7187C45.6866 75.9107 46.7408 75.6067 47.8428 75.5268C48.7852 75.4628 49.7435 75.6387 50.606 76.0226C54.1678 77.6382 55.733 82.0852 56.5157 85.6203C57.6816 90.915 57.9531 96.5297 57.9531 101.92C57.9531 105.887 57.6816 110.014 59.0552 113.805C59.6462 115.453 60.5566 117.005 61.9621 118.092C63.7191 119.436 65.8753 119.74 68.0315 119.596C73.5898 119.212 79.18 118.444 84.6904 117.693C90.2008 116.941 95.8868 116.061 101.285 114.541C103.346 113.965 105.422 113.038 106.588 111.118C107.818 109.087 107.802 106.527 107.994 104.24C108.457 98.4652 108.936 92.6906 109.399 86.916C109.639 84.0367 109.862 81.1414 110.102 78.2621C110.214 76.9504 110.214 75.5747 110.469 74.2791C110.549 73.8472 110.661 73.3833 110.901 72.9994C111.316 72.3435 111.955 72.3755 112.658 72.4395C113.6 72.5355 114.51 72.5675 115.293 71.9436C116.076 71.3198 116.427 70.36 116.619 69.4162C117.05 67.4167 117.289 65.3052 117.289 63.2577C117.289 59.2587 115.916 55.1637 111.955 53.5481C107.994 51.9325 103.665 53.2122 99.7042 53.868C96.2702 54.4439 92.8202 54.8598 89.3702 55.2117C81.3043 56.0275 73.1745 56.4434 65.0607 56.3314C61.3073 56.2674 57.5379 56.1075 53.8004 55.6596C50.9095 55.3236 47.9706 54.8438 45.2074 53.884C43.5144 53.2921 42.0609 52.7163 40.288 53.4681Z" stroke="#4D58D8" stroke-width="3" stroke-linejoin="round"/>
<path d="M83.1413 56.2195C83.7961 47.3416 81.9274 37.728 76.5128 30.5137C69.2456 20.836 56.8352 17.3489 45.1916 18.7725C39.5854 19.4604 34.075 21.172 29.1556 23.9713C24.2362 26.7706 19.9398 31.1056 16.6335 35.9044C9.09471 46.8297 6.23571 60.5064 6.57112 73.6073C6.76279 81.4773 8.43986 89.1715 9.36624 96.9616C9.86137 101.105 10.1169 105.28 9.76554 109.439C9.41415 113.598 8.50375 117.565 7.75306 121.612C6.81071 126.618 5.46905 134.568 10.9794 137.576C16.4898 140.583 22.8467 136.008 25.7216 131.513C28.7404 126.778 29.6667 120.892 29.8744 115.373C30.0022 112.062 29.7786 108.767 29.523 105.472C29.2036 101.265 28.7563 97.0736 28.1973 92.8986C27.6383 88.7236 26.9994 84.6766 26.2168 80.5976C25.4341 76.5186 24.4119 72.3276 23.7092 68.1686C22.8626 63.1298 22.8946 58.187 24.1244 53.2442C25.3543 48.3014 27.4307 43.8545 30.8647 40.3033C35.3209 35.6964 41.6458 33.6489 47.9707 33.9369C53.6887 34.1928 59.2949 36.1923 63.288 40.4153C66.6581 43.9824 68.6226 48.6853 69.5011 53.4681C69.6928 54.5239 69.8365 55.5956 69.9004 56.6834C69.9643 57.7071 71.5615 57.7071 71.4976 56.6834C70.9865 47.8855 66.5622 38.8637 58.4165 34.8646C53.9762 32.6892 48.7693 31.9214 43.8659 32.4492C37.557 33.1371 31.8709 36.1443 27.9737 41.1671C25.1307 44.8622 23.3258 49.2931 22.3196 53.82C21.2175 58.7788 21.3134 63.7376 22.1758 68.7444C22.8786 72.8394 23.8849 76.8865 24.6515 80.9815C25.4182 85.0765 26.089 89.1395 26.6161 93.2505C27.1432 97.3615 27.5904 101.488 27.8938 105.631C28.1334 108.863 28.3411 112.094 28.2293 115.341C28.0216 120.812 27.0952 126.698 23.9008 131.273C22.4154 133.401 20.355 135.112 17.9432 136.088C14.8287 137.336 11.1551 137 9.49401 133.769C8.20028 131.273 8.29611 128.122 8.67944 125.419C9.22249 121.516 10.1808 117.677 10.7878 113.774C11.3947 109.87 11.6183 105.775 11.3627 101.728C11.1072 97.6814 10.5003 93.6504 9.87734 89.6354C8.7593 82.3891 7.83292 75.1909 8.1843 67.8486C8.50375 61.3062 9.68568 54.7958 11.8898 48.6213C14.094 42.4468 17.3203 36.8002 21.6807 32.0013C25.4661 27.8583 30.0501 24.7871 35.2889 22.7876C45.7985 18.8045 58.5602 18.7246 68.2393 24.963C77.551 30.9616 81.5121 41.9509 81.6079 52.6683C81.6079 53.852 81.576 55.0198 81.4961 56.2035C81.4163 57.2272 83.0135 57.2272 83.0933 56.2035L83.1413 56.2195Z" fill="#4D58D8" stroke="#4D58D8" stroke-width="3" stroke-linejoin="round"/>
<path d="M82.7746 47.1018C84.26 41.1352 87.9016 35.4406 93.6196 32.7853C97.1494 31.1377 101.174 31.0257 104.976 30.6578C108.777 30.2899 112.77 30.0659 116.603 30.6578C120.437 31.2496 124.142 32.6573 126.873 35.4566C129.78 38.4319 131.33 42.4309 132.767 46.254C136.265 55.5318 139.763 64.8255 143.261 74.1032C144.938 78.5502 146.791 83.0611 147.318 87.8279C147.845 92.5948 147.078 97.5856 145.96 102.32C145.433 104.56 144.89 106.799 144.235 109.007C143.74 110.67 143.021 112.59 141.376 113.47C139.731 114.349 137.559 113.678 136.185 112.478C134.636 111.134 133.901 109.119 133.454 107.183C132.528 103.168 132.272 98.9452 131.937 94.8342C131.601 90.7232 131.33 86.5962 130.898 82.4692C130.1 74.7111 128.758 66.841 125.18 59.8187C122.513 54.572 118.328 48.9094 112.674 46.7019C106.429 44.2705 100.567 47.9336 96.8939 52.8764C96.4307 53.5002 95.9994 54.1561 95.6001 54.8279C95.0731 55.7077 96.4467 56.5235 96.9737 55.6277C99.7848 50.9089 104.848 46.35 110.726 47.7736C116.939 49.2613 121.443 55.8037 124.078 61.1944C127.768 68.7445 128.854 77.2705 129.589 85.5565C129.956 89.7795 130.228 94.0184 130.627 98.2414C130.819 100.289 131.058 102.336 131.346 104.384C131.633 106.431 131.985 108.511 132.831 110.446C134.237 113.646 137.83 116.541 141.472 115.181C145.114 113.822 145.928 108.943 146.791 105.568C148.005 100.833 149.059 95.9699 149.059 91.0591C149.059 86.1483 147.717 81.6054 146.056 77.0945C142.462 67.3849 138.757 57.7072 135.115 48.0136C133.63 44.0625 132.256 39.9035 129.748 36.4484C127.448 33.2811 124.27 31.0737 120.533 29.922C116.795 28.7702 112.722 28.6103 108.809 28.8022C104.896 28.9942 100.711 29.2501 96.83 30.0979C89.7224 31.6495 84.5475 37.2482 82.0878 43.9346C81.7524 44.8463 81.4649 45.7741 81.2412 46.7179C80.9857 47.7096 82.535 48.1415 82.7746 47.1498V47.1018Z" fill="#4D58D8" stroke="#4D58D8" stroke-width="3" stroke-linejoin="round"/>
<path d="M77.1509 31.6499C77.7259 27.6989 79.0516 23.8598 81.3037 20.5326C84.2106 16.2617 88.5869 13.2064 93.4424 11.5428C97.9785 10.0072 102.738 9.68725 107.498 9.54328C110.612 9.4473 113.727 9.43131 116.826 9.20736C119.924 8.98342 122.735 8.32758 125.706 8.13562C137.11 7.44779 141.103 20.4366 145.671 28.3707C146.981 30.6582 148.53 32.7697 150.367 34.6572C152.204 36.5447 154.168 38.1923 155.206 40.5598C156.037 42.4313 156.388 45.4386 154.376 46.7183C153.098 47.5341 151.357 47.5181 149.888 47.4221C146.965 47.2301 143.85 46.4943 141.183 45.2466C136.519 43.0712 132.638 39.424 129.188 35.6809C128.485 34.9291 127.367 36.0489 128.054 36.8167C131.408 40.4638 135.177 43.9829 139.618 46.2704C142.141 47.5661 144.92 48.3499 147.7 48.7818C150.926 49.2776 155.462 49.5176 156.963 45.9185C159.231 40.4958 153.865 36.1768 150.67 32.6897C143.531 24.9156 142.221 11.7667 131.488 7.43179C128.789 6.34406 125.978 6.40804 123.151 6.82394C119.796 7.30382 116.49 7.67173 113.104 7.7997C107.482 7.99166 101.78 7.84769 96.2695 9.09539C91.3182 10.2151 86.6224 12.4866 82.9648 16.0537C79.3072 19.6208 77.087 24.0838 76.0169 28.8986C75.8412 29.6664 75.6975 30.4502 75.5857 31.234C75.4419 32.2418 76.9752 32.6737 77.119 31.6659L77.1509 31.6499Z" fill="#4D58D8" stroke="#4D58D8" stroke-width="3" stroke-linejoin="round"/>
</svg>
