<svg width="84" height="19" viewBox="0 0 84 19" fill="none" xmlns="http://www.w3.org/2000/svg">
<path d="M74.4685 13.2447C73.6886 11.6357 72.0672 11.3136 71.6336 13.0482C71.5128 13.6764 71.4455 14.4116 71.234 16.0848C71.0775 17.323 70.014 18.2418 68.7659 18.2336C67.268 18.2238 66.1163 16.9018 66.3024 15.4155C66.3427 15.094 66.3837 14.7708 66.4339 14.389C66.7036 12.6754 67.0042 11.5007 67.4961 10.5922C68.4148 8.89548 69.3021 6.94753 68.4834 5.20039C68.3547 4.92575 68.2371 4.67587 68.1279 4.44328C67.532 3.17462 68.0073 1.67992 69.2698 1.07113C70.6267 0.41685 72.2072 1.08033 72.8281 2.45277C73.2937 3.48188 73.8238 4.63741 74.5349 6.16795C74.7878 6.71242 75.3484 7.13471 75.9416 7.22659C76.7973 7.3591 77.4623 6.74645 77.604 5.89228C77.7345 5.10581 77.856 4.19955 77.9432 3.31655C78.0802 1.92966 79.2188 0.784855 80.6124 0.784855C82.0044 0.784855 83.1079 1.92608 82.9251 3.30603C82.6646 5.2724 82.2223 7.43689 81.8694 8.14286C81.677 8.59168 80.2275 9.57478 79.4003 9.82896C79.3674 9.83906 79.3433 9.84427 79.3091 9.84806C78.8391 9.90007 78.5223 10.4068 78.7346 10.8293L80.7389 14.8188C81.3227 15.9809 81.3054 17.0507 80.1509 17.6491C78.7143 18.3938 76.7243 17.8982 76.0185 16.4422L74.4685 13.2447Z" fill="#FFFCE5"/>
<path d="M58.3943 18.1788C56.9291 18.1788 55.7964 16.8933 55.9808 15.4398L57.1448 6.26742C57.2104 5.75096 56.8079 5.29416 56.2873 5.29416C54.6505 5.29416 52.9869 5.25376 51.4863 5.18161C50.2172 5.12059 49.296 3.97878 49.4607 2.71894C49.6057 1.61038 50.5503 0.78125 51.6683 0.78125H63.2139C64.4783 0.78125 65.4505 1.89946 65.2747 3.15156L65.2666 3.20932C65.1559 3.99808 64.7347 4.61947 63.9516 4.76477C63.028 4.93614 62.1222 5.6655 62.0042 6.5974L60.8078 16.0515C60.6539 17.2673 59.6198 18.1788 58.3943 18.1788Z" fill="#FFFCE5"/>
<path d="M42.6002 18.7079C41.4548 18.7079 40.1236 18.5079 38.8334 18.1741C37.7367 17.8903 37.1796 16.7191 37.5242 15.64L37.5505 15.5576C37.8862 14.5063 39.7814 14.1547 40.8441 14.4525C41.6319 14.6734 41.4696 14.0363 41.6123 13.2307C42.0209 10.9255 42.3386 8.24281 42.3386 7.2621C42.3386 5.92131 41.4556 5.13646 40.0494 5.13646C39.0755 5.13646 38.2133 5.76628 37.9171 6.69414L34.7741 16.5406C34.4491 17.5588 33.5029 18.2501 32.434 18.2501C30.7488 18.2501 29.564 16.5919 30.11 14.9976L32.883 6.90144C33.1738 6.0523 32.5428 5.16916 31.6452 5.16916C30.9226 5.16916 30.3369 4.58339 30.3369 3.86081V3.08146C30.3369 1.98998 31.1777 1.08186 32.2663 1.00184C34.9292 0.806079 37.2972 0.65625 38.9376 0.65625H41.1613C45.151 0.65625 47.3093 2.61838 47.3093 6.21563C47.3093 8.10119 46.7728 11.9752 46.2039 14.8448C45.8186 16.7886 44.5818 18.7079 42.6002 18.7079Z" fill="#FFFCE5"/>
<path d="M23.2228 18.7079C22.0773 18.7079 20.7462 18.5079 19.4559 18.1741C18.3593 17.8903 17.8022 16.7191 18.1468 15.64L18.1731 15.5576C18.5088 14.5063 20.4039 14.1547 21.4666 14.4525C22.2544 14.6734 22.0921 14.0363 22.2349 13.2307C22.6435 10.9255 22.9612 8.24281 22.9612 7.2621C22.9612 5.92131 22.0782 5.13646 20.672 5.13646C19.698 5.13646 18.8359 5.76628 18.5397 6.69414L15.3967 16.5406C15.0716 17.5588 14.1254 18.2501 13.0565 18.2501C11.3714 18.2501 10.1866 16.5919 10.7326 14.9976L13.5056 6.90143C13.7964 6.0523 13.1653 5.16916 12.2678 5.16916C11.5452 5.16916 10.9594 4.58339 10.9594 3.86081V3.08146C10.9594 1.98998 11.8003 1.08186 12.8888 1.00184C15.5517 0.806079 17.9198 0.65625 19.5601 0.65625H21.7839C25.7736 0.65625 27.9319 2.61838 27.9319 6.21563C27.9319 8.10119 27.3953 11.9752 26.8265 14.8448C26.4412 16.7886 25.2044 18.7079 23.2228 18.7079Z" fill="#FFFCE5"/>
<path d="M5.73073 12.0635C4.23532 12.0635 3.08024 10.7496 3.27183 9.26653L3.54994 7.11375C3.67907 6.11424 2.90061 5.22875 1.89279 5.22875C0.887735 5.22875 0.11011 4.34787 0.234772 3.35058L0.312447 2.72918C0.451551 1.61635 1.39754 0.78125 2.51903 0.78125H4.40338C7.02926 0.78125 9.05888 3.08616 8.72667 5.69094L8.19014 9.89785C8.03225 11.1359 6.97876 12.0635 5.73073 12.0635Z" fill="#FFFCE5"/>
</svg>
