<svg width="109" height="150" viewBox="0 0 109 150" fill="none" xmlns="http://www.w3.org/2000/svg">
<g clip-path="url(#clip0_1309_4734)">
<path d="M36.7365 9.13895C36.2106 8.16338 36.6111 6.88143 36.065 5.91795C35.8263 5.50273 35.4339 5.19636 35.1467 4.80935C34.7664 4.30544 34.5722 3.68059 34.2567 3.13637C33.2129 1.34648 30.9637 0.608755 28.8843 0.532161C28.1642 0.503942 27.4239 0.544255 26.7726 0.846601C26.3883 1.02398 26.0525 1.28601 25.6682 1.46339C24.8268 1.85442 23.8559 1.80605 22.9254 1.8262C21.1454 1.86248 19.3735 2.18499 17.6947 2.77759C17.1324 2.97512 16.5701 3.20893 16.117 3.59594C15.6922 3.95875 15.3767 4.43847 15.138 4.94238C14.5837 6.11146 14.4017 7.45387 14.6202 8.72776C14.7051 9.21554 14.8467 9.70333 14.8427 10.1992C14.8305 11.59 13.718 12.6824 13.0708 13.916C12.0756 15.8148 12.2374 18.2617 13.4753 20.0113C14.7132 21.7609 16.9746 22.7365 19.1025 22.4341C19.5758 22.3696 20.041 22.2446 20.5184 22.2406C21.0362 22.2366 21.5459 22.3737 22.0516 22.4986C25.025 23.2565 28.4636 23.6677 30.9192 21.8294C32.4079 20.7128 33.2574 18.9511 34.5924 17.6571C35.7292 16.5565 37.2826 15.6978 37.7115 14.174C38.2171 12.3761 36.8943 10.6023 36.6758 8.74792" fill="#4D58D8"/>
<path d="M37.1734 8.88497C36.8822 8.29237 36.9428 7.60705 36.87 6.96608C36.7932 6.28479 36.5909 5.70428 36.1419 5.17619C35.9234 4.92222 35.6726 4.69646 35.4824 4.41831C35.2923 4.14015 35.1507 3.81361 35.001 3.5032C34.7179 2.90657 34.3861 2.35832 33.9088 1.89069C33.0552 1.05622 31.9184 0.544243 30.7614 0.278178C29.6044 0.0121132 28.144 -0.149138 26.9628 0.233834C26.2791 0.459586 25.733 0.959465 25.0412 1.157C24.2928 1.36662 23.4958 1.30212 22.7272 1.32631C21.1576 1.37872 19.592 1.64075 18.0952 2.10838C16.8088 2.51151 15.6477 3.04364 14.9317 4.24093C14.2156 5.43822 13.9041 6.96608 14.0579 8.37702C14.1347 9.0825 14.4179 9.80007 14.3046 10.5176C14.1995 11.1828 13.8151 11.7714 13.4551 12.3277C12.731 13.4403 12.1161 14.5046 11.9542 15.847C11.6508 18.3665 12.8685 20.87 15.0894 22.1277C16.1574 22.7365 17.4156 23.0549 18.6494 22.9824C19.3371 22.942 20.0127 22.7082 20.7045 22.7485C21.3963 22.7889 22.1406 23.0549 22.8445 23.2081C25.3487 23.7523 28.1845 23.9982 30.5066 22.6921C31.7566 21.9907 32.6304 20.87 33.48 19.7452C33.9371 19.1446 34.3942 18.5399 34.9404 18.0158C35.4299 17.5401 35.98 17.1249 36.4938 16.6774C37.5294 15.7704 38.3547 14.6658 38.3183 13.2307C38.2778 11.6585 37.3757 10.2879 37.1694 8.75193C37.0844 8.11902 36.0731 8.11096 36.158 8.75193C36.332 10.0258 36.9024 11.1707 37.1937 12.4123C37.4849 13.654 37.137 14.6416 36.2592 15.5205C35.4703 16.3066 34.5318 16.9314 33.7874 17.7619C32.9702 18.6729 32.323 19.7251 31.4896 20.62C29.7582 22.4785 27.335 22.8251 24.9077 22.543C23.6577 22.3978 22.4683 21.9987 21.2304 21.7972C19.9925 21.5956 18.7303 22.1277 17.4479 21.91C15.0894 21.5069 13.2245 19.6364 12.9575 17.2499C12.82 16.0203 13.0991 14.819 13.7342 13.7588C14.3087 12.8074 15.0733 11.9044 15.2836 10.7797C15.4009 10.1548 15.2958 9.56625 15.1744 8.9535C15.0288 8.22383 14.9802 7.48611 15.0975 6.74839C15.2998 5.49063 15.8621 4.19255 17.0393 3.58383C18.2894 2.93882 19.8186 2.62438 21.2061 2.45104C22.5047 2.28576 23.864 2.4591 25.1423 2.16482C25.9191 1.98744 26.4935 1.44322 27.2338 1.20134C27.9741 0.959465 28.7306 1.00381 29.4629 1.07234C30.6643 1.18925 31.9225 1.55206 32.8772 2.31398C33.9452 3.16861 34.196 4.53924 35.0981 5.52691C35.3449 5.797 35.6038 6.05097 35.7333 6.4017C35.8546 6.73226 35.8749 7.08701 35.8991 7.43774C35.9436 8.11902 35.9962 8.76403 36.2996 9.38888C36.5828 9.97341 37.4566 9.46144 37.1734 8.88093V8.88497Z" fill="#4D58D8"/>
<path d="M87.3043 24.7964C84.3067 24.4658 81.2079 26.3645 80.148 29.1784C79.9538 29.6944 79.8203 30.2346 79.5897 30.7345C78.995 32.0204 77.8057 32.9355 77.1098 34.1691C76.4302 35.3745 76.2724 36.862 76.681 38.1843C77.0896 39.5065 78.0686 40.6434 79.3146 41.2521C79.9295 41.5544 80.6011 41.7318 81.1795 42.0986C81.758 42.4655 82.199 43.0017 82.6764 43.4894C84.4361 45.2914 86.7784 46.5169 89.2664 46.9442C90.3708 47.1337 91.5439 47.1619 92.5796 46.7346C93.866 46.2025 94.7803 45.0415 95.9858 44.3441C97.5352 43.4451 99.4285 43.3806 101.103 42.7356C101.933 42.4171 102.725 41.9334 103.231 41.2077C104.036 40.0548 103.984 38.531 103.866 37.1321C103.789 36.221 103.692 35.2858 103.304 34.4553C102.802 33.383 101.868 32.5848 101.18 31.6254C100.242 30.3152 99.7642 28.7108 98.7569 27.449C97.4543 25.8203 95.3871 24.9415 93.3199 24.6553C91.2527 24.3691 89.145 24.6069 87.0697 24.8448" fill="#4D58D8"/>
<path d="M87.3044 24.2925C84.9378 24.0587 82.5065 25.0867 80.9571 26.8766C80.1237 27.8401 79.7354 28.9083 79.3065 30.0895C78.8373 31.3836 77.7895 32.2866 77.0087 33.3871C75.4715 35.564 75.6495 38.5592 77.478 40.5144C77.8906 40.9538 78.3842 41.3368 78.9182 41.619C79.5169 41.9375 80.1844 42.1068 80.771 42.4494C81.3576 42.7921 81.8268 43.3565 82.3123 43.8523C82.7978 44.3482 83.3358 44.8077 83.9021 45.2189C85.9855 46.7427 88.8942 47.8796 91.5156 47.5288C92.9356 47.3394 93.9672 46.5371 95.0352 45.6543C95.5044 45.2673 95.9818 44.9004 96.5279 44.6263C97.1873 44.2957 97.9115 44.1063 98.6235 43.937C99.9382 43.6225 101.326 43.3686 102.471 42.6107C103.551 41.8931 104.178 40.8369 104.356 39.563C104.534 38.2891 104.421 36.7693 104.145 35.4672C103.87 34.1651 103.098 33.1654 102.236 32.1576C101.196 30.9441 100.63 29.5292 99.833 28.1626C99.113 26.929 98.1097 25.9373 96.8475 25.26C93.8296 23.6395 90.3344 23.966 87.0576 24.3409C86.4184 24.4135 86.4103 25.4213 87.0576 25.3487C89.7963 25.0343 92.6645 24.7037 95.3143 25.6672C96.4025 26.0663 97.4179 26.6952 98.1906 27.5659C99.0078 28.4891 99.469 29.6662 100.043 30.7426C100.618 31.8189 101.451 32.7058 102.212 33.6814C103.053 34.7618 103.264 35.9631 103.369 37.2934C103.462 38.4625 103.535 39.7847 102.879 40.8208C102.224 41.8568 100.974 42.3043 99.8371 42.6066C98.7003 42.909 97.4422 43.1106 96.3216 43.6104C95.201 44.1103 94.3151 45.0456 93.2916 45.7591C91.1637 47.2386 88.2389 46.4646 86.0948 45.3761C85.0066 44.8238 84.0114 44.1103 83.1457 43.2516C82.7007 42.8122 82.3002 42.3285 81.8107 41.9415C81.3212 41.5545 80.7427 41.3086 80.152 41.0707C79.0031 40.6112 78.0565 39.8896 77.4699 38.781C76.8833 37.6724 76.8146 36.3864 77.1948 35.2173C77.6156 33.9192 78.6795 33.0082 79.4603 31.9278C80.241 30.8474 80.4231 29.4364 81.1513 28.2875C82.4498 26.2437 84.8892 25.0625 87.2963 25.3003C87.9435 25.3648 87.9395 24.357 87.2963 24.2925H87.3044Z" fill="#4D58D8"/>
<path d="M96.3581 54.8214C95.4478 54.9101 94.4729 55.031 93.7973 55.6438C93.4494 55.9623 93.2148 56.3815 92.9033 56.7363C91.4388 58.3931 88.6394 58.1996 87.0778 59.7638C86.6328 60.2112 86.3173 60.7716 86.026 61.3319C85.1522 62.9969 84.3714 64.9883 85.1482 66.6976C85.759 68.04 87.2032 68.8664 87.7939 70.2169C88.1863 71.1118 88.162 72.1438 88.5261 73.0509C88.8214 73.7805 89.3676 74.4054 90.0553 74.7924C90.3789 74.9738 90.7349 75.1068 91.0424 75.3165C91.366 75.5342 91.6249 75.8284 91.904 76.1026C93.4413 77.6224 95.8402 78.5818 97.7982 77.6546C98.3363 77.4006 98.8055 77.0217 99.3598 76.808C100.375 76.421 101.593 76.6307 102.519 76.0582C103.567 75.4132 103.854 74.0224 104.675 73.1073C105.319 72.3857 106.257 71.9987 106.981 71.3577C108.765 69.7775 108.879 66.9112 107.831 64.7747C107.345 63.787 106.646 62.88 106.427 61.8036C106.184 60.6103 106.561 59.3082 106.063 58.1996C105.391 56.7081 103.531 56.2807 102.046 55.5753C101.132 55.1399 100.29 54.5352 99.3233 54.2208C98.3565 53.9063 97.1793 53.9426 96.4673 54.6642" fill="#4D58D8"/>
<path d="M96.3581 54.3175C95.0635 54.4465 93.8661 54.6803 93.0246 55.7567C92.6646 56.2203 92.3409 56.6597 91.8353 56.9781C91.3296 57.2966 90.7794 57.4982 90.2211 57.6877C89.1936 58.0343 88.1135 58.3286 87.2275 58.9777C86.1272 59.7839 85.5042 61.1102 84.9864 62.3357C84.4685 63.5612 84.0923 65.0125 84.4847 66.3589C84.8286 67.5401 85.7307 68.3585 86.5236 69.2453C86.9443 69.717 87.3003 70.2209 87.4783 70.8337C87.6887 71.5512 87.7251 72.3132 87.9759 73.0186C88.1822 73.6032 88.5059 74.1353 88.9468 74.5747C89.4485 75.0746 90.0593 75.3003 90.654 75.6631C91.2082 76.0018 91.6087 76.5541 92.1144 76.9612C92.5877 77.3442 93.1015 77.6748 93.6557 77.9287C94.7682 78.4407 96.0263 78.6826 97.2319 78.3843C97.8751 78.223 98.4131 77.8804 98.9795 77.5538C99.6672 77.1588 100.363 77.0822 101.136 76.9773C102.414 76.808 103.304 76.2799 103.976 75.1794C104.275 74.6876 104.51 74.1554 104.845 73.6878C105.266 73.1113 105.873 72.7526 106.455 72.3615C107.475 71.6802 108.244 70.8458 108.664 69.6767C109.045 68.6245 109.073 67.4675 108.879 66.371C108.652 65.0851 107.977 64.049 107.382 62.9122C106.985 62.1543 106.836 61.4247 106.836 60.5741C106.836 59.7839 106.884 58.9696 106.609 58.2117C106.176 57.0144 105.092 56.3372 103.976 55.8454C103.365 55.5753 102.734 55.3455 102.135 55.0472C101.399 54.6803 100.711 54.2288 99.9544 53.9103C98.6923 53.3782 97.1671 53.2976 96.1072 54.2893C95.6339 54.7327 96.35 55.4463 96.8233 55.0028C97.7254 54.1563 99.0847 54.5674 100.052 55.0633C101.103 55.5994 102.111 56.1437 103.199 56.5992C104.109 56.9822 105.173 57.4417 105.602 58.4012C106.12 59.5622 105.667 60.949 105.998 62.1664C106.31 63.3194 107.099 64.2506 107.544 65.3431C107.936 66.3025 108.094 67.3789 107.948 68.4028C107.803 69.4267 107.329 70.4184 106.504 71.0957C105.598 71.8375 104.57 72.289 103.899 73.2968C103.328 74.1514 102.993 75.3608 101.957 75.772C101.443 75.9776 100.869 75.9977 100.323 76.0703C99.651 76.163 99.0644 76.3404 98.4779 76.679C97.9884 76.9612 97.5272 77.2676 96.973 77.4087C96.4187 77.5498 95.7796 77.5337 95.2011 77.4006C94.0886 77.1426 93.0813 76.5339 92.2722 75.7397C91.8838 75.3608 91.5157 74.9778 91.0343 74.7158C90.4477 74.3973 89.8935 74.1635 89.4606 73.6314C88.6353 72.6155 88.781 71.2408 88.2955 70.0798C87.8748 69.072 87.0495 68.3544 86.3456 67.5482C85.5001 66.5807 85.1805 65.4801 85.4475 64.2143C85.5932 63.5169 85.8561 62.8477 86.1636 62.2027C86.471 61.5577 86.8028 60.8562 87.272 60.308C88.0285 59.4292 89.1774 59.0986 90.2414 58.7479C91.3053 58.3972 92.3976 58.0102 93.1824 57.1918C93.6112 56.7443 93.8863 56.1477 94.4243 55.8131C94.9947 55.4584 95.7189 55.3939 96.3702 55.3294C97.0215 55.2649 97.0175 54.257 96.3702 54.3215L96.3581 54.3175Z" fill="#4D58D8"/>
<path d="M14.8063 47.8191C13.1396 46.9564 11.4284 46.0776 9.56344 45.8478C7.69849 45.618 5.61914 46.1662 4.52283 47.686C3.57216 48.9962 3.51957 50.7297 3.00175 52.2656C2.45562 53.8902 1.37549 55.2971 0.817222 56.9217C0.258953 58.5463 0.392452 60.6385 1.82049 61.594C2.75498 62.2188 4.04952 62.2269 4.85051 63.013C5.44924 63.5975 5.62319 64.4723 5.91851 65.2503C7.06336 68.294 10.5748 70.2451 13.7747 69.6162C15.0854 69.3582 16.3638 68.7213 17.6867 68.9027C18.8801 69.068 19.948 69.8863 21.1536 69.8541C22.3268 69.8218 23.326 68.9752 23.9975 68.0158C24.6691 67.0564 25.1181 65.9558 25.8099 65.0125C26.1901 64.4965 26.6473 64.0168 26.89 63.4242C27.0801 62.9606 27.1246 62.4486 27.1691 61.9487C27.335 60.0742 27.5009 58.1956 27.6667 56.321C27.7193 55.7446 27.7679 55.152 27.606 54.5957C27.4321 53.991 27.0275 53.479 26.6311 52.9872C25.7613 51.9108 24.8309 50.7942 23.5444 50.2741C22.8243 49.9839 22.0355 49.8992 21.2911 49.6694C19.0864 48.9881 17.0151 47.0007 14.8225 47.7223" fill="#4D58D8"/>
<path d="M15.0611 47.3837C12.5085 46.0614 9.616 44.6626 6.69116 45.6019C5.44517 46.001 4.36099 46.8072 3.75013 47.9763C3.08264 49.2502 2.9815 50.7055 2.54055 52.0519C1.67483 54.7005 -0.606792 56.9781 0.157793 59.9653C0.473337 61.1908 1.30669 62.0213 2.47582 62.4647C3.09073 62.6945 3.78654 62.8195 4.32458 63.2186C4.89499 63.6459 5.08108 64.3675 5.29953 65.0085C6.11266 67.399 8.04233 69.2252 10.4817 69.9347C11.6873 70.2854 12.9575 70.3217 14.1792 70.0395C14.9802 69.8541 15.757 69.5517 16.5701 69.4227C17.3832 69.2937 18.079 69.4671 18.8194 69.7533C20.1624 70.2693 21.4327 70.6563 22.7677 69.8783C24.1027 69.1002 24.7378 67.8425 25.4215 66.6049C25.8018 65.9195 26.2265 65.2947 26.7039 64.6739C27.1813 64.053 27.4725 63.4846 27.5858 62.7429C27.8407 61.1062 27.9013 59.4211 28.047 57.7683C28.1157 56.9701 28.2452 56.1558 28.225 55.3535C28.2047 54.5513 27.9499 53.8982 27.4968 53.2694C26.6958 52.1487 25.7451 50.9877 24.576 50.2298C23.3098 49.4114 21.7402 49.3913 20.389 48.7584C19.143 48.1738 17.9334 47.3595 16.5539 47.1217C15.9269 47.0128 15.3079 47.041 14.6971 47.2224C14.0862 47.4038 14.3411 48.3835 14.9641 48.194C16.1898 47.8231 17.363 48.3552 18.4431 48.9035C19.6163 49.4961 20.7409 50.0685 22.0314 50.3628C22.7232 50.52 23.3907 50.6773 23.9975 51.0562C24.5477 51.3989 25.0169 51.8624 25.4458 52.3422C25.8746 52.8219 26.3479 53.3621 26.7201 53.9144C27.157 54.5634 27.2419 55.1883 27.1893 55.9582C27.0842 57.4982 26.9183 59.0381 26.7848 60.574C26.7201 61.3077 26.716 62.0777 26.5502 62.7953C26.3964 63.4605 25.9757 63.9563 25.5712 64.4844C24.1189 66.363 23.1277 70.1685 20.0168 69.1244C19.4423 68.9309 18.8922 68.6608 18.3056 68.5036C17.5815 68.3101 16.8533 68.3302 16.1251 68.4713C14.8144 68.7253 13.6169 69.2695 12.2577 69.2091C10.0327 69.1083 7.86433 67.7981 6.76802 65.8631C6.19357 64.8472 6.09244 63.5693 5.26312 62.6985C4.43381 61.8278 3.18377 61.8197 2.20073 61.2231C1.2177 60.6265 0.962834 59.4534 1.02756 58.3931C1.10847 57.0709 1.78001 55.8978 2.39491 54.7569C2.77923 54.0393 3.15546 53.3177 3.43459 52.5518C3.67732 51.8826 3.81891 51.1812 3.97668 50.4878C4.29627 49.093 4.73317 47.7465 6.03985 46.9765C8.80692 45.3398 12.0271 46.9322 14.5555 48.2424C15.134 48.5407 15.6437 47.6699 15.0652 47.3716L15.0611 47.3837Z" fill="#4D58D8"/>
<path d="M12.4356 78.1948C11.5821 79.5292 9.53911 79.4969 8.40639 80.6096C7.91285 81.0933 7.63776 81.7504 7.45976 82.4156C6.91768 84.4231 7.23727 86.7331 8.6208 88.2891C9.16693 88.9019 9.86275 89.3937 10.2956 90.0911C10.6476 90.6555 10.8053 91.3166 11.1047 91.9133C12.0554 93.7959 14.5716 94.711 16.5175 93.8805C17.0798 93.6387 17.5855 93.2799 18.1397 93.0299C19.6972 92.3285 21.5824 92.5059 23.0508 91.627C23.597 91.3005 24.0582 90.8409 24.3818 90.2927C24.7297 89.7082 24.9158 89.043 25.0938 88.3859C25.2961 87.6522 25.5024 86.8943 25.3931 86.1405C25.3041 85.5277 25.0129 84.9512 24.9805 84.3345C24.9562 83.883 25.0736 83.4395 25.1868 83.0001C25.4376 82.0205 25.6682 81.0127 25.559 80.0049C25.4498 78.997 24.9481 77.9812 24.0501 77.5055C23.1479 77.0257 22.0273 77.1709 21.0888 76.7718C20.6721 76.5944 20.308 76.3203 19.9075 76.1187C18.6737 75.4979 17.1728 75.6148 15.8864 76.1187C14.5999 76.6226 13.4834 77.4652 12.3871 78.2996" fill="#4D58D8"/>
<path d="M11.9988 77.9408C11.5214 78.6382 10.6476 78.8962 9.89918 79.1945C9.09009 79.517 8.30528 79.8839 7.75915 80.5893C6.61025 82.0809 6.47675 84.411 6.95006 86.1727C7.19279 87.0837 7.63779 87.9343 8.26483 88.6438C8.61273 89.0349 9.01323 89.3695 9.37732 89.7444C9.78995 90.1717 10.0529 90.6474 10.2673 91.1997C10.6112 92.0866 11.0076 92.8847 11.752 93.5056C12.4033 94.0458 13.1881 94.4328 14.0215 94.59C14.8548 94.7472 15.7327 94.7109 16.5296 94.4086C17.0151 94.2231 17.456 93.953 17.9091 93.7031C18.4269 93.4209 18.9609 93.2314 19.5394 93.1024C20.5832 92.8646 21.6673 92.7799 22.6665 92.3687C23.6658 91.9576 24.4182 91.2964 24.9118 90.3894C25.4053 89.4823 25.7411 88.2689 25.8867 87.2087C25.9595 86.6887 25.9474 86.1807 25.826 85.6688C25.6885 85.0923 25.4417 84.5481 25.5064 83.9434C25.5712 83.3387 25.7815 82.7824 25.9029 82.2019C26.0243 81.6213 26.1173 80.9884 26.1011 80.3757C26.0728 79.4122 25.7775 78.4649 25.1383 77.7231C24.3616 76.8201 23.2653 76.7233 22.1649 76.5298C20.9715 76.3242 20.0856 75.4494 18.88 75.2559C16.295 74.8407 14.0862 76.3726 12.1403 77.8521C11.6306 78.2391 12.1323 79.1179 12.6501 78.7229C14.2157 77.5336 15.943 76.1993 18.0103 76.1912C18.4917 76.1912 18.9731 76.2638 19.4221 76.4371C19.8995 76.6226 20.304 76.9491 20.7692 77.1627C21.6107 77.5538 22.5371 77.5135 23.4109 77.7755C25.5509 78.4205 25.1464 81.1295 24.7338 82.7662C24.6043 83.2742 24.4627 83.7982 24.487 84.3263C24.5072 84.798 24.6609 85.2414 24.7864 85.6889C25.0898 86.7572 24.7702 87.7852 24.4587 88.8172C24.1674 89.7807 23.7022 90.6474 22.8081 91.1795C21.991 91.6673 21.016 91.8003 20.0937 91.9656C19.1713 92.1309 18.253 92.3647 17.4034 92.8283C16.6105 93.2637 15.8905 93.6749 14.96 93.6709C13.3095 93.6628 11.934 92.659 11.3353 91.1553C10.9793 90.2684 10.6152 89.5307 9.92345 88.8494C9.23169 88.1681 8.63296 87.6159 8.24056 86.7653C7.84815 85.9147 7.68229 84.8827 7.73488 83.9111C7.78747 82.9396 8.00592 81.8068 8.66128 81.0691C9.23978 80.4241 10.1379 80.1822 10.9105 79.8637C11.6832 79.5452 12.3912 79.1502 12.8766 78.4407C13.2447 77.9045 12.3669 77.3966 12.0028 77.9327L11.9988 77.9408Z" fill="#4D58D8"/>
<path d="M79.9174 113.948C78.9667 112.944 78.55 111.517 78.6026 110.139C78.6552 108.76 79.1366 107.43 79.7879 106.212C80.6011 104.701 81.758 103.282 83.3479 102.624C84.7476 102.048 86.3132 102.12 87.8181 101.939C90.213 101.653 92.7131 100.722 94.9542 101.609C95.5004 101.826 96.002 102.141 96.5319 102.391C97.2682 102.737 98.0571 102.959 98.7772 103.334C100.27 104.112 101.391 105.559 101.767 107.192C102.009 108.24 101.965 109.373 102.454 110.332C102.669 110.751 102.976 111.114 103.191 111.534C103.882 112.888 103.47 114.541 102.851 115.928C102.548 116.609 102.167 117.298 101.532 117.697C101.188 117.915 100.788 118.028 100.412 118.181C98.7974 118.838 97.604 120.201 96.4146 121.467C95.7229 122.204 94.9826 122.946 94.04 123.325C93.4089 123.579 92.7252 123.656 92.0496 123.696C91.2972 123.74 90.5285 123.736 89.8206 123.482C89.234 123.273 88.7202 122.902 88.1781 122.595C87.4055 122.16 86.5559 121.858 85.6821 121.7C84.0801 121.418 82.3204 121.604 80.9409 120.741C79.7596 120.003 79.0962 118.52 79.3389 117.153C79.5331 116.061 80.2329 114.932 79.7556 113.932" fill="#4D58D8"/>
<path d="M80.2774 113.589C78.5419 111.687 78.9991 108.897 80.063 106.785C80.5687 105.785 81.1917 104.829 82.0251 104.072C82.9434 103.237 84.0518 102.822 85.2735 102.669C86.4952 102.516 87.7857 102.483 89.0358 102.262C90.2858 102.04 91.5763 101.729 92.8749 101.737C93.51 101.742 94.1371 101.834 94.7358 102.064C95.3345 102.294 95.8685 102.649 96.447 102.907C97.5676 103.41 98.7408 103.721 99.6631 104.571C100.464 105.313 101.03 106.269 101.277 107.329C101.544 108.482 101.5 109.683 102.103 110.743C102.414 111.292 102.806 111.743 102.96 112.368C103.102 112.961 103.053 113.585 102.92 114.174C102.685 115.21 102.22 116.649 101.277 117.266C100.784 117.588 100.165 117.713 99.6429 117.988C99.1493 118.246 98.6963 118.572 98.2674 118.923C97.3734 119.653 96.621 120.531 95.824 121.362C94.9057 122.317 93.955 123.011 92.6038 123.156C91.9889 123.22 91.3417 123.261 90.7268 123.184C90.1119 123.107 89.5617 122.841 89.0155 122.515C87.8141 121.793 86.5923 121.305 85.1926 121.132C83.9385 120.975 82.5469 121.051 81.4021 120.435C80.3745 119.882 79.7394 118.749 79.796 117.588C79.8567 116.294 80.7872 115.117 80.241 113.807C79.9943 113.215 79.0153 113.477 79.2661 114.073C79.5452 114.742 79.3187 115.383 79.1123 116.04C78.9263 116.641 78.7563 117.242 78.7806 117.875C78.8251 118.979 79.3308 120.08 80.1722 120.805C81.1229 121.624 82.3366 121.862 83.5461 121.983C84.9539 122.124 86.3132 122.216 87.6037 122.869C88.166 123.152 88.6757 123.527 89.2461 123.793C89.857 124.079 90.5043 124.2 91.1758 124.224C92.5553 124.268 94.0238 124.087 95.1727 123.281C96.2164 122.547 97.0093 121.535 97.8993 120.636C98.3443 120.185 98.8095 119.741 99.3273 119.37C99.9139 118.951 100.533 118.689 101.196 118.419C102.398 117.931 103.001 116.907 103.466 115.754C103.931 114.601 104.275 113.142 103.862 111.864C103.664 111.255 103.28 110.784 102.968 110.235C102.616 109.615 102.527 108.901 102.434 108.204C102.264 106.942 101.941 105.785 101.168 104.749C100.448 103.785 99.5053 103.076 98.3969 102.608C97.697 102.314 96.985 102.068 96.3095 101.713C95.6946 101.391 95.0837 101.068 94.4041 100.903C93.0529 100.576 91.6572 100.762 90.306 101C88.8618 101.254 87.454 101.463 85.9936 101.58C84.5332 101.697 83.093 101.975 81.8835 102.874C80.7548 103.713 79.9093 104.874 79.2661 106.107C77.927 108.679 77.4456 111.977 79.5573 114.295C79.9942 114.775 80.7103 114.061 80.2734 113.581L80.2774 113.589Z" fill="#4D58D8"/>
<path d="M37.2988 10.5056C40.2479 10.8402 42.7521 13.0937 44.7181 15.1456C46.6842 17.1975 48.3793 19.6405 49.7385 22.1923C52.7928 27.9167 54.2694 34.2982 55.3657 40.6394C56.0251 44.449 56.5915 48.2787 57.1902 52.1004C57.2549 52.5236 57.9305 52.5922 58.1126 52.2213C59.0066 50.4193 60.1515 48.8431 61.4339 47.3031C62.0204 46.5977 62.603 45.872 62.9833 45.0335C63.3635 44.195 63.4889 43.2033 63.8571 42.3245C64.5165 40.7402 66.2762 40.0186 67.5384 38.9947C69.0028 37.8014 69.9535 36.0962 71.6202 35.1367C73.3962 34.1168 75.5079 33.8548 77.5104 33.6129C78.1496 33.5363 78.1577 32.5285 77.5104 32.6051C75.6535 32.8308 73.7684 33.0687 72.0369 33.8104C71.1712 34.1813 70.3783 34.6812 69.6825 35.3181C68.9867 35.9551 68.3637 36.7613 67.6881 37.4708C66.4664 38.7487 64.7268 39.4381 63.6103 40.8128C62.9873 41.5787 62.7284 42.4696 62.4776 43.4008C62.2106 44.3966 61.7858 45.2472 61.1547 46.0615C60.4832 46.9242 59.7469 47.7264 59.1037 48.6133C58.3957 49.5929 57.7808 50.6289 57.2428 51.7134L58.1651 51.8343C57.0729 44.8682 56.2152 37.7893 54.2815 30.9926C52.6027 25.0948 49.9732 19.3381 45.77 14.7908C43.5328 12.3721 40.7051 9.88476 37.2988 9.49373C36.6516 9.42116 36.6597 10.429 37.2988 10.5015V10.5056Z" fill="#4D58D8"/>
<path d="M31.9832 21.0595C32.95 21.9302 34.1636 22.3172 35.3813 22.7083C36.599 23.0993 37.7479 23.6475 38.7026 24.5909C39.6573 25.5342 40.3855 26.6226 41.1177 27.7151C41.943 28.9406 42.7683 30.1782 43.4277 31.5045C46.0653 36.8137 45.0175 42.9211 45.5353 48.6173C45.8104 51.6569 46.5022 54.7046 48.2255 57.2765C48.5856 57.8167 49.3947 57.3491 49.0994 56.7686C47.4731 53.5919 44.1639 51.7859 41.1663 50.1008C39.4632 49.1454 37.6751 48.2222 35.7333 47.8594C33.6337 47.4644 31.5098 47.7788 29.4467 48.2343C27.606 48.6415 25.4174 48.9761 24.2766 50.641C23.9085 51.1772 24.7863 51.6811 25.1504 51.149C26.0526 49.8348 27.9944 49.5969 29.4305 49.2704C31.3683 48.831 33.395 48.4641 35.3773 48.8148C37.1532 49.1293 38.7795 49.9315 40.3451 50.7942C41.7893 51.5964 43.2416 52.4067 44.5928 53.3581C46.0734 54.3982 47.3962 55.6559 48.2255 57.2765L49.0994 56.7686C45.8671 51.9391 46.5062 45.868 46.2999 40.3572C46.1907 37.4587 45.8509 34.528 44.6939 31.8391C44.1073 30.4765 43.3306 29.2147 42.5134 27.9812C41.7488 26.8242 40.9842 25.6471 40.0821 24.5909C39.18 23.5347 38.0432 22.6357 36.692 22.1036C35.3409 21.5714 33.8076 21.3457 32.7032 20.35C32.2218 19.9146 31.5058 20.6281 31.9872 21.0635L31.9832 21.0595Z" fill="#4D58D8"/>
<path d="M81.8349 43.0541C80.2329 43.7797 78.3518 43.2919 76.6608 43.5782C74.9698 43.8644 73.9666 44.9851 73.0483 46.3235C72.5709 47.0209 72.0935 47.6941 71.4341 48.2303C70.7747 48.7664 69.9535 49.23 69.3346 49.8791C68.1492 51.1288 67.8944 52.8703 67.0529 54.3175C66.5958 55.1076 65.8919 55.7164 65.4186 56.4944C64.9453 57.2724 64.7511 58.1513 64.5852 59.026C64.4194 59.9008 64.2737 60.7474 63.8854 61.5375C63.497 62.3277 63.0156 62.9727 62.518 63.6459C61.4864 65.0407 60.5924 66.3751 60.3132 68.1166C60.1555 69.0922 59.9249 69.9266 59.4435 70.7974C58.9621 71.6681 58.5454 72.4583 58.2946 73.3895C57.704 75.5745 57.7323 77.9489 57.5785 80.1903C57.4086 82.6695 57.2428 85.1447 57.0729 87.624C57.0405 88.0795 57.6352 88.2609 57.9345 87.9787C58.4402 87.503 58.7153 86.854 59.0187 86.2453C59.3868 85.5075 59.7388 84.7618 60.0827 84.0119C60.734 82.5889 61.3408 81.1457 61.8991 79.6823C62.4047 78.3681 62.7365 77.0378 63.8894 76.1308C64.391 75.7357 64.9412 75.3971 65.3741 74.9295C65.7544 74.5183 66.0335 74.0345 66.2641 73.5266C66.6727 72.6155 66.9113 71.5029 67.6031 70.749C68.481 69.7896 69.9333 70.2854 71.0296 69.7734C72.1259 69.2615 72.668 68.2577 73.4204 67.4393C74.3913 66.3872 75.7546 66.109 77.0856 65.7462C77.9918 65.5003 78.8979 65.2503 79.8082 65.0044C80.7184 64.7585 81.5841 64.4844 82.5226 64.7545C83.2063 64.952 83.8779 65.21 84.5858 64.9561C85.1724 64.7464 85.5446 64.303 85.6012 63.6902C85.6659 63.0452 84.6505 63.0493 84.5899 63.6902C84.5292 64.3312 83.4248 63.9845 83.1214 63.8918C82.3851 63.6661 81.7338 63.5612 80.9652 63.6862C79.4036 63.9402 77.8542 64.4925 76.3291 64.9117C75.0305 65.2665 73.7562 65.6333 72.7974 66.629C72.0814 67.3748 71.515 68.4955 70.5158 68.9067C69.9292 69.1486 69.2617 69.072 68.6428 69.1607C68.0238 69.2494 67.502 69.4671 67.0489 69.8783C66.3167 70.5434 65.9849 71.5351 65.637 72.426C65.4671 72.8614 65.2891 73.2928 65.0464 73.6959C64.7025 74.2683 64.1928 74.6594 63.6629 75.0544C63.1976 75.3971 62.7405 75.7438 62.3805 76.1993C61.9476 76.7476 61.6847 77.3926 61.4419 78.0376C60.8392 79.6461 60.2202 81.2424 59.5244 82.8106C59.1886 83.5645 58.8448 84.3102 58.4847 85.052C58.1247 85.7938 57.8213 86.7048 57.2225 87.2652L58.0842 87.6199C58.2299 85.4753 58.3755 83.3347 58.5211 81.19C58.6668 79.0454 58.6991 77.0177 58.9985 74.9698C59.136 74.0426 59.3585 73.1194 59.7793 72.2769C60.2 71.4343 60.6935 70.7248 60.9767 69.8662C61.2599 69.0075 61.2639 68.0198 61.5673 67.133C61.8222 66.3872 62.2551 65.7139 62.7081 65.077C63.6467 63.7467 64.7309 62.497 65.2042 60.9087C65.459 60.0621 65.544 59.1752 65.7624 58.3206C66.0052 57.3732 66.4866 56.6798 67.1055 55.9381C67.6436 55.2971 68.0643 54.6279 68.392 53.8579C68.7196 53.088 68.9705 52.2898 69.3669 51.5561C70.2003 50 71.9236 49.4034 73.0118 48.0731C74.1405 46.6944 74.8444 44.9488 76.7741 44.5739C78.6431 44.2111 80.5404 44.7351 82.3406 43.9249C82.9312 43.6588 82.4175 42.788 81.8309 43.0541H81.8349Z" fill="#4D58D8"/>
<path d="M25.199 82.601C27.5858 83.7055 30.0413 84.4473 32.5819 85.1084C33.7874 85.4229 34.8352 85.9066 35.7575 86.7532C36.6232 87.5514 37.3433 88.4947 38.0513 89.43C41.0692 93.4209 43.7513 97.7263 45.3897 102.475C46.3889 105.382 47.2425 108.341 48.1568 111.275C48.3024 111.739 49.0023 111.771 49.1317 111.275C49.4189 110.171 49.2248 109.074 48.9335 107.994C48.6179 106.825 48.3226 105.68 48.2053 104.471C47.9788 102.092 48.1204 99.6815 48.1689 97.295C48.2174 94.8883 48.1649 92.4655 48.6624 90.0992C48.9052 88.9583 49.1803 87.7852 49.0427 86.6081C48.9092 85.4954 48.355 84.5158 48.0435 83.4516C47.732 82.3873 47.5944 81.2303 47.6511 80.0975C47.7077 78.9648 47.9666 77.8965 47.9424 76.7838C47.9181 75.6712 47.5783 74.7561 46.935 73.8974C46.2918 73.0388 45.5313 72.3212 45.1308 71.3214C44.7303 70.3217 44.5604 69.1768 44.2408 68.1166C43.9455 67.1329 43.5652 66.1735 43.104 65.2544C42.2019 63.4725 40.9478 61.86 39.3701 60.6184C36.0245 57.99 31.5017 56.9902 27.3673 58.0545C26.7362 58.2157 27.0032 59.1873 27.6343 59.026C31.17 58.119 35.0132 58.8446 38.027 60.8804C39.6533 61.9769 40.9559 63.4645 41.9147 65.1657C42.4163 66.0606 42.8249 67.0039 43.1404 67.9755C43.456 68.947 43.6421 70.0032 43.9536 71.003C44.2651 72.0027 44.7343 72.7888 45.3776 73.5709C46.0208 74.353 46.7004 75.0947 46.8784 76.1308C47.0564 77.1668 46.8177 78.3117 46.7045 79.38C46.5912 80.4483 46.6235 81.5125 46.8096 82.5727C46.9957 83.633 47.4164 84.6045 47.7765 85.6204C48.1891 86.7733 48.092 87.8981 47.8534 89.0792C47.6309 90.1838 47.4003 91.2682 47.3113 92.393C47.2223 93.5177 47.2182 94.6827 47.194 95.8276C47.1414 98.3834 46.9917 100.963 47.1292 103.519C47.198 104.757 47.3558 105.99 47.6673 107.192C47.9788 108.393 48.4925 109.711 48.1568 111.001H49.1317C47.5216 105.837 46.1421 100.585 43.4924 95.8276C42.2383 93.5701 40.7941 91.4214 39.2487 89.3493C37.8814 87.5151 36.4574 85.4995 34.2688 84.5884C32.9298 84.0321 31.4653 83.8144 30.0818 83.3911C28.585 82.9356 27.1286 82.3752 25.7087 81.7221C25.1221 81.4521 24.6083 82.3188 25.199 82.5929V82.601Z" fill="#4D58D8"/>
<path d="M87.8586 72.7808C86.9403 73.1879 85.9208 73.1839 84.9378 73.2081C83.9547 73.2323 83.0688 73.2968 82.1505 73.5104C80.3422 73.9297 78.6593 74.7924 77.1099 75.7881C75.5605 76.7838 74.0192 77.8602 72.6639 79.0776C71.9641 79.7065 71.4746 80.4362 71.155 81.319C70.8354 82.2019 70.5644 83.1089 70.0911 83.9595C69.1404 85.6728 67.9025 87.2087 66.9114 88.9019C65.8717 90.6756 64.9534 92.5179 64.0472 94.3643C63.6224 95.231 63.2098 96.1219 62.9549 97.0572C62.7001 97.9924 62.6272 99.0365 62.3724 100.012C61.9193 101.758 60.7461 103.177 59.8885 104.733C59.4597 105.515 59.0996 106.341 58.9216 107.216C58.7275 108.167 58.7072 109.143 58.7275 110.11C58.7477 111.134 58.8084 112.162 58.7194 113.186C58.6304 114.21 58.3472 115.186 58.0114 116.145C57.3399 118.052 56.5591 119.894 56.0979 121.87C55.6367 123.845 55.3981 125.76 55.3536 127.731C55.3091 129.702 55.479 131.682 55.8431 133.621C55.9321 134.101 56.0372 134.58 56.1546 135.056C56.2597 135.479 56.3366 135.983 56.6319 136.322C57.1416 136.898 58.0195 136.761 58.5252 136.253C59.1199 135.657 59.1482 134.705 59.5891 134.012C59.9977 133.371 60.5803 132.855 61.1547 132.367C61.7292 131.879 62.3279 131.416 62.8578 130.876C63.4606 130.267 63.9056 129.565 64.3101 128.812C64.7471 128.001 65.188 127.26 65.8717 126.631C66.4906 126.062 67.1784 125.574 67.7811 124.986C68.3839 124.397 68.837 123.712 69.1363 122.914C69.4357 122.116 69.5935 121.192 70.1275 120.491C70.6291 119.83 71.3937 119.423 72.0693 118.967C72.7449 118.512 73.3759 117.992 73.7967 117.278C74.2498 116.512 74.4601 115.625 74.9092 114.855C75.3582 114.085 75.9933 113.517 76.7013 113.029C77.4092 112.541 78.1293 112.162 78.8696 111.775C79.4481 111.473 78.9344 110.602 78.3599 110.905C76.9197 111.658 75.431 112.469 74.4237 113.779C73.918 114.436 73.6349 115.186 73.3234 115.944C72.9835 116.766 72.5345 117.407 71.8063 117.927C71.1833 118.367 70.5118 118.737 69.9333 119.241C69.3022 119.786 68.9098 120.479 68.6266 121.253C68.3313 122.067 68.1533 122.93 67.6314 123.643C67.1662 124.28 66.5189 124.772 65.9121 125.268C65.3053 125.764 64.6742 126.324 64.2009 126.997C63.6993 127.707 63.3676 128.521 62.8942 129.247C62.0528 130.529 60.6814 131.327 59.6134 132.399C59.1199 132.895 58.6789 133.456 58.3998 134.097C58.238 134.472 58.1651 134.883 57.9912 135.25C57.9184 135.407 57.7646 135.673 57.5624 135.685C57.3156 135.697 57.2954 135.431 57.2387 135.233C56.7371 133.355 56.4539 131.42 56.3771 129.477C56.2193 125.57 56.9353 121.761 58.3391 118.121C59.043 116.298 59.7024 114.509 59.7671 112.537C59.8319 110.566 59.4839 108.595 60.0989 106.716C60.6248 105.1 61.7453 103.761 62.5382 102.274C62.9509 101.5 63.2705 100.693 63.4485 99.8347C63.6426 98.9075 63.7236 97.9642 64.0027 97.0572C64.5771 95.1947 65.6128 93.425 66.5149 91.7036C67.4251 89.9621 68.4324 88.2891 69.549 86.6685C70.0749 85.9026 70.6008 85.1367 71.0417 84.3183C71.4827 83.5 71.7537 82.6977 72.0369 81.8431C72.3403 80.928 72.8298 80.2467 73.562 79.6259C74.2943 79.0051 75.0224 78.485 75.7627 77.9368C77.2434 76.8524 78.7928 75.8123 80.4959 75.1028C81.2969 74.7682 82.1343 74.5142 82.9919 74.3651C83.9264 74.1998 84.8771 74.2361 85.8197 74.1877C86.7056 74.1474 87.5511 74.0103 88.3643 73.6475C88.9589 73.3855 88.4452 72.5147 87.8545 72.7767L87.8586 72.7808Z" fill="#4D58D8"/>
<path d="M22.1002 92.3527C22.885 93.6991 24.4303 94.0257 25.7936 94.5175C26.5865 94.7997 27.2702 95.1786 27.7799 95.8639C28.2897 96.5492 28.6659 97.3474 29.301 97.9481C30.5713 99.1535 32.4322 99.476 33.5244 100.907C34.4711 102.145 34.8109 103.737 35.1224 105.229C35.4541 106.805 35.7373 108.405 36.4169 109.877C37.2381 111.654 38.7754 112.977 39.2406 114.928C39.7059 116.879 39.5117 119.044 40.3046 120.991C41.053 122.833 42.3111 124.418 43.0514 126.26C44.5887 130.077 44.257 134.298 44.5321 138.317C44.7788 141.941 45.4827 146.162 48.5815 148.508C51.4497 150.681 55.5599 150.286 58.5414 148.565C61.9638 146.594 64.1281 143.163 66.0942 139.861C67.15 138.084 68.307 136.491 69.8402 135.092C71.2319 133.822 72.7489 132.694 74.0839 131.363C74.7393 130.71 75.342 130.009 75.8639 129.247C76.3857 128.485 76.8429 127.614 77.3486 126.812C77.8219 126.058 78.3599 125.337 79.0719 124.792C79.7273 124.288 80.4554 123.893 81.0865 123.365C81.6529 122.89 82.0938 122.297 82.2597 121.567C82.4013 120.934 81.4263 120.664 81.2848 121.301C80.9409 122.813 79.0557 123.418 78.008 124.373C76.6608 125.603 75.961 127.332 74.9415 128.808C72.8217 131.875 69.3346 133.653 67.0489 136.58C65.815 138.164 64.9048 139.962 63.8206 141.643C62.7365 143.324 61.6402 144.775 60.2324 146.065C57.6675 148.412 53.7556 149.927 50.3736 148.412C46.8258 146.819 45.8954 142.506 45.596 139.019C45.2602 135.088 45.592 131.033 44.4471 127.207C43.8888 125.333 42.8572 123.74 41.9268 122.043C41.4535 121.184 41.057 120.302 40.8467 119.338C40.6363 118.375 40.5918 117.339 40.4826 116.335C40.3734 115.331 40.2156 114.408 39.8353 113.505C39.455 112.602 38.8644 111.836 38.3061 111.05C37.315 109.655 36.7891 108.188 36.425 106.531C36.0892 104.999 35.8546 103.427 35.2559 101.971C34.6572 100.516 33.6863 99.3792 32.2906 98.6092C31.5179 98.1859 30.6643 97.8433 30.013 97.2305C29.3617 96.6178 29.0178 95.8075 28.4798 95.1302C27.4927 93.8765 25.9959 93.5782 24.576 93.038C23.9287 92.7921 23.3219 92.4575 22.9659 91.8447C22.6382 91.2844 21.7644 91.7923 22.0921 92.3527H22.1002Z" fill="#4D58D8"/>
</g>
<defs>
<clipPath id="clip0_1309_4734">
<rect width="109" height="150" fill="white"/>
</clipPath>
</defs>
</svg>
