<svg width="12" height="13" viewBox="0 0 12 13" fill="none" xmlns="http://www.w3.org/2000/svg">
<path fill-rule="evenodd" clip-rule="evenodd" d="M3.35748 1.89815C3.74768 1.63249 4.19392 1.44083 4.66911 1.3348C4.64731 1.16717 4.66527 0.997281 4.72178 0.836318C4.7783 0.675355 4.8721 0.526958 4.99703 0.400882C5.12195 0.274806 5.27517 0.173906 5.4466 0.104813C5.61804 0.0357204 5.80382 0 5.99172 0C6.17962 0 6.3654 0.0357204 6.53684 0.104813C6.70827 0.173906 6.86149 0.274806 6.98641 0.400882C7.11134 0.526958 7.20514 0.675355 7.26166 0.836318C7.31818 0.997281 7.33613 1.16717 7.31433 1.3348C7.78975 1.44075 8.23623 1.63241 8.62662 1.89815C9.27644 2.34668 9.65262 2.9477 9.875 3.54753C10.096 4.14258 10.1759 4.76274 10.2146 5.28482C10.2305 5.49712 10.2405 5.70105 10.2485 5.88106L10.2545 6.00246C10.2645 6.21775 10.2751 6.37922 10.2931 6.49763C10.4229 7.37196 10.5847 7.98494 10.8151 8.47533C11.0401 8.95436 11.3411 9.34009 11.7892 9.74257C11.8823 9.8262 11.9456 9.93275 11.9713 10.0487C11.997 10.1647 11.9838 10.285 11.9334 10.3942C11.8831 10.5035 11.7977 10.5969 11.6883 10.6626C11.5788 10.7283 11.4501 10.7634 11.3184 10.7634H7.14522C7.26197 10.9452 7.3234 11.1515 7.32332 11.3614C7.32324 11.5713 7.26166 11.7775 7.14477 11.9592C7.02788 12.141 6.85979 12.2919 6.65739 12.3969C6.45499 12.5018 6.22541 12.557 5.99172 12.557C5.75803 12.557 5.52845 12.5018 5.32605 12.3969C5.12365 12.2919 4.95556 12.141 4.83867 11.9592C4.72178 11.7775 4.6602 11.5713 4.66012 11.3614C4.66004 11.1515 4.72147 10.9452 4.83822 10.7634H0.665658C0.533996 10.7634 0.405298 10.7283 0.295834 10.6626C0.18637 10.5969 0.101054 10.5035 0.0506733 10.3942C0.000292253 10.285 -0.0128926 10.1647 0.0127857 10.0487C0.0384639 9.93275 0.101852 9.8262 0.194937 9.74257C0.643686 9.33949 0.944628 8.95675 1.169 8.47952C1.39804 7.99092 1.55983 7.37794 1.69099 6.49763C1.70897 6.37862 1.71962 6.21775 1.72961 6.00186L1.7356 5.88106C1.74359 5.70165 1.75357 5.49712 1.76889 5.28482C1.80817 4.76274 1.88807 4.14258 2.10844 3.54753C2.33149 2.9477 2.70766 2.34608 3.35748 1.89815ZM2.0432 9.56734C2.17436 9.37238 2.29087 9.16666 2.3954 8.94479C2.69169 8.31506 2.87345 7.58187 3.01127 6.65671C3.03695 6.45668 3.05316 6.25576 3.05987 6.05449L3.06653 5.92531C3.07452 5.7459 3.08318 5.56051 3.09782 5.36496C3.13378 4.87816 3.20435 4.377 3.37213 3.92549C3.53858 3.47876 3.78892 3.10857 4.16843 2.84663C4.54394 2.58769 5.10787 2.39093 5.99205 2.39093C6.87624 2.39093 7.44017 2.58769 7.81568 2.84663C8.19518 3.10857 8.44619 3.47876 8.61197 3.92549C8.77976 4.377 8.85033 4.87816 8.88628 5.36496C8.90093 5.56051 8.90959 5.7459 8.91758 5.92472L8.92423 6.05389C8.93422 6.2632 8.94621 6.4767 8.97284 6.65671C9.10999 7.57649 9.29175 8.30908 9.58804 8.94001C9.69257 9.16307 9.81041 9.37059 9.94224 9.56734H2.04386H2.0432Z" fill="#4D58D8"/>
<path d="M11.3185 10.1666H1.33154L2.66314 3.58823L3.99474 2.39216L5.99214 1.79413L8.65534 2.9902L9.32114 5.98037L11.3185 10.1666Z" fill="#4D58D8"/>
</svg>
