<svg width="149" height="34" viewBox="0 0 149 34" fill="none" xmlns="http://www.w3.org/2000/svg">
<path d="M132.766 23.6132C131.375 20.7447 128.485 20.1704 127.712 23.2629C127.496 24.3829 127.376 25.6937 126.999 28.6767C126.72 30.8842 124.824 32.5222 122.599 32.5077C119.929 32.4902 117.875 30.1333 118.207 27.4834C118.279 26.9103 118.352 26.3341 118.441 25.6534C118.922 22.5983 119.458 20.504 120.335 18.8842C121.973 15.8593 123.555 12.3864 122.095 9.27153C121.866 8.7819 121.656 8.33641 121.462 7.92174C120.399 5.65992 121.247 2.9951 123.497 1.90972C125.917 0.743238 128.734 1.92611 129.841 4.37297C130.671 6.20771 131.617 8.26783 132.884 10.9966C133.335 11.9673 134.335 12.7201 135.392 12.8839C136.918 13.1202 138.103 12.0279 138.356 10.5051C138.589 9.10291 138.805 7.48721 138.961 5.91295C139.205 3.44035 141.235 1.39933 143.72 1.39933C146.201 1.39933 148.169 3.43395 147.843 5.89419C147.378 9.39993 146.59 13.2589 145.96 14.5175C145.618 15.3177 143.033 17.0704 141.559 17.5236C141.5 17.5416 141.457 17.5509 141.396 17.5576C140.558 17.6503 139.993 18.5538 140.372 19.307L143.945 26.4197C144.986 28.4915 144.955 30.3987 142.897 31.4657C140.335 32.7933 136.788 31.9098 135.529 29.3139L132.766 23.6132Z" fill="#4D58D8"/>
<path d="M104.108 32.4102C101.496 32.4102 99.4764 30.1183 99.8053 27.5269L101.881 11.1741C101.997 10.2533 101.28 9.43887 100.352 9.43887C97.4336 9.43887 94.4675 9.36686 91.7923 9.23823C89.5297 9.12944 87.8873 7.09376 88.181 4.84767C88.4394 2.87128 90.1235 1.39307 92.1168 1.39307H112.701C114.955 1.39307 116.688 3.38666 116.375 5.61896L116.36 5.72194C116.163 7.12817 115.412 8.236 114.016 8.49506C112.369 8.80059 110.754 10.1009 110.544 11.7624L108.411 28.6175C108.137 30.7851 106.293 32.4102 104.108 32.4102Z" fill="#4D58D8"/>
<path d="M75.9493 33.3532C73.9072 33.3532 71.534 32.9967 69.2336 32.4015C67.2784 31.8956 66.2853 29.8075 66.8996 27.8836L66.9465 27.7368C67.545 25.8624 70.9238 25.2356 72.8184 25.7666C74.2229 26.1603 73.9335 25.0246 74.1881 23.5883C74.9165 19.4784 75.4829 14.6956 75.4829 12.9472C75.4829 10.5568 73.9087 9.15749 71.4017 9.15749C69.6653 9.15749 68.1281 10.2804 67.6001 11.9346L61.9966 29.4892C61.4171 31.3047 59.7302 32.537 57.8245 32.537C54.8201 32.537 52.7078 29.5808 53.6813 26.7384L58.625 12.3042C59.1435 10.7903 58.0185 9.21579 56.4183 9.21579C55.1301 9.21579 54.0857 8.17146 54.0857 6.88321V5.49376C54.0857 3.54782 55.5848 1.92878 57.5255 1.78612C62.273 1.43711 66.495 1.16998 69.4194 1.16998H73.384C80.497 1.16998 84.345 4.66816 84.345 11.0815C84.345 14.4431 83.3883 21.3499 82.3742 26.4659C81.6872 29.9314 79.4822 33.3532 75.9493 33.3532Z" fill="#4D58D8"/>
<path d="M41.4039 33.3532C39.3618 33.3532 36.9886 32.9967 34.6882 32.4015C32.733 31.8956 31.7398 29.8075 32.3542 27.8836L32.4011 27.7368C32.9996 25.8624 36.3784 25.2356 38.273 25.7666C39.6775 26.1603 39.3881 25.0246 39.6427 23.5883C40.3711 19.4784 40.9375 14.6956 40.9375 12.9472C40.9375 10.5568 39.3633 9.15749 36.8563 9.15749C35.1199 9.15749 33.5827 10.2804 33.0547 11.9346L27.4512 29.4892C26.8717 31.3047 25.1848 32.537 23.2791 32.537C20.2747 32.537 18.1624 29.5808 19.1359 26.7384L24.0796 12.3042C24.5981 10.7903 23.4731 9.21579 21.8729 9.21579C20.5847 9.21579 19.5403 8.17146 19.5403 6.88321V5.49376C19.5403 3.54782 21.0394 1.92878 22.9801 1.78612C27.7276 1.43711 31.9496 1.16998 34.874 1.16998H38.8386C45.9516 1.16998 49.7996 4.66816 49.7996 11.0815C49.7996 14.4431 48.8429 21.3499 47.8288 26.4659C47.1418 29.9314 44.9368 33.3532 41.4039 33.3532Z" fill="#4D58D8"/>
<path d="M10.217 21.5076C7.55091 21.5076 5.49158 19.1651 5.83316 16.521L6.32899 12.6829C6.5592 10.901 5.17133 9.32227 3.37455 9.32227C1.58269 9.32227 0.196309 7.7518 0.418561 5.97378L0.557044 4.86592C0.805044 2.88192 2.49159 1.39307 4.49103 1.39307H7.85054C12.5321 1.39307 16.1506 5.50235 15.5583 10.1463L14.6017 17.6465C14.3202 19.8537 12.442 21.5076 10.217 21.5076Z" fill="#4D58D8"/>
</svg>
