<svg width="27" height="27" viewBox="10 0 27 27" fill="none" xmlns="http://www.w3.org/2000/svg">
<path d="M33.5001 22.0003V6.76953H13.5001V22.0003C13.5001 23.8859 13.5001 24.8287 14.0859 25.4145C14.6717 26.0003 15.6145 26.0003 17.5001 26.0003H29.5001C31.3857 26.0003 32.3285 26.0003 32.9143 25.4145C33.5001 24.8287 33.5001 23.8859 33.5001 22.0003Z" stroke="#FFFCE5" stroke-width="2"/>
<path d="M32 1H15C13.1144 1 12.1716 1 11.5858 1.58579C11 2.17157 11 3.11438 11 5V6.36923C11 6.55779 11 6.65207 11.0586 6.71065C11.1172 6.76923 11.2114 6.76923 11.4 6.76923H13.7778H33.2222H35.6C35.7886 6.76923 35.8828 6.76923 35.9414 6.71065C36 6.65207 36 6.55779 36 6.36923V5C36 3.11438 36 2.17157 35.4142 1.58579C34.8284 1 33.8856 1 32 1Z" stroke="#FFFCE5" stroke-width="2"/>
<path d="M20.9999 19.2695H25.9999" stroke="#FFFCE5" stroke-width="2" stroke-linecap="round"/>
</svg>
