<svg width="159" height="177" viewBox="0 0 159 177" fill="none" xmlns="http://www.w3.org/2000/svg">
<path d="M128.945 58.8851C131.768 53.8396 134.589 48.794 137.413 43.7508C140.236 38.7053 143.058 33.6597 145.881 28.6165C147.206 26.2496 148.594 23.904 149.61 21.3813C150.627 18.8585 151.163 16.3144 150.667 13.7066C149.9 9.67207 146.474 6.79497 142.672 5.70129C140.714 5.1391 138.655 5.04225 136.653 5.41075C134.448 5.81704 132.347 6.743 130.474 7.97132C126.394 10.6453 123.387 14.609 120.945 18.7782C119.597 21.0813 118.399 23.4694 117.209 25.8552C115.952 28.3709 114.696 30.8889 113.463 33.4164C112.237 35.9297 111.032 38.4525 109.875 40.9989C108.726 43.5241 107.66 46.0823 106.566 48.631C105.522 51.0688 104.406 53.49 102.988 55.734C101.569 57.9781 99.8653 60.0284 98.1406 62.0433C94.4159 66.3944 90.6724 70.7337 86.9384 75.0777C86.016 76.1501 85.0937 77.2225 84.1714 78.2973C83.9643 78.5382 83.9361 78.8949 84.1714 79.1335C84.3831 79.3461 84.7949 79.3768 85.0043 79.1335C88.7195 74.8108 92.4324 70.4904 96.1477 66.1676C97.9053 64.122 99.7006 62.1 101.376 59.9859C103.025 57.9048 104.486 55.7128 105.689 53.3412C106.891 50.9696 107.87 48.5342 108.903 46.1059C109.98 43.5713 111.117 41.0627 112.291 38.5706C114.63 33.5983 117.07 28.6661 119.573 23.7765C121.823 19.3805 124.31 14.9822 127.9 11.5382C130.931 8.63036 134.933 6.28711 139.244 6.36742C142.886 6.43592 146.74 8.20753 148.599 11.4602C151.114 15.8585 148.752 20.9773 146.566 24.9694C143.855 29.9228 141.053 34.829 138.298 39.7564C135.514 44.7335 132.728 49.7082 129.945 54.6852C129.272 55.8876 128.601 57.0875 127.928 58.2899C127.557 58.9536 128.573 59.5489 128.945 58.8851Z" fill="#4D58D8" stroke="#4D58D8" stroke-width="2" stroke-linejoin="round"/>
<path d="M71.5628 77.26C74.0188 78.198 76.6742 78.2923 79.2545 78.6199C81.6753 78.9286 84.1172 79.5344 85.961 81.2337C89.3951 84.3966 90.4953 90.0931 88.6468 94.3685C87.7109 96.5345 86.0008 98.0641 83.9342 99.12C81.877 100.169 79.6345 100.784 77.4835 101.602C76.3833 102.021 75.2926 102.483 74.2698 103.07C73.1368 103.718 72.093 104.515 71.1031 105.363C69.1608 107.034 67.4343 108.943 65.471 110.593C63.7938 112.003 61.9524 113.084 59.8013 113.561C57.9693 113.966 55.9168 113.938 54.2724 113.011C53.442 112.545 52.7946 111.875 52.3137 111.039C51.6874 109.95 51.2136 108.778 50.1087 108.081C49.0649 107.423 47.7841 107.345 46.5878 107.317C45.4126 107.289 44.2702 107.279 43.1442 106.898C40.9557 106.155 39.1964 104.388 38.1502 102.354C36.8975 99.9095 36.5996 97.0789 36.7404 94.3662C36.853 92.2379 37.294 89.8268 38.8891 88.2831C40.4842 86.7393 42.8886 86.7888 44.8238 85.9615C45.8958 85.502 46.7731 84.7595 47.3056 83.7037C47.8686 82.5865 48.1336 81.3515 48.7365 80.2485C49.8226 78.2616 51.5209 76.6825 53.4819 75.5866C55.5391 74.4364 57.8567 73.8449 60.2071 73.8048C62.9446 73.7577 65.6563 74.3964 68.1732 75.4546C69.4024 75.9708 70.5847 76.6001 71.7223 77.2953C72.3674 77.6913 72.9585 76.6731 72.3135 76.2772C67.5915 73.3829 61.7365 71.6624 56.2593 73.1826C53.944 73.826 51.7601 75.0186 50.0173 76.6849C49.154 77.5098 48.3987 78.462 47.8076 79.5037C47.5073 80.034 47.2516 80.5926 47.0358 81.163C46.8012 81.7805 46.6253 82.4262 46.3368 83.0225C45.8465 84.0313 45.0466 84.6511 44.0075 85.0259C42.9683 85.4006 41.8212 85.5892 40.7469 85.9333C39.6209 86.2939 38.5747 86.8477 37.7795 87.7433C36.9843 88.639 36.4636 89.7231 36.1235 90.8615C35.7833 91.9999 35.6238 93.2537 35.5652 94.4675C35.4948 95.9429 35.5652 97.4254 35.8115 98.8843C36.2595 101.515 37.3972 104.055 39.3535 105.903C40.2801 106.777 41.3568 107.475 42.5461 107.93C43.7166 108.378 44.9387 108.463 46.1796 108.486C47.2962 108.507 48.5371 108.479 49.5176 109.097C50.5615 109.754 50.9063 111.076 51.5631 112.052C54.1387 115.887 59.555 115.432 63.1956 113.579C65.4428 112.436 67.2983 110.591 69.0928 108.849C70.9576 107.039 72.8319 105.189 75.1284 103.935C79.2475 101.684 84.4667 101.3 87.8258 97.7365C91.4195 93.9231 91.4265 87.6561 88.9846 83.2347C87.7461 80.9909 85.8343 79.2657 83.4393 78.363C80.9364 77.4202 78.22 77.3849 75.6022 77.0172C74.3332 76.8381 73.0735 76.5788 71.8725 76.1193C71.5769 76.0061 71.2297 76.2442 71.15 76.5317C71.0585 76.864 71.2626 77.1421 71.5605 77.2576L71.5628 77.26Z" fill="#4D58D8" stroke="#4D58D8" stroke-width="2" stroke-linejoin="round"/>
<path d="M105.271 80.9621C104.646 77.5519 103.926 73.2139 106.744 70.5082C108.001 69.301 109.731 68.7373 111.257 67.9552C112.937 67.0933 114.372 65.8673 115.722 64.5732C118.169 62.2292 120.755 59.2182 124.36 58.7908C125.85 58.6146 127.501 58.8847 128.654 59.8923C129.946 61.0196 130.509 62.7342 131.603 64.0283C132.731 65.3623 134.328 66.1914 135.842 67.0228C137.356 67.8542 138.755 68.7702 139.965 69.9798C141.129 71.1424 142.094 72.5398 142.591 74.1111C143.087 75.6823 143.137 77.3287 142.65 78.8765C142.134 80.5159 140.958 81.6973 139.594 82.7025C138.872 83.2356 138.128 83.7382 137.422 84.2902C136.662 84.8844 135.973 85.5561 135.281 86.2255C133.953 87.5125 132.546 88.6845 130.928 89.6052C129.371 90.4883 127.67 91.1271 125.89 91.3855C124.11 91.6438 122.311 91.5029 120.634 90.9369C118.804 90.3215 117.402 89.0486 115.812 88.0199C112.754 86.0399 108.973 85.084 106.437 82.3619C105.891 81.7748 105.444 81.1148 105.107 80.3867C104.974 80.0978 104.551 80.0274 104.294 80.1753C103.995 80.3491 103.947 80.6897 104.08 80.9786C105.706 84.4922 109.522 86.047 112.792 87.6816C113.697 88.1349 114.593 88.6164 115.434 89.1801C116.275 89.7438 117.081 90.3944 117.946 90.9416C119.581 91.9774 121.468 92.5316 123.4 92.6538C127.294 92.898 130.999 91.2939 134 88.9405C135.557 87.7216 136.835 86.1973 138.411 85.0042C139.896 83.8792 141.524 82.9139 142.664 81.4107C144.869 78.5031 144.477 74.3671 142.614 71.4031C141.645 69.86 140.326 68.5729 138.853 67.5019C137.379 66.431 135.747 65.7217 134.245 64.7446C133.52 64.2725 132.841 63.7206 132.308 63.0395C131.776 62.3584 131.363 61.5457 130.892 60.8012C130.422 60.0567 129.842 59.3075 129.098 58.7532C128.437 58.26 127.648 57.9241 126.843 57.7456C125.082 57.3581 123.269 57.6446 121.636 58.3633C119.887 59.1337 118.388 60.3785 117.012 61.6726C115.636 62.9667 114.265 64.4581 112.706 65.6442C111.958 66.2149 111.15 66.6987 110.304 67.1144C109.458 67.5301 108.624 67.8801 107.811 68.3216C106.998 68.7632 106.247 69.2799 105.634 69.9469C105.021 70.6139 104.532 71.4383 104.185 72.3003C103.45 74.1252 103.398 76.1427 103.614 78.0709C103.736 79.1443 103.926 80.2106 104.121 81.2721C104.178 81.5845 104.563 81.7607 104.852 81.6832C105.185 81.5939 105.325 81.2745 105.268 80.9598L105.271 80.9621Z" fill="#4D58D8" stroke="#4D58D8" stroke-width="2" stroke-linejoin="round"/>
<path d="M89.0659 132.821C88.7996 131.061 89.4876 129.198 90.7247 127.937C92.2822 126.351 94.6054 126.175 96.5564 125.299C100.718 123.436 103.694 119.631 107.956 117.96C109.799 117.237 111.867 116.986 113.774 117.629C114.693 117.939 115.484 118.481 116.132 119.197C116.78 119.913 117.315 120.802 117.892 121.612C118.51 122.476 119.195 123.255 120.077 123.861C120.958 124.466 121.922 124.86 122.909 125.205C123.896 125.55 124.912 125.834 125.899 126.193C126.813 126.527 127.685 126.954 128.498 127.487C130.107 128.54 131.45 130.005 132.251 131.758C133.053 133.511 133.163 135.365 132.68 137.135C132.442 138.01 132.049 138.846 131.497 139.569C130.868 140.39 130.032 140.982 129.158 141.522C128.175 142.129 127.204 142.723 126.323 143.477C125.442 144.23 124.664 145.063 123.894 145.91C122.431 147.516 120.948 149.081 119.233 150.426C117.588 151.717 115.746 152.815 113.776 153.538C110.143 154.871 105.956 154.871 102.534 152.923C101.726 152.463 100.989 151.905 100.338 151.24C99.5724 150.459 99.0046 149.518 98.2482 148.729C96.9004 147.323 95.0178 146.741 93.2388 146.084C92.4023 145.774 91.5729 145.434 90.8284 144.934C90.0838 144.434 89.4924 143.728 89.113 142.902C88.2153 140.949 88.5145 138.668 88.8232 136.619C89.0093 135.387 89.2049 134.154 89.2308 132.908C89.2473 132.152 88.0692 132.152 88.0527 132.908C88.0008 135.408 87.2186 137.856 87.3646 140.364C87.4283 141.46 87.6474 142.538 88.1163 143.535C88.5593 144.479 89.2544 145.256 90.105 145.856C91.6719 146.964 93.6017 147.342 95.3218 148.135C96.2195 148.551 97.0088 149.076 97.6615 149.823C98.3967 150.665 98.9975 151.602 99.8175 152.372C102.838 155.204 107.273 156.115 111.283 155.427C115.663 154.676 119.535 152.062 122.628 148.983C124.287 147.333 125.715 145.441 127.555 143.976C128.474 143.247 129.528 142.716 130.494 142.054C131.389 141.442 132.162 140.717 132.76 139.811C133.863 138.144 134.308 136.039 134.085 134.065C133.849 131.981 132.909 130.073 131.507 128.517C130.105 126.961 128.276 125.818 126.302 125.088C124.327 124.358 122.145 123.976 120.451 122.68C118.76 121.385 118.027 119.246 116.446 117.843C114.865 116.439 112.621 115.916 110.517 116.127C105.708 116.608 102.32 120.333 98.5027 122.858C97.539 123.494 96.5258 124.081 95.4443 124.497C94.2968 124.935 93.088 125.184 91.9617 125.677C90.072 126.503 88.6653 128.221 88.1045 130.186C87.8312 131.148 87.7817 132.141 87.9325 133.129C87.9796 133.443 88.3755 133.615 88.6582 133.539C88.9952 133.448 89.1177 133.131 89.0706 132.817L89.0659 132.821Z" fill="#4D58D8" stroke="#4D58D8" stroke-width="2" stroke-linejoin="round"/>
<path d="M40.8989 119.227C39.3807 117.019 36.9325 115.615 34.2968 115.146C31.6612 114.677 28.7741 115.146 26.2998 116.418C23.8255 117.69 21.5718 119.84 19.9136 122.194C19.0714 123.388 18.4143 124.695 17.5959 125.904C17.176 126.526 16.6991 127.108 16.1274 127.601C15.5557 128.094 14.8464 128.497 14.175 128.892C11.7814 130.293 9.75542 132.119 8.1897 134.4C6.68804 136.589 5.64897 139.115 5.18637 141.722C4.72378 144.329 4.79732 147.157 5.58966 149.751C6.05463 151.271 6.81377 152.656 8.00704 153.736C9.09118 154.717 10.3793 155.449 11.4445 156.449C13.6412 158.507 13.8714 161.631 14.9626 164.271C16.0539 166.911 17.6955 169.199 19.9919 170.847C21.0855 171.633 22.3333 172.229 23.6428 172.56C25.3485 172.992 27.1349 172.992 28.8738 172.79C30.4893 172.605 32.093 172.292 33.6729 171.919C35.0607 171.591 36.4343 171.194 37.7628 170.685C40.4529 169.655 43.0221 168.153 44.863 165.914C45.8191 164.752 46.583 163.367 47.8711 162.52C49.1735 161.663 50.7108 161.257 52.0914 160.551C53.5409 159.807 54.8552 158.819 56.084 157.758C57.3129 156.697 58.3733 155.672 59.3957 154.517C61.3814 152.274 63.0182 149.64 63.3409 146.62C63.654 143.679 62.5319 140.75 60.7883 138.406C58.8833 135.845 56.288 133.956 53.5219 132.386C52.0986 131.579 50.6301 130.847 49.1688 130.11C47.8332 129.438 46.4549 128.795 45.2308 127.932C44.1276 127.155 43.2855 126.153 42.83 124.888C42.3745 123.623 42.2037 122.407 41.8313 121.182C41.4778 120.023 40.9416 118.892 39.988 118.096C39.7436 117.892 39.3902 117.859 39.1482 118.096C38.937 118.305 38.9015 118.72 39.1482 118.927C40.0639 119.69 40.4933 120.764 40.7993 121.882C41.1243 123.064 41.3236 124.282 41.7719 125.428C42.301 126.779 43.1692 127.85 44.3317 128.727C45.4941 129.605 46.8131 130.236 48.1036 130.889C53.3298 133.527 59.3934 136.385 61.5616 142.227C62.0503 143.546 62.2876 144.935 62.1808 146.338C62.0741 147.742 61.6352 149.018 61.0042 150.222C59.6496 152.809 57.5169 154.954 55.3249 156.862C54.1482 157.885 52.8885 158.824 51.496 159.537C50.1035 160.251 48.6777 160.624 47.4014 161.426C46.0421 162.278 45.2047 163.576 44.2439 164.813C43.4326 165.86 42.448 166.777 41.3544 167.531C39.0675 169.105 36.4082 170.039 33.7227 170.699C32.2377 171.063 30.7289 171.375 29.2106 171.574C27.5832 171.788 25.8965 171.856 24.2857 171.502C21.7189 170.941 19.534 169.31 17.9873 167.24C17.1973 166.184 16.5354 165.017 16.0444 163.794C15.5154 162.473 15.1927 161.084 14.7372 159.739C14.2557 158.324 13.6128 156.96 12.5524 155.874C11.5726 154.872 10.3509 154.151 9.27147 153.264C8.72821 152.818 8.21105 152.328 7.81251 151.748C7.39261 151.138 7.08184 150.466 6.84698 149.769C6.42471 148.521 6.18748 147.211 6.11157 145.897C5.82215 140.854 7.86944 135.735 11.5679 132.25C12.5168 131.356 13.5653 130.612 14.6898 129.952C15.392 129.539 16.0942 129.131 16.7323 128.624C17.3349 128.148 17.8378 127.575 18.2933 126.962C19.1545 125.805 19.7902 124.508 20.585 123.308C21.3797 122.109 22.2266 121.079 23.2206 120.112C25.1398 118.246 27.531 116.784 30.1999 116.287C32.6101 115.838 35.2315 116.242 37.3452 117.486C38.3463 118.075 39.2241 118.861 39.8812 119.816C40.3082 120.438 41.3354 119.851 40.9061 119.225L40.8989 119.227Z" fill="#4D58D8" stroke="#4D58D8" stroke-width="2" stroke-linejoin="round"/>
<path d="M40.9936 118.703C43.8222 115.448 46.9777 112.465 50.4083 109.807C50.6575 109.615 50.6152 109.201 50.4083 109C50.1637 108.763 49.8251 108.807 49.5759 109C46.1453 111.659 42.9899 114.641 40.1612 117.897C39.9567 118.132 39.9238 118.471 40.1612 118.703C40.3705 118.906 40.7867 118.94 40.9936 118.703Z" fill="#4D58D8" stroke="#4D58D8" stroke-width="2" stroke-linejoin="round"/>
<path d="M94.9448 125.051C95.5018 119.531 96.0588 114.012 96.6157 108.493C96.7532 107.122 96.893 105.754 97.0305 104.383L97.2438 102.268C97.3031 101.688 97.4287 101.08 97.3481 100.497C97.2675 99.9149 96.931 99.4296 96.3266 99.3704C95.6274 99.3017 95.0965 99.9055 94.6083 100.317C93.5536 101.208 92.4989 102.096 91.4418 102.986C87.3937 106.398 83.329 109.791 79.3093 113.233C75.5361 116.463 71.8174 119.756 68.2813 123.244C64.7617 126.715 61.434 130.385 58.4477 134.327C58.0756 134.817 57.7106 135.312 57.3504 135.81C57.1631 136.07 57.3053 136.47 57.5637 136.619C57.8623 136.794 58.187 136.667 58.3743 136.406C61.1804 132.523 64.3445 128.91 67.7029 125.496C71.0851 122.058 74.6592 118.814 78.302 115.656C82.1084 112.353 85.9811 109.125 89.8373 105.879C90.8777 105.003 91.9182 104.127 92.9587 103.249C93.4706 102.818 93.9849 102.384 94.4969 101.954C95.0088 101.523 95.497 101.063 96.0256 100.666C96.0422 100.654 96.2341 100.533 96.2341 100.542C96.2341 100.552 96.1299 100.502 96.1346 100.502C96.1038 100.505 96.1488 100.353 96.1559 100.538C96.1607 100.637 96.1986 100.843 96.1867 101.023C96.1441 101.674 96.0564 102.325 95.99 102.974C95.8549 104.305 95.7222 105.635 95.5871 106.966C95.0467 112.329 94.504 117.692 93.9636 123.052C93.8972 123.718 93.8285 124.383 93.7621 125.048C93.729 125.368 94.0584 125.64 94.3547 125.64C94.7007 125.64 94.914 125.368 94.9472 125.048L94.9448 125.051Z" fill="#4D58D8" stroke="#4D58D8" stroke-width="2" stroke-linejoin="round"/>
<path d="M114.157 88.791C114.082 92.4208 114.007 96.0505 113.934 99.6803C113.861 103.265 113.809 106.85 113.558 110.425C113.417 112.439 113.223 114.448 112.98 116.448C112.941 116.766 113.049 117.084 113.344 117.179C113.587 117.255 113.945 117.084 113.984 116.764C114.427 113.148 114.714 109.514 114.834 105.867C114.955 102.228 114.999 98.5866 115.073 94.9474C115.115 92.8952 115.157 90.8431 115.2 88.7934C115.217 88.0295 114.177 88.0295 114.161 88.7934L114.157 88.791Z" fill="#4D58D8" stroke="#4D58D8" stroke-width="2" stroke-linejoin="round"/>
<path d="M124.765 74.4294C125.116 73.5241 125.47 72.6211 125.822 71.7158C125.991 71.2809 126.16 70.8484 126.331 70.4134C126.385 70.2763 126.5 70.1085 126.535 69.9691C126.542 69.9383 126.586 69.9147 126.586 69.8982C126.556 69.8982 126.528 69.8934 126.497 69.8934C126.511 69.8982 126.521 69.9052 126.528 69.9171C126.525 69.9052 126.652 70.0896 126.65 70.0849C126.692 70.1582 126.734 70.2338 126.772 70.3094C126.849 70.4607 126.917 70.6167 126.978 70.7751C127.133 71.1935 127.25 71.6237 127.365 72.0539C127.573 72.8292 127.791 73.6092 128.199 74.3041C128.558 74.9139 129.06 75.4789 129.702 75.7861C130.087 75.9705 130.483 76.0485 130.907 76.0792C131.278 76.1076 131.693 76.0651 132.044 76.2163C132.206 76.2849 132.422 76.4622 132.424 76.5827C132.427 76.7553 132.195 76.9065 132.012 77.0129C131.737 77.1736 131.442 77.2871 131.158 77.4289C130.8 77.6086 130.471 77.8307 130.157 78.0789C128.978 79.0126 128.216 80.3646 127.958 81.8467C127.855 82.4494 127.806 83.3571 127.161 83.6431C126.61 83.8889 126.544 83.2649 126.551 82.8276C126.561 82.0901 126.622 81.3905 126.425 80.6648C126.242 79.9888 125.883 79.327 125.337 78.8802C124.68 78.3437 123.892 78.1735 123.077 78.0506C122.422 77.9513 121.728 77.8709 121.21 77.4147C120.992 77.2233 120.798 76.9633 120.83 76.6702C120.835 76.63 120.849 76.6016 120.854 76.5614C120.863 76.5284 120.875 76.4953 120.887 76.4622C120.859 76.5236 120.861 76.526 120.889 76.4645C120.913 76.422 120.938 76.3794 120.966 76.3393C120.889 76.4527 121.013 76.2967 121.032 76.2754C121.046 76.2612 121.17 76.162 121.065 76.2423C121.119 76.2022 121.177 76.1667 121.236 76.1312C121.351 76.0651 121.464 76.0178 121.485 76.0107C121.721 75.9232 121.965 75.8547 122.211 75.7956C123.269 75.5356 124.647 75.3252 125.135 74.1859C125.241 73.9401 125.243 73.6706 125.044 73.4697C124.858 73.283 124.561 73.2475 124.333 73.3775C122.781 74.2663 121.487 75.5734 120.605 77.1382C120.303 77.6771 120.894 78.1995 121.407 77.9466C122.376 77.4667 123.084 76.6182 123.456 75.6065C123.686 74.9801 122.687 74.5594 122.385 75.1503C122.148 75.616 121.832 75.9965 121.424 76.3227L122.345 76.4433C122.057 76.0485 121.691 75.6372 121.156 75.6585C120.622 75.6798 120.207 76.1407 120.233 76.6583C120.247 76.9467 120.437 77.254 120.725 77.3344C120.981 77.4053 121.313 77.3155 121.557 77.228C122.052 77.0531 122.434 76.7364 122.744 76.3156L121.651 76.0178C121.7 76.4551 121.752 76.8947 121.801 77.332C121.834 77.6251 121.998 77.8757 122.31 77.9135C122.598 77.9489 122.868 77.7787 122.952 77.4904C122.962 77.462 123.074 77.2067 123.067 77.1902C123.062 77.1784 120.863 76.3298 122.866 77.2044C122.73 77.1453 122.664 76.9089 122.753 76.786L123.766 77.3816C124.19 76.3913 124.72 75.4552 125.351 74.583L124.338 73.9874C123.864 75.0392 123.581 76.1265 123.48 77.2776C123.426 77.8993 124.282 78.0293 124.572 77.5755C125.768 75.72 126.654 73.6659 127.191 71.5197C127.262 71.236 127.123 70.9335 126.851 70.8224C126.605 70.7231 126.242 70.7916 126.12 71.0635C125.405 72.659 124.903 74.3301 124.654 76.0627C124.612 76.3534 124.701 76.6418 124.994 76.76C125.248 76.8616 125.595 76.786 125.726 76.5189C126.368 75.1976 127.013 73.8763 127.655 72.555L126.584 72.0988C126.148 73.9283 125.709 75.7554 125.273 77.5849C125.119 78.2302 125.998 78.625 126.345 78.0411C126.973 76.9822 127.602 75.9232 128.23 74.8667L127.158 74.4105C126.919 75.9516 126.589 77.4762 126.164 78.9748C125.981 79.6201 126.898 80.0077 127.236 79.431C127.892 78.3035 128.549 77.1736 129.205 76.0461L128.134 75.59C127.655 77.1736 127.177 78.7597 126.699 80.3434L127.829 80.6577C128.202 79.3908 128.872 78.2468 129.791 77.3036L128.79 76.8853C128.671 77.8898 128.281 78.8353 127.714 79.665C127.341 80.211 128.218 80.9083 128.635 80.3812C129.165 79.7123 129.693 79.0457 130.223 78.3768L129.808 78.5493C131.011 78.5139 132.115 77.8733 132.741 76.8356C132.957 76.4787 132.685 75.902 132.234 75.9469C131.43 76.0249 130.652 75.9492 129.88 75.7105V76.8498C130.188 76.7742 130.492 76.7009 130.8 76.6253C131.39 76.4811 131.322 75.6632 130.8 75.486C129.716 75.1196 129.039 74.0748 128.565 73.0868C127.974 71.8553 127.597 70.5198 126.781 69.4089C126.638 69.215 126.448 69.0874 126.197 69.1276C125.991 69.1583 125.742 69.3214 125.709 69.5507C125.438 71.4346 125.372 73.3397 125.55 75.2354C125.726 77.1075 126.136 78.9157 126.706 80.7027C126.959 81.4992 127.294 82.4731 126.84 83.2578H127.852C127.144 81.9814 127.498 80.1661 128.692 79.301L127.831 78.6344C127.461 79.7997 127.088 80.965 126.718 82.1303C126.516 82.7638 127.477 83.1798 127.789 82.5865C128.131 81.9318 128.476 81.2794 128.818 80.6246C129.034 80.2134 128.666 79.5563 128.157 79.7572C127.524 80.0054 126.964 80.3457 126.46 80.8043L127.44 81.0643C127.121 79.2655 126.624 77.5069 125.958 75.8074C125.813 75.4363 125.29 75.1692 124.978 75.5474C124.057 76.6631 124.052 78.242 124.948 79.3719C125.182 79.6673 125.705 79.561 125.869 79.2513C126.399 78.2491 126.078 77.0082 125.144 76.3794C124.868 76.1927 124.514 76.3416 124.343 76.5922C123.989 77.1098 123.897 77.7504 124.043 78.3579C124.195 78.9961 125.236 78.8731 125.194 78.2018C125.13 77.1595 124.422 76.2423 123.402 75.9871C122.798 75.8358 122.476 76.5307 122.833 76.9751C123.058 77.254 123.283 77.5353 123.506 77.8142C123.867 78.2657 124.694 77.7788 124.486 77.2398C124.277 76.7009 123.787 76.5378 123.297 76.812C123.112 76.916 122.945 77.0791 122.835 77.2611C122.793 77.3273 122.748 77.41 122.718 77.4809C122.701 77.5022 122.683 77.5235 122.662 77.54C122.725 77.4455 122.837 77.4431 122.997 77.5329L123.208 77.7457L123.17 77.6937L122.821 78.5611C123.079 78.4666 123.334 78.3697 123.592 78.2751C123.89 78.164 124.092 77.8733 124.003 77.5471C123.923 77.2587 123.581 77.0247 123.281 77.1335C123.023 77.228 122.767 77.3249 122.509 77.4195C122.19 77.5376 121.918 77.9537 122.16 78.2869C122.469 78.7148 122.952 78.7904 123.377 78.4666C123.536 78.3437 123.674 78.1877 123.771 78.0104C123.768 78.0151 123.832 77.852 123.82 77.8898C123.874 77.8378 123.888 77.8237 123.862 77.8449C123.735 77.8709 123.611 77.8402 123.487 77.7551L123.337 77.4951L123.358 77.5495L124.338 76.9751C124.113 76.6962 123.888 76.4149 123.665 76.136L123.095 77.124C123.59 77.2469 123.993 77.6724 124.026 78.1995L125.177 78.0435C125.102 77.7267 125.177 77.4526 125.36 77.1878L124.558 77.4006C124.952 77.6653 125.076 78.2444 124.861 78.6557L125.782 78.5351C125.311 77.9418 125.332 76.9633 125.813 76.3818L124.833 76.1218C125.498 77.8213 125.993 79.5799 126.314 81.3787C126.396 81.8443 126.994 81.9105 127.294 81.6387C127.639 81.3243 128.04 81.0667 128.474 80.8965L127.813 80.029C127.47 80.6837 127.126 81.3361 126.783 81.9909L127.855 82.4471C128.225 81.2818 128.598 80.1165 128.968 78.9511C129.116 78.4855 128.525 77.9797 128.108 78.2846C126.392 79.5279 125.808 81.9814 126.849 83.8582C127.065 84.2482 127.641 84.2364 127.862 83.8582C128.797 82.2414 127.759 80.3174 127.341 78.7006C126.865 76.8545 126.626 74.9565 126.626 73.0466C126.626 71.9829 126.697 70.9193 126.847 69.8674L125.775 70.0093C126.645 71.1935 127.013 72.6306 127.679 73.9259C128.293 75.1196 129.198 76.1903 130.495 76.6276V75.4883C130.188 75.564 129.883 75.6372 129.576 75.7129C128.994 75.8547 129.041 76.6867 129.576 76.8522C130.436 77.1193 131.343 77.2185 132.241 77.1311L131.735 76.2423C131.369 76.8474 130.732 77.2776 130.028 77.358C129.73 77.3911 129.533 77.3982 129.327 77.6346C129.149 77.8378 128.99 78.06 128.823 78.2728C128.485 78.6982 128.15 79.1237 127.813 79.5492L128.734 80.2654C129.426 79.2561 129.827 78.1049 129.972 76.89C130.035 76.3629 129.299 76.136 128.971 76.4716C127.913 77.5589 127.137 78.8873 126.708 80.3481C126.493 81.0785 127.62 81.3881 127.838 80.6625C128.317 79.0788 128.795 77.4927 129.273 75.9091C129.468 75.2638 128.537 74.8785 128.202 75.4529C127.545 76.5804 126.889 77.7102 126.232 78.8377L127.304 79.2939C127.728 77.7929 128.059 76.2707 128.298 74.7296C128.342 74.4388 128.249 74.1505 127.958 74.0323C127.688 73.9235 127.379 74.0157 127.226 74.2734C126.598 75.3323 125.97 76.3913 125.341 77.4478L126.413 77.904C126.849 76.0745 127.287 74.2474 127.723 72.4179C127.874 71.7938 126.957 71.3376 126.652 71.9617C126.01 73.283 125.365 74.6043 124.722 75.9256L125.794 76.3818C126.026 74.7579 126.471 73.1601 127.142 71.6638L126.071 71.2076C125.557 73.2617 124.713 75.2023 123.569 76.9822L124.661 77.28C124.741 76.3534 124.978 75.434 125.358 74.5877C125.67 73.8928 124.793 73.3728 124.345 73.9921C123.714 74.8643 123.184 75.8003 122.76 76.7907C122.462 77.4833 123.327 78.0175 123.773 77.3864C124.167 76.8262 123.644 76.1076 123.044 76.0485C122.361 75.98 121.996 76.6087 121.829 77.1807L122.98 77.3367C122.931 76.8995 122.88 76.4598 122.83 76.0225C122.762 75.4245 122.097 75.2401 121.738 75.7247C121.541 75.9894 121.208 76.1549 120.887 76.1762L121.302 76.3487L121.262 76.2991L121.412 76.5591C121.517 76.8285 121.168 76.7718 121.154 76.8404C121.154 76.8474 121.316 77.0105 121.337 77.0413C121.578 77.3722 121.942 77.4147 122.258 77.1618C122.734 76.7813 123.123 76.2943 123.402 75.7507L122.331 75.2945C122.064 76.0249 121.508 76.5898 120.821 76.9278L121.623 77.7362C122.408 76.3393 123.543 75.1929 124.929 74.3986L124.127 73.5903C124.101 73.6494 124.075 73.7061 124.043 73.7605C124.031 73.7817 123.953 73.8928 123.984 73.8526C123.986 73.8479 123.778 74.0441 123.829 74.0063C123.735 74.0748 123.632 74.1316 123.529 74.1883C123.506 74.2025 123.48 74.2119 123.454 74.2237C123.367 74.2639 123.529 74.1954 123.438 74.2308C123.374 74.2568 123.311 74.2805 123.248 74.3017C122.732 74.4814 122.193 74.5712 121.667 74.713C121.142 74.8548 120.603 75.051 120.204 75.4363C119.724 75.8996 119.534 76.6394 119.74 77.28C120.001 78.0908 120.744 78.632 121.506 78.9204C122.268 79.2088 123.173 79.1733 123.972 79.4428C124.643 79.6697 125.074 80.2275 125.273 80.8965C125.489 81.6269 125.348 82.3312 125.384 83.0734C125.423 83.9362 125.855 84.7824 126.795 84.8699C127.686 84.9526 128.446 84.2742 128.767 83.4918C129.088 82.7094 129.079 81.7805 129.407 80.9674C129.686 80.2772 130.138 79.6603 130.687 79.1639C131.236 78.6675 131.923 78.4193 132.567 78.0482C133.271 77.6464 133.824 76.9042 133.479 76.0651C133.111 75.1692 132.136 74.9518 131.273 74.9116C130.882 74.8927 130.495 74.8808 130.145 74.6847C129.857 74.5239 129.616 74.2899 129.419 74.0252C128.364 72.5928 128.57 70.5624 127.44 69.1749C127.137 68.8038 126.657 68.6123 126.192 68.7754C125.763 68.9267 125.506 69.3285 125.337 69.7303C124.933 70.69 124.577 71.6733 124.197 72.6424C124.007 73.1317 123.817 73.6186 123.625 74.1079C123.51 74.4057 123.752 74.7556 124.035 74.8359C124.368 74.9281 124.64 74.7225 124.758 74.4223L124.765 74.4294Z" fill="#4D58D8" stroke="#4D58D8" stroke-width="2" stroke-linejoin="round"/>
<path d="M125.554 72.575C125.103 73.021 124.78 73.541 124.58 74.1304C124.479 74.4262 124.698 74.7613 125.002 74.8422C125.344 74.9323 125.624 74.7313 125.745 74.4378C125.882 74.1003 126.019 73.7629 126.157 73.4278C126.362 72.9286 125.694 72.5565 125.272 72.776C125.12 72.8546 124.971 72.9332 124.819 73.0118C124.132 73.3677 124.737 74.3407 125.426 74.0102C126.203 73.6358 126.593 72.7229 126.338 71.9301C126.244 71.6366 125.916 71.4333 125.595 71.5257C124.809 71.7522 124.858 72.6096 125.222 73.1643C125.663 73.8392 126.121 74.5071 126.571 75.1773C126.935 75.7204 127.851 75.3807 127.673 74.7313C127.606 74.4909 127.54 74.2482 127.473 74.0079C127.444 73.9039 127.415 73.8022 127.389 73.6982L127.331 73.4925C127.326 73.5711 127.295 73.645 127.242 73.7097L126.976 73.8577L127.044 73.8392H126.723C126.596 73.7144 126.569 73.7028 126.644 73.8091C126.675 73.8692 126.706 73.9316 126.735 73.9917C126.796 74.1142 126.851 74.239 126.909 74.3615C127.008 74.5787 127.104 74.796 127.208 75.0109C127.432 75.4755 127.702 75.9215 128.066 76.2982C128.401 76.6449 128.813 76.9199 129.278 77.0817C129.507 77.1626 129.753 77.2019 129.994 77.2088C130.088 77.2111 130.202 77.2227 130.296 77.2135C130.257 77.2088 130.274 77.2135 130.349 77.2273C130.238 77.1765 130.17 77.0794 130.149 76.9384L130.751 76.3606C128.577 76.4485 126.523 77.6826 125.549 79.5593L126.673 79.8505C126.774 78.7781 125.829 78.0154 124.867 77.6988C124.354 77.5301 123.807 77.4446 123.279 77.3359C122.695 77.2158 122.11 77.0956 121.526 76.9754C120.769 76.8206 120.446 77.9322 121.206 78.0894C122.155 78.2858 123.112 78.4592 124.057 78.681C124.67 78.8243 125.537 79.104 125.467 79.8505C125.414 80.419 126.33 80.6409 126.591 80.1417C127.377 78.6325 128.984 77.5879 130.754 77.5162C131.089 77.5023 131.344 77.262 131.356 76.9384C131.373 76.5109 131.048 76.2104 130.638 76.1064C130.322 76.0255 129.994 76.0925 129.683 75.9955C128.994 75.7759 128.589 75.1103 128.295 74.5186C128.112 74.1512 127.957 73.7745 127.779 73.407C127.586 73.0118 127.242 72.6096 126.728 72.7229C126.215 72.8361 126.075 73.2984 126.159 73.7328C126.244 74.1673 126.398 74.6065 126.516 75.0363L127.618 74.5903C127.314 74.1373 127.01 73.6843 126.709 73.2336C126.562 73.0164 126.412 72.7991 126.27 72.5773C126.227 72.5102 126.219 72.471 126.183 72.4224C126.166 72.3485 126.162 72.3323 126.169 72.3785C126.138 72.4941 126.058 72.5796 125.925 72.6374L125.183 72.2329C125.287 72.5542 125.144 72.8546 124.824 73.0071L125.431 74.0056C125.583 73.927 125.733 73.8484 125.884 73.7698L125 73.1181C124.862 73.4555 124.725 73.7929 124.588 74.1281L125.749 74.4354C125.884 74.0379 126.111 73.6889 126.412 73.3885C126.952 72.8546 126.101 72.0365 125.559 72.5703L125.554 72.575Z" fill="#4D58D8" stroke="#4D58D8" stroke-width="2" stroke-linejoin="round"/>
<path d="M62.0969 89.9649C63.5988 88.4705 63.4476 86.2861 63.868 84.361C63.9506 83.9779 64.0734 83.4734 64.4796 83.3164C64.7606 83.2093 65.1361 83.3378 65.4265 83.5115C66.253 84.0065 66.5458 84.9821 66.9449 85.8078C67.1787 86.2908 67.4573 86.762 67.8328 87.1475C68.2295 87.552 68.7207 87.8304 69.2355 88.047C70.1423 88.4277 71.1695 88.5681 71.9818 89.1511C72.3101 89.3866 72.6359 89.7126 72.7564 90.11C72.8768 90.5074 72.7446 90.862 72.5037 91.1713C72.2038 91.5544 71.8 91.8495 71.4387 92.1684C71.0774 92.4872 70.7374 92.8442 70.4304 93.2201C69.1434 94.793 68.3263 96.6586 67.3723 98.4409C66.9048 99.3166 66.4041 100.188 65.7784 100.958C65.1975 101.675 64.4371 102.481 63.4736 102.603C63.0651 102.655 62.6023 102.577 62.2669 102.32C61.8938 102.034 61.7876 101.549 61.7214 101.106C61.5727 100.107 61.4735 99.1357 61.1051 98.1863C60.7367 97.2368 60.229 96.3873 59.4545 95.7591C59.0814 95.4569 58.6799 95.2333 58.2478 95.031C57.877 94.8573 57.4567 94.6883 57.145 94.429C56.8333 94.1696 56.7129 93.8817 56.812 93.4771C56.9018 93.1107 57.1379 92.7109 57.341 92.4658C57.8345 91.8733 58.4249 91.4926 59.1026 91.1214C60.5029 90.3528 62.0945 89.7983 63.2209 88.6085C63.4972 88.3158 63.7428 87.9851 63.9341 87.6281C64.2978 86.9547 63.2776 86.3551 62.914 87.0285C62.5503 87.7019 61.9576 88.2207 61.2869 88.6371C60.5478 89.094 59.7544 89.4485 58.9822 89.8435C58.21 90.2385 57.4732 90.6669 56.8498 91.257C56.1603 91.9138 55.5109 92.9108 55.603 93.9054C55.7093 95.0548 56.6751 95.6021 57.6102 96.0423C58.0329 96.2422 58.4556 96.4468 58.8051 96.7633C59.1546 97.0798 59.4474 97.4748 59.6788 97.9031C60.1487 98.7693 60.3778 99.7592 60.4888 100.732C60.5596 101.351 60.6257 101.972 60.9209 102.529C61.1901 103.036 61.6412 103.395 62.163 103.607C64.5079 104.552 66.4703 102.201 67.5778 100.445C68.6853 98.6884 69.4858 96.6372 70.6689 94.8644C71.2616 93.9792 71.9771 93.2749 72.7705 92.5729C73.6088 91.8328 74.2818 90.7954 73.8355 89.6389C73.4199 88.5609 72.3974 87.897 71.3584 87.5234C70.3855 87.1737 69.252 86.9952 68.5389 86.1719C67.8257 85.3485 67.625 84.1683 66.9449 83.3045C66.3168 82.5049 65.1904 81.8506 64.1561 82.1766C62.9919 82.5454 62.7345 83.8113 62.5786 84.8774C62.4228 85.9434 62.3543 86.9785 61.993 87.9661C61.8324 88.4039 61.5845 88.7989 61.2562 89.1273C60.7155 89.6651 61.5491 90.5074 62.0922 89.9696L62.0969 89.9649Z" fill="#4D58D8" stroke="#4D58D8" stroke-width="2" stroke-linejoin="round"/>
<path d="M63.9508 83.4076C63.7107 88.7009 63.4706 93.9941 63.2305 99.2874C63.2001 99.9581 63.2235 100.66 63.1279 101.326C63.1069 101.468 63.0509 101.708 62.995 101.828C62.8994 102.04 62.8784 102.047 62.6989 102.078L63.4356 102.658C63.8413 97.8595 64.1233 93.0494 64.2795 88.2345C64.3238 86.8812 64.3565 85.5278 64.3821 84.1744C64.3938 83.5109 63.368 83.3379 63.2374 84.0158C62.3376 88.6937 61.806 93.4485 61.6662 98.2153C61.6265 99.5639 61.6195 100.915 61.6405 102.266L62.7852 102.107C62.0905 97.8619 62.6313 93.5254 63.1512 89.2946C63.1862 89.0013 62.9017 88.7369 62.6453 88.7033C62.3422 88.6672 62.1091 88.8451 62.0065 89.1336C60.9878 91.9629 60.708 95.0134 61.1253 97.9966L62.0998 97.4124C61.8037 97.0855 61.7571 96.6264 61.7571 96.1961C61.7571 95.5951 61.8433 94.9917 61.904 94.3956C62.0438 93.0062 62.1814 91.6191 62.3213 90.2297C62.3819 89.6288 61.4937 89.422 61.2349 89.9268C60.1438 92.0518 59.7755 94.4701 60.1532 96.8403L61.2768 96.5206C60.8246 94.499 61.1929 92.4148 61.5543 90.4124C61.6009 90.148 61.5216 89.8764 61.2862 89.7345C61.0833 89.6119 60.736 89.6215 60.5798 89.8283C59.2766 91.5639 58.7614 93.7658 59.1904 95.922L60.2557 95.4581C59.6892 94.1336 60.1205 92.5711 60.4679 91.2489C60.6008 90.7417 60.0529 90.309 59.6123 90.5711C58.1389 91.4413 57.5911 93.3956 58.2765 94.9677L59.1927 94.2393C58.7684 93.7057 58.7404 92.9052 59.0668 92.3187C59.3442 91.8187 58.8896 91.3667 58.4094 91.4364C57.4652 91.5735 56.6982 92.5086 56.7075 93.4893C56.7169 94.4701 57.5188 95.4172 58.5026 95.535C58.9759 95.5903 59.4654 95.4413 59.9177 95.6432C60.3327 95.8283 60.6684 96.1768 60.9808 96.5014C61.6778 97.2273 62.3213 98.0182 62.7992 98.9196C63.2957 99.8547 63.5708 100.912 63.3027 101.968C63.1675 102.504 63.8972 103.049 64.2772 102.552C66.5688 99.5567 67.7764 95.9076 68.4921 92.2009C68.639 91.4437 67.6063 91.1432 67.3685 91.8812C66.4966 94.5831 65.219 97.1264 63.6011 99.4341C63.2444 99.9437 63.9252 100.535 64.3984 100.256C66.366 99.0951 67.8347 97.1336 68.4315 94.8788H67.3079C67.6133 96.4942 66.4173 97.9269 65.4545 99.0398C65.2004 99.3355 64.9439 99.6288 64.6992 99.9317C64.4334 100.261 64.1233 100.598 63.9905 101.011C63.797 101.614 63.9695 102.511 64.7201 102.535C65.1771 102.549 65.4125 102.136 65.6666 101.809C65.9207 101.482 66.1632 101.148 66.3963 100.804C66.8439 100.148 67.2496 99.4629 67.6133 98.7562C68.3336 97.3547 68.9025 95.8619 69.2918 94.3283C69.7394 92.5663 69.9539 90.7345 69.9236 88.9148C69.9142 88.3379 69.1193 88.0711 68.8372 88.6119C67.8277 90.5518 66.8206 92.4893 65.8112 94.4292L66.8766 94.8932C67.3685 93.0615 67.8604 91.2297 68.3546 89.398C68.5271 88.7586 67.5923 88.3138 67.2892 88.934C66.0257 91.5302 65.1398 94.3091 64.6898 97.1793C64.6385 97.499 64.7714 97.8259 65.0978 97.9196C65.3869 98.0014 65.7506 97.8187 65.8158 97.499C66.4406 94.3355 66.5315 91.1095 66.1049 87.9124C66.0233 87.3066 65.1095 87.3739 64.9812 87.9124C64.2189 91.1047 63.8109 94.3884 63.7713 97.6769C63.7666 98.0014 64.0417 98.2778 64.3541 98.2778C64.6968 98.2778 64.9043 98.0014 64.937 97.6769C65.282 94.3211 65.4475 90.9485 65.4382 87.5759C65.4382 86.8884 64.4893 86.773 64.2935 87.4172C63.1489 91.1889 62.939 95.2129 63.6454 99.0927C63.7084 99.4317 64.0744 99.5639 64.3635 99.5134C65.296 99.3451 65.4102 98.2153 65.4871 97.4389C65.5944 96.3619 65.6713 95.2826 65.7226 94.2009C65.8228 92.0374 65.8135 89.8691 65.69 87.7081C65.62 86.4893 65.5151 85.273 65.3752 84.0614L64.2306 84.2201C65.1304 86.7297 65.6084 89.3715 65.6363 92.047L66.781 91.8884C65.676 89.1528 65.2587 86.1864 65.5687 83.2393L64.4824 83.5422C65.7366 86.0254 66.6178 88.6888 67.1167 91.4413L68.2404 91.1215C67.7764 89.136 67.3125 87.1504 66.8509 85.1672L65.8765 85.7513C66.8766 86.9989 67.6319 88.4485 68.1028 89.9917C68.3266 90.7273 69.4293 90.422 69.2265 89.672C69.0517 89.023 68.8768 88.3715 68.702 87.7225L67.9839 88.4629C68.322 88.5518 68.5481 88.7898 68.632 89.1384C68.7626 89.6816 69.6624 89.7393 69.7557 89.1384C69.7813 88.9797 69.8047 88.8187 69.8303 88.66L69.1123 89.0807C69.8653 89.2345 70.7838 89.3763 71.334 89.9869C71.714 90.4076 71.8842 91.1384 71.3969 91.5086C71.0589 91.7682 70.6626 91.9461 70.3222 92.2057C69.9632 92.4797 69.6228 92.7778 69.3198 93.1143C68.7043 93.7946 68.2404 94.5759 67.8977 95.4341L69.0423 95.5927C69.061 94.4341 69.4853 93.2874 70.2523 92.4316C70.975 91.6264 72.1383 90.5014 71.1941 89.3884C70.9377 89.0855 70.4667 89.2009 70.2779 89.511C69.9282 90.0807 69.9282 90.8018 70.2569 91.3812C70.3525 91.5494 70.5623 91.7009 70.7605 91.6792C71.4389 91.6023 72.0287 90.9148 71.7466 90.1913C71.6394 89.9148 71.4156 89.7129 71.1078 89.761C70.8234 89.8042 70.6043 90.047 70.602 90.3523C70.5973 90.7778 70.595 91.2009 70.5903 91.6264L71.327 91.047C71.2267 91.0182 71.2454 91.035 71.3783 91.0999C71.4062 91.148 71.4016 91.1408 71.3643 91.0759C71.3596 91.0254 71.3247 90.9869 71.2943 90.9076C71.2221 90.7081 71.1521 90.5038 71.0332 90.3259C70.7442 89.9004 70.2662 89.7249 69.7767 89.7946C68.6134 89.9629 68.3126 91.1456 68.1914 92.1696C68.1564 92.4629 68.4385 92.7273 68.6973 92.761C69.0004 92.7994 69.2312 92.6191 69.3361 92.3307C69.6531 91.4629 69.9702 90.5975 70.2872 89.7297C70.4924 89.1672 69.6881 88.7129 69.3128 89.1456C68.2567 90.3643 67.6296 91.8667 67.4827 93.4941C67.4337 94.0326 68.1425 94.261 68.4782 93.9196C69.8583 92.5158 70.5786 90.4533 70.3245 88.4653C70.2826 88.1432 70.0867 87.8643 69.7417 87.8643C69.4596 87.8643 69.1169 88.1408 69.1589 88.4653C69.3757 90.1576 68.8395 91.8667 67.6552 93.0687L68.6507 93.4941C68.7672 92.2033 69.3011 90.9605 70.1404 89.9965L69.1659 89.4124C68.8488 90.2802 68.5318 91.1456 68.2147 92.0134L69.3594 92.172C69.3967 91.8499 69.434 91.4581 69.6275 91.1889C69.6811 91.1143 69.7487 91.0494 69.8047 91.023C69.793 91.0302 69.9935 90.9725 69.9282 90.9821C69.9492 90.9797 70.1147 91.0086 70.0401 90.9821C70.0821 90.999 70.0891 91.0158 70.1287 91.1047C70.1753 91.2057 70.2266 91.3739 70.2779 91.499C70.4201 91.8403 70.6532 92.1288 71.0216 92.2129C71.3899 92.297 71.7559 92.0398 71.7583 91.6336C71.7606 91.2273 71.7653 90.785 71.7699 90.3595L70.6253 90.5182C70.6952 90.6961 70.6299 90.5446 70.6486 90.535C70.7162 90.5013 70.5274 90.511 70.7628 90.4845L71.2664 90.7826C71.1405 90.559 71.1545 90.3427 71.2874 90.1264L70.3712 90.2489C70.3828 90.261 70.3898 90.2898 70.3875 90.3163C70.3875 90.3499 70.3665 90.4148 70.3385 90.4821C70.2476 90.6888 70.0984 90.8739 69.9515 91.0398C69.5809 91.4629 69.1892 91.8403 68.8745 92.3139C68.2357 93.2754 67.8977 94.4389 67.879 95.6023C67.8744 95.898 68.1052 96.1576 68.3849 96.1937C68.695 96.2321 68.9118 96.0494 69.0237 95.7634C69.3687 94.898 69.9259 94.1288 70.6043 93.5134C71.2827 92.898 72.3854 92.5783 72.7397 91.6143C73.0568 90.7514 72.7304 89.7153 72.1056 89.0879C71.3876 88.3667 70.3758 88.1239 69.4247 87.9292C69.1426 87.8715 68.7602 88.0086 68.7066 88.3499C68.681 88.5086 68.6577 88.6696 68.632 88.8283H69.7557C69.5762 88.0879 69.0097 87.5013 68.294 87.3138C67.8674 87.2009 67.4571 87.6047 67.576 88.0542C67.7508 88.7033 67.9256 89.3547 68.1005 90.0038L69.2242 89.684C68.6903 87.9316 67.8324 86.3259 66.6994 84.9124C66.3077 84.4244 65.599 84.9581 65.7249 85.4965C66.1888 87.4821 66.6528 89.4677 67.1144 91.4509C67.189 91.7658 67.534 91.9557 67.8324 91.8715C68.1564 91.7802 68.2963 91.4533 68.2404 91.1312C67.7228 88.2778 66.7903 85.5182 65.4895 82.9436C65.3706 82.7105 65.0698 82.5999 64.832 82.6672C64.5663 82.7417 64.4334 82.9797 64.4031 83.2465C64.0837 86.2826 64.5173 89.3956 65.655 92.2153C65.7669 92.4917 65.9837 92.6937 66.2938 92.6456C66.5735 92.6023 66.802 92.3595 66.7996 92.0542C66.7717 89.2778 66.2844 86.511 65.3519 83.9076C65.2517 83.6287 65.0139 83.4292 64.7131 83.4773C64.4544 83.5182 64.1723 83.7682 64.2073 84.0686C64.6665 88.0566 64.7458 92.0879 64.4381 96.0927C64.3961 96.6432 64.3448 97.1913 64.2889 97.7393C64.2749 97.8788 64.2516 98.0687 64.1909 98.2177C64.1839 98.2321 64.1187 98.3523 64.135 98.3307C64.0744 98.4052 64.1466 98.3427 64.0511 98.3619L64.7691 98.7826C64.1024 95.1143 64.3378 91.3066 65.4172 87.7465L64.2725 87.5879C64.2842 90.9629 64.1163 94.3355 63.7713 97.6889H64.937C64.9766 94.5038 65.3659 91.3379 66.1049 88.2441H64.9812C65.3776 91.2129 65.2727 94.2562 64.6922 97.1913L65.8158 97.511C66.2495 94.7466 67.0794 92.059 68.2987 89.5542L67.2333 89.0903C66.7414 90.922 66.2495 92.7538 65.7552 94.5855C65.5804 95.2321 66.5036 95.6576 66.8206 95.0494C67.8301 93.1095 68.8372 91.172 69.8466 89.2321L68.7602 88.9292C68.8185 92.4893 67.8883 96.0302 66.1049 99.0807C65.6037 99.9389 65.0395 100.754 64.4101 101.516L64.6665 101.362C64.9766 101.307 64.9206 101.451 65.0768 101.576L65.0652 101.523C65.0745 101.576 65.0768 101.581 65.0745 101.535C65.0745 101.506 65.0931 101.398 65.0792 101.473C65.0792 101.468 65.1374 101.302 65.1025 101.372C65.2354 101.086 65.4941 100.828 65.6923 100.59C66.1795 100.004 66.6971 99.4461 67.1563 98.8355C68.0772 97.6143 68.7299 96.1456 68.4315 94.5735C68.3173 93.9749 67.4524 94.0278 67.3079 94.5735C66.788 96.5374 65.5221 98.2225 63.8109 99.2321L64.6082 100.054C66.2844 97.6648 67.5899 95.0134 68.4945 92.2153L67.3708 91.8956C66.6994 95.374 65.6154 98.8932 63.4566 101.715L64.4311 102.299C64.9393 100.292 64.0184 98.386 62.8318 96.8451C62.2513 96.0927 61.5869 95.3018 60.7943 94.7802C60.37 94.5014 59.8874 94.3451 59.3838 94.3427C58.9805 94.3427 58.5469 94.4581 58.2066 94.1696C57.5585 93.6191 57.9827 92.7153 58.7241 92.6071L58.0667 91.7249C57.4629 92.8139 57.6121 94.1432 58.3744 95.1023C58.5562 95.3307 58.9316 95.3187 59.1391 95.1504C59.3815 94.9509 59.4118 94.6576 59.2883 94.374C58.8663 93.4028 59.3186 92.1456 60.2068 91.6215L59.3512 90.9437C58.9083 92.636 58.5423 94.4076 59.258 96.0783C59.3745 96.3475 59.7475 96.4317 59.9853 96.3235C60.2604 96.1985 60.3816 95.9148 60.3234 95.6143C59.9876 93.922 60.3863 92.059 61.4144 90.6889L60.4399 90.1047C60.0389 92.3307 59.6613 94.6095 60.1625 96.8523C60.2324 97.1696 60.5845 97.3547 60.8805 97.273C61.2116 97.1793 61.3398 96.8547 61.2885 96.5326C60.9645 94.499 61.3165 92.3643 62.2513 90.547L61.1649 90.2441C61.0134 91.7514 60.8642 93.2586 60.7127 94.7658C60.5914 95.9701 60.4119 97.3115 61.2862 98.2754C61.461 98.4701 61.7757 98.5014 61.9925 98.3692C62.235 98.2225 62.2979 97.9581 62.2606 97.6913C61.8737 94.9244 62.2 92.0831 63.1419 89.4677L61.9972 89.309C61.461 93.6672 60.9575 98.0735 61.6732 102.441C61.7827 103.117 62.8295 102.948 62.8178 102.283C62.7432 97.6023 63.0323 92.9148 63.7084 88.285C63.8995 86.9701 64.1233 85.6576 64.3751 84.3523L63.2305 84.1936C63.1442 89.011 62.9344 93.8235 62.5963 98.6288C62.5008 99.9797 62.3959 101.328 62.284 102.677C62.249 103.102 62.6826 103.314 63.0206 103.256C64.1163 103.071 64.2958 101.73 64.3378 100.807C64.4008 99.4076 64.4637 98.011 64.529 96.6119C64.6549 93.8163 64.7831 91.0182 64.909 88.2225C64.9812 86.6239 65.0535 85.0278 65.1258 83.4292C65.1608 82.6552 63.9951 82.6576 63.9601 83.4292L63.9508 83.4076Z" fill="#4D58D8" stroke="#4D58D8" stroke-width="2" stroke-linejoin="round"/>
<path d="M67.7588 89.5788C67.5189 89.1745 67.5326 88.702 67.528 88.2437C67.5234 87.6725 67.4777 87.106 67.3749 86.5443C67.1738 85.4513 66.7465 84.3959 66.1478 83.4722C65.7411 82.8469 64.7517 83.4346 65.1607 84.0645C65.7479 84.9718 66.1364 85.9778 66.3078 87.0567C66.4792 88.1356 66.2141 89.2333 66.7739 90.1711C67.1578 90.8151 68.1473 90.2252 67.7611 89.5788H67.7588Z" fill="#4D58D8" stroke="#4D58D8" stroke-width="2" stroke-linejoin="round"/>
<path d="M62.6659 98.9006C62.6275 98.8551 62.5891 98.8096 62.5507 98.7641C62.5099 98.7114 62.5123 98.7162 62.5627 98.7785C62.5459 98.7545 62.5267 98.7306 62.5099 98.7067C62.4404 98.6085 62.3756 98.5103 62.3132 98.4073C62.2509 98.3044 62.1957 98.199 62.1429 98.0913C62.1165 98.0386 62.0877 97.9835 62.0686 97.9284C62.1213 98.0769 62.0662 97.9165 62.0542 97.8853C61.9726 97.6698 61.9078 97.4447 61.8646 97.2172C61.8527 97.1598 61.8431 97.0999 61.8335 97.04C61.8239 96.973 61.8239 96.9802 61.8359 97.0664C61.8335 97.0376 61.8287 97.0065 61.8263 96.9778C61.8143 96.8581 61.8095 96.7407 61.8071 96.621C61.8023 96.3073 61.5336 96.008 61.2074 96.0223C60.8811 96.0367 60.6029 96.2858 60.6077 96.621C60.6221 97.7776 61.0586 98.8791 61.8167 99.7483C62.023 99.9854 62.4572 99.9758 62.6659 99.7483C62.8985 99.4969 62.8866 99.1544 62.6659 98.9006Z" fill="#4D58D8" stroke="#4D58D8" stroke-width="2" stroke-linejoin="round"/>
<path d="M107.656 135.105C107.192 134.933 106.726 134.761 106.263 134.589C106.031 134.502 105.799 134.416 105.565 134.33C105.496 134.304 105.23 134.23 105.214 134.155C105.193 134.069 105.581 133.888 105.655 133.86C106.017 133.72 106.407 133.683 106.791 133.65C107.637 133.576 108.473 133.478 109.198 132.987C109.882 132.526 110.387 131.864 110.657 131.08C110.905 130.36 110.862 129.403 111.355 128.796C111.52 128.593 111.777 128.391 112.027 128.386C112.298 128.384 112.456 128.686 112.564 128.928C113.136 130.225 113.17 131.701 113.845 132.963C114.196 133.62 114.728 134.158 115.396 134.479C116.027 134.784 116.966 134.942 117.321 135.629C117.464 135.906 117.395 136.118 117.188 136.332C116.911 136.623 116.596 136.875 116.312 137.159C115.717 137.753 115.18 138.4 114.689 139.084C113.712 140.449 112.968 141.992 112.495 143.608C112.424 143.853 112.369 144.314 112.131 144.458C111.986 144.544 111.757 144.412 111.628 144.27C111.396 144.013 111.355 143.62 111.332 143.287C111.304 142.884 111.293 142.484 111.242 142.081C110.855 138.966 109.175 136.111 106.653 134.288C106.35 134.069 106.036 133.869 105.71 133.685L105.572 134.749C106.309 134.486 107.059 134.458 107.809 134.682C108.349 134.845 108.792 134.104 108.367 133.708C107.621 133.012 106.215 133.364 106.024 134.437C105.955 134.824 106.18 135.15 106.577 135.173C107.396 135.222 108.069 134.698 108.374 133.96L107.268 133.65C107.208 134.018 107.149 134.386 107.089 134.754C107.048 135.012 107.116 135.271 107.353 135.41C107.562 135.534 107.883 135.513 108.048 135.32C108.516 134.77 108.87 134.169 109.138 133.497C109.255 133.206 109.012 132.856 108.737 132.779C108.408 132.689 108.149 132.894 108.03 133.187C107.766 133.839 107.663 134.556 107.729 135.257C107.796 135.958 108.606 136.018 108.856 135.41L110.04 132.544L108.934 132.235C108.686 133.459 108.438 134.682 108.19 135.906C108.041 136.649 109.035 136.912 109.296 136.216C109.845 134.758 110.391 133.301 110.94 131.841L109.833 131.531C109.436 133.208 109.173 134.917 109.039 136.637C108.987 137.32 109.971 137.387 110.166 136.791C110.802 134.849 111.438 132.908 112.073 130.966L110.967 130.656C110.359 133.096 109.886 135.569 109.551 138.062C109.51 138.374 109.625 138.686 109.953 138.779C110.263 138.866 110.563 138.672 110.66 138.372C111.35 136.179 112.041 133.983 112.73 131.79L111.623 131.48C111.16 133.883 110.694 136.288 110.23 138.691C110.088 139.424 111.098 139.713 111.337 139.001C111.947 137.175 112.56 135.35 113.17 133.524L112.064 133.215C111.598 135.762 111.132 138.309 110.666 140.854C110.533 141.583 111.55 141.888 111.773 141.164C112.466 138.907 113.159 136.654 113.852 134.398L112.746 134.088C112.085 136.88 111.61 139.713 111.316 142.568C111.247 143.231 112.277 143.341 112.443 142.721C113.062 140.423 113.682 138.123 114.301 135.825L113.195 135.515C112.755 138.207 112.234 140.882 111.63 143.541C111.465 144.27 112.564 144.581 112.736 143.85C113.138 142.151 113.712 140.5 114.469 138.928L113.42 138.479C112.895 140.374 112.275 142.239 111.561 144.069H112.668C111.917 141.85 111.522 139.538 111.504 137.194C111.499 136.535 110.561 136.407 110.377 137.04C109.797 139.031 109.776 141.161 110.308 143.164C110.451 143.694 111.3 143.741 111.415 143.164C111.871 140.842 112.895 138.658 114.414 136.859L113.434 136.446C113.427 137.517 113.172 138.561 112.679 139.508L113.728 139.958C114.184 138.775 114.756 137.643 115.421 136.568L114.373 136.118C114.122 137.35 113.73 138.544 113.182 139.671C112.851 140.351 113.744 140.866 114.173 140.258C114.602 139.65 115.04 139.033 115.472 138.421L114.48 137.834C114.212 138.349 113.941 138.861 113.673 139.375L114.664 139.962C115.3 138.46 116.094 137.04 117.039 135.718L115.99 135.578C116.073 135.974 116.078 136.37 116.036 136.772C115.988 137.233 116.553 137.466 116.899 137.275C117.751 136.803 117.666 135.66 117.158 134.959C116.879 134.572 116.498 134.337 116.078 134.13C115.658 133.923 115.247 133.76 114.946 133.406C114.565 132.956 113.833 133.436 113.987 133.972C114.256 134.905 114.735 135.748 115.396 136.453C115.834 136.919 116.686 136.295 116.298 135.748C115.945 135.252 115.646 134.717 115.43 134.146L114.588 134.803C114.786 134.935 115.128 135.161 115.169 135.359C115.18 135.415 115.185 135.469 115.144 135.543C115.146 135.538 115.157 135.483 115.176 135.499C115.18 135.504 115.047 135.38 115.015 135.345C114.471 134.779 114.219 133.888 114.198 133.117L113.129 133.41C113.663 134.349 114.028 135.357 114.233 136.421L115.192 135.855C114.354 134.772 114.038 133.369 113.68 132.072C113.294 130.672 112.844 129.285 111.903 128.16C111.658 127.867 111.181 127.979 111.002 128.279C110.318 129.429 110.088 130.747 110.276 132.069C110.341 132.526 110.956 132.598 111.236 132.325C112.121 131.469 112.482 130.221 112.261 129.012C112.167 128.488 111.46 128.486 111.213 128.873C110.614 129.806 110.336 130.942 110.451 132.051C110.51 132.63 111.181 132.835 111.52 132.344C112.043 131.587 112.316 130.689 112.337 129.767H111.19C111.181 130.547 111.05 131.299 110.811 132.039C110.572 132.779 111.688 133.059 111.917 132.349C112.188 131.515 112.326 130.644 112.337 129.767C112.346 129.017 111.206 129.017 111.19 129.767C111.174 130.516 110.94 131.164 110.529 131.757L111.598 132.051C111.504 131.124 111.704 130.242 112.204 129.459L111.155 129.32C111.3 130.123 110.999 130.945 110.426 131.501L111.385 131.757C111.242 130.754 111.483 129.725 111.995 128.863L111.093 128.982C111.972 130.032 112.312 131.42 112.668 132.714C113.053 134.123 113.482 135.513 114.384 136.677C114.538 136.877 114.88 136.887 115.079 136.768C115.309 136.63 115.391 136.365 115.343 136.111C115.123 134.954 114.705 133.841 114.125 132.821C113.845 132.33 113.039 132.533 113.055 133.115C113.076 133.846 113.246 134.551 113.565 135.206C113.884 135.86 114.382 136.598 115.141 136.649C115.841 136.696 116.332 136.067 116.323 135.394C116.312 134.651 115.731 134.174 115.173 133.799C114.776 133.531 114.152 133.981 114.331 134.456C114.584 135.124 114.903 135.755 115.316 136.337L116.218 135.632C115.692 135.073 115.316 134.407 115.102 133.664L114.143 134.23C114.655 134.831 115.405 134.984 116.023 135.422C116.192 135.541 116.332 135.746 116.39 135.965C116.394 135.983 116.415 136.151 116.41 136.069C116.41 136.072 116.403 136.26 116.413 136.16C116.401 136.281 116.429 136.139 116.387 136.239C116.399 136.211 116.376 136.244 116.328 136.272L117.191 136.775C117.243 136.27 117.207 135.769 117.103 135.271C116.993 134.733 116.319 134.761 116.055 135.131C115.109 136.453 114.313 137.874 113.68 139.375C113.558 139.664 113.595 139.999 113.886 140.172C114.145 140.325 114.524 140.242 114.671 139.962C114.939 139.448 115.21 138.935 115.479 138.421C115.832 137.748 114.914 137.231 114.487 137.834C114.06 138.437 113.62 139.059 113.188 139.671L114.18 140.258C114.772 139.04 115.217 137.757 115.486 136.426C115.614 135.788 114.793 135.401 114.437 135.976C113.719 137.14 113.122 138.367 112.629 139.646C112.392 140.263 113.377 140.67 113.677 140.095C114.267 138.966 114.581 137.722 114.588 136.444C114.591 135.967 113.941 135.641 113.608 136.032C111.963 137.983 110.811 140.33 110.315 142.849H111.421C110.94 141.04 110.965 139.143 111.49 137.345L110.364 137.192C110.384 139.634 110.788 142.067 111.568 144.377C111.761 144.947 112.468 144.907 112.674 144.377C113.388 142.547 114.008 140.682 114.533 138.786C114.705 138.167 113.776 137.732 113.484 138.337C112.684 139.997 112.059 141.739 111.635 143.538L112.741 143.848C113.342 141.189 113.865 138.514 114.306 135.823C114.357 135.513 114.226 135.196 113.904 135.105C113.606 135.022 113.28 135.208 113.198 135.513C112.578 137.811 111.958 140.111 111.339 142.409L112.466 142.563C112.75 139.811 113.216 137.082 113.854 134.393C114.026 133.664 112.968 133.368 112.748 134.083C112.055 136.339 111.362 138.593 110.669 140.849L111.775 141.159C112.241 138.612 112.707 136.065 113.172 133.52C113.306 132.786 112.305 132.495 112.066 133.21C111.456 135.036 110.843 136.861 110.233 138.686L111.339 138.996C111.802 136.593 112.268 134.188 112.732 131.785C112.874 131.054 111.853 130.756 111.626 131.476C110.935 133.669 110.244 135.864 109.556 138.058L110.662 138.367C110.995 135.874 111.467 133.401 112.078 130.961C112.261 130.23 111.203 129.944 110.972 130.651C110.336 132.593 109.7 134.535 109.065 136.477L110.191 136.63C110.315 135.012 110.57 133.413 110.944 131.834C111.119 131.094 110.097 130.835 109.838 131.524C109.29 132.982 108.743 134.44 108.195 135.899L109.301 136.209C109.549 134.984 109.797 133.762 110.045 132.537C110.107 132.23 109.957 131.909 109.643 131.82C109.313 131.727 109.058 131.937 108.936 132.228L107.752 135.094L108.879 135.247C108.821 134.633 108.906 134.058 109.138 133.487L108.032 133.178C107.842 133.653 107.566 134.1 107.236 134.486L108.195 135.052C108.255 134.684 108.314 134.316 108.374 133.948C108.496 133.199 107.552 132.952 107.268 133.639C107.155 133.909 106.836 134.013 106.577 133.997L107.13 134.733C107.13 134.733 107.165 134.596 107.155 134.619C107.137 134.663 107.22 134.547 107.171 134.598C107.222 134.542 107.19 134.577 107.227 134.549C107.238 134.54 107.344 134.491 107.291 134.512C107.394 134.472 107.392 134.467 107.484 134.484C107.509 134.488 107.543 134.509 107.555 134.519L108.112 133.545C107.183 133.266 106.18 133.285 105.264 133.613C104.819 133.774 104.672 134.419 105.127 134.677C107.894 136.246 109.859 139.238 110.129 142.458C110.208 143.389 110.139 144.481 110.894 145.161C111.612 145.809 112.668 145.792 113.209 144.931C113.436 144.57 113.524 144.127 113.647 143.725C113.771 143.322 113.923 142.884 114.095 142.477C114.444 141.643 114.877 140.842 115.375 140.09C115.873 139.338 116.426 138.665 117.046 138.039C117.666 137.413 118.6 136.838 118.54 135.846C118.48 134.852 117.682 134.193 116.842 133.83C116.124 133.52 115.403 133.294 114.96 132.593C114.139 131.292 114.18 129.622 113.507 128.249C113.071 127.357 112.158 126.975 111.256 127.401C110.354 127.827 110.017 128.691 109.824 129.576C109.728 130.023 109.666 130.498 109.48 130.917C109.324 131.268 109.088 131.573 108.798 131.823C108.14 132.391 107.314 132.412 106.497 132.498C105.622 132.589 104.491 132.81 104.133 133.753C103.95 134.235 104.117 134.745 104.509 135.059C104.902 135.373 105.395 135.49 105.843 135.655C106.343 135.841 106.843 136.025 107.344 136.211C107.635 136.318 107.972 136.09 108.05 135.804C108.138 135.48 107.943 135.196 107.649 135.087L107.656 135.105Z" fill="#4D58D8"/>
<path d="M112.337 129.767C112.316 130.689 112.043 131.587 111.52 132.344C111.181 132.835 110.51 132.63 110.451 132.051C110.336 130.942 110.614 129.806 111.213 128.873C111.46 128.486 112.167 128.488 112.261 129.012C112.482 130.221 112.121 131.469 111.236 132.325C110.956 132.598 110.341 132.526 110.276 132.069C110.088 130.747 110.318 129.429 111.002 128.279C111.181 127.979 111.658 127.867 111.903 128.16C112.844 129.285 113.294 130.672 113.68 132.072C114.038 133.369 114.354 134.772 115.192 135.855L114.233 136.421C114.028 135.357 113.663 134.349 113.129 133.41L114.198 133.117C114.219 133.888 114.471 134.779 115.015 135.345C115.047 135.38 115.18 135.504 115.176 135.499C115.157 135.483 115.146 135.538 115.144 135.543C115.185 135.469 115.18 135.415 115.169 135.359C115.128 135.161 114.786 134.935 114.588 134.803L115.43 134.146C115.646 134.717 115.945 135.252 116.298 135.748C116.686 136.295 115.834 136.919 115.396 136.453C114.735 135.748 114.256 134.905 113.987 133.972C113.833 133.436 114.565 132.956 114.946 133.406C115.247 133.76 115.658 133.923 116.078 134.13C116.498 134.337 116.879 134.572 117.158 134.959C117.666 135.66 117.751 136.803 116.899 137.275C116.553 137.466 115.988 137.233 116.036 136.772C116.078 136.37 116.073 135.974 115.99 135.578L117.039 135.718C116.094 137.04 115.3 138.46 114.664 139.962L113.673 139.375C113.941 138.861 114.212 138.349 114.48 137.834L115.472 138.421C115.04 139.033 114.602 139.65 114.173 140.258C113.744 140.866 112.851 140.351 113.182 139.671C113.73 138.544 114.122 137.35 114.373 136.118L115.421 136.568C114.756 137.643 114.184 138.775 113.728 139.958L112.679 139.508C113.172 138.561 113.427 137.517 113.434 136.446L114.414 136.859C112.895 138.658 111.871 140.842 111.415 143.164C111.3 143.741 110.451 143.694 110.308 143.164C109.776 141.161 109.797 139.031 110.377 137.04C110.561 136.407 111.499 136.535 111.504 137.194C111.522 139.538 111.917 141.85 112.668 144.069H111.561C112.275 142.239 112.895 140.374 113.42 138.479L114.469 138.928C113.712 140.5 113.138 142.151 112.736 143.85C112.564 144.581 111.465 144.27 111.63 143.541C112.234 140.882 112.755 138.207 113.195 135.515L114.301 135.825C113.682 138.123 113.062 140.423 112.443 142.721C112.277 143.341 111.247 143.231 111.316 142.568C111.61 139.713 112.085 136.88 112.746 134.088L113.852 134.398C113.159 136.654 112.466 138.907 111.773 141.164C111.55 141.888 110.533 141.583 110.666 140.854C111.132 138.309 111.598 135.762 112.064 133.215L113.17 133.524C112.56 135.35 111.947 137.175 111.337 139.001C111.098 139.713 110.088 139.424 110.23 138.691C110.694 136.288 111.16 133.883 111.623 131.48L112.73 131.79C112.041 133.983 111.35 136.179 110.66 138.372C110.563 138.672 110.263 138.866 109.953 138.779C109.625 138.686 109.51 138.374 109.551 138.062C109.886 135.569 110.359 133.096 110.967 130.656L112.073 130.966C111.438 132.908 110.802 134.849 110.166 136.791C109.971 137.387 108.987 137.32 109.039 136.637C109.173 134.917 109.436 133.208 109.833 131.531L110.94 131.841C110.391 133.301 109.845 134.758 109.296 136.216C109.035 136.912 108.041 136.649 108.19 135.906C108.438 134.682 108.686 133.459 108.934 132.235L110.04 132.544L108.856 135.41C108.606 136.018 107.796 135.958 107.729 135.257C107.663 134.556 107.766 133.839 108.03 133.187C108.149 132.894 108.408 132.689 108.737 132.779C109.012 132.856 109.255 133.206 109.138 133.497C108.87 134.169 108.516 134.77 108.048 135.32C107.883 135.513 107.562 135.534 107.353 135.41C107.116 135.271 107.048 135.012 107.089 134.754C107.149 134.386 107.208 134.018 107.268 133.65L108.374 133.96C108.069 134.698 107.396 135.222 106.577 135.173C106.18 135.15 105.955 134.824 106.024 134.437C106.215 133.364 107.621 133.012 108.367 133.708C108.792 134.104 108.349 134.845 107.809 134.682C107.059 134.458 106.309 134.486 105.572 134.749L105.71 133.685C106.036 133.869 106.35 134.069 106.653 134.288C109.175 136.111 110.855 138.966 111.242 142.081C111.293 142.484 111.304 142.884 111.332 143.287C111.355 143.62 111.396 144.013 111.628 144.27C111.757 144.412 111.986 144.544 112.131 144.458C112.369 144.314 112.424 143.853 112.495 143.608C112.968 141.992 113.712 140.449 114.689 139.084C115.18 138.4 115.717 137.753 116.312 137.159C116.596 136.875 116.911 136.623 117.188 136.332C117.395 136.118 117.464 135.906 117.321 135.629C116.966 134.942 116.027 134.784 115.396 134.479C114.728 134.158 114.196 133.62 113.845 132.963C113.17 131.701 113.136 130.225 112.564 128.928C112.456 128.686 112.298 128.384 112.027 128.386C111.777 128.391 111.52 128.593 111.355 128.796C110.862 129.403 110.905 130.36 110.657 131.08C110.387 131.864 109.882 132.526 109.198 132.987C108.473 133.478 107.637 133.576 106.791 133.65C106.407 133.683 106.017 133.72 105.655 133.86C105.581 133.888 105.193 134.069 105.214 134.155C105.23 134.23 105.496 134.304 105.565 134.33C105.799 134.416 106.031 134.502 106.263 134.589C106.726 134.761 107.192 134.933 107.656 135.105L107.649 135.087C107.943 135.196 108.138 135.48 108.05 135.804C107.972 136.09 107.635 136.318 107.344 136.211C106.843 136.025 106.343 135.841 105.843 135.655C105.395 135.49 104.902 135.373 104.509 135.059C104.117 134.745 103.95 134.235 104.133 133.753C104.491 132.81 105.622 132.589 106.497 132.498C107.314 132.412 108.14 132.391 108.798 131.823C109.088 131.573 109.324 131.268 109.48 130.917C109.666 130.498 109.728 130.023 109.824 129.576C110.017 128.691 110.354 127.827 111.256 127.401C112.158 126.975 113.071 127.357 113.507 128.249C114.18 129.622 114.139 131.292 114.96 132.593C115.403 133.294 116.124 133.52 116.842 133.83C117.682 134.193 118.48 134.852 118.54 135.846C118.6 136.838 117.666 137.413 117.046 138.039C116.426 138.665 115.873 139.338 115.375 140.09C114.877 140.842 114.444 141.643 114.095 142.477C113.923 142.884 113.771 143.322 113.647 143.725C113.524 144.127 113.436 144.57 113.209 144.931C112.668 145.792 111.612 145.809 110.894 145.161C110.139 144.481 110.208 143.389 110.129 142.458C109.859 139.238 107.894 136.246 105.127 134.677C104.672 134.419 104.819 133.774 105.264 133.613C106.18 133.285 107.183 133.266 108.112 133.545L107.555 134.519C107.543 134.509 107.509 134.488 107.484 134.484C107.392 134.467 107.394 134.472 107.291 134.512C107.344 134.491 107.238 134.54 107.227 134.549C107.19 134.577 107.222 134.542 107.171 134.598C107.22 134.547 107.137 134.663 107.155 134.619C107.165 134.596 107.13 134.733 107.13 134.733L106.577 133.997C106.836 134.013 107.155 133.909 107.268 133.639C107.552 132.952 108.496 133.199 108.374 133.948C108.314 134.316 108.255 134.684 108.195 135.052L107.236 134.486C107.566 134.1 107.842 133.653 108.032 133.178L109.138 133.487C108.906 134.058 108.821 134.633 108.879 135.247L107.752 135.094L108.936 132.228C109.058 131.937 109.313 131.727 109.643 131.82C109.957 131.909 110.107 132.23 110.045 132.537C109.797 133.762 109.549 134.984 109.301 136.209L108.195 135.899C108.743 134.44 109.29 132.982 109.838 131.524C110.097 130.835 111.119 131.094 110.944 131.834C110.57 133.413 110.315 135.012 110.191 136.63L109.065 136.477C109.7 134.535 110.336 132.593 110.972 130.651C111.203 129.944 112.261 130.23 112.078 130.961C111.467 133.401 110.995 135.874 110.662 138.367L109.556 138.058C110.244 135.864 110.935 133.669 111.626 131.476C111.853 130.756 112.874 131.054 112.732 131.785C112.268 134.188 111.802 136.593 111.339 138.996L110.233 138.686C110.843 136.861 111.456 135.036 112.066 133.21C112.305 132.495 113.306 132.786 113.172 133.52C112.707 136.065 112.241 138.612 111.775 141.159L110.669 140.849C111.362 138.593 112.055 136.339 112.748 134.083C112.968 133.368 114.026 133.664 113.854 134.393C113.216 137.082 112.75 139.811 112.466 142.563L111.339 142.409C111.958 140.111 112.578 137.811 113.198 135.513C113.28 135.208 113.606 135.022 113.904 135.105C114.226 135.196 114.357 135.513 114.306 135.823C113.865 138.514 113.342 141.189 112.741 143.848L111.635 143.538C112.059 141.739 112.684 139.997 113.484 138.337C113.776 137.732 114.705 138.167 114.533 138.786C114.008 140.682 113.388 142.547 112.674 144.377C112.468 144.907 111.761 144.947 111.568 144.377C110.788 142.067 110.384 139.634 110.364 137.192L111.49 137.345C110.965 139.143 110.94 141.04 111.421 142.849H110.315C110.811 140.33 111.963 137.983 113.608 136.032C113.941 135.641 114.591 135.967 114.588 136.444C114.581 137.722 114.267 138.966 113.677 140.095C113.377 140.67 112.392 140.263 112.629 139.646C113.122 138.367 113.719 137.14 114.437 135.976C114.793 135.401 115.614 135.788 115.486 136.426C115.217 137.757 114.772 139.04 114.18 140.258L113.188 139.671C113.62 139.059 114.06 138.437 114.487 137.834C114.914 137.231 115.832 137.748 115.479 138.421C115.21 138.935 114.939 139.448 114.671 139.962C114.524 140.242 114.145 140.325 113.886 140.172C113.595 139.999 113.558 139.664 113.68 139.375C114.313 137.874 115.109 136.453 116.055 135.131C116.319 134.761 116.993 134.733 117.103 135.271C117.207 135.769 117.243 136.27 117.191 136.775L116.328 136.272C116.376 136.244 116.399 136.211 116.387 136.239C116.429 136.139 116.401 136.281 116.413 136.16C116.403 136.26 116.41 136.072 116.41 136.069C116.415 136.151 116.394 135.983 116.39 135.965C116.332 135.746 116.192 135.541 116.023 135.422C115.405 134.984 114.655 134.831 114.143 134.23L115.102 133.664C115.316 134.407 115.692 135.073 116.218 135.632L115.316 136.337C114.903 135.755 114.584 135.124 114.331 134.456C114.152 133.981 114.776 133.531 115.173 133.799C115.731 134.174 116.312 134.651 116.323 135.394C116.332 136.067 115.841 136.696 115.141 136.649C114.382 136.598 113.884 135.86 113.565 135.206C113.246 134.551 113.076 133.846 113.055 133.115C113.039 132.533 113.845 132.33 114.125 132.821C114.705 133.841 115.123 134.954 115.343 136.111C115.391 136.365 115.309 136.63 115.079 136.768C114.88 136.887 114.538 136.877 114.384 136.677C113.482 135.513 113.053 134.123 112.668 132.714C112.312 131.42 111.972 130.032 111.093 128.982L111.995 128.863C111.483 129.725 111.242 130.754 111.385 131.757L110.426 131.501C110.999 130.945 111.3 130.123 111.155 129.32L112.204 129.459C111.704 130.242 111.504 131.124 111.598 132.051L110.529 131.757C110.94 131.164 111.174 130.516 111.19 129.767M112.337 129.767H111.19M112.337 129.767C112.326 130.644 112.188 131.515 111.917 132.349C111.688 133.059 110.572 132.779 110.811 132.039C111.05 131.299 111.181 130.547 111.19 129.767M112.337 129.767C112.346 129.017 111.206 129.017 111.19 129.767" stroke="#4D58D8" stroke-width="2" stroke-linejoin="round"/>
<path d="M111.353 128.7C112.157 129.85 111.796 131.37 111.867 132.679C111.906 133.395 112.021 134.148 112.465 134.736C112.723 135.078 113.043 135.254 113.409 135.458C113.655 135.595 113.792 135.772 113.94 136.017C114.265 136.551 114.526 137.14 115.079 137.486C115.184 137.551 115.299 137.597 115.411 137.648C115.487 137.682 115.694 137.815 115.733 137.812L115.723 137.805C115.65 137.713 115.64 137.597 115.694 137.461C115.689 137.461 115.621 137.512 115.597 137.527C115.431 137.636 115.26 137.737 115.077 137.817C114.758 137.955 114.414 138.042 114.075 138.122C113.736 138.202 113.316 138.355 112.957 138.296C112.631 138.246 112.335 137.972 112.079 137.781C111.699 137.498 111.318 137.217 110.938 136.934C110.609 136.689 110.267 136.348 109.85 136.259C109.401 136.159 108.96 136.38 108.718 136.757C108.177 137.599 108.811 138.468 109.591 138.851C109.887 138.993 110.25 138.931 110.426 138.633C110.582 138.367 110.504 137.95 110.206 137.805C110.065 137.737 109.896 137.665 109.796 137.539C109.767 137.503 109.689 137.413 109.726 137.457C109.672 137.394 109.874 137.369 109.613 137.445L109.535 137.418C109.587 137.445 109.633 137.474 109.679 137.507C109.767 137.568 109.852 137.636 109.938 137.699C110.606 138.195 111.257 138.764 111.974 139.187C112.757 139.652 113.557 139.485 114.397 139.289C115.138 139.115 115.906 138.863 116.492 138.359C116.765 138.125 116.936 137.779 116.85 137.415C116.765 137.052 116.48 136.82 116.162 136.663C115.955 136.561 115.738 136.498 115.584 136.343C115.392 136.152 115.262 135.883 115.126 135.639C114.989 135.395 114.836 135.148 114.653 134.925C114.399 134.618 114.079 134.453 113.738 134.259C113.201 133.957 113.118 133.279 113.087 132.72C112.994 131.164 113.362 129.453 112.401 128.083C112.214 127.814 111.867 127.691 111.567 127.865C111.299 128.02 111.16 128.424 111.348 128.693L111.353 128.7Z" fill="#4D58D8" stroke="#4D58D8" stroke-width="2" stroke-linejoin="round"/>
<path d="M28.2252 139.728C28.9958 138.721 29.7133 137.676 30.357 136.579C30.6708 136.045 30.9684 135.501 31.2476 134.95C31.5268 134.399 31.7298 133.848 32.0413 133.343C32.1474 133.17 32.2789 133.009 32.4635 132.922C32.5996 132.858 32.7588 132.846 32.8811 132.863C33.2779 132.917 33.6286 133.184 33.894 133.477C34.623 134.281 34.623 135.548 34.8445 136.562C35.0799 137.645 35.5874 138.6 36.3973 139.345C37.2071 140.09 38.0815 140.56 39.0113 141.009C39.452 141.224 39.9088 141.414 40.3402 141.648C40.6402 141.811 41.0716 142.057 41.0624 142.458C41.0532 142.893 40.601 143.222 40.2503 143.376C39.7196 143.607 39.1336 143.671 38.5891 143.86C36.6557 144.529 35.3613 146.239 34.48 148.05C34.0139 149.009 33.6771 150.016 33.2802 151.005C32.9619 151.794 32.3343 152.915 31.3353 152.792C30.5001 152.688 30.387 151.667 30.3409 150.946C30.274 149.915 30.2694 148.908 29.921 147.922C29.5726 146.936 28.982 145.962 28.2137 145.213C27.8376 144.846 27.4154 144.518 26.9655 144.253C26.4487 143.95 25.888 143.733 25.3551 143.461C24.6145 143.08 23.567 142.317 23.9177 141.319C23.8808 141.425 23.9638 141.229 23.98 141.201C23.9961 141.172 24.0146 141.144 24.033 141.116C24.0838 141.035 23.9431 141.213 24.0469 141.099C24.0907 141.049 24.1346 141.005 24.183 140.96C24.2061 140.938 24.2315 140.915 24.2568 140.896C24.1553 140.976 24.2868 140.879 24.2984 140.872C24.3561 140.839 24.4114 140.801 24.4714 140.771C24.5014 140.754 24.5314 140.74 24.5637 140.726C24.7114 140.652 24.4991 140.749 24.5937 140.711C24.7552 140.648 24.919 140.596 25.0874 140.553C26.3541 140.222 27.9599 140.347 28.9635 139.347C29.2196 139.092 29.3949 138.771 29.4988 138.423C29.6372 137.969 29.0604 137.432 28.652 137.756C28.4121 137.945 28.1721 138.135 27.9322 138.326C27.6922 138.518 27.5538 138.834 27.7245 139.135C27.8722 139.395 28.2552 139.527 28.5136 139.347C28.892 139.083 29.2704 138.815 29.6464 138.551L28.7997 137.884C28.6128 138.884 28.4259 139.884 28.2367 140.884C28.1837 141.172 28.2921 141.466 28.5713 141.581C28.8251 141.685 29.155 141.605 29.2911 141.34C30.0248 139.915 30.7054 138.458 31.3307 136.979L30.2763 136.522C29.8425 139.416 29.4111 142.31 28.9773 145.206C28.8666 145.945 29.8425 146.253 30.0894 145.52C31.0146 142.759 31.9421 140 32.8673 137.239L31.7344 137.083C31.5591 140.021 31.2269 142.948 30.7377 145.849C30.6847 146.163 30.8185 146.485 31.1415 146.577C31.4391 146.659 31.7737 146.475 31.8521 146.163C32.4104 143.922 33.1741 141.74 34.1501 139.652L33.0749 139.354C33.1187 142.305 32.7081 145.232 31.8544 148.05L32.9665 148.364C33.5848 146.151 34.4754 144.038 35.622 142.057L34.5677 141.6C34.1962 144.314 33.5317 146.976 32.5904 149.541L33.7025 149.856C34.2539 147.946 35.0775 146.144 36.1435 144.48L35.0891 144.023C34.5054 145.619 33.9216 147.215 33.3356 148.811C33.1072 149.433 34.1108 149.872 34.39 149.267C35.3613 147.156 36.3303 145.045 37.3017 142.934L36.2265 142.636C36.2565 143.246 36.1389 143.83 35.8551 144.369C35.5021 145.038 36.4895 145.633 36.8518 144.964C37.1586 144.397 37.4655 143.83 37.7723 143.262L36.7756 142.667C36.5149 143.241 36.2565 143.813 35.9958 144.388C35.7189 145 36.388 145.546 36.9025 145.104C37.6385 144.468 38.3722 143.834 39.1082 143.198L38.1438 142.624C38.0469 142.974 37.9523 143.324 37.8554 143.674C37.6985 144.246 38.4114 144.659 38.8198 144.248C39.5581 143.503 40.3887 142.893 41.3093 142.404L40.4418 141.893C40.4187 142.359 40.0565 142.69 39.6273 142.773L40.188 143.761C40.6979 143.234 40.9793 142.492 40.8917 141.749C40.8455 141.352 40.5617 141.099 40.1626 141.18C39.5604 141.302 39.0574 141.818 38.9398 142.437C38.8013 143.177 39.835 143.489 40.0518 142.752C40.2387 142.116 39.9757 141.477 39.452 141.113C39.1174 140.882 38.7275 141.137 38.6052 141.466C38.4668 141.837 38.3307 142.21 38.1922 142.581C38.0907 142.853 38.2822 143.177 38.5268 143.279C38.8037 143.392 39.0828 143.288 39.2466 143.038C39.6458 142.43 39.6481 141.615 39.272 140.997C39.122 140.749 38.739 140.588 38.483 140.785C37.8392 141.276 37.4378 142.028 37.5001 142.867C37.5462 143.482 38.2292 143.631 38.5752 143.165C39.1982 142.328 39.0574 141.066 38.3399 140.343C38.1346 140.135 37.7216 140.092 37.5232 140.343C36.7779 141.281 36.3626 142.418 36.3765 143.631C36.3834 144.208 37.1655 144.447 37.4516 143.929C38.0515 142.844 38.6098 140.858 37.1794 140.163C36.8795 140.016 36.5818 140.094 36.3903 140.376C35.7374 141.336 35.389 142.477 35.359 143.643C35.3452 144.172 35.9912 144.399 36.3442 144.061C37.4816 142.964 37.74 141.144 37.004 139.745C36.8218 139.399 36.3603 139.373 36.0973 139.624C35.0591 140.614 34.6623 142.236 35.1445 143.607C35.2967 144.04 35.7674 144.172 36.1089 143.867C36.7064 143.336 37.1425 142.648 37.4055 141.884C37.6501 141.177 37.8762 140.068 37.1586 139.572C36.6026 139.187 35.7928 139.399 35.3798 139.905C34.7661 140.659 35.1075 141.667 35.4375 142.461C35.539 142.702 35.8643 142.789 36.0881 142.733C37.5232 142.373 38.0492 140.362 37.0433 139.286C36.6995 138.919 36.0489 139.196 36.0581 139.704C36.0789 140.714 36.9741 141.395 37.9177 141.241C38.1969 141.196 38.3699 140.853 38.3307 140.593C38.2845 140.279 38.0584 140.118 37.7631 140.08C36.7526 139.953 36.0166 138.99 35.6243 138.104C35.0891 136.898 35.0222 135.518 34.7407 134.241C34.6069 133.638 34.3854 133.028 33.8178 132.723C33.541 132.574 33.2018 132.555 32.9249 132.718C32.4866 132.976 32.5419 133.366 32.6112 133.806C32.8327 135.22 33.1118 136.626 33.4464 138.016C33.834 139.626 34.3 141.217 34.833 142.782C34.9368 143.083 35.2275 143.284 35.5436 143.196C35.8343 143.113 36.0443 142.773 35.9474 142.468C34.983 139.463 34.0185 136.461 33.0541 133.456C32.9734 133.208 32.7611 133.021 32.4981 133.021C32.2674 133.021 31.979 133.203 31.9421 133.456C31.4668 136.737 31.9813 140.08 33.4464 143.042C33.7117 143.581 34.5169 143.305 34.5215 142.745C34.5469 139.853 34.0578 136.962 33.0726 134.253C32.8765 133.716 32.1382 133.669 31.9605 134.253C31.0723 137.158 31.0492 140.314 31.8959 143.234C32.069 143.832 32.8073 143.754 33.008 143.234C34.3069 139.882 34.1824 136.071 32.7657 132.782C32.5904 132.373 31.9582 132.418 31.769 132.782C30.4724 135.281 29.9094 138.156 30.2117 140.974C30.2717 141.529 30.9684 141.811 31.2868 141.272C32.858 138.605 33.3125 135.326 32.5419 132.314C32.4381 131.912 31.8613 131.707 31.5775 132.054C30.1817 133.768 29.7456 135.969 29.6995 138.153C29.688 138.685 29.6995 139.217 29.7249 139.749C29.7503 140.281 29.7318 140.898 30.1425 141.293C30.6178 141.749 31.3007 141.562 31.7044 141.113C32.1082 140.664 32.3112 140.068 32.5189 139.525C33.0126 138.227 33.2595 136.832 33.2687 135.44C33.2733 134.749 32.3435 134.669 32.1359 135.283C31.4183 137.385 31.4737 139.752 32.302 141.811C32.452 142.184 32.948 142.442 33.2664 142.071C34.1408 141.045 34.6553 139.804 34.773 138.447L33.6402 138.603C33.857 139.38 34.0739 140.161 34.2908 140.938C34.42 141.402 35.1168 141.548 35.3452 141.08C35.5736 140.612 35.8089 140.123 36.0396 139.645L34.9853 139.503C35.1906 140.182 35.2967 140.865 35.2967 141.577C35.2967 142.125 36.1296 142.432 36.3719 141.875C36.741 141.023 36.4918 140.019 35.6843 139.536C35.4329 139.385 35.0291 139.458 34.8953 139.749C33.4533 142.872 32.7035 146.293 32.7311 149.752C32.7334 150.042 32.948 150.298 33.2318 150.333C33.5387 150.371 33.7532 150.191 33.864 149.91C34.3485 148.69 34.6323 147.407 34.7407 146.094C34.7938 145.437 33.714 145.279 33.6079 145.938C33.4048 147.191 33.1026 148.423 32.6988 149.624C32.6065 149.898 32.7819 150.217 33.0334 150.321C33.3172 150.437 33.5802 150.324 33.7532 150.08L34.2816 149.338L33.2272 148.882C33.0541 150.099 32.5166 151.196 31.6421 152.045L32.6065 152.619C32.8419 151 33.0772 149.383 33.3125 147.763L32.1797 147.607C32.1128 149.005 31.8313 150.371 31.3607 151.683L32.4935 151.839C32.512 148.839 32.7265 145.839 33.1557 142.872C33.2018 142.558 33.0795 142.236 32.7519 142.144C32.4704 142.064 32.1013 142.241 32.0413 142.558C31.4437 145.74 30.9938 148.953 30.687 152.18H31.8406C31.9305 149.423 31.8659 146.664 31.6445 143.915C31.5845 143.163 30.5255 143.146 30.4909 143.915C30.3755 146.515 30.4401 149.123 30.6893 151.714C30.7193 152.031 30.9315 152.305 31.2661 152.305C31.5729 152.305 31.8498 152.035 31.8429 151.714C31.7575 148.128 31.6721 144.541 31.5868 140.957C31.5683 140.198 30.4401 140.194 30.4332 140.957C30.4055 144.154 30.3755 147.35 30.3478 150.546L31.4806 150.39C30.86 148.6 30.5762 146.728 30.6408 144.83H29.4872C29.4872 146.815 29.5749 148.801 29.7503 150.78C29.8195 151.555 29.7987 152.482 30.2624 153.144C30.4932 153.473 30.8323 153.707 31.2384 153.707C31.4506 153.707 31.6445 153.636 31.8336 153.546C31.8636 153.532 32.0482 153.468 32.0621 153.433C32.1428 153.433 32.0874 153.423 31.8982 153.399C31.7737 153.295 31.7529 153.154 31.8359 152.972L32.0436 152.759L31.9975 152.792L32.7865 153.005C30.8577 149.714 29.7295 145.943 29.5403 142.109C29.4872 141.014 29.508 139.915 29.6003 138.823C29.628 138.503 29.3165 138.231 29.0235 138.231C28.6889 138.231 28.4744 138.503 28.4467 138.823C28.1075 142.825 28.7628 146.886 30.2924 150.581C30.7239 151.624 31.2245 152.631 31.7921 153.603C31.9444 153.863 32.3205 153.998 32.5812 153.816C33.0218 153.508 33.0611 152.953 32.6988 152.555C32.3366 152.158 31.8498 152.248 31.4068 152.451C31.3468 152.48 31.303 152.508 31.2384 152.527C31.2568 152.522 31.333 152.57 31.2661 152.532C31.2568 152.527 31.2199 152.489 31.2222 152.492C31.1807 152.435 31.1461 152.366 31.1184 152.303C30.9754 151.95 30.98 151.574 30.9431 151.184C30.7446 149.073 30.6454 146.953 30.6431 144.83C30.6431 144.066 29.5149 144.071 29.4895 144.83C29.4203 146.823 29.7203 148.825 30.3709 150.704C30.5831 151.314 31.4968 151.243 31.5037 150.548C31.5314 147.352 31.5614 144.156 31.5891 140.96H30.4355C30.5209 144.546 30.6062 148.132 30.6916 151.716H31.8452C31.5983 149.125 31.5314 146.518 31.6468 143.917H30.4932C30.7147 146.667 30.7793 149.425 30.6893 152.182C30.6777 152.501 30.9615 152.773 31.2661 152.773C31.6029 152.773 31.8129 152.501 31.8429 152.182C32.1382 149.061 32.5766 145.955 33.1557 142.875L32.0436 142.56C31.6006 145.633 31.3584 148.735 31.3399 151.842C31.3353 152.539 32.2559 152.603 32.4727 151.998C32.978 150.589 33.2595 149.106 33.3333 147.607C33.3656 146.955 32.2974 146.785 32.2005 147.451C31.9652 149.071 31.7298 150.688 31.4945 152.307C31.4137 152.868 32.0067 153.319 32.4589 152.882C33.4602 151.91 34.1408 150.6 34.3392 149.198C34.4338 148.534 33.684 148.182 33.2849 148.742L32.7565 149.485L33.8109 149.941C34.2124 148.74 34.5169 147.508 34.7199 146.255L33.5871 146.099C33.4879 147.305 33.1972 148.482 32.7519 149.6L33.8847 149.756C33.8594 146.515 34.5377 143.284 35.892 140.352L35.1029 140.565C35.3383 140.707 35.4836 141.042 35.3775 141.286L36.4526 141.584C36.4526 140.775 36.335 139.969 36.1019 139.196C35.9635 138.742 35.2783 138.577 35.0476 139.054C34.8168 139.532 34.5838 140.012 34.3531 140.489L35.4075 140.631C35.1906 139.853 34.9737 139.073 34.7568 138.295C34.57 137.624 33.6794 137.808 33.624 138.451C33.534 139.475 33.1141 140.466 32.4543 141.239L33.4187 141.499C32.6596 139.61 32.595 137.529 33.2526 135.6L32.1197 135.444C32.1128 136.437 31.9744 137.414 31.6975 138.364C31.5637 138.823 31.4022 139.272 31.2061 139.704C31.1184 139.893 31.0354 140.109 30.9038 140.272C30.8969 140.281 30.7539 140.406 30.7539 140.402C30.7539 140.395 30.9892 140.399 30.9523 140.463C30.9638 140.442 30.9154 140.295 30.9131 140.258C30.9038 140.168 30.9015 140.075 30.8969 139.986C30.8854 139.752 30.8739 139.52 30.8669 139.286C30.8531 138.846 30.8508 138.406 30.8669 137.969C30.8946 137.106 30.9846 136.248 31.1969 135.411C31.4299 134.499 31.8106 133.624 32.4035 132.896L31.4391 132.636C32.1336 135.35 31.716 138.281 30.3017 140.681L31.3768 140.979C31.0976 138.364 31.5706 135.709 32.7773 133.383H31.7806C33.0749 136.388 33.0841 139.882 31.9052 142.924H33.0172C32.2259 140.196 32.2512 137.286 33.0818 134.572H31.9698C32.9226 137.191 33.4025 139.955 33.3772 142.749L34.4523 142.451C33.1418 139.799 32.6389 136.721 33.0657 133.778H31.9536C32.918 136.782 33.8824 139.785 34.8468 142.789L35.9589 142.475C34.9253 139.449 34.1639 136.331 33.684 133.163L33.5363 133.737C33.4602 133.768 33.3818 133.782 33.2987 133.778C33.2687 133.759 33.271 133.761 33.3056 133.782C33.3102 133.806 33.4118 133.884 33.4348 133.912C33.5064 134.014 33.5363 134.125 33.5663 134.243C33.6817 134.7 33.7624 135.165 33.8432 135.629C33.9978 136.525 34.1385 137.435 34.4638 138.284C35.0383 139.778 36.1527 141.061 37.7723 141.265L37.6201 140.104C37.4286 140.135 37.2255 139.889 37.2209 139.707L36.2358 140.125C36.4365 140.338 36.4711 140.657 36.3834 140.971C36.2957 141.286 36.0835 141.522 35.7905 141.596L36.4411 141.867C36.3442 141.633 36.2427 141.378 36.2081 141.125C36.1919 141.016 36.1873 140.901 36.215 140.794C36.2334 140.721 36.2473 140.693 36.2657 140.671C36.3119 140.617 36.4365 140.565 36.4734 140.558C36.4826 140.558 36.598 140.551 36.5426 140.558C36.4734 140.565 36.628 140.577 36.5588 140.567C36.4688 140.558 36.5334 140.499 36.4942 140.553C36.4596 140.598 36.4849 140.797 36.478 140.863C36.4619 140.983 36.4365 141.104 36.4065 141.222C36.3534 141.44 36.2842 141.655 36.1896 141.856C35.9704 142.314 35.6774 142.7 35.3037 143.035L36.2681 143.295C35.9151 142.295 36.1619 141.189 36.9233 140.463L36.0166 140.343C36.5149 141.286 36.2934 142.499 35.5367 143.227L36.5218 143.645C36.5472 142.676 36.8564 141.768 37.3963 140.974L36.6072 141.187C36.711 141.239 36.7641 141.267 36.8079 141.317C36.8241 141.333 36.891 141.451 36.8795 141.421C36.9648 141.633 36.9579 141.785 36.9279 142.031C36.8771 142.451 36.6857 142.938 36.4665 143.336L37.5416 143.633C37.5324 142.749 37.8023 141.87 38.3514 141.18H37.5347C37.92 141.567 37.9062 142.144 37.5901 142.57L38.6652 142.867C38.6352 142.473 38.7529 142.054 39.0759 141.806L38.2868 141.593C38.4599 141.879 38.4437 142.165 38.2615 142.442L39.3158 142.898C39.4543 142.527 39.5904 142.154 39.7288 141.782L38.8821 142.135C38.9859 142.206 38.9859 142.328 38.9536 142.437L40.0657 142.752C40.1118 142.501 40.2364 142.369 40.481 142.321L39.7519 141.752C39.8027 142.198 39.6988 142.603 39.3851 142.927C38.9559 143.371 39.4012 144.019 39.9457 143.915C40.8917 143.735 41.5584 142.858 41.6069 141.896C41.63 141.425 41.1062 141.191 40.7394 141.385C39.7381 141.917 38.8221 142.605 38.0169 143.414L38.9813 143.988C39.0782 143.638 39.1728 143.288 39.2697 142.938C39.4358 142.336 38.7252 142 38.3053 142.364C37.5693 143 36.8356 143.633 36.0996 144.269L37.0064 144.986C37.2671 144.411 37.5255 143.839 37.7862 143.265C37.9177 142.976 37.8669 142.629 37.5785 142.456C37.3132 142.298 36.9418 142.388 36.7895 142.669C36.4826 143.236 36.1758 143.804 35.8689 144.371L36.8656 144.967C37.244 144.25 37.4332 143.454 37.394 142.638C37.3686 142.099 36.5795 141.773 36.3188 142.34C35.3475 144.451 34.3785 146.563 33.4071 148.674L34.4615 149.13C35.0452 147.534 35.629 145.938 36.215 144.343C36.3142 144.071 36.125 143.747 35.8804 143.645C35.6059 143.532 35.3221 143.636 35.1606 143.886C34.0416 145.631 33.181 147.544 32.6019 149.544C32.5143 149.849 32.7081 150.187 33.0057 150.272C33.3287 150.364 33.6056 150.158 33.7163 149.858C34.6576 147.293 35.3221 144.631 35.6936 141.917C35.7328 141.626 35.6497 141.338 35.359 141.22C35.0937 141.111 34.7891 141.203 34.6392 141.461C33.4441 143.525 32.512 145.745 31.8682 148.05C31.6629 148.785 32.7611 149.087 32.9803 148.364C33.8617 145.454 34.2885 142.402 34.2423 139.354C34.2331 138.804 33.4256 138.503 33.1672 139.057C32.1497 141.236 31.3353 143.508 30.7516 145.851L31.8636 146.165C32.3712 143.161 32.7173 140.127 32.9019 137.085C32.9434 136.388 31.9698 136.326 31.769 136.929C30.8439 139.69 29.9164 142.449 28.9912 145.21L30.1033 145.525C30.537 142.631 30.9684 139.737 31.4022 136.841C31.446 136.551 31.3537 136.262 31.0677 136.144C30.8277 136.045 30.4632 136.113 30.3478 136.385C29.7226 137.865 29.0443 139.319 28.3083 140.747L29.3626 141.203L29.9256 138.203C30.011 137.742 29.5288 137.22 29.0789 137.536C28.7005 137.801 28.3221 138.068 27.946 138.333L28.5274 139.354C28.7674 139.165 29.0073 138.976 29.2473 138.785L28.4005 138.118C28.4005 138.118 28.3475 138.281 28.3775 138.198C28.4075 138.116 28.3429 138.269 28.3429 138.269C28.3106 138.328 28.2783 138.385 28.2414 138.44C28.3129 138.336 28.1675 138.515 28.1445 138.539C28.1237 138.562 28.096 138.584 28.0729 138.603C28.1698 138.518 28.0522 138.617 28.036 138.629C27.9737 138.669 27.9114 138.709 27.8445 138.744C27.8145 138.761 27.623 138.846 27.7268 138.804C27.5584 138.872 27.3854 138.924 27.2123 138.969C26.5087 139.151 25.7819 139.206 25.0713 139.359C24.3607 139.513 23.6454 139.771 23.184 140.354C22.4457 141.291 22.6672 142.515 23.3663 143.402C24.1599 144.409 25.4266 144.7 26.4717 145.333C27.3646 145.877 28.0752 146.685 28.5528 147.626C28.7951 148.102 28.9612 148.612 29.065 149.139C29.1573 149.619 29.1596 150.109 29.1827 150.593C29.2265 151.584 29.3073 152.759 30.0917 153.459C31.0354 154.3 32.3804 154.033 33.2572 153.227C34.1339 152.421 34.48 151.09 34.916 149.972C35.6313 148.146 36.628 146.149 38.416 145.222C39.4612 144.681 40.7578 144.761 41.6207 143.851C42.0522 143.397 42.3083 142.78 42.1975 142.142C42.0937 141.546 41.6669 141.099 41.1847 140.785C40.7394 140.494 40.2341 140.3 39.7588 140.073C39.2835 139.846 38.7852 139.596 38.3191 139.314C37.4816 138.811 36.7087 138.175 36.2796 137.262C35.7305 136.097 35.8412 134.723 35.3152 133.541C34.8907 132.586 33.9493 131.77 32.9042 131.69C32.3505 131.648 31.8036 131.874 31.416 132.276C30.9869 132.723 30.7677 133.333 30.5001 133.884C29.921 135.08 29.2634 136.234 28.5321 137.338C28.1791 137.87 27.8099 138.392 27.4223 138.898C27.2308 139.149 27.1824 139.489 27.4223 139.735C27.623 139.941 28.0452 139.988 28.239 139.735L28.2252 139.728Z" fill="#4D58D8" stroke="#4D58D8" stroke-width="2" stroke-linejoin="round"/>
<path d="M30.1587 139.208C29.4385 140.258 29.107 141.559 29.2501 142.819C29.3264 143.493 30.1587 143.591 30.421 142.974C30.7429 142.218 30.8025 141.369 30.6189 140.572C30.5378 140.216 30.4138 139.828 30.13 139.578C29.7652 139.253 29.2287 139.307 28.8853 139.634C28.6063 139.901 28.4727 140.322 28.3583 140.675C28.2343 141.061 28.1651 141.458 28.127 141.861C28.0506 142.674 28.1723 143.516 28.4656 144.281C28.6468 144.751 29.262 144.863 29.5554 144.421C29.9989 143.75 30.2302 142.95 30.2254 142.151C30.2207 141.351 30.0204 140.429 29.429 139.887C29.1237 139.606 28.6993 139.405 28.2724 139.51C27.8074 139.625 27.5761 140.032 27.4736 140.457C27.2518 141.381 27.1731 142.349 27.2518 143.296C27.2876 143.729 27.3114 144.213 27.495 144.616C27.6786 145.018 28.084 145.352 28.5586 145.233C29.0331 145.114 29.2144 144.639 29.367 144.232C29.5196 143.825 29.5983 143.406 29.634 142.978C29.7056 142.169 29.5673 141.257 29.1667 140.537C28.7398 139.77 27.7359 139.452 27.1087 140.195C26.5793 140.822 26.41 141.851 26.3576 142.642C26.2979 143.523 26.5269 144.391 27.1445 145.048C27.3543 145.27 27.7788 145.277 27.9886 145.048C28.995 143.94 29.0784 142.2 28.1436 141.019C27.8861 140.693 27.5427 140.366 27.0944 140.359C26.6008 140.352 26.2502 140.724 26.0833 141.145C25.7852 141.903 25.8353 143.006 26.1835 143.741C26.3671 144.129 26.7463 144.449 27.2065 144.389C27.712 144.323 27.929 143.888 28.0244 143.451C28.208 142.614 28.3058 141.592 28.0435 140.759C27.929 140.396 27.712 140.025 27.3639 139.833C26.9489 139.606 26.4506 139.709 26.1286 140.036C25.5444 140.628 25.2678 141.589 25.2916 142.394C25.3131 143.158 25.7948 144.181 26.7534 143.956C27.6333 143.748 27.8813 142.644 27.9147 141.884C27.9505 141.068 27.7096 139.854 26.6819 139.772C25.7471 139.7 25.1652 140.626 24.9172 141.381C24.6525 142.183 24.6096 143.308 25.4943 143.76C26.379 144.211 27.1421 143.502 27.2661 142.66C27.3829 141.875 27.2041 140.941 26.4601 140.497C25.7781 140.09 24.7765 140.254 24.4355 141.007C24.1351 141.671 24.3402 142.988 25.1605 143.217C25.5659 143.332 25.9999 143.175 26.2765 142.873C26.6079 142.511 26.6533 142.001 26.5006 141.552C26.2574 140.843 25.5015 139.751 24.5977 140.188C24.1923 140.385 24.0516 140.787 23.9443 141.189C23.8227 141.652 23.7988 142.165 24.0755 142.578C24.3092 142.932 24.7265 143.194 25.1676 143.142C25.4395 143.112 25.6612 142.981 25.7423 142.712C25.9402 142.064 25.7948 141.362 25.3608 140.838C25.1605 140.598 24.8886 140.382 24.5572 140.373C24.085 140.361 23.8251 140.733 23.6796 141.121C23.4507 141.737 23.4769 142.588 24.0993 142.978C24.4188 143.18 24.8409 143.151 25.1152 142.883C25.3894 142.614 25.4061 142.202 25.3512 141.853C25.2606 141.292 24.6955 140.357 23.9968 140.56C23.2981 140.764 23.1288 141.61 23.4173 142.186C23.5699 142.487 23.8322 142.714 24.0874 142.932C24.3616 143.163 24.6359 143.397 24.9149 143.622C25.4681 144.068 26.038 144.501 26.6485 144.87C27.8098 145.574 29.1476 146.063 30.0442 147.116L30.8884 146.288C30.7644 146.143 31.4201 145.834 31.4798 145.808C31.9948 145.584 32.5266 145.39 33.0488 145.181C33.5711 144.973 34.0623 144.756 34.6012 144.686C34.8159 144.658 35.0806 144.641 35.2856 144.725C35.3762 144.763 35.4382 144.817 35.505 144.887C35.4883 144.87 35.5265 144.711 35.4645 144.875C35.2904 145.338 35.7959 145.656 36.1989 145.595C36.7927 145.502 37.148 144.994 37.2076 144.442C37.241 144.129 36.9096 143.858 36.6115 143.858C36.2609 143.858 36.0487 144.127 36.0153 144.442C36.0153 144.456 35.846 144.475 35.8842 144.468L36.6186 145.189C36.9215 144.384 36.1179 143.666 35.3691 143.547C34.4462 143.399 33.5782 143.72 32.7365 144.057C32.3287 144.22 31.9233 144.382 31.5155 144.545C31.1626 144.686 30.7882 144.81 30.4711 145.02C29.7485 145.502 29.448 146.421 30.049 147.118C30.2564 147.359 30.6785 147.328 30.8931 147.118C31.1387 146.877 31.1006 146.533 30.8931 146.29C29.9822 145.221 28.654 144.674 27.4569 143.982C26.7939 143.598 26.1859 143.142 25.5969 142.658C25.3107 142.422 25.0222 142.188 24.7455 141.94C24.6406 141.846 24.5643 141.755 24.4761 141.648C24.4141 141.57 24.5262 141.603 24.3497 141.673L23.8895 141.615C24.0325 141.704 24.2901 142.02 24.1828 142.172L24.3974 141.961C24.7503 142.062 24.8743 142.078 24.767 142.008C24.7646 142.008 24.7622 142.005 24.7599 142.003C24.7694 141.987 24.7479 141.809 24.7479 141.795C24.7527 141.715 24.7646 141.645 24.7861 141.568C24.8028 141.507 24.8767 141.416 24.7861 141.465L24.4856 141.545C24.3235 141.447 24.2948 141.442 24.4045 141.531C24.4332 141.554 24.457 141.582 24.4785 141.613C24.5357 141.69 24.5739 141.772 24.6049 141.861C24.6669 142.043 24.6525 142.214 24.5977 142.396L25.1724 141.966C24.8719 142.001 25.1867 141.358 25.1772 141.234C25.1676 141.11 25.2463 141.203 25.139 141.215C24.7694 141.252 24.9459 141.215 24.9912 141.283C25.0293 141.346 25.1032 141.395 25.1485 141.458C25.2201 141.563 25.2869 141.685 25.3369 141.802C25.3536 141.842 25.4109 142.111 25.3918 142.092C25.3751 142.076 25.5134 142.129 25.4609 142.087C25.4895 142.111 25.7018 142.073 25.6326 142.179C25.6326 142.179 25.5921 142.066 25.5897 142.055C25.5468 141.905 25.4776 141.713 25.5062 141.554C25.5134 141.517 25.5396 141.456 25.5444 141.449C25.5182 141.482 25.5921 141.44 25.6064 141.437C25.7352 141.414 25.9379 141.486 26.0332 141.706C26.1501 141.975 26.1668 142.37 26.0666 142.637C26.0452 142.695 26.0142 142.714 25.9927 142.749C26.0046 142.731 26.0714 142.731 26.069 142.719C26.0642 142.705 26.007 142.677 25.9951 142.649C25.9617 142.56 25.945 142.48 25.945 142.384C25.9402 141.987 26.0786 141.535 26.2956 141.201C26.3719 141.084 26.472 140.972 26.6032 140.918C26.6175 140.913 26.5412 140.881 26.5603 140.904C26.596 140.946 26.6127 140.993 26.6318 141.044C26.7773 141.44 26.7629 141.914 26.6652 142.317C26.6366 142.429 26.6079 142.55 26.5603 142.658C26.5507 142.677 26.472 142.787 26.4768 142.801C26.4887 142.826 26.4649 142.759 26.534 142.808C26.6151 142.868 26.6032 142.796 26.6008 142.808C26.6032 142.789 26.5483 142.702 26.5364 142.674C26.5054 142.593 26.5054 142.56 26.4983 142.478C26.4792 142.274 26.4911 142.062 26.5316 141.863C26.5722 141.664 26.6318 141.456 26.7248 141.269C26.751 141.217 26.9919 140.86 26.9823 140.841C26.9943 140.86 26.8226 140.845 26.8321 140.841C26.7129 140.862 26.7939 140.775 26.7916 140.838C26.7916 140.86 26.8655 140.948 26.875 140.969C26.9513 141.135 26.9656 141.332 26.9823 141.512C27.0205 141.977 27.0133 142.452 26.9299 142.913C26.9084 143.03 26.8559 143.163 26.8512 143.282C26.8512 143.28 26.8369 143.367 26.8369 143.348C26.8273 143.24 27.3138 143.381 27.3066 143.282C27.3066 143.268 27.2542 143.175 27.2446 143.154C27.1969 143.028 27.1707 142.883 27.1493 142.749C27.1111 142.511 27.1063 142.265 27.123 142.027C27.1254 141.973 27.2423 141.428 27.2613 141.442C27.2947 141.47 27.3043 141.435 27.1469 141.477C26.9895 141.519 26.968 141.451 27.0491 141.54C27.1039 141.601 27.1659 141.655 27.2184 141.718C27.3233 141.851 27.4116 142.008 27.4736 142.165C27.7406 142.833 27.65 143.661 27.154 144.209H27.9982C27.3758 143.544 27.5117 142.513 27.7263 141.713C27.7812 141.51 27.836 141.29 27.9266 141.098C27.9553 141.04 28.0506 140.948 28.065 140.895C28.053 140.941 27.9839 140.904 27.972 140.89C28.2843 141.196 28.3917 141.718 28.4441 142.132C28.5109 142.665 28.456 143.208 28.2915 143.72C28.251 143.844 28.208 143.965 28.1532 144.082C27.9934 144.421 28.6182 144.028 28.5991 144.148C28.611 144.071 28.5276 143.86 28.5157 143.783C28.4918 143.636 28.4751 143.486 28.4608 143.336C28.406 142.712 28.4107 142.078 28.499 141.456C28.5395 141.171 28.6063 140.892 28.6707 140.614C28.7279 140.366 28.6945 140.574 28.6778 140.57L28.5109 140.635L28.4918 140.63C28.4918 140.63 28.6754 140.773 28.6873 140.787C28.9878 141.157 29.0546 141.772 29.045 142.225C29.0331 142.798 28.8543 143.336 28.5395 143.816L29.6293 143.956C29.2406 142.943 29.2072 141.856 29.5697 140.829C29.6054 140.726 29.6627 140.628 29.6937 140.525C29.6984 140.513 29.7437 140.457 29.7414 140.446C29.7414 140.439 29.3479 140.443 29.3479 140.441C29.3336 140.467 29.4314 140.679 29.4433 140.724C29.4743 140.831 29.5029 140.944 29.5172 141.056C29.5983 141.603 29.4957 142.146 29.2787 142.649L30.4496 142.803C30.3256 141.725 30.5784 140.684 31.196 139.784C31.6252 139.157 30.5927 138.572 30.1658 139.194L30.1587 139.208Z" fill="#4D58D8" stroke="#4D58D8" stroke-width="2" stroke-linejoin="round"/>
</svg>
