<svg width="214" height="171" viewBox="0 0 214 171" fill="none" xmlns="http://www.w3.org/2000/svg">
<path d="M89.4666 7.42099C85.959 7.44319 83.2563 10.0106 81.0816 12.4855C79.9407 13.784 78.8293 15.1268 77.5001 16.244C76.0638 17.4501 74.4171 18.1196 72.6227 18.608C70.9501 19.0667 69.2849 19.4884 67.7231 20.2653C66.3385 20.9571 65.061 21.8597 63.9238 22.9067C61.6531 25.0079 59.9547 27.7566 59.1645 30.7531C58.6698 32.6324 58.5369 34.5856 58.4519 36.5204C58.3596 38.5773 58.2452 40.6527 58.4519 42.7058C58.8359 46.5051 60.6525 49.964 62.7091 53.1159C63.6506 54.5587 64.7324 55.9275 66.1022 56.9892C67.3502 57.9584 68.7902 58.6354 70.3003 59.0867C73.4239 60.0264 76.7211 60.0819 79.9259 60.5554C81.5283 60.7922 83.1271 61.1288 84.6409 61.7207C86.3615 62.3977 87.9085 63.4409 89.4777 64.4065C91.0174 65.3535 92.605 66.2118 94.3478 66.7334C96.0056 67.2291 97.7557 67.4474 99.4836 67.403C103.013 67.3068 106.34 66.0934 109.213 64.0624C112.085 62.0315 114.363 59.5936 117.114 57.57C118.565 56.5009 120.116 55.6167 121.796 54.9582C123.586 54.2516 125.444 53.73 127.253 53.0678C130.244 51.9765 133.312 50.3488 134.959 47.4928C136.919 44.0894 135.608 40.0164 134.903 36.439C134.512 34.4636 134.194 32.4585 133.707 30.5089C133.286 28.8183 132.492 27.3533 131.156 26.2176C129.967 25.2077 128.567 24.4974 127.164 23.8315C125.499 23.0398 123.852 22.2297 122.261 21.3011C118.979 19.3922 115.992 17.1134 113.145 14.6052C111.727 13.3548 110.272 12.171 108.581 11.3091C106.89 10.4471 105.096 9.8219 103.397 8.98214C101.806 8.19416 100.329 7.17683 98.6713 6.52574C97.0135 5.87464 95.3299 5.85245 93.6056 6.32597C91.981 6.7699 90.3121 7.55417 88.5879 7.29521C88.0082 7.20643 87.7571 8.09798 88.3442 8.18677C90.0537 8.44572 91.6414 7.88342 93.2585 7.3914C94.0708 7.14354 94.9016 6.91417 95.7545 6.89198C96.6074 6.86978 97.4714 7.06215 98.2837 7.3655C99.8972 7.9722 101.322 8.97844 102.858 9.74791C104.505 10.5692 106.248 11.1833 107.895 12.0008C109.582 12.8369 111.026 13.9689 112.432 15.2082C113.839 16.4475 115.146 17.5647 116.586 18.6487C119.507 20.8461 122.649 22.718 125.95 24.2791C127.323 24.9265 128.719 25.5628 129.959 26.4507C131.333 27.4384 132.252 28.7258 132.714 30.3609C133.245 32.2513 133.53 34.2268 133.91 36.1542C134.29 38.0816 134.774 40.0349 134.995 41.9955C135.199 43.7675 135.047 45.5248 134.131 47.0896C133.352 48.4177 132.182 49.4794 130.901 50.3155C127.914 52.2614 124.343 52.9088 121.087 54.259C117.967 55.5575 115.419 57.6662 112.901 59.871C110.383 62.0759 107.821 64.3251 104.645 65.4904C101.418 66.6779 97.8184 66.8259 94.525 65.8233C91.106 64.7838 88.4254 62.2904 85.1541 60.9401C82.2151 59.723 78.9918 59.5085 75.8645 59.1607C72.7372 58.813 69.6652 58.3543 67.0917 56.5749C65.6628 55.5871 64.5478 54.222 63.5989 52.783C62.65 51.3439 61.7196 49.7384 60.9627 48.1291C60.1393 46.3867 59.5596 44.5444 59.375 42.6207C59.1904 40.697 59.2901 38.6698 59.375 36.7017C59.4599 34.7336 59.5744 32.8654 60.0617 31.0046C60.4494 29.536 61.0623 28.1413 61.8636 26.8502C63.4549 24.2939 65.7773 22.2038 68.4985 20.9201C70.0677 20.1802 71.7661 19.8288 73.4239 19.3478C75.0817 18.8669 76.6251 18.1492 77.9838 17.0431C80.5831 14.9308 82.3185 11.9232 85.0544 9.95878C86.3578 9.02283 87.842 8.35694 89.4703 8.34584C90.0648 8.34584 90.0648 7.41729 89.4703 7.42099H89.4666Z" fill="#4D58D8" stroke="#4D58D8" stroke-width="2.5" stroke-linecap="round" stroke-linejoin="round"/>
<path d="M110.069 18.3417C108.275 18.301 106.54 19.4848 105.827 21.1385C105.114 22.7921 105.402 24.8046 106.466 26.2547C106.92 26.8762 107.525 27.4126 108.256 27.6531C109.091 27.9269 110.003 27.7974 110.863 27.6235C111.395 27.5162 111.927 27.3941 112.429 27.1944C114.094 26.5359 115.39 24.9636 115.641 23.1842C115.892 21.4048 115.05 19.4996 113.525 18.5563C112 17.6129 109.874 17.7276 108.508 18.8929" fill="#4D58D8"/>
<path d="M110.069 18.3417C108.275 18.301 106.54 19.4848 105.827 21.1385C105.114 22.7921 105.402 24.8046 106.466 26.2547C106.92 26.8762 107.525 27.4126 108.256 27.6531C109.091 27.9269 110.003 27.7974 110.863 27.6235C111.395 27.5162 111.927 27.3941 112.429 27.1944C114.094 26.5359 115.39 24.9636 115.641 23.1842C115.892 21.4048 115.05 19.4996 113.525 18.5563C112 17.6129 109.874 17.7276 108.508 18.8929" stroke="#4D58D8" stroke-width="2.5" stroke-linecap="round" stroke-linejoin="round"/>
<path d="M110.069 17.879C107.691 17.8642 105.539 19.6473 105.081 21.9853C104.623 24.3234 105.712 27.2348 108.064 28.0745C109.338 28.5296 110.922 28.1744 112.17 27.7786C113.3 27.4161 114.289 26.7317 115.013 25.7883C116.461 23.9053 116.516 21.264 115.065 19.3625C113.426 17.2094 110.269 16.858 108.183 18.5708C107.725 18.9481 108.378 19.5992 108.836 19.2256C110.324 18.0011 112.635 18.1565 113.983 19.5141C115.331 20.8718 115.597 23.0545 114.625 24.7192C113.566 26.5393 111.417 27.331 109.386 27.3532C107.152 27.3754 105.856 24.9856 105.897 22.9768C105.945 20.7238 107.791 18.7965 110.073 18.8076C110.667 18.8076 110.667 17.8864 110.073 17.8827L110.069 17.879Z" fill="#4D58D8" stroke="#4D58D8" stroke-width="2.5" stroke-linecap="round" stroke-linejoin="round"/>
<path d="M105.216 25.0818C104.499 26.3026 104.448 27.7453 104.16 29.0993C103.842 30.5791 103.347 31.9959 102.768 33.3943C102.188 34.7927 101.745 36.1837 101.689 37.7263C101.634 39.269 101.73 40.7746 101.911 42.2729C102.04 43.3531 102.328 44.5554 103.332 45.1547C104.337 45.754 105.699 45.4359 106.53 44.6516C107.497 43.7378 107.793 42.3506 107.863 41.0743C107.944 39.5649 107.885 38.1147 108.265 36.635C108.671 35.0479 109.369 33.5608 110.196 32.1513C110.968 30.8343 111.865 29.4471 111.706 27.8526C111.647 27.2644 110.724 27.2607 110.783 27.8526C110.916 29.177 110.211 30.3201 109.561 31.4114C108.911 32.5028 108.321 33.6496 107.867 34.8482C107.412 36.0468 107.113 37.2935 107.01 38.5698C106.91 39.8535 107.076 41.1704 106.744 42.4245C106.456 43.5085 105.629 44.6627 104.37 44.5369C103.203 44.4222 102.926 43.0941 102.819 42.1397C102.664 40.7672 102.583 39.3688 102.605 37.989C102.627 36.6091 102.952 35.3698 103.465 34.1009C104.045 32.6729 104.603 31.2635 104.953 29.7615C105.278 28.3779 105.278 26.7946 106.013 25.5479C106.316 25.0337 105.518 24.5676 105.216 25.0818Z" fill="#4D58D8" stroke="#4D58D8" stroke-width="2.5" stroke-linecap="round" stroke-linejoin="round"/>
<path d="M93.7465 23.9608C94.1563 23.3541 94.5661 22.74 94.8504 22.0667C95.4006 20.7719 95.4486 19.2588 94.9317 17.9492C94.4148 16.6397 93.3255 15.5557 91.9926 15.1007C89.9988 14.42 87.6506 15.2487 86.3509 16.9097C85.0513 18.5707 84.7633 20.9088 85.4057 22.9175C85.6162 23.5723 85.9263 24.2123 86.4211 24.6932C87.3626 25.6144 88.8358 25.8031 90.117 25.5071C91.3982 25.2112 92.5428 24.4972 93.6578 23.798" fill="#4D58D8"/>
<path d="M93.7465 23.9608C94.1563 23.3541 94.5661 22.74 94.8504 22.0667C95.4006 20.7719 95.4486 19.2588 94.9317 17.9492C94.4148 16.6397 93.3255 15.5557 91.9926 15.1007C89.9988 14.42 87.6506 15.2487 86.3509 16.9097C85.0513 18.5707 84.7633 20.9088 85.4057 22.9175C85.6162 23.5723 85.9263 24.2123 86.4211 24.6932C87.3626 25.6144 88.8358 25.8031 90.117 25.5071C91.3982 25.2112 92.5428 24.4972 93.6578 23.798" stroke="#4D58D8" stroke-width="2.5" stroke-linecap="round" stroke-linejoin="round"/>
<path d="M94.1452 24.1938C94.9021 23.0655 95.5557 21.9298 95.7144 20.5573C95.851 19.3698 95.6258 18.1416 95.0387 17.0984C93.9237 15.1266 91.7231 14.0908 89.5078 14.4977C87.2925 14.9046 85.5054 16.6434 84.8888 18.8149C84.2981 20.8903 84.5824 23.872 86.4063 25.2815C88.7694 27.1053 91.749 25.5441 93.8942 24.1938C94.3963 23.8794 93.9348 23.0766 93.4289 23.3948C91.7453 24.4528 89.6629 25.7476 87.6137 24.9189C85.7417 24.1605 85.3245 21.5303 85.6199 19.7583C85.9374 17.8716 87.1374 16.2253 88.9761 15.5927C90.8148 14.9601 92.6794 15.4855 93.8572 16.9837C94.5846 17.9049 94.9021 19.0813 94.8246 20.2466C94.736 21.571 94.0714 22.6549 93.3514 23.7277C93.0191 24.2234 93.8166 24.6859 94.1489 24.1938H94.1452Z" fill="#4D58D8" stroke="#4D58D8" stroke-width="2.5" stroke-linecap="round" stroke-linejoin="round"/>
<path d="M89.5701 25.7507C89.6071 28.762 91.1209 31.433 91.7818 34.3148C92.1325 35.8463 92.2692 37.4075 92.4427 38.9686C92.6015 40.3929 92.9005 41.7321 93.7867 42.89C94.5583 43.8999 95.6992 44.921 97.0469 44.9173C98.2653 44.9173 99.1736 43.9887 99.5318 42.8826C99.9822 41.4953 99.4727 40.0304 99.0481 38.706C98.557 37.1781 98.0807 35.6503 97.6118 34.1187C96.5337 30.5895 95.5183 27.0418 94.5546 23.4793C94.3996 22.9059 93.5097 23.15 93.6648 23.7234C94.4365 26.5831 95.2451 29.4353 96.0943 32.2764C96.5078 33.6674 96.9324 35.0547 97.3644 36.4419C97.7964 37.8292 98.3539 39.2461 98.6604 40.6814C98.8893 41.7432 98.8339 43.1711 97.7743 43.7926C96.6297 44.4622 95.3669 43.3598 94.6691 42.5237C93.7276 41.3954 93.4728 40.0562 93.3251 38.6357C93.1774 37.2151 93.0482 35.9129 92.7787 34.5737C92.1769 31.5994 90.5301 28.8286 90.4895 25.747C90.4821 25.1514 89.5591 25.1514 89.5665 25.747L89.5701 25.7507Z" fill="#4D58D8" stroke="#4D58D8" stroke-width="2.5" stroke-linecap="round" stroke-linejoin="round"/>
<path d="M82.0878 34.4668C82.3905 32.865 81.8515 31.1965 80.9801 29.8167C80.574 29.1767 80.0829 28.5663 79.4368 28.1778C78.7463 27.7635 77.9156 27.6266 77.1107 27.6562C74.7255 27.745 72.4474 29.3727 71.6683 31.6294C70.8893 33.8897 71.7126 36.6272 73.6584 38.0108C75.6042 39.3944 78.5174 39.2353 80.2527 37.5928C81.2718 36.6235 81.8515 35.2585 82.0989 33.8749" fill="#4D58D8"/>
<path d="M82.0878 34.4668C82.3905 32.865 81.8515 31.1965 80.9801 29.8167C80.574 29.1767 80.0829 28.5663 79.4368 28.1778C78.7463 27.7635 77.9156 27.6266 77.1107 27.6562C74.7255 27.745 72.4474 29.3727 71.6683 31.6294C70.8893 33.8897 71.7126 36.6272 73.6584 38.0108C75.6042 39.3944 78.5174 39.2353 80.2527 37.5928C81.2718 36.6235 81.8515 35.2585 82.0989 33.8749" stroke="#4D58D8" stroke-width="2.5" stroke-linecap="round" stroke-linejoin="round"/>
<path d="M82.5305 34.5891C82.7705 33.1944 82.5009 31.8294 81.9102 30.5568C81.3526 29.3582 80.5071 28.1226 79.2628 27.575C76.9774 26.5725 74.138 27.5676 72.5208 29.3397C70.8926 31.1191 70.479 33.6606 71.4132 35.8802C72.3473 38.0998 74.5368 39.5241 76.9663 39.4057C78.2549 39.3428 79.5102 38.8767 80.4776 38.011C81.6259 36.9863 82.2609 35.4881 82.5378 34.0009C82.6449 33.4201 81.7551 33.1685 81.648 33.7567C81.2419 35.932 80.0198 37.8927 77.7417 38.381C75.7774 38.8027 73.7171 37.9962 72.6501 36.276C71.583 34.5558 71.5498 32.3732 72.639 30.6825C73.7282 28.9919 75.7331 27.9746 77.7121 28.1337C79.1299 28.2483 80.053 29.1399 80.7434 30.3237C81.4339 31.5075 81.8806 32.9466 81.6406 34.3449C81.5409 34.9257 82.4308 35.1773 82.5305 34.5891Z" fill="#4D58D8" stroke="#4D58D8" stroke-width="2.5" stroke-linecap="round" stroke-linejoin="round"/>
<path d="M82.1389 34.0523C83.0029 34.7182 83.8669 35.3878 84.8121 35.9353C85.7573 36.4828 86.7874 36.7825 87.7215 37.3152C88.5708 37.8035 89.1726 38.5952 89.9553 39.1723C90.3541 39.4682 90.7972 39.6495 91.2624 39.8123C91.7276 39.975 92.3294 40.16 92.4956 40.6927C92.6728 41.2587 93.5626 41.0183 93.3854 40.4486C93.042 39.3462 91.9935 39.1649 91.0667 38.7579C90.0883 38.3288 89.4532 37.3855 88.5966 36.7788C87.6772 36.124 86.5511 35.8391 85.5653 35.3027C84.5093 34.7256 83.5567 33.9894 82.6078 33.2569C82.1389 32.8944 81.6774 33.6972 82.1426 34.056L82.1389 34.0523Z" fill="#4D58D8" stroke="#4D58D8" stroke-width="2.5" stroke-linecap="round" stroke-linejoin="round"/>
<path d="M93.0937 42.2688C92.7651 43.4711 91.5504 44.2073 90.3541 44.2887C88.8144 44.396 87.3597 43.6228 86.1154 42.7941C84.8711 41.9655 83.7339 40.9555 82.7333 39.8309C81.8915 38.8839 80.9352 37.8813 79.5617 38.0996C78.9783 38.1921 79.2257 39.0836 79.8054 38.9911C80.5291 38.8765 81.1383 39.4758 81.5998 39.953C82.1352 40.5079 82.6263 41.0998 83.1875 41.6288C84.3321 42.7127 85.6354 43.7079 87.0495 44.4108C88.3714 45.0692 89.9147 45.4725 91.3694 45.0286C92.5916 44.6586 93.6402 43.7671 93.9835 42.5093C94.1423 41.9359 93.2488 41.688 93.0937 42.2651V42.2688Z" fill="#4D58D8" stroke="#4D58D8" stroke-width="2.5" stroke-linecap="round" stroke-linejoin="round"/>
<path d="M169.141 68.8819C167.14 69.115 165.966 71.3013 166.073 73.1769C166.18 75.0525 167.484 76.5545 169.2 77.0798C170.917 77.6051 172.745 76.8541 173.801 75.4484C174.997 73.8539 174.824 71.6602 173.701 70.0694C173.107 69.226 172.247 68.5194 171.202 68.3566C170.157 68.1938 169.149 68.5675 168.51 69.4109C168.152 69.8845 168.953 70.3469 169.308 69.8771C170.271 68.6045 172.058 69.4257 172.83 70.4357C173.749 71.638 174.041 73.3323 173.221 74.6604C172.542 75.7591 171.224 76.4916 169.92 76.2992C168.617 76.1068 167.458 75.0969 167.103 73.828C166.705 72.4038 167.425 70.0065 169.141 69.8105C169.725 69.7439 169.732 68.819 169.141 68.8856V68.8819Z" fill="#4D58D8" stroke="#4D58D8" stroke-width="2.5" stroke-linecap="round" stroke-linejoin="round"/>
<path d="M182.415 67.6729C180.558 67.9466 178.896 69.4042 178.675 71.3168C178.549 72.4044 178.889 73.4883 179.406 74.4353C179.893 75.3232 180.547 76.1815 181.477 76.6217C183.264 77.4614 185.568 76.9361 186.975 75.597C188.381 74.2578 188.596 71.8717 187.547 70.181C186.284 68.1427 183.726 67.2807 181.455 67.9429C180.886 68.1094 181.126 69.0009 181.699 68.8345C183.33 68.3572 185.136 68.7938 186.299 70.0627C187.462 71.3316 187.698 73.1701 186.69 74.5352C185.756 75.8004 183.851 76.3923 182.356 75.9743C181.555 75.7486 180.993 75.2122 180.539 74.5315C180.044 73.7879 179.638 72.9334 179.576 72.0307C179.45 70.1958 180.934 68.8271 182.659 68.5718C183.246 68.4867 182.995 67.5952 182.415 67.6802V67.6729Z" fill="#4D58D8" stroke="#4D58D8" stroke-width="2.5" stroke-linecap="round" stroke-linejoin="round"/>
<path d="M183.055 76.995C183.14 78.1862 182.668 79.2775 182.202 80.3467C181.737 81.4158 181.335 82.4368 180.984 83.5133C180.633 84.5899 180.341 85.7774 180.09 86.9279C179.895 87.8194 179.688 88.822 179.034 89.499C178.307 90.2536 177.218 90.2795 176.247 90.1538C175.276 90.028 174.02 89.8911 173.286 89.1993C172.51 88.4705 172.281 87.3681 172.097 86.3619C171.886 85.2188 171.602 84.1681 171.151 83.0953C170.919 82.5404 170.683 81.9818 170.535 81.3936C170.387 80.8054 170.38 80.2616 170.38 79.6808C170.38 78.6116 170.395 77.4722 169.712 76.5844C169.353 76.1183 168.552 76.5807 168.914 77.0505C169.608 77.9531 169.431 79.1185 169.46 80.1876C169.49 81.3381 169.852 82.3591 170.291 83.4098C170.516 83.9499 170.742 84.49 170.893 85.0597C171.074 85.7367 171.159 86.4359 171.307 87.1239C171.521 88.1339 171.897 89.1882 172.684 89.8985C173.529 90.6606 174.74 90.8529 175.83 91.0194C176.849 91.1748 177.93 91.2266 178.879 90.7494C180.884 89.7468 180.965 86.976 181.482 85.0819C181.87 83.6724 182.354 82.2925 182.937 80.9571C183.487 79.6919 184.085 78.4045 183.982 76.9876C183.941 76.3957 183.015 76.392 183.059 76.9876L183.055 76.995Z" fill="#4D58D8" stroke="#4D58D8" stroke-width="2.5" stroke-linecap="round" stroke-linejoin="round"/>
<path d="M173.757 74.7085C174.879 75.8479 175.614 77.2906 176.175 78.7741C176.312 79.1366 176.423 79.6028 176.888 79.6398C177.353 79.6768 177.641 79.2994 177.822 78.9295C178.187 78.1748 178.25 77.3498 178.427 76.5434C178.63 75.6259 179.033 74.7825 179.602 74.0315C179.753 73.8317 179.631 73.5136 179.435 73.3989C179.199 73.2583 178.955 73.3656 178.804 73.5654C178.213 74.3459 177.781 75.2523 177.556 76.2067C177.445 76.6802 177.386 77.1612 177.283 77.6384C177.231 77.8714 177.172 78.1045 177.083 78.3265C177.039 78.4412 176.951 78.7186 176.825 78.7408H177.069C177.187 78.8999 177.216 78.911 177.157 78.7815C177.135 78.726 177.117 78.6705 177.094 78.615C177.054 78.504 177.01 78.3931 176.965 78.2784C176.873 78.0453 176.777 77.816 176.681 77.5866C176.496 77.1612 176.297 76.7431 176.075 76.3362C175.621 75.5075 175.071 74.7307 174.407 74.0574C173.989 73.6319 173.336 74.2867 173.753 74.7122L173.757 74.7085Z" fill="#4D58D8" stroke="#4D58D8" stroke-width="2.5" stroke-linecap="round" stroke-linejoin="round"/>
<path d="M162.441 83.4251C163.549 82.9997 164.321 82.0415 164.583 80.8873C164.845 79.7331 164.723 78.1905 164.014 77.1768C163.305 76.1632 161.947 75.6638 160.78 75.4862C159.613 75.3086 158.428 75.6897 157.527 76.5035C156.626 77.3174 156.091 78.5308 155.88 79.7294C155.67 80.928 155.577 82.3523 156.294 83.4066C157.497 85.1749 160.108 85.2378 161.791 84.1724C162.818 83.5213 163.608 82.504 163.963 81.3387C164.398 79.8922 163.951 78.5234 163.39 77.1842C163.209 76.7514 162.438 76.7329 162.482 77.3063C162.6 78.8601 162.463 80.399 162.061 81.9047L162.969 82.0267C163.195 80.2621 163.357 78.2719 162.231 76.7625C161.995 76.4444 161.311 76.4851 161.371 76.9956C161.511 78.1868 161.515 79.3965 161.352 80.5877C161.278 81.1389 161.167 81.6901 161.02 82.2265C160.894 82.6815 160.728 83.1736 160.318 83.4473L160.876 84.1724C161.359 83.6693 161.851 83.144 162.131 82.4929C162.46 81.7308 162.434 80.9095 162.379 80.0994C162.323 79.2892 162.271 78.4679 162.172 77.6578C162.098 77.0289 161.88 76.4851 161.263 76.2335C160.961 76.1114 160.706 76.4148 160.68 76.6811C160.558 77.9611 160.355 79.2337 160.075 80.4878C159.938 81.0982 159.783 81.7012 159.609 82.3042C159.462 82.8147 159.344 83.3659 158.934 83.7322L159.587 84.387C160.828 82.8998 161.518 81.0427 161.515 79.1005H160.592C160.603 80.6284 160.145 82.0822 159.277 83.3326L160.137 83.5657C160.396 81.4866 160.654 79.4113 160.913 77.3322C160.961 76.9364 160.374 76.7181 160.126 77.0067C159.436 77.802 159.166 78.8416 158.948 79.8552C158.712 80.9687 158.594 82.1081 158.59 83.2438C158.59 83.7877 159.325 83.8431 159.499 83.3659C159.953 82.1007 160.274 80.7985 160.455 79.4668C160.54 78.8527 160.636 78.2127 160.617 77.5949C160.603 77.1139 160.455 76.67 160.027 76.4148C159.835 76.3001 159.628 76.3556 159.469 76.4887C159.015 76.855 158.801 77.3951 158.631 77.9352C158.413 78.6344 158.243 79.3484 158.118 80.0698C157.992 80.7911 157.904 81.4977 157.859 82.2154C157.826 82.774 157.881 83.2697 158.358 83.6212C158.546 83.7581 158.893 83.6656 158.989 83.4547C159.51 82.2968 159.901 81.0908 160.112 79.8367C160.215 79.23 160.285 78.6122 160.311 77.9981C160.333 77.5135 160.4 76.9142 160.082 76.5035C159.229 75.4011 158.158 77.0437 157.811 77.7354C157.305 78.7454 157.047 79.8441 156.921 80.9613C156.818 81.8899 156.589 83.5509 157.881 83.71C158.077 83.7359 158.276 83.5472 158.328 83.3696C158.686 82.0748 158.912 80.7468 159.004 79.4039C159.048 78.7417 159.362 76.2409 157.959 76.8032C157.453 77.0067 157.213 77.6023 157.014 78.0684C156.785 78.6011 156.608 79.1523 156.504 79.722C156.283 80.9169 156.331 82.1377 156.652 83.3067C156.707 83.5102 156.892 83.636 157.099 83.6471C158.203 83.7063 158.365 81.9306 158.483 81.1685C158.672 79.9477 158.668 78.738 158.494 77.5172C158.476 77.3729 158.31 77.2175 158.173 77.1953C156.951 76.9771 156.641 78.971 156.53 79.8256C156.434 80.5729 156.224 82.9183 157.52 82.7666C158.092 82.7 158.391 82.1266 158.624 81.6642C158.919 81.0834 159.17 80.4804 159.384 79.8663C159.82 78.6011 160.06 77.273 160.123 75.9375L159.428 76.3371C159.746 76.4924 160.536 76.8365 160.259 77.3174L161.119 77.5505C161.112 76.9697 160.975 76.437 160.728 75.9153C160.606 75.6564 160.189 75.6083 160.004 75.8229C159.694 76.1817 159.44 76.5664 159.255 77.003L160.097 77.3581C160.292 76.8032 160.222 75.9042 159.458 75.8709C158.587 75.834 158.221 77.1287 158.048 77.7835C157.889 78.3643 157.619 79.7812 158.694 79.5999C159.539 79.4594 159.908 78.3199 159.927 77.5875C159.938 77.1324 159.284 76.9512 159.067 77.3544C158.35 78.6825 157.974 80.3694 158.339 81.8603C158.502 82.5225 158.993 83.0367 159.709 83.0219C160.425 83.0071 160.979 82.4744 161.419 81.938L160.647 81.7345C160.787 82.1303 160.573 82.6741 160.108 82.7222L160.555 83.3067C160.61 83.0071 160.758 82.8369 161.057 82.7703L160.473 82.3227C160.459 82.663 160.304 82.9516 160.019 83.144C159.635 83.3992 159.787 83.9837 160.252 84.0059C160.448 84.017 160.643 84.0244 160.839 84.0355L160.717 83.1255C159.783 83.2771 158.841 83.1957 157.937 82.922C157.59 82.8184 157.291 83.1588 157.368 83.4917C157.527 84.165 158.494 84.5793 158.948 83.9245C159.355 83.34 158.775 82.467 158.077 82.6815C157.774 82.774 157.675 83.0885 157.8 83.3622C157.974 83.7285 158.365 83.7803 158.701 83.6286C159.244 83.3844 158.775 82.589 158.236 82.8295L158.598 82.8961L158.321 83.5768C158.11 83.5324 158.103 83.451 158.302 83.3326C158.262 83.3178 158.247 83.2919 158.254 83.2512L157.686 83.821C158.756 84.1428 159.853 84.202 160.957 84.0244C161.492 83.9393 161.33 83.1403 160.835 83.1144C160.64 83.1033 160.444 83.0959 160.248 83.0848L160.481 83.9467C161.042 83.5694 161.363 83.0071 161.393 82.3264C161.407 82.0119 161.09 81.8196 160.809 81.8788C160.226 82.0082 159.772 82.467 159.661 83.0589C159.613 83.3215 159.783 83.6767 160.108 83.6434C161.127 83.5361 161.902 82.5003 161.537 81.4866C161.43 81.1907 161.005 80.9909 160.765 81.2832C160.503 81.6013 160.167 82.0859 159.705 82.097C159.163 82.1118 159.163 81.3128 159.144 80.9354C159.092 79.8478 159.344 78.7787 159.86 77.8205L159 77.5875C158.996 77.7761 158.974 77.9537 158.908 78.135C158.86 78.2645 158.749 78.3828 158.708 78.5086C158.553 78.6159 158.579 78.7195 158.79 78.8194C158.793 78.7269 158.804 78.6307 158.823 78.5382C158.852 78.3643 158.889 78.1942 158.937 78.0277C159.03 77.68 159.155 77.3433 159.325 77.0252C159.355 76.9697 159.384 76.9142 159.417 76.8587C159.307 76.6848 159.262 76.6552 159.281 76.7699C159.24 76.8476 159.24 77.0215 159.207 77.1139C159.037 77.6023 159.846 77.9537 160.049 77.4691C160.204 77.1065 160.396 76.7773 160.654 76.4776L159.931 76.3852C160.108 76.7588 160.189 77.1435 160.196 77.5542C160.204 78.0092 160.824 78.1868 161.057 77.7872C161.644 76.7773 160.735 75.9523 159.897 75.5417C159.576 75.3863 159.222 75.575 159.203 75.9412C159.118 77.7391 158.668 79.5223 157.863 81.1352C157.771 81.3165 157.686 81.5199 157.568 81.6864C157.531 81.7382 157.446 81.7937 157.416 81.8492L157.531 81.8936C157.512 81.8492 157.501 81.8011 157.494 81.753C157.468 81.3202 157.387 80.9095 157.405 80.4693C157.424 80.0291 157.486 79.6036 157.597 79.1782C157.652 78.971 157.715 78.7639 157.793 78.5641C157.83 78.4679 157.863 78.368 157.911 78.2793C157.974 78.1572 158.073 78.1128 157.937 78.0906L157.616 77.7687C157.741 78.6566 157.752 79.5592 157.664 80.4508C157.619 80.8873 157.545 81.3239 157.446 81.753C157.412 81.9047 157.272 82.7407 157.11 82.7333L157.556 83.0737C157.095 81.3793 157.246 79.452 158.132 77.913C158.199 77.7983 158.236 77.7946 158.184 77.6874C158.096 77.5135 158.14 77.8575 158.14 77.8982C158.144 78.1387 158.14 78.3754 158.136 78.6159C158.125 79.119 158.092 79.6258 158.036 80.1253C157.929 81.1426 157.726 82.1451 157.457 83.1292L157.904 82.7888C157.723 82.7666 157.8 81.827 157.804 81.716C157.833 81.2092 157.885 80.7098 157.981 80.2103C158.173 79.2226 158.505 78.2164 159.111 77.3988C159.17 77.3211 159.24 77.1953 159.332 77.1546C159.436 77.1102 159.395 77.088 159.414 77.2471C159.447 77.4913 159.414 77.7576 159.406 78.0018C159.38 78.5604 159.325 79.119 159.225 79.6702C159.026 80.817 158.686 81.9343 158.206 82.996L158.838 82.8295C158.742 82.7592 158.782 82.4855 158.786 82.3782C158.797 82.0896 158.823 81.8048 158.852 81.5162C158.908 80.9576 158.996 80.4064 159.107 79.8552C159.211 79.3447 159.34 78.8342 159.488 78.3347C159.62 77.8834 159.757 77.4506 160.134 77.1472L159.576 77.2212C159.849 77.384 159.691 78.1091 159.672 78.3532C159.628 78.9045 159.558 79.452 159.462 79.9958C159.273 81.0649 158.989 82.1118 158.624 83.1329L159.532 83.2549C159.536 82.2487 159.628 81.2499 159.827 80.2658C160.004 79.3891 160.196 78.368 160.798 77.6726L160.012 77.347C159.753 79.4261 159.495 81.5014 159.236 83.5805C159.174 84.0799 159.868 84.1465 160.097 83.8135C161.053 82.4374 161.551 80.7911 161.537 79.1153C161.533 78.5197 160.614 78.5197 160.614 79.1153C160.614 80.8022 160.041 82.4522 158.956 83.747C158.576 84.202 159.159 84.8013 159.609 84.4018C160.06 84.0022 160.248 83.4843 160.411 82.9405C160.617 82.2672 160.795 81.5865 160.95 80.9021C161.267 79.5186 161.485 78.1128 161.622 76.6959L161.038 77.1435C161.367 77.2767 161.319 78.2053 161.341 78.4642C161.396 79.1153 161.455 79.7701 161.492 80.4249C161.529 81.0316 161.54 81.6642 161.267 82.2265C161.023 82.7296 160.625 83.1366 160.241 83.5398C159.89 83.906 160.348 84.5645 160.798 84.2649C161.803 83.5953 162.028 82.2709 162.209 81.1574C162.434 79.7849 162.471 78.3939 162.308 77.0104L161.448 77.2434C162.478 78.6233 162.264 80.436 162.061 82.0415C161.995 82.5669 162.836 82.6556 162.969 82.1636C163.394 80.584 163.549 78.9488 163.423 77.3211L162.515 77.4432C162.918 78.4013 163.35 79.415 163.224 80.4767C163.124 81.3239 162.707 82.1229 162.124 82.737C161.009 83.906 159.129 84.4239 157.693 83.5065C156.899 82.9997 156.663 82.1118 156.67 81.2092C156.681 80.177 156.881 79.0931 157.39 78.1831C157.833 77.3877 158.546 76.7181 159.436 76.4629C160.407 76.1854 161.537 76.522 162.404 76.9845C163.471 77.5542 163.807 78.6751 163.8 79.8293C163.793 80.9835 163.302 82.1192 162.212 82.5373C161.662 82.7481 161.902 83.6434 162.456 83.4288L162.441 83.4251Z" fill="#4D58D8" stroke="#4D58D8" stroke-width="2.5" stroke-linecap="round" stroke-linejoin="round"/>
<path d="M161.872 81.2566C161.861 81.6894 161.725 82.0667 161.474 82.4182C161.248 82.7326 161.559 83.0841 161.872 83.1137C162.611 83.1877 162.925 82.1777 162.984 81.608C163.058 80.8866 162.81 80.1875 162.496 79.5512C162.183 78.9149 161.776 78.3008 161.252 77.8161C160.986 77.572 160.695 77.3611 160.388 77.1761C160.244 77.0911 159.76 76.8728 159.801 76.6434C159.879 76.2291 159.362 75.8148 159.029 76.1921C158.697 76.5694 158.568 77.0393 158.668 77.5498C158.782 78.1343 159.672 77.8864 159.557 77.3056C159.524 77.1392 159.572 76.9764 159.683 76.8469L158.911 76.3956C158.789 77.0541 159.192 77.5239 159.72 77.8531C160.248 78.1824 160.713 78.5079 161.09 79.0073C161.466 79.5068 161.769 80.0543 161.95 80.6314C162.039 80.9162 162.09 81.2085 162.068 81.5081C162.057 81.645 162.028 81.7819 161.983 81.9114C161.965 81.9669 161.943 82.015 161.913 82.0667C161.895 82.1037 161.872 82.1407 161.847 82.1777C161.817 82.211 161.824 82.2147 161.869 82.1851L162.268 82.8806C162.607 82.4034 162.781 81.8374 162.792 81.2529C162.803 80.6684 161.88 80.6573 161.869 81.2529L161.872 81.2566Z" fill="#4D58D8" stroke="#4D58D8" stroke-width="2.5" stroke-linecap="round" stroke-linejoin="round"/>
<path d="M169.05 69.1778C168.824 71.157 168.68 73.1435 168.614 75.1338C168.595 75.7405 169.474 75.7109 169.537 75.1338C169.744 73.2804 169.95 71.427 170.157 69.5736H169.234C169.105 71.5121 168.976 73.4506 168.847 75.3891C168.813 75.9033 169.666 76.0291 169.755 75.5111C170.061 73.6466 170.371 71.7785 170.678 69.914L169.77 69.7919C169.64 71.649 169.496 73.5061 169.338 75.3595C169.293 75.8737 170.165 75.9995 170.246 75.4816C170.549 73.5431 170.885 71.612 171.261 69.6846L170.353 69.5625C170.209 71.6638 170.065 73.765 169.921 75.8663C169.884 76.3805 170.726 76.5026 170.829 75.9884C171.191 74.1683 171.549 72.3445 171.911 70.5244L171.003 70.4023C170.977 71.9708 170.774 73.5283 170.567 75.0783C170.497 75.5999 171.35 75.6961 171.475 75.2004C171.834 73.7798 172.192 72.3593 172.55 70.9387L171.642 70.8166C171.542 72.252 171.35 73.6799 171.062 75.0894C170.944 75.6665 171.789 75.9144 171.952 75.3336C172.314 74.0425 172.679 72.7514 173.041 71.4603L172.133 71.3382C172.199 72.5516 171.974 73.7354 171.738 74.9192C171.623 75.4964 172.483 75.7479 172.627 75.1634C172.919 73.9833 173.24 72.8106 173.584 71.6453L172.675 71.5232C172.672 72.5812 172.55 73.6245 172.306 74.6529C172.17 75.23 173.041 75.4742 173.196 74.897C173.366 74.2756 173.532 73.6504 173.702 73.0289L172.794 72.9068C172.749 73.4099 172.79 73.9056 172.886 74.4013C172.967 74.8083 173.536 74.8305 173.728 74.5123C174.304 73.5616 174.134 72.4111 173.79 71.4048C173.495 70.5466 173.008 69.5773 172.07 69.2999C171.952 69.2629 171.826 69.2481 171.704 69.237C171.616 69.2296 171.383 69.1704 171.294 69.1963C170.829 69.3369 171.217 69.4737 171.243 69.4219C171.235 69.4404 171.354 69.052 171.32 69.0224C171.313 69.015 171.18 69.0298 171.162 69.0298C170.652 69.0372 170.183 69.1075 169.71 69.3147C168.747 69.7401 168.097 70.5762 167.827 71.5861C167.51 72.781 167.322 74.2164 167.842 75.3743C167.997 75.7183 168.632 75.6517 168.684 75.2633C168.869 73.9315 169.009 72.596 169.098 71.2568C169.127 70.787 169.312 69.9695 168.78 69.692C168.248 69.4145 167.802 69.9806 167.539 70.3579C166.945 71.2051 166.842 72.3075 166.812 73.31C166.783 74.3125 166.775 75.4779 167.558 76.2436C167.779 76.4619 168.119 76.399 168.282 76.1511C168.629 75.6295 168.614 75.0043 168.584 74.405C168.547 73.7132 168.47 73.0215 168.363 72.3371C168.285 71.8266 167.414 71.9412 167.455 72.4591C167.514 73.2138 167.639 73.9648 167.872 74.6862C168.071 75.3077 168.411 75.8404 169.075 76.018C169.386 76.1031 169.714 76.1031 170.024 76.1844C170.371 76.2769 170.707 76.4175 171.073 76.3842C171.376 76.3583 171.638 76.2214 171.848 76.0069C172.029 75.8256 172.151 75.5814 172.391 75.4705L171.712 75.193C171.712 75.23 171.693 75.2559 171.649 75.267C171.202 75.6665 171.856 76.3102 172.302 75.9218C172.605 75.6554 172.908 75.3891 173.211 75.1227C173.657 74.7306 173.004 74.0758 172.557 74.4679C172.254 74.7343 171.952 75.0006 171.649 75.267L172.302 75.9218C172.59 75.6628 172.668 75.3188 172.602 74.9451C172.542 74.6233 172.17 74.5604 171.922 74.6677C171.73 74.7528 171.575 74.8933 171.442 75.0487C171.335 75.1708 171.217 75.3891 171.054 75.4446C170.822 75.5259 170.482 75.341 170.264 75.2818C170.021 75.2189 169.773 75.1967 169.526 75.1597C169.312 75.1264 169.105 75.082 168.968 74.9007C168.832 74.7195 168.765 74.4753 168.699 74.2571C168.525 73.6651 168.415 73.0621 168.367 72.448L167.458 72.5701C167.543 73.1324 167.606 73.6947 167.639 74.2608C167.669 74.7306 167.746 75.2596 167.473 75.6702L168.197 75.5777C167.643 75.0376 167.698 74.1646 167.717 73.4506C167.735 72.7366 167.768 71.919 168.079 71.2309C168.149 71.0719 168.241 70.9165 168.344 70.7796C168.385 70.7278 168.474 70.6649 168.499 70.6021C168.625 70.5244 168.588 70.4763 168.389 70.4615C168.256 70.3431 168.193 70.3357 168.204 70.4393C168.171 70.4874 168.186 70.7833 168.182 70.8425C168.175 70.9535 168.167 71.0682 168.163 71.1792C168.149 71.427 168.13 71.6712 168.112 71.919C168.031 72.9512 167.923 73.9833 167.779 75.008L168.621 74.897C168.363 74.3273 168.411 73.6725 168.481 73.0658C168.551 72.4591 168.629 71.8044 168.902 71.2531C169.142 70.7722 169.537 70.3986 170.017 70.1692C170.227 70.0693 170.464 69.9953 170.696 69.9621C170.951 69.9251 171.21 69.9768 171.464 69.9214C171.996 69.8104 172.31 69.1926 171.893 68.7597C171.564 68.4157 170.87 68.375 170.534 68.7191C170.131 69.126 170.39 69.7993 170.859 70.0175C171.132 70.147 171.42 70.1063 171.708 70.1655C171.937 70.2136 172.122 70.3505 172.277 70.5207C172.672 70.9572 172.875 71.5787 173.022 72.141C173.189 72.7773 173.259 73.4617 172.904 74.0462L173.746 74.1572C173.665 73.7428 173.65 73.3285 173.687 72.9068C173.731 72.3778 172.915 72.289 172.779 72.7847C172.609 73.4062 172.443 74.0314 172.273 74.6529L173.163 74.897C173.425 73.7909 173.561 72.6589 173.565 71.5195C173.565 70.9942 172.805 70.898 172.657 71.3974C172.314 72.5627 171.996 73.7354 171.701 74.9155L172.59 75.1597C172.842 73.8982 173.085 72.6219 173.015 71.3308C172.989 70.8203 172.254 70.6908 172.107 71.2088C171.745 72.4998 171.379 73.7909 171.018 75.082L171.907 75.3262C172.21 73.8353 172.413 72.326 172.52 70.8092C172.557 70.2839 171.741 70.1877 171.612 70.6871C171.254 72.1077 170.896 73.5283 170.538 74.9488L171.446 75.0709C171.653 73.5172 171.856 71.9634 171.882 70.3949C171.889 69.8844 171.077 69.7512 170.973 70.2728C170.611 72.0929 170.253 73.9167 169.891 75.7368L170.8 75.8589C170.944 73.7576 171.088 71.6564 171.232 69.5551C171.269 69.0409 170.423 68.9188 170.323 69.433C169.95 71.3604 169.611 73.2915 169.308 75.23L170.216 75.3521C170.379 73.4987 170.523 71.6416 170.648 69.7845C170.685 69.2703 169.829 69.1445 169.74 69.6624C169.434 71.5269 169.123 73.3951 168.817 75.2596L169.725 75.3817C169.854 73.4432 169.984 71.5047 170.113 69.5662C170.154 68.9632 169.253 68.9854 169.19 69.5662C168.983 71.4196 168.776 73.273 168.57 75.1264H169.493C169.555 73.1361 169.703 71.1496 169.928 69.1704C169.995 68.5785 169.072 68.5859 169.005 69.1704L169.05 69.1778Z" fill="#4D58D8"/>
<path d="M171.649 75.267C171.693 75.2559 171.712 75.23 171.712 75.193L172.391 75.4705C172.151 75.5814 172.029 75.8256 171.848 76.0069C171.638 76.2214 171.376 76.3583 171.073 76.3842C170.707 76.4175 170.371 76.2769 170.024 76.1844C169.714 76.1031 169.386 76.1031 169.075 76.018C168.411 75.8404 168.071 75.3077 167.872 74.6862C167.639 73.9648 167.514 73.2138 167.455 72.4591C167.414 71.9412 168.285 71.8266 168.363 72.3371C168.47 73.0215 168.547 73.7132 168.584 74.405C168.614 75.0043 168.629 75.6295 168.282 76.1511C168.119 76.399 167.779 76.4619 167.558 76.2436C166.775 75.4779 166.783 74.3125 166.812 73.31C166.842 72.3075 166.945 71.2051 167.539 70.3579C167.802 69.9806 168.248 69.4145 168.78 69.692C169.312 69.9695 169.127 70.787 169.098 71.2568C169.009 72.596 168.869 73.9315 168.684 75.2633C168.632 75.6517 167.997 75.7183 167.842 75.3743C167.322 74.2164 167.51 72.781 167.827 71.5861C168.097 70.5762 168.747 69.7401 169.71 69.3147C170.183 69.1075 170.652 69.0372 171.162 69.0298C171.18 69.0298 171.313 69.015 171.32 69.0224C171.354 69.052 171.235 69.4404 171.243 69.4219C171.217 69.4737 170.829 69.3369 171.294 69.1963C171.383 69.1704 171.616 69.2296 171.704 69.237C171.826 69.2481 171.952 69.2629 172.07 69.2999C173.008 69.5773 173.495 70.5466 173.79 71.4048C174.134 72.4111 174.304 73.5616 173.728 74.5123C173.536 74.8305 172.967 74.8083 172.886 74.4013C172.79 73.9056 172.749 73.4099 172.794 72.9068L173.702 73.0289C173.532 73.6504 173.366 74.2756 173.196 74.897C173.041 75.4742 172.17 75.23 172.306 74.6529C172.55 73.6245 172.672 72.5812 172.675 71.5232L173.584 71.6453C173.24 72.8106 172.919 73.9833 172.627 75.1634C172.483 75.7479 171.623 75.4964 171.738 74.9192C171.974 73.7354 172.199 72.5516 172.133 71.3382L173.041 71.4603C172.679 72.7514 172.314 74.0425 171.952 75.3336C171.789 75.9144 170.944 75.6665 171.062 75.0894C171.35 73.6799 171.542 72.252 171.642 70.8166L172.55 70.9387C172.192 72.3593 171.834 73.7798 171.475 75.2004C171.35 75.6961 170.497 75.5999 170.567 75.0783C170.774 73.5283 170.977 71.9708 171.003 70.4023L171.911 70.5244C171.549 72.3445 171.191 74.1683 170.829 75.9884C170.726 76.5026 169.884 76.3805 169.921 75.8663C170.065 73.765 170.209 71.6638 170.353 69.5625L171.261 69.6846C170.885 71.612 170.549 73.5431 170.246 75.4816C170.165 75.9995 169.293 75.8737 169.338 75.3595C169.496 73.5061 169.64 71.649 169.77 69.7919L170.678 69.914C170.371 71.7785 170.061 73.6466 169.755 75.5111C169.666 76.0291 168.813 75.9033 168.847 75.3891C168.976 73.4506 169.105 71.5121 169.234 69.5736H170.157C169.95 71.427 169.744 73.2804 169.537 75.1338C169.474 75.7109 168.595 75.7405 168.614 75.1338C168.68 73.1435 168.824 71.157 169.05 69.1778L169.005 69.1704C169.072 68.5859 169.995 68.5785 169.928 69.1704C169.703 71.1496 169.555 73.1361 169.493 75.1264H168.57C168.776 73.273 168.983 71.4196 169.19 69.5662C169.253 68.9854 170.154 68.9632 170.113 69.5662C169.984 71.5047 169.854 73.4432 169.725 75.3817L168.817 75.2596C169.123 73.3951 169.434 71.5269 169.74 69.6624C169.829 69.1445 170.685 69.2703 170.648 69.7845C170.523 71.6416 170.379 73.4987 170.216 75.3521L169.308 75.23C169.611 73.2915 169.95 71.3604 170.323 69.433C170.423 68.9188 171.269 69.0409 171.232 69.5551C171.088 71.6564 170.944 73.7576 170.8 75.8589L169.891 75.7368C170.253 73.9167 170.611 72.0929 170.973 70.2728C171.077 69.7512 171.889 69.8844 171.882 70.3949C171.856 71.9634 171.653 73.5172 171.446 75.0709L170.538 74.9488C170.896 73.5283 171.254 72.1077 171.612 70.6871C171.741 70.1877 172.557 70.2839 172.52 70.8092C172.413 72.326 172.21 73.8353 171.907 75.3262L171.018 75.082C171.379 73.7909 171.745 72.4998 172.107 71.2088C172.254 70.6908 172.989 70.8203 173.015 71.3308C173.085 72.6219 172.842 73.8982 172.59 75.1597L171.701 74.9155C171.996 73.7354 172.314 72.5627 172.657 71.3974C172.805 70.898 173.565 70.9942 173.565 71.5195C173.561 72.6589 173.425 73.7909 173.163 74.897L172.273 74.6529C172.443 74.0314 172.609 73.4062 172.779 72.7847C172.915 72.289 173.731 72.3778 173.687 72.9068C173.65 73.3285 173.665 73.7428 173.746 74.1572L172.904 74.0462C173.259 73.4617 173.189 72.7773 173.022 72.141C172.875 71.5787 172.672 70.9572 172.277 70.5207C172.122 70.3505 171.937 70.2136 171.708 70.1655C171.42 70.1063 171.132 70.147 170.859 70.0175C170.39 69.7993 170.131 69.126 170.534 68.7191C170.87 68.375 171.564 68.4157 171.893 68.7597C172.31 69.1926 171.996 69.8104 171.464 69.9214C171.21 69.9768 170.951 69.9251 170.696 69.9621C170.464 69.9953 170.227 70.0693 170.017 70.1692C169.537 70.3986 169.142 70.7722 168.902 71.2531C168.629 71.8044 168.551 72.4591 168.481 73.0658C168.411 73.6725 168.363 74.3273 168.621 74.897L167.779 75.008C167.923 73.9833 168.031 72.9512 168.112 71.919C168.13 71.6712 168.149 71.427 168.163 71.1792C168.167 71.0682 168.175 70.9535 168.182 70.8425C168.186 70.7833 168.171 70.4874 168.204 70.4393C168.193 70.3357 168.256 70.3431 168.389 70.4615C168.588 70.4763 168.625 70.5244 168.499 70.6021C168.474 70.6649 168.385 70.7278 168.344 70.7796C168.241 70.9165 168.149 71.0719 168.079 71.2309C167.768 71.919 167.735 72.7366 167.717 73.4506C167.698 74.1646 167.643 75.0376 168.197 75.5777L167.473 75.6702C167.746 75.2596 167.669 74.7306 167.639 74.2608C167.606 73.6947 167.543 73.1324 167.458 72.5701L168.367 72.448C168.415 73.0621 168.525 73.6651 168.699 74.2571C168.765 74.4753 168.832 74.7195 168.968 74.9007C169.105 75.082 169.312 75.1264 169.526 75.1597C169.773 75.1967 170.021 75.2189 170.264 75.2818C170.482 75.341 170.822 75.5259 171.054 75.4446C171.217 75.3891 171.335 75.1708 171.442 75.0487C171.575 74.8933 171.73 74.7528 171.922 74.6677C172.17 74.5604 172.542 74.6233 172.602 74.9451C172.668 75.3188 172.59 75.6628 172.302 75.9218M171.649 75.267C171.202 75.6665 171.856 76.3102 172.302 75.9218M171.649 75.267C171.952 75.0006 172.254 74.7343 172.557 74.4679C173.004 74.0758 173.657 74.7306 173.211 75.1227C172.908 75.3891 172.605 75.6554 172.302 75.9218M171.649 75.267L172.302 75.9218" stroke="#4D58D8" stroke-width="2.5" stroke-linecap="round" stroke-linejoin="round"/>
<path d="M171.395 69.8702C171.454 70.1883 171.716 70.2919 171.867 70.5398C172.019 70.7876 172.011 71.1724 172.033 71.4424C172.089 72.1157 172.085 72.8038 171.948 73.466C171.827 74.0542 171.612 74.7867 171.166 75.2158C170.929 75.4452 170.534 75.5266 170.224 75.5969C170.021 75.645 169.578 75.7152 169.478 75.4415C169.275 74.8866 168.385 75.127 168.589 75.6856C168.958 76.7067 170.054 76.6327 170.918 76.3626C171.365 76.2221 171.731 76.0186 172.019 75.6376C172.277 75.2972 172.462 74.9088 172.613 74.5092C172.931 73.6769 173.023 72.752 172.986 71.8679C172.967 71.4239 172.942 70.9578 172.842 70.5287C172.798 70.3437 172.727 70.1587 172.62 70.0034C172.554 69.9072 172.307 69.7333 172.288 69.6297C172.181 69.0452 171.291 69.2931 171.398 69.8739L171.395 69.8702Z" fill="#4D58D8" stroke="#4D58D8" stroke-width="2.5" stroke-linecap="round" stroke-linejoin="round"/>
<path d="M180.279 70.5358L180.319 70.1289H179.396C179.304 71.3386 179.407 72.5483 179.684 73.7284C179.788 74.1723 180.467 74.1686 180.574 73.7284C180.884 72.441 181.058 71.1277 181.084 69.8033C181.095 69.1892 180.234 69.2336 180.161 69.8033C179.95 71.3904 179.95 72.9922 180.161 74.5793C180.223 75.0639 180.917 75.2488 181.069 74.7013C181.545 72.9737 181.737 71.1943 181.929 69.4186C181.992 68.823 181.08 68.8378 181.006 69.4186C180.77 71.3164 180.74 73.229 180.921 75.1305C180.965 75.6151 181.7 75.7964 181.829 75.2525C182.276 73.3326 182.56 71.3793 182.837 69.426L181.929 69.3039C181.733 71.1462 181.545 72.9885 181.493 74.8382C181.479 75.3524 182.291 75.4782 182.402 74.9603C182.812 73.0144 183.184 71.0611 183.52 69.1004L182.612 68.9784C182.416 70.7948 182.221 72.6112 182.217 74.4387C182.217 74.9455 183.022 75.0861 183.125 74.5608C183.495 72.6482 183.864 70.7319 184.233 68.8193L183.325 68.6972C183.1 70.6468 182.73 72.6482 182.919 74.6125C182.963 75.0898 183.727 75.2895 183.827 74.7346C184 73.7432 184.174 72.7518 184.348 71.764C184.499 70.8984 184.576 69.9476 185.049 69.1855L184.189 68.9525C183.956 70.8466 183.794 72.7444 183.698 74.6495C183.672 75.1712 184.48 75.2784 184.606 74.7716C184.957 73.3252 185.178 71.8565 185.392 70.3841L184.484 70.2621C184.425 71.1055 184.366 71.9527 184.311 72.7961C184.259 73.5508 184.163 74.324 184.414 75.0528C184.547 75.4375 185.23 75.5448 185.304 75.0528C185.518 73.61 185.732 72.1635 185.95 70.7208L185.042 70.5987C185.019 72.023 184.997 73.4509 184.979 74.8752C184.971 75.382 185.799 75.5226 185.887 74.9973C186.094 73.7728 186.297 72.552 186.504 71.3275H185.614C185.939 72.4262 185.876 73.5693 185.81 74.7013C185.78 75.2192 186.607 75.3339 186.718 74.8234C186.888 74.0243 187.058 73.2253 187.231 72.4225H186.341C186.423 72.9441 186.423 73.4768 186.341 73.9984C186.282 74.361 186.651 74.7642 187.021 74.5201C187.951 73.9097 187.515 72.4743 187.22 71.6197C186.851 70.5654 186.219 69.5777 185.271 68.9599C184.41 68.3976 183.284 68.1941 182.291 68.4605C181.194 68.7527 180.478 69.6184 180.109 70.6579C180.002 70.9649 179.924 71.2794 179.861 71.5975C179.799 71.9157 179.706 72.2671 179.758 72.5853C179.865 73.2512 180.641 73.4768 181.047 72.9256C181.401 72.4484 180.6 71.986 180.249 72.4595C180.545 72.515 180.689 72.441 180.685 72.2375C180.692 72.182 180.703 72.1266 180.711 72.0674C180.733 71.9342 180.759 71.8047 180.785 71.6715C180.833 71.4459 180.888 71.2239 180.962 71.0093C181.109 70.5543 181.342 70.1178 181.7 69.7922C182.343 69.2114 183.295 69.1596 184.089 69.4112C184.99 69.6998 185.651 70.4211 186.072 71.2461C186.293 71.6826 186.445 72.1525 186.552 72.626C186.6 72.8479 186.818 73.5508 186.563 73.7173L187.242 74.2389C187.353 73.5397 187.357 72.8701 187.242 72.1709C187.172 71.7159 186.445 71.7418 186.352 72.1709C186.183 72.97 186.013 73.7691 185.839 74.5719L186.747 74.6939C186.821 73.4805 186.869 72.2523 186.522 71.0722C186.4 70.6653 185.714 70.5987 185.632 71.0722C185.426 72.2967 185.223 73.5175 185.016 74.742L185.924 74.8641C185.946 73.4398 185.968 72.0119 185.987 70.5876C185.994 70.0808 185.16 69.9365 185.079 70.4655C184.864 71.9083 184.65 73.3548 184.432 74.7975H185.322C185.086 74.1094 185.215 73.3511 185.263 72.6408C185.319 71.8454 185.374 71.0463 185.429 70.251C185.466 69.7367 184.599 69.611 184.521 70.1289C184.307 71.5975 184.085 73.0699 183.735 74.5164L184.643 74.6384C184.735 72.7333 184.898 70.8355 185.134 68.9414C185.193 68.4568 184.495 68.3532 184.274 68.7083C183.775 69.5111 183.661 70.4581 183.502 71.3719C183.321 72.4077 183.14 73.4472 182.959 74.4831L183.868 74.6051C183.679 72.6408 184.048 70.6357 184.274 68.6898C184.333 68.1756 183.465 68.0572 183.365 68.5677C182.996 70.4803 182.627 72.3966 182.258 74.3092L183.166 74.4313C183.17 72.6038 183.362 70.7874 183.561 68.971C183.616 68.4568 182.741 68.3347 182.653 68.8489C182.317 70.8096 181.944 72.7628 181.534 74.7087L182.442 74.8308C182.494 72.9774 182.682 71.1351 182.878 69.2965C182.933 68.7823 182.044 68.6565 181.97 69.1744C181.693 71.1277 181.408 73.081 180.962 75.001L181.87 75.1231C181.689 73.2179 181.719 71.3053 181.955 69.4112H181.032C180.851 71.1055 180.659 72.8035 180.205 74.4498L181.113 74.5719C180.906 72.9848 180.906 71.383 181.113 69.7959H180.19C180.164 71.0389 180.005 72.2671 179.714 73.4768H180.604C180.345 72.3744 180.264 71.2535 180.349 70.1215C180.393 69.5222 179.485 69.537 179.426 70.1215L179.385 70.5284C179.326 71.1203 180.249 71.1166 180.308 70.5284L180.279 70.5358Z" fill="#4D58D8" stroke="#4D58D8" stroke-width="2.5" stroke-linecap="round" stroke-linejoin="round"/>
<path d="M183.557 70.8652C183.28 71.2462 183.354 71.7456 183.506 72.1637C183.694 72.6816 183.908 73.1958 184.107 73.71C184.307 74.2242 184.499 74.7273 184.702 75.2341C184.809 75.5005 184.971 75.7188 185.289 75.7151C185.533 75.7114 185.795 75.5412 186.013 75.4487L185.492 74.768C185.411 74.8753 185.33 74.9715 185.215 75.0381C185.2 75.0455 185.245 75.1158 185.245 75.0714C185.245 75.0122 185.252 74.9604 185.263 74.9049L184.355 74.7828C184.344 74.9382 184.255 75.2415 184.178 75.2933L184.41 75.2304H184.347C184.425 75.2563 184.502 75.2785 184.58 75.297C184.661 75.3414 184.632 75.3599 184.598 75.2674C184.576 75.2009 184.536 75.138 184.51 75.0714C184.458 74.9493 184.414 74.8235 184.37 74.6977C184.229 74.2871 183.594 74.2279 183.48 74.6977C183.387 75.0751 183.295 75.4561 183.199 75.8335H184.089C183.963 75.3414 183.746 74.8716 183.439 74.4647C183.273 74.2427 182.933 74.128 182.715 74.3722C182.309 74.8235 182.158 75.3932 182.276 75.9888C182.32 76.2108 182.571 76.3514 182.782 76.3218C183.018 76.2848 183.162 76.1035 183.181 75.8667C183.214 75.4598 183.162 74.99 182.793 74.7458C182.494 74.5461 182.058 74.5683 181.796 74.8161C181.475 75.1195 181.575 75.6115 181.874 75.8852C182.199 76.1812 182.819 76.1479 182.941 75.667C183.003 75.4228 182.885 75.2341 182.756 75.0381C182.645 74.8679 182.542 74.6681 182.394 74.5239C182.051 74.1798 181.545 74.2871 181.246 74.6274C180.984 74.9197 180.777 75.3858 181.039 75.7447C181.379 76.2071 181.899 75.8371 182.269 75.6337C182.786 75.3414 182.32 74.5424 181.803 74.8346C181.641 74.9271 181.479 75.0233 181.312 75.1047L181.545 75.0418L181.552 75.0492L181.755 75.1676L181.726 75.138L181.844 75.3414C181.863 75.3858 181.792 75.4413 181.859 75.3414C181.877 75.3118 181.899 75.2859 181.918 75.2563C181.973 75.175 181.977 75.2378 181.829 75.1935C181.667 75.1417 181.73 75.1676 181.781 75.2489C181.815 75.3007 181.848 75.3488 181.881 75.4006C181.925 75.4709 182.04 75.6152 182.051 75.6559V75.4117L182.069 75.3747L182.235 75.2083C182.601 75.0122 182.52 75.4968 182.387 75.5301C182.343 75.5412 182.32 75.5301 182.283 75.5301C182.221 75.5338 182.239 75.4228 182.265 75.5856C182.28 75.6781 182.265 75.7854 182.254 75.8815L183.162 75.7595C183.111 75.5042 183.192 75.2342 183.365 75.0418L182.642 74.9493C182.904 75.3007 183.088 75.6744 183.199 76.0961C183.31 76.5178 183.982 76.54 184.089 76.0961C184.181 75.7188 184.274 75.3377 184.37 74.9604H183.48C183.631 75.4006 183.849 76.2848 184.473 76.1664C185.03 76.0591 185.248 75.2859 185.282 74.805C185.315 74.2908 184.462 74.165 184.373 74.6829C184.285 75.2009 184.366 75.8113 184.971 75.9592C185.577 76.1072 185.972 75.6855 186.29 75.26C186.518 74.953 186.131 74.4277 185.769 74.5794C185.666 74.6238 185.558 74.6681 185.455 74.7125C185.403 74.7347 185.352 74.7569 185.296 74.7791C185.208 74.805 185.189 74.8161 185.241 74.8124L185.566 74.9493C185.599 74.9752 185.518 74.8161 185.507 74.7902C185.474 74.7014 185.437 74.6127 185.403 74.5202C185.341 74.3574 185.274 74.1909 185.211 74.0281C185.078 73.6841 184.942 73.3401 184.809 72.9997C184.676 72.6594 184.55 72.3449 184.425 72.0157C184.347 71.8159 184.218 71.557 184.358 71.3646C184.499 71.1722 184.392 70.8504 184.192 70.732C183.96 70.5951 183.709 70.695 183.561 70.8985L183.557 70.8652Z" fill="#4D58D8" stroke="#4D58D8" stroke-width="2.5" stroke-linecap="round" stroke-linejoin="round"/>
<path d="M151.258 62.9406C150.054 65.4007 147.695 66.8398 145.35 68.0569C143.005 69.274 140.336 70.4171 138.291 72.2853C135.71 74.6455 134.931 78.0119 134.694 81.3858C134.469 84.5414 134.709 87.7857 135.621 90.8266C136.533 93.8675 138.08 96.5829 140.487 98.551C143.146 100.723 146.476 101.614 149.725 102.483C151.372 102.924 153.023 103.368 154.603 104.008C156.183 104.648 157.73 105.602 159.048 106.793C160.366 107.984 161.662 109.427 163.15 110.537C164.638 111.647 166.211 112.35 167.921 112.808C171.454 113.752 175.213 113.423 178.624 112.157C182.036 110.892 185.182 108.632 187.966 106.109C189.369 104.84 190.75 103.527 192.289 102.417C193.907 101.252 195.719 100.489 197.466 99.5535C200.39 97.985 202.779 95.5471 204.356 92.6246C205.932 89.702 206.7 86.3837 206.453 83.0875C206.205 79.7914 205.005 76.5581 203.089 73.8538C202.136 72.5072 201.018 71.2827 199.751 70.2284C198.374 69.0853 196.842 68.2159 195.254 67.4021C193.585 66.5475 191.935 65.6782 190.554 64.3834C189.402 63.3031 188.427 62.0491 187.508 60.7691C185.647 58.1906 183.904 55.4123 181.257 53.5626C178.259 51.4651 174.378 50.9028 170.797 51.1136C164.295 51.4984 157.996 54.6577 153.757 59.6037C152.712 60.8208 151.793 62.1452 151.021 63.5547C150.737 64.0763 151.531 64.5424 151.819 64.0208C154.898 58.4014 160.392 54.2951 166.573 52.7081C169.793 51.8831 173.274 51.7129 176.524 52.4935C178.266 52.9152 179.935 53.644 181.346 54.7686C182.549 55.7342 183.568 56.9143 184.495 58.1425C186.356 60.61 187.951 63.3475 190.307 65.397C192.995 67.7387 196.55 68.7043 199.268 71.0164C204.2 75.2115 206.704 81.9888 205.064 88.3333C204.263 91.437 202.583 94.3041 200.228 96.4756C198.95 97.6557 197.495 98.5288 195.941 99.2909C194.25 100.123 192.629 100.978 191.134 102.136C188.243 104.374 185.791 107.122 182.69 109.091C179.655 111.018 176.165 112.342 172.543 112.42C168.995 112.494 165.499 111.406 162.8 109.061C161.43 107.87 160.23 106.497 158.812 105.365C157.516 104.333 156.065 103.571 154.525 102.975C151.427 101.781 148.108 101.277 145.014 100.068C142.057 98.9135 139.634 96.9602 138.051 94.1931C136.467 91.4259 135.813 88.4516 135.614 85.407C135.51 83.8718 135.536 82.3328 135.673 80.8013C135.835 79.0034 136.149 77.1574 136.969 75.5259C139.483 70.5207 145.863 69.7142 149.814 66.2812C150.741 65.4747 151.523 64.5055 152.066 63.3993C152.328 62.8666 151.531 62.3968 151.269 62.9332L151.258 62.9406Z" fill="#4D58D8" stroke="#4D58D8" stroke-width="2.5" stroke-linecap="round" stroke-linejoin="round"/>
<path d="M163.958 80.6978C164.719 81.7448 165.786 82.4181 166.827 83.1505C167.868 83.883 168.957 84.8116 169.005 86.1582C169.031 86.8166 168.702 87.342 168.259 87.8007C167.768 88.3075 167.196 88.4703 166.542 88.1484C165.505 87.6416 164.715 86.6502 163.91 85.8474C163.016 84.9596 162.045 84.1346 160.812 83.7868C160.24 83.6241 159.996 84.5156 160.568 84.6784C161.791 85.0261 162.699 85.9325 163.57 86.8129C164.442 87.6934 165.461 88.9031 166.742 89.1954C168.112 89.5098 169.408 88.3186 169.806 87.0719C170.235 85.7364 169.544 84.3344 168.606 83.4058C167.421 82.2368 165.749 81.5968 164.755 80.228C164.408 79.7508 163.607 80.2132 163.958 80.6942V80.6978Z" fill="#4D58D8" stroke="#4D58D8" stroke-width="2.5" stroke-linecap="round" stroke-linejoin="round"/>
<path d="M41.136 86.8615C39.5262 86.9355 37.9422 87.1501 36.4432 87.779C35.1619 88.3191 34.0174 89.1145 32.9983 90.0541C30.8457 92.0333 29.2655 94.5415 27.4969 96.8462C26.6034 98.0115 25.6508 99.1398 24.5616 100.131C23.3505 101.23 22.0029 102.162 20.681 103.12C18.0374 105.033 15.5488 107.119 14.4079 110.286C13.2671 113.453 13.3335 117.348 13.928 120.722C14.5224 124.096 15.9402 127.274 18.4214 129.664C20.6367 131.798 23.417 133.204 26.1935 134.454C29.1325 135.779 32.1306 136.981 34.8592 138.716C37.8647 140.625 40.6818 142.822 44.2079 143.669C47.2798 144.409 50.6102 144.276 53.5418 143.048C56.4735 141.82 58.6445 139.467 60.3134 136.759C61.986 134.047 63.245 131.058 65.2351 128.55C67.5206 125.672 70.6885 123.759 73.6091 121.61C76.249 119.668 79.0034 117.348 80.2625 114.226C81.4034 111.4 81.2151 107.759 79.4354 105.233C77.7702 102.865 74.9383 102.273 72.2873 101.652C69.112 100.908 66.0548 99.8908 63.1786 98.3371C60.8155 97.0608 58.6297 95.4996 56.5104 93.8534C52.9363 91.0714 49.3475 87.9455 44.7544 87.102C43.5581 86.8837 42.347 86.8097 41.1323 86.8615C40.5415 86.8874 40.5378 87.8123 41.1323 87.7864C43.3956 87.6902 45.6405 88.0601 47.7192 88.9813C49.7019 89.858 51.4853 91.1195 53.1985 92.4328C55.1221 93.9052 56.9904 95.4478 58.9805 96.8277C61.2808 98.4222 63.725 99.7835 66.3243 100.819C67.8418 101.422 69.4 101.9 70.9839 102.292C72.4017 102.643 73.8454 102.917 75.23 103.379C76.4152 103.775 77.5192 104.363 78.3425 105.325C79.3247 106.472 79.8416 108.007 79.9856 109.494C80.1296 110.982 79.9486 112.572 79.369 113.982C78.7487 115.48 77.6779 116.804 76.5444 117.944C74.1186 120.385 71.1242 122.132 68.4178 124.229C67.0517 125.287 65.7557 126.441 64.6665 127.788C63.6992 128.983 62.8906 130.292 62.1337 131.628C60.6272 134.291 59.3165 137.155 57.1935 139.404C55.0704 141.653 52.1499 142.944 49.0595 143.159C45.8325 143.385 42.7162 142.53 39.936 140.906C38.3742 139.996 36.9158 138.927 35.3909 137.958C34.0543 137.103 32.6549 136.363 31.2187 135.69C28.4716 134.402 25.6212 133.322 22.9739 131.824C20.2712 130.296 17.9008 128.291 16.4461 125.498C14.8732 122.476 14.3932 118.954 14.4633 115.584C14.5003 113.845 14.7181 112.095 15.3199 110.456C15.8811 108.928 16.819 107.611 17.9746 106.479C20.1937 104.312 22.9739 102.828 25.2594 100.734C27.3787 98.7921 28.9664 96.3579 30.6907 94.0754C32.3263 91.9112 34.1909 89.7434 36.7348 88.6483C38.1342 88.049 39.6222 87.8567 41.1286 87.7864C41.7193 87.7605 41.723 86.8356 41.1286 86.8615H41.136Z" fill="#4D58D8" stroke="#4D58D8" stroke-width="2.5" stroke-linecap="round" stroke-linejoin="round"/>
<path d="M33.511 101.707C31.6317 102.873 30.86 105.114 31.2514 107.242C31.4471 108.314 31.9308 109.428 32.6692 110.242C33.4076 111.056 34.4525 111.326 35.5233 111.2C37.5872 110.96 39.378 109.543 40.061 107.571C40.7773 105.499 40.1903 103.006 38.3331 101.752C36.3245 100.394 33.3633 100.79 32.3886 103.194C32.1634 103.746 33.0569 103.986 33.2784 103.439C33.9799 101.707 36.1657 101.556 37.602 102.384C39.186 103.302 39.7287 105.255 39.2746 106.968C38.85 108.57 37.5503 109.805 35.9479 110.194C35.1171 110.394 34.183 110.386 33.5147 109.787C32.8833 109.217 32.4883 108.34 32.2631 107.538C31.7425 105.68 32.2778 103.561 33.9726 102.51C34.4784 102.199 34.0132 101.397 33.5073 101.711L33.511 101.707Z" fill="#4D58D8" stroke="#4D58D8" stroke-width="2.5" stroke-linecap="round" stroke-linejoin="round"/>
<path d="M32.9497 103.261C32.4439 105.196 32.6211 107.212 33.4223 109.039C33.5848 109.409 34.1793 109.291 34.2642 108.928C34.5706 107.652 34.5743 106.317 34.2457 105.044C34.1165 104.541 33.9503 103.82 33.3928 103.623C32.7577 103.401 32.4328 104.03 32.2667 104.526C31.8642 105.732 31.8421 107.079 32.1891 108.299C32.3331 108.81 32.5288 109.498 33.1417 109.587C33.6586 109.661 34.0316 109.235 34.1977 108.795C34.4082 108.244 34.3934 107.571 34.3786 106.99C34.3602 106.339 34.2716 105.68 34.1128 105.048C34.0389 104.752 33.9466 104.456 33.8433 104.167C33.7399 103.879 33.6402 103.531 33.4371 103.309C33.0384 102.869 32.4698 103.094 32.2371 103.572C31.9861 104.09 31.9639 104.796 31.9344 105.362C31.9048 106.002 31.9528 106.642 32.0562 107.271C32.1596 107.9 32.3442 108.518 32.5916 109.11C32.791 109.583 33.0125 110.242 33.5663 110.39C34.9952 110.774 35.0322 108.152 35.0875 107.352C35.1983 105.765 35.0617 104.167 34.722 102.614C34.6519 102.295 34.1682 102.14 33.9503 102.41C33.2562 103.276 33.3965 104.637 33.4297 105.68C33.4667 106.923 33.6143 108.166 33.8691 109.38C33.9614 109.82 34.0685 110.33 34.4783 110.589C34.8882 110.848 35.3866 110.652 35.6008 110.249C35.8444 109.79 35.8297 109.158 35.8777 108.651C35.9404 108.007 35.9774 107.36 35.9884 106.712C36.0143 105.222 35.8998 103.731 35.6709 102.258C35.6303 101.988 35.3238 101.903 35.1023 101.937C34.4008 102.033 34.4229 102.954 34.386 103.479C34.3343 104.297 34.3232 105.118 34.3602 105.939C34.3934 106.698 34.4672 107.452 34.5743 108.203C34.6556 108.777 34.6592 109.668 35.1946 110.038C35.73 110.408 36.2838 109.998 36.4315 109.454C36.6161 108.769 36.6161 107.981 36.6641 107.278C36.786 105.617 36.7933 103.953 36.6937 102.292C36.6826 102.103 36.5607 101.881 36.354 101.844C35.7226 101.729 35.5085 102.255 35.4161 102.78C35.298 103.464 35.2205 104.156 35.1835 104.852C35.1466 105.547 35.1614 106.261 35.2168 106.96C35.2648 107.534 35.2537 108.348 35.5601 108.854C35.8408 109.313 36.4537 109.413 36.7897 108.947C37.1256 108.481 37.2512 107.667 37.3656 107.097C37.6426 105.732 37.7016 104.33 37.5355 102.946C37.4912 102.58 37.0481 102.295 36.749 102.621C36.3614 103.039 36.2469 103.557 36.2174 104.115C36.1841 104.759 36.1915 105.407 36.1841 106.05C36.1694 107.06 35.9331 108.44 36.893 109.11C37.1478 109.287 37.4875 109.099 37.5724 108.832C38.0598 107.26 38.3219 105.625 38.3552 103.975H37.4321C37.4432 105.484 37.3361 106.994 37.0924 108.484C37.0112 108.988 37.6389 109.302 37.9342 108.84C38.8315 107.449 39.7951 105.802 39.3078 104.086C38.8831 102.588 37.3693 101.53 35.8186 102.003C35.2426 102.177 35.4863 103.006 36.0623 102.895C36.9004 102.736 37.5576 104.223 37.7718 104.833C38.0746 105.699 38.1484 106.627 37.9675 107.526L38.8573 107.77C38.9718 107.156 39.0899 106.542 39.2044 105.928H38.3145C38.9053 107.678 37.0333 108.854 35.7706 109.594L36.402 110.227C36.69 109.779 37.0333 109.391 37.4321 109.039C37.8826 108.644 37.229 108.007 36.7786 108.385C36.4574 108.651 36.1398 108.917 35.8186 109.187L36.5903 109.639C36.6383 109.317 36.7343 109.058 36.9152 108.788C37.2438 108.292 36.4463 107.826 36.1177 108.322C35.8998 108.647 35.7595 109.006 35.7005 109.394C35.6303 109.853 36.1029 110.153 36.4721 109.846C36.7933 109.579 37.1109 109.313 37.4321 109.043L36.7786 108.388C36.3207 108.788 35.9331 109.25 35.6045 109.761C35.3497 110.157 35.8481 110.623 36.2358 110.393C37.122 109.872 38.0229 109.324 38.6505 108.488C39.2782 107.652 39.5293 106.642 39.2044 105.68C39.0715 105.284 38.4069 105.199 38.3145 105.68C38.2001 106.294 38.0819 106.909 37.9675 107.523C37.8567 108.103 38.7392 108.355 38.8573 107.767C39.1047 106.531 38.9791 105.273 38.477 104.115C38.0192 103.065 37.1293 101.748 35.8186 101.996L36.0623 102.887C37.277 102.517 38.333 103.498 38.4918 104.67C38.6764 106.021 37.8309 107.29 37.1367 108.366L37.9786 108.721C38.2333 107.145 38.3625 105.562 38.3515 103.964C38.3478 103.368 37.4395 103.368 37.4284 103.964C37.3952 105.536 37.1441 107.075 36.6789 108.573L37.3583 108.296C37.0887 108.111 37.0961 107.671 37.0924 107.378C37.085 106.879 37.0998 106.379 37.1072 105.88C37.1146 105.381 37.122 104.9 37.1293 104.411C37.1367 104.023 37.1183 103.564 37.3989 103.261L36.6124 102.935C36.7269 103.886 36.7417 104.844 36.642 105.799C36.5903 106.269 36.509 106.738 36.3983 107.197C36.3429 107.438 36.2801 107.674 36.21 107.907C36.1841 108 36.0807 108.174 36.0992 108.259C36.0438 108.348 36.0807 108.37 36.2063 108.333C36.3318 108.377 36.3651 108.355 36.3134 108.262C36.3466 108.089 36.2358 107.815 36.2137 107.634C36.1804 107.378 36.1546 107.127 36.1361 106.872C36.0992 106.394 36.0844 105.917 36.0881 105.44C36.0955 104.937 36.1214 104.434 36.1767 103.934C36.2026 103.701 36.2321 103.468 36.2691 103.235C36.2875 103.109 36.3097 102.987 36.3318 102.865L36.3614 102.717C36.413 102.58 36.3281 102.58 36.1103 102.724L35.7706 102.277C35.8408 103.472 35.8592 104.667 35.8149 105.862C35.7928 106.457 35.7595 107.056 35.7078 107.652C35.6857 107.937 35.6561 108.222 35.6266 108.507C35.6118 108.662 35.5971 108.817 35.5749 108.973C35.5749 108.965 35.5158 109.261 35.5158 109.261L35.7115 109.25C35.6857 109.202 35.6635 109.15 35.6525 109.095C35.6229 108.991 35.6081 108.884 35.5897 108.777C35.5417 108.499 35.4937 108.222 35.4568 107.941C35.3718 107.323 35.3165 106.698 35.2832 106.072C35.2537 105.51 35.2463 104.944 35.2611 104.382C35.2685 104.075 35.2832 103.768 35.3017 103.461C35.3128 103.309 35.3165 103.154 35.3349 103.002L35.346 102.876C35.3866 102.773 35.3866 102.75 35.3386 102.813L34.77 102.491C34.9657 103.757 35.0617 105.033 35.058 106.313C35.058 106.96 35.0322 107.608 34.9805 108.251C34.9546 108.562 34.9251 108.869 34.8882 109.18C34.8697 109.324 34.8623 109.468 34.8328 109.609C34.8254 109.642 34.7442 110.064 34.962 109.794C34.9472 109.809 34.7737 109.235 34.7626 109.195C34.6999 108.902 34.6445 108.607 34.5928 108.311C34.4931 107.708 34.4229 107.101 34.3786 106.494C34.3343 105.887 34.3196 105.292 34.3343 104.693C34.3417 104.208 34.2642 103.457 34.5928 103.054L33.8211 102.85C34.2236 104.696 34.3085 106.616 34.0316 108.484C33.9836 108.814 33.954 109.158 33.7731 109.446C33.7103 109.546 33.799 109.494 33.7657 109.446C33.7103 109.369 33.6697 109.28 33.6291 109.195C33.522 108.984 33.4297 108.769 33.3448 108.547C33.042 107.745 32.8685 106.901 32.839 106.047C32.8242 105.632 32.839 105.218 32.887 104.807C32.9128 104.596 32.946 104.389 32.994 104.182C32.9867 104.219 33.0531 103.967 33.0494 103.956C32.7467 103.812 32.6507 103.823 32.7688 103.993L32.8353 104.141C33.1824 104.974 33.3854 105.869 33.4334 106.768C33.4556 107.19 33.4519 107.619 33.4039 108.041C33.3891 108.192 33.3743 108.351 33.3116 108.492C33.2894 108.544 33.2562 108.584 33.2304 108.636C33.1602 108.692 33.1787 108.699 33.2784 108.651L33.234 108.566C33.2414 108.399 33.0679 108.078 33.0236 107.911C32.9793 107.733 32.9387 107.552 32.9128 107.371C32.8427 106.912 32.8353 106.442 32.8759 105.984C32.8981 105.751 32.935 105.518 32.9904 105.292C33.0347 105.096 33.1897 104.822 33.186 104.63L33.234 104.508C33.0864 104.467 33.042 104.485 33.1011 104.559C33.0864 104.637 33.2119 104.855 33.2377 104.94C33.3153 105.188 33.378 105.44 33.4297 105.695C33.6254 106.679 33.5885 107.7 33.3559 108.677L34.1977 108.566C33.4999 106.971 33.378 105.177 33.8174 103.498C33.9688 102.921 33.079 102.676 32.9276 103.254L32.9497 103.261Z" fill="#4D58D8" stroke="#4D58D8" stroke-width="2.5" stroke-linecap="round" stroke-linejoin="round"/>
<path d="M36.4241 110.985C37.7496 113.697 38.9459 116.468 40.0019 119.294C40.4782 120.571 40.8695 121.891 41.416 123.142C41.8775 124.2 42.568 125.239 43.635 125.761C44.5728 126.216 45.7654 126.327 46.6589 125.702C47.5525 125.076 47.8737 123.926 47.8331 122.849C47.7371 120.382 46.5149 117.929 45.3076 115.835C43.8492 113.309 42.099 110.963 40.7292 108.385C40.4486 107.859 39.6511 108.326 39.9317 108.851C42.1212 112.961 45.4368 116.597 46.6257 121.188C46.8768 122.15 47.1242 123.308 46.6959 124.255C46.2676 125.202 45.1451 125.387 44.2258 125.017C43.1661 124.588 42.5569 123.526 42.1434 122.513C41.6597 121.322 41.2794 120.086 40.8289 118.88C39.7582 116.035 38.5545 113.246 37.2216 110.516C36.9595 109.979 36.1656 110.449 36.4241 110.982V110.985Z" fill="#4D58D8" stroke="#4D58D8" stroke-width="2.5" stroke-linecap="round" stroke-linejoin="round"/>
<path d="M38.7031 104.796C38.7031 105.38 38.7031 105.969 38.7031 106.553C38.7031 106.793 38.9136 107.027 39.1647 107.015C39.4157 107.004 39.6262 106.812 39.6262 106.553C39.6262 105.969 39.6262 105.38 39.6262 104.796C39.6262 104.555 39.4157 104.322 39.1647 104.333C38.9136 104.344 38.7031 104.537 38.7031 104.796Z" fill="#4D58D8" stroke="#4D58D8" stroke-width="2.5" stroke-linecap="round" stroke-linejoin="round"/>
<path d="M37.1892 104.419C37.1819 104.933 37.3074 105.436 37.5363 105.898C37.5843 105.998 37.7098 106.083 37.8132 106.109C37.924 106.139 38.0717 106.128 38.1677 106.061C38.2637 105.995 38.3523 105.902 38.3781 105.784C38.4077 105.658 38.3892 105.543 38.3301 105.429C38.308 105.38 38.2858 105.332 38.2637 105.284L38.3117 105.395C38.2194 105.173 38.1529 104.94 38.1197 104.7L38.1344 104.822C38.116 104.689 38.1086 104.552 38.1086 104.415C38.1086 104.174 37.8945 103.941 37.6471 103.953C37.3997 103.964 37.1892 104.156 37.1855 104.415L37.1892 104.419Z" fill="#4D58D8" stroke="#4D58D8" stroke-width="2.5" stroke-linecap="round" stroke-linejoin="round"/>
<path d="M49.9349 94.8111C48.938 94.4079 47.8118 94.7926 47.0623 95.5066C46.2168 96.313 45.8845 97.5117 45.6777 98.6252C45.471 99.7387 45.3417 100.845 45.6851 101.892C46.0285 102.939 46.7559 103.608 47.7306 103.982C48.7054 104.356 49.8056 104.389 50.8432 104.385C51.8807 104.381 53.0622 104.282 53.9262 103.575C55.6135 102.195 55.5766 99.4612 54.6388 97.6781C54.0332 96.5239 53.0068 95.7285 51.8585 95.1551C50.8247 94.6409 49.4512 94.1119 48.6352 95.2698C48.2918 95.7581 49.093 96.2206 49.4327 95.7359C49.9459 95.0035 51.3379 95.9061 51.8659 96.2058C52.656 96.6534 53.3317 97.2305 53.7785 98.0296C54.5465 99.3983 54.6868 101.559 53.4794 102.743C52.8591 103.349 51.9508 103.445 51.1275 103.464C50.3041 103.482 49.4623 103.475 48.6574 103.298C47.8525 103.12 47.1288 102.757 46.7337 102.021C46.3386 101.285 46.3608 100.427 46.4494 99.6388C46.5602 98.64 46.7632 97.5301 47.306 96.6719C47.8118 95.8728 48.7607 95.3327 49.6912 95.71C50.2413 95.932 50.4813 95.0405 49.9349 94.8185V94.8111Z" fill="#4D58D8" stroke="#4D58D8" stroke-width="2.5" stroke-linecap="round" stroke-linejoin="round"/>
<path d="M46.235 98.8732C45.9434 100.223 46.0467 101.618 46.5821 102.894C46.7815 103.372 47.4387 103.312 47.4904 102.772C47.6602 101 47.6565 99.221 47.483 97.4527C47.4239 96.8718 46.5267 96.8497 46.56 97.4527C46.667 99.306 46.7741 101.163 46.8775 103.017C46.8959 103.331 47.2689 103.638 47.5716 103.416C47.9778 103.12 48.0885 102.724 48.1365 102.24C48.1993 101.633 48.2288 101.019 48.2547 100.412C48.3064 99.1655 48.3027 97.9151 48.2436 96.6684C48.2178 96.0691 47.3649 96.0765 47.3206 96.6684C47.1507 98.8991 47.1581 101.137 47.3464 103.368C47.387 103.875 48.0959 104.012 48.2547 103.49C48.9082 101.322 48.971 99.0471 49.019 96.8016H48.0959C48.107 98.6476 48.1181 100.497 48.1255 102.343C48.1255 102.85 48.9193 102.987 49.0337 102.465C49.4547 100.527 49.6614 98.5477 49.643 96.5648C49.6393 95.9692 48.731 95.9692 48.7199 96.5648C48.6793 98.7622 48.6424 100.96 48.6018 103.161C48.5907 103.708 49.3328 103.753 49.51 103.283C50.2633 101.256 50.3666 99.0804 50.4516 96.9421H49.5285C49.4657 98.9657 49.4584 100.993 49.5027 103.02C49.51 103.423 50.0011 103.627 50.2891 103.346C50.6472 103.002 50.6694 102.532 50.7248 102.066C50.7986 101.485 50.8688 100.908 50.9426 100.327C51.0866 99.1692 51.2306 98.0076 51.3746 96.8496H50.4516C50.4257 98.814 50.3999 100.778 50.3703 102.743C50.3629 103.357 51.2159 103.312 51.2934 102.743C51.5223 101.023 51.7512 99.3023 51.9801 97.5858H51.0571C51.0645 99.1803 51.0755 100.775 51.0829 102.369C51.0829 102.876 51.8805 103.017 51.9912 102.491C52.3567 100.745 52.5524 98.9694 52.7407 97.1937H51.8177C51.8029 98.9213 51.7881 100.649 51.7734 102.377C51.7697 102.88 52.6041 103.028 52.6817 102.499C52.8847 101.082 53.0841 99.6649 53.2872 98.248L52.3789 98.1259C52.534 99.7463 52.5155 101.37 52.3235 102.983H53.2466C53.3278 101.688 53.494 100.408 53.7487 99.1359H52.8589C53.0213 100.031 53.0472 100.937 52.9549 101.844C52.9032 102.336 53.5826 102.421 53.8152 102.077C55.0668 100.209 54.0109 98.0224 52.9918 96.3354L52.1943 96.8016C52.9364 97.7708 53.5493 98.9435 53.4607 100.205C53.3906 101.23 52.7666 102.269 51.7623 102.602C51.2011 102.791 51.4263 103.627 52.006 103.494C52.7814 103.316 53.4201 102.843 53.8484 102.173L52.9881 101.94C52.8995 102.82 51.3045 102.595 50.7322 102.58C49.8276 102.554 48.9378 102.476 48.0812 102.173C47.5642 101.992 47.3132 102.739 47.7267 103.017C48.5168 103.553 49.451 103.808 50.4036 103.753C50.9943 103.716 51.0017 102.846 50.4036 102.828C48.2325 102.758 47.8153 100.101 47.8781 98.4219C47.9039 97.6968 48.1255 96.3354 49.1297 96.4057C49.6097 96.439 50.0713 96.857 50.4553 97.1123C50.9389 97.4378 51.4226 97.7597 51.9063 98.0852C52.102 98.2147 52.4343 98.1333 52.5377 97.9188C52.9254 97.1086 52.2903 96.4686 51.7254 95.9544C51.1162 95.3995 50.4331 94.889 49.6023 94.7595C49.0301 94.6707 48.7642 95.5105 49.3587 95.651C50.5734 95.9396 51.622 96.6721 52.294 97.7301C52.5192 98.0815 53.206 97.9817 53.1543 97.497C52.9327 95.4587 50.4109 94.7077 48.7199 95.3329C46.8479 96.021 45.8658 98.0668 46.043 99.9904L46.9513 99.8684C46.5526 98.8547 47.4941 97.7375 48.1698 97.0642C48.4799 96.7572 48.9045 96.4242 49.3587 96.6388C49.7648 96.8311 49.99 97.3417 50.1636 97.7264C50.6473 98.8029 51.0682 99.9645 51.3266 101.122C51.3746 101.344 51.4448 101.637 51.238 101.796C51.0719 101.922 50.7876 101.914 50.5919 101.918C49.9679 101.929 49.3402 101.91 48.7125 101.903C48.2768 101.903 48.155 102.395 48.3876 102.691C49.307 103.867 51.0792 104.149 52.3383 103.375C52.8441 103.065 52.3789 102.266 51.8731 102.576C50.9316 103.153 49.7131 102.898 49.0411 102.04L48.7162 102.828C49.3808 102.832 50.0491 102.865 50.71 102.839C51.2011 102.817 51.718 102.706 52.0355 102.299C52.39 101.848 52.3235 101.274 52.1906 100.753C52.0281 100.109 51.8251 99.4725 51.5998 98.8473C51.2491 97.8707 50.8909 96.5944 50.0085 95.9581C49.0448 95.2589 47.9888 95.8693 47.3058 96.6462C46.5046 97.5562 45.5667 98.8436 46.0652 100.116C46.2387 100.556 47.0252 100.556 46.9735 99.9941C46.8406 98.5625 47.4129 96.9717 48.7716 96.3132C49.366 96.0247 50.0786 95.9581 50.7174 96.1209C51.3562 96.2836 52.1611 96.772 52.2386 97.5007L53.0989 97.2677C52.3014 96.0136 51.0571 95.1109 49.6097 94.7632L49.366 95.6547C49.9125 95.7398 50.3666 96.0025 50.7912 96.3539C50.9648 96.4982 51.8841 97.1789 51.7512 97.4563L52.3826 97.2899C51.7475 96.8644 51.1162 96.4353 50.4811 96.0173C49.9716 95.6806 49.414 95.3995 48.7864 95.5142C47.5384 95.7435 47.0584 97.0346 46.9772 98.1555C46.8849 99.4281 46.9883 100.819 47.6196 101.951C48.1882 102.976 49.2257 103.719 50.4109 103.756V102.832C49.606 102.88 48.8639 102.676 48.1993 102.221L47.8448 103.065C49.0042 103.475 50.2485 103.509 51.4669 103.52C52.5561 103.531 53.793 103.22 53.9186 101.944C53.9666 101.459 53.2835 101.356 53.0583 101.711C52.7555 102.184 52.3124 102.48 51.7697 102.606L52.0134 103.497C53.2946 103.072 54.1549 101.885 54.3469 100.564C54.5684 99.0323 53.9075 97.534 52.9955 96.3391C52.6447 95.8841 51.8805 96.2799 52.198 96.8053C53.0398 98.2036 54.0736 100.046 53.0214 101.614L53.8816 101.848C53.9813 100.856 53.9333 99.8721 53.7524 98.8954C53.6712 98.4515 52.9475 98.4589 52.8626 98.8954C52.5931 100.246 52.4158 101.614 52.3309 102.987C52.294 103.59 53.1875 103.564 53.254 102.987C53.446 101.37 53.4607 99.7463 53.3093 98.1296C53.265 97.6561 52.4823 97.449 52.4011 98.0076C52.198 99.4244 51.9986 100.841 51.7955 102.258L52.7038 102.38C52.7186 100.653 52.7334 98.925 52.7481 97.1974C52.7518 96.5907 51.8878 96.6203 51.8251 97.1974C51.6442 98.888 51.4558 100.582 51.1088 102.247L52.0171 102.369C52.0097 100.775 51.9986 99.1803 51.9912 97.5858C51.9912 96.9717 51.1457 97.0161 51.0682 97.5858C50.8392 99.306 50.6103 101.026 50.3814 102.743H51.3045C51.3303 100.778 51.3562 98.814 51.3857 96.8496C51.3931 96.2392 50.5328 96.2762 50.4626 96.8496C50.3371 97.8522 50.2116 98.851 50.0897 99.8536C50.0306 100.327 49.9716 100.801 49.9125 101.278C49.8793 101.54 49.846 101.803 49.8128 102.069C49.787 102.273 49.8017 102.547 49.6467 102.695L50.4331 103.02C50.3888 100.993 50.3999 98.9694 50.4589 96.9421C50.4774 96.3465 49.558 96.3502 49.5359 96.9421C49.4547 99.0064 49.355 101.082 48.6276 103.039L49.5359 103.161C49.5765 100.963 49.6134 98.7659 49.654 96.5648H48.731C48.7458 98.47 48.5575 100.36 48.155 102.221L49.0633 102.343C49.0522 100.497 49.0411 98.6476 49.0337 96.8016C49.0337 96.206 48.1218 96.206 48.1107 96.8016C48.0664 98.9694 48.0073 101.152 47.3796 103.246L48.2879 103.368C48.0996 101.137 48.0922 98.8991 48.2621 96.6684H47.339C47.387 97.7042 47.3981 98.74 47.3722 99.7759C47.3575 100.279 47.3353 100.786 47.3058 101.289C47.2873 101.555 47.2689 101.818 47.2467 102.084C47.2356 102.221 47.2504 102.528 47.1249 102.621L47.819 103.02C47.7119 101.167 47.6049 99.3097 47.5015 97.4563H46.5784C46.752 99.2284 46.7556 101.008 46.5858 102.776L47.4941 102.654C47.0215 101.529 46.8886 100.32 47.147 99.1248C47.2726 98.544 46.3827 98.2961 46.2572 98.8806L46.235 98.8732Z" fill="#4D58D8" stroke="#4D58D8" stroke-width="2.5" stroke-linecap="round" stroke-linejoin="round"/>
<path d="M53.6791 99.8942C53.7012 100.131 53.7086 100.364 53.6975 100.601C53.6938 100.719 53.6828 100.838 53.668 100.952C53.6606 101.011 53.6606 101.019 53.668 100.978C53.6643 101.011 53.6569 101.045 53.6532 101.078C53.6421 101.137 53.6311 101.193 53.62 101.252C53.5203 101.74 53.3763 102.121 53.1474 102.532C53.0292 102.743 53.0883 103.046 53.3135 103.165C53.5388 103.283 53.8194 103.224 53.9449 102.998C54.4655 102.058 54.7092 100.963 54.6058 99.8905C54.5837 99.6501 54.4101 99.417 54.1443 99.4281C53.9154 99.4392 53.6569 99.6316 53.6828 99.8905L53.6791 99.8942Z" fill="#4D58D8" stroke="#4D58D8" stroke-width="2.5" stroke-linecap="round" stroke-linejoin="round"/>
<path d="M47.6193 102.913C47.3571 105.506 47.1688 108.111 47.0543 110.715C47.0026 111.954 46.951 113.194 46.9473 114.433C46.9473 115.358 47.0174 116.338 47.4642 117.163C47.9479 118.058 48.834 118.487 49.8014 118.665C50.621 118.817 51.7287 119.039 52.4044 118.391C52.7293 118.084 52.8438 117.663 52.9139 117.237C53.0247 116.59 53.1059 115.935 53.1761 115.28C53.309 114.026 53.3791 112.765 53.3828 111.503C53.3902 108.703 53.0764 105.902 52.4598 103.172C52.3305 102.591 51.4407 102.839 51.5699 103.416C52.5447 107.741 52.733 112.25 52.0758 116.641C52.0204 117.011 52.0204 117.6 51.6438 117.803C51.2672 118.007 50.7207 117.877 50.333 117.818C49.4321 117.681 48.5718 117.426 48.1768 116.523C47.8334 115.735 47.8592 114.821 47.8777 113.982C47.8999 112.861 47.9331 111.74 47.9848 110.619C48.0992 108.044 48.2875 105.473 48.5423 102.909C48.6014 102.317 47.6783 102.321 47.6193 102.909V102.913Z" fill="#4D58D8" stroke="#4D58D8" stroke-width="2.5" stroke-linecap="round" stroke-linejoin="round"/>
<path d="M111 62.0195C112.262 64.8347 113.237 67.7795 113.92 70.7908C114.603 73.8021 114.895 77.0206 115.157 80.1761C115.696 86.6353 117.121 93.0019 118.299 99.3649C118.635 101.178 118.971 102.994 119.307 104.807C119.614 106.449 119.92 108.095 120.696 109.594C120.836 109.86 121.22 109.89 121.419 109.686C122.49 108.617 122.582 107.108 123.184 105.794C123.841 104.359 125.285 103.941 126.599 103.294C127.242 102.976 127.858 102.583 128.324 102.028C128.826 101.425 129.154 100.723 129.468 100.009C130.114 98.5399 130.941 97.3339 132.204 96.3277C133.618 95.2031 135.276 94.4151 136.897 93.6493C137.432 93.3941 136.967 92.5987 136.432 92.8503C133.64 94.1673 130.602 95.684 129.125 98.5621C128.763 99.265 128.501 100.016 128.113 100.708C127.726 101.4 127.19 101.925 126.481 102.313C125.207 103.013 123.712 103.382 122.811 104.611C121.833 105.935 121.951 107.851 120.769 109.035L121.493 109.128C120.799 107.792 120.518 106.301 120.245 104.836C119.946 103.234 119.651 101.633 119.355 100.031C118.757 96.7975 118.155 93.5606 117.557 90.3273C116.959 87.094 116.398 83.894 116.117 80.6312C115.837 77.3683 115.622 74.4421 114.991 71.3901C114.29 68.0051 113.208 64.7127 111.797 61.5571C111.554 61.0133 110.76 61.4831 111 62.0232V62.0195Z" fill="#4D58D8" stroke="#4D58D8" stroke-width="2.5" stroke-linecap="round" stroke-linejoin="round"/>
<path d="M92.6573 65.8265C91.6493 68.897 92.1663 72.134 92.8346 75.2156C93.1853 76.8285 93.5804 78.434 93.8388 80.0655C94.0973 81.6969 94.2154 83.3986 94.3853 85.067C94.5551 86.7355 94.7804 88.3854 95.2382 89.9946C95.696 91.5965 96.3532 93.1354 96.896 94.7077C98.0147 97.9446 98.4615 101.378 99.0449 104.744C99.7242 108.684 100.407 112.628 101.087 116.567L101.858 116.116C100.079 113.867 97.9778 111.891 95.6296 110.245C94.4739 109.435 93.2592 108.71 91.9964 108.077C90.5712 107.363 89.0796 106.782 87.7024 105.98C85.2286 104.537 83.2975 102.369 81.0231 100.656C78.7487 98.9435 76.0682 97.9594 73.203 97.6672C69.8874 97.3268 66.5422 97.8041 63.2746 98.3331C62.6912 98.4293 62.9386 99.3208 63.5183 99.2246C69.0862 98.322 75.1894 97.6487 80.0668 101.097C82.308 102.68 84.1541 104.748 86.4359 106.279C87.6987 107.127 89.0943 107.73 90.4678 108.37C91.8413 109.01 93.0524 109.657 94.2671 110.445C96.9108 112.154 99.2479 114.303 101.201 116.771C101.519 117.174 102.043 116.719 101.973 116.32C101.375 112.864 100.78 109.409 100.182 105.954C99.5839 102.499 99.1741 99.2283 98.2584 95.9729C97.8043 94.3636 97.1618 92.8247 96.6117 91.2487C96.0616 89.6728 95.6886 88.0968 95.4708 86.4543C95.253 84.8118 95.1496 83.1507 94.9576 81.5008C94.7656 79.8509 94.4665 78.3082 94.1158 76.7286C93.3404 73.2475 92.3952 69.5777 93.5472 66.0706C93.7318 65.5046 92.8419 65.2605 92.6573 65.8265Z" fill="#4D58D8" stroke="#4D58D8" stroke-width="2.5" stroke-linecap="round" stroke-linejoin="round"/>
<path d="M75.4219 119.908C78.287 123.115 82.3226 124.85 85.4758 127.713C87.1779 129.26 88.3927 131.132 89.2603 133.259C90.128 135.386 90.7225 137.635 91.5901 139.773C92.528 142.082 93.9384 144.131 95.0017 146.377C96.1205 148.744 96.4233 151.349 97.2171 153.82C98.5647 158.015 101.511 161.959 105.554 163.853C107.367 164.7 109.394 165.185 111.399 164.926C113.404 164.667 115.161 163.672 116.413 162.121C118.935 158.995 119.212 154.723 120.09 150.953C121.231 146.062 123.273 141.442 125.651 137.04C128.029 132.637 130.661 128.398 133.357 124.206C136.052 120.015 138.806 116.419 142.591 113.456C145.674 111.044 149.285 108.872 151.29 105.388C151.755 104.577 152.109 103.712 152.346 102.809C152.497 102.232 151.607 101.988 151.456 102.565C150.441 106.468 147.025 108.976 143.961 111.27C142.314 112.505 140.667 113.741 139.198 115.187C137.496 116.856 136.004 118.728 134.623 120.67C133.242 122.612 131.95 124.684 130.68 126.733C129.41 128.783 128.121 130.865 126.895 132.959C124.414 137.191 122.125 141.564 120.511 146.21C119.747 148.408 119.186 150.646 118.735 152.925C118.351 154.874 117.986 156.85 117.277 158.711C116.616 160.438 115.582 162.062 113.987 163.057C112.267 164.13 110.177 164.275 108.238 163.82C103.959 162.813 100.662 159.369 98.8527 155.477C97.7894 153.187 97.4571 150.687 96.726 148.293C95.9986 145.907 94.6547 143.839 93.4916 141.656C91.3391 137.613 90.8185 132.767 87.9976 129.075C85.4426 125.727 81.5399 123.929 78.3166 121.347C77.5154 120.707 76.7622 120.011 76.0791 119.249C75.6803 118.805 75.0305 119.46 75.4256 119.904L75.4219 119.908Z" fill="#4D58D8" stroke="#4D58D8" stroke-width="2.5" stroke-linecap="round" stroke-linejoin="round"/>
</svg>
