<svg width="225" height="205" viewBox="0 0 225 205" fill="none" xmlns="http://www.w3.org/2000/svg">
<path d="M92.338 4.91944C101.338 2.43362 110.858 5.24038 118.454 9.84815C120.032 10.3723 121.686 10.7005 123.383 10.939H123.382C124.401 11.0814 125.444 11.196 126.507 11.311C127.565 11.4255 128.644 11.5402 129.714 11.6821C131.851 11.9657 134.006 12.3626 136.009 13.1138C140.038 14.6253 143.246 17.5137 145.316 21.2456L145.681 21.9341C149.335 29.1374 149.209 39.073 143.332 45.2808C140.506 48.2645 136.925 49.8852 133.344 51.1948C129.697 52.5284 126.146 53.5167 122.971 55.2437L122.97 55.2446C119.475 57.1441 116.604 59.9555 113.627 62.8315C113.021 63.4166 112.403 64.0142 111.771 64.6138L111.994 69.9204C112.033 70.8517 112.072 71.783 112.111 72.7144C112.213 72.666 112.316 72.6191 112.419 72.5737C113.365 72.158 114.336 71.8502 115.262 71.5669C116.204 71.2787 117.091 71.0186 117.954 70.687C119.563 70.0663 121.092 69.181 122.582 68.1939C124.054 67.2163 125.49 66.1188 126.959 64.9897C128.419 63.8676 129.913 62.7125 131.459 61.6587C134.555 59.5486 137.951 57.7804 141.982 57.3755C145.509 57.02 149.347 57.8905 152.096 60.3403C153.455 61.5519 154.44 63.0727 155.351 64.4194C156.289 65.8075 157.165 67.0371 158.357 67.9517C159.568 68.8816 160.985 69.5059 162.532 70.0454C163.306 70.3154 164.094 70.5578 164.902 70.811C165.704 71.062 166.522 71.3226 167.321 71.6196C170.561 72.822 173.589 74.7151 175.925 77.3179C178.258 79.9173 179.842 83.1279 180.239 86.6577L180.297 87.2856C180.519 90.4376 179.753 93.7427 177.992 96.4146C176.964 97.9778 175.645 99.2137 174.15 100.241L174.15 100.242C173.362 100.784 172.53 101.278 171.764 101.75C170.983 102.232 170.248 102.705 169.573 103.243C168.185 104.352 166.938 105.635 165.694 106.99C164.467 108.327 163.215 109.768 161.887 111.094C157.698 115.279 152.565 118.989 146.74 120.786L146.898 123.942C147.114 128.133 147.356 132.325 147.617 136.513L147.858 140.241C148.432 148.938 149.104 157.63 149.874 166.313C150.647 174.996 151.517 183.67 152.484 192.333L152.903 196.046L152.904 196.049C152.978 196.712 152.667 197.236 152.301 197.559C151.95 197.868 151.499 198.047 151.07 198.085H151.067C147.853 198.363 144.577 198.059 141.468 197.178L141.467 197.177C140.173 196.809 138.459 196.229 137.537 194.536C137.096 193.724 136.916 192.847 136.828 192.04C136.744 191.265 136.736 190.401 136.699 189.764L136.459 185.414C135.925 175.261 135.584 165.101 135.435 154.935C135.271 143.845 135.341 132.755 135.636 121.668C131.542 121.058 127.604 119.381 124.524 116.48C123.822 115.818 123.224 115.095 122.673 114.396C122.109 113.68 121.613 113.015 121.055 112.373C120.141 111.323 119.023 110.567 117.699 109.952C116.389 109.345 115.033 108.912 113.567 108.365C113.35 108.284 113.133 108.2 112.915 108.115L112.967 108.557V108.558C114.143 118.998 115.04 129.409 115.661 139.957C116.283 150.504 116.629 161.071 116.689 171.637C116.703 174.25 116.699 176.86 116.681 179.472C116.673 180.794 116.659 182.116 116.641 183.436V183.438C116.623 184.527 116.652 185.822 116.535 186.978C116.416 188.153 116.118 189.481 115.184 190.566C114.339 191.547 113.17 191.986 112.139 192.226L111.706 192.318C109.053 192.831 106.34 192.873 103.676 192.462C102.509 192.282 101.14 191.873 100.223 190.635C99.3475 189.454 99.2538 187.968 99.1446 186.958C98.8617 184.33 98.6004 181.697 98.3585 179.066V179.065C97.9415 174.51 97.5933 169.95 97.3107 165.386L97.1935 163.43C96.6685 154.409 96.4079 145.372 96.4034 136.335C95.288 137.486 94.1195 138.585 92.838 139.704C90.8826 141.41 88.7555 143.03 86.3868 144.259H86.3858C85.2566 144.843 84.0527 145.309 82.9601 145.764C81.8423 146.23 80.8054 146.7 79.8702 147.322C78.9923 147.905 78.2661 148.692 77.5538 149.604C77.1971 150.061 76.856 150.534 76.4972 151.025C76.143 151.51 75.7734 152.011 75.381 152.493C74.9999 152.961 74.5996 153.409 74.1837 153.838L74.2735 155.224C74.4129 157.466 74.5343 159.71 74.6349 161.957L74.7208 163.941C75.122 173.864 75.1535 183.802 74.8253 193.729V193.733C74.7973 194.488 74.3019 195.341 73.3761 195.563C71.6924 195.969 69.9419 196.163 68.1944 196.088C66.7769 196.028 65.1003 195.862 63.6339 195.085V195.084C62.0162 194.229 61.2899 192.796 60.9366 191.365C60.6835 190.339 60.6002 189.196 60.5294 188.21L60.4571 187.288C60.3178 185.81 60.1795 184.334 60.0411 182.858C59.9027 181.382 59.7644 179.906 59.6251 178.429L58.0968 162.148C57.8348 162.214 57.5729 162.28 57.3107 162.342V162.343C54.8112 162.94 52.2583 163.441 49.6769 163.741L49.6778 163.742C46.8819 164.07 43.951 164.077 41.1202 163.353C38.94 162.796 36.8715 161.795 35.0626 160.481C31.5225 157.913 28.9143 154.34 27.1817 150.426L26.8468 149.639C26.3998 148.546 26.0453 147.413 25.7159 146.305C25.3824 145.184 25.0787 144.103 24.7198 143.043C24.0501 141.067 23.2298 139.3 21.8566 137.881L21.5743 137.602C20.7917 136.86 19.9182 136.208 18.9884 135.523C18.0741 134.849 17.0988 134.138 16.2032 133.319C14.1707 131.46 12.9014 129.095 12.1349 126.561C10.8428 122.286 10.713 117.73 11.4757 113.387C12.2249 109.119 13.9066 104.989 16.337 101.407V101.406C18.8778 97.664 22.1638 94.674 26.0304 92.3862C27.1108 91.7449 28.1295 91.1564 28.9405 90.4497C29.7502 89.7441 30.4409 88.8966 31.0655 87.9614L31.0665 87.9605C31.6871 87.034 32.2488 86.0672 32.836 85.0659C33.4174 84.0748 34.0225 83.0525 34.7071 82.0708L35.2189 81.3569C37.8319 77.8082 41.2719 74.5838 45.0685 72.6108C49.1229 70.504 53.6829 69.6815 58.2325 70.5005C61.7384 71.1316 65.0701 72.7792 67.5665 75.354C67.582 75.3663 67.5984 75.3775 67.6134 75.3901C69.216 76.7416 70.1193 78.5912 70.7013 80.3931L70.8136 80.7524L70.8146 80.7534C71.1174 81.7605 71.3392 82.7677 71.5636 83.7222C71.7912 84.6902 72.0256 85.6271 72.3624 86.5728C72.9966 88.3529 74.1727 89.7821 75.7608 90.9126L75.7618 90.9136C77.6013 92.2254 79.6702 93.2008 81.8019 94.2837L81.8028 94.2847C84.0838 95.4474 86.4097 96.6195 88.6651 97.9126C90.9215 99.2072 93.1256 100.65 95.1573 102.317C95.156 102.281 95.1548 102.246 95.1534 102.21C95.1061 100.942 95.0592 99.6727 95.0128 98.4038L94.5089 84.8511C94.3587 80.8152 94.2082 76.7785 94.0587 72.7417C93.9332 72.7367 93.8078 72.7339 93.6827 72.7261C90.0827 72.5006 86.5922 71.0651 84.336 67.7222V67.7212C84.0433 67.2881 83.7923 66.8286 83.5655 66.394C83.3302 65.943 83.1301 65.538 82.9034 65.1343C82.4554 64.3364 82.0053 63.7336 81.3937 63.3501C80.1289 62.5576 78.4979 62.576 76.6192 62.5405C74.6349 62.503 72.5516 62.3692 70.5265 61.5981C68.512 60.8313 66.6965 59.658 65.1407 58.1968H65.1398C61.848 55.1022 59.9661 50.8804 59.2286 46.5718V46.5698C58.8252 44.1911 58.7108 41.7812 58.8253 39.3921V39.3911C58.9205 37.43 59.1811 35.366 59.7511 33.4673C60.3192 31.5749 61.2037 29.7229 62.586 28.1733C64.0049 26.5831 65.9249 25.6077 67.7286 25.0327C68.6187 24.749 69.5282 24.5328 70.3819 24.3218C71.0327 24.1609 71.6575 24.0015 72.2618 23.813L72.8605 23.6128C74.3102 23.0921 75.3477 22.2696 75.9884 20.9575C76.424 20.0609 76.6378 19.2134 77.0597 18.1079C77.4174 17.1673 77.8432 16.2393 78.3468 15.354H78.3478C79.3353 13.6221 80.5937 12.0438 82.0275 10.6802C84.9158 7.93196 88.5235 5.97428 92.337 4.91944H92.338ZM183.35 12.6694C185.889 11.5383 188.733 11.0268 191.552 11.5181L192.115 11.6294L192.116 11.6304C193.496 11.9396 194.864 12.5242 196.025 13.4009C197.328 14.3828 198.312 15.6841 199.077 16.9097C199.885 18.2024 200.439 19.3389 201.235 20.3696C201.977 21.3302 202.944 22.1327 204.023 22.8433H204.022C205.159 23.5916 206.344 24.2368 207.581 24.9321C208.804 25.6193 210.064 26.3488 211.269 27.2349C213.648 28.9851 215.81 31.111 217.408 33.6851C220.376 38.4623 221.152 45.1883 217.776 50.1685L217.437 50.645C215.544 53.1692 212.794 54.838 210.594 56.5239C209.415 57.4269 208.339 58.4616 207.223 59.5454C206.12 60.6163 204.974 61.7384 203.71 62.7397C201.739 64.3039 199.564 65.6742 197.244 66.7212L197.551 69.23C197.685 70.3269 197.819 71.425 197.952 72.523C199.049 81.5508 200.1 90.5651 201.026 99.644C201.953 108.724 202.739 117.824 203.278 126.945C203.815 136.001 204.016 145.056 204.116 154.114C204.213 162.992 204.354 171.841 205.523 180.578L205.751 182.191C205.992 183.801 206.274 185.406 206.594 187V187.001C206.921 188.639 207.467 190.71 207.081 192.745L206.991 193.151C206.478 195.177 204.88 196.785 202.788 197.21H202.787C200.921 197.588 198.908 197.168 197.336 196.118C195.498 194.889 194.409 193.065 193.677 191.186C192.952 189.325 192.532 187.28 192.123 185.594V185.593C191.212 181.831 190.398 178.047 189.674 174.246L189.369 172.616C187.883 164.502 186.797 156.319 186.02 148.115L185.867 146.474C185.085 137.717 184.645 128.932 184.441 120.15L184.373 116.833C184.24 109.097 184.276 101.361 184.4 93.6323C184.533 85.312 184.772 76.9955 185.02 68.686C182.348 68.3278 179.752 67.443 177.446 65.9653C176.741 65.5135 176.068 65.0254 175.421 64.5493C174.93 64.1881 174.456 63.8358 173.978 63.4976L173.497 63.1636C172.233 62.3069 170.876 61.5676 169.475 60.8579V60.8569C166.97 59.5901 164.111 58.2866 161.597 56.6099C159.455 55.1812 157.492 53.4371 156.105 51.1187C155.772 50.8779 155.475 50.5079 155.384 50.0034L155.385 50.0024C155.355 49.8396 155.326 49.6758 155.297 49.5122C155.246 49.344 155.212 49.1648 155.202 48.9819C154.963 47.6308 154.738 46.2575 154.583 44.8726V44.8716C154.236 41.7421 154.306 38.364 155.539 35.2622L155.768 34.7192C156.328 33.4584 157.074 32.2497 157.995 31.2358C159.053 30.0712 160.33 29.1912 161.657 28.4614C162.942 27.7554 164.349 27.1491 165.591 26.5317C166.864 25.8987 168.071 25.1673 169.183 24.3101V24.3091C171.566 22.4744 173.611 20.2116 175.836 18.0942C178.007 16.028 180.454 13.9601 183.35 12.6694ZM142.924 121.66C141.792 121.829 140.64 121.921 139.483 121.932C139.331 127.681 139.238 133.433 139.211 139.185C139.159 150.467 139.341 161.749 139.76 173.023C139.971 178.693 140.242 184.356 140.572 190.019L140.602 190.873C140.61 191.158 140.621 191.431 140.648 191.689C140.703 192.233 140.814 192.569 140.957 192.755C141.103 192.944 141.379 193.124 141.84 193.288C142.307 193.453 142.782 193.545 143.316 193.676H143.317C145.124 194.12 146.977 194.331 148.838 194.326C148.281 189.407 147.752 184.482 147.259 179.554C146.266 169.625 145.396 159.681 144.659 149.729C143.968 140.381 143.389 131.022 142.924 121.66ZM193.539 68.0659C192.024 68.4832 190.465 68.7513 188.874 68.8384C188.827 70.4038 188.781 71.9701 188.736 73.5337C188.488 82.2084 188.265 90.8813 188.184 99.5435C188.102 108.205 188.158 116.866 188.458 125.516L188.582 128.736C188.9 136.25 189.415 143.761 190.199 151.218C191.096 159.74 192.354 168.22 194.07 176.608H194.071C194.508 178.743 194.974 180.874 195.47 182.994H195.469C195.927 184.945 196.349 186.851 196.923 188.708H196.922C197.414 190.29 198.057 191.713 199.149 192.668C199.884 193.312 201.047 193.631 201.9 193.459C202.389 193.361 202.721 193.126 202.946 192.813C203.181 192.487 203.337 192.021 203.354 191.432L203.356 191.114C203.345 190.367 203.229 189.595 203.067 188.782C202.897 187.922 202.634 186.843 202.47 185.925L202.19 184.286C201.565 180.457 201.148 176.601 200.87 172.745C200.236 163.958 200.31 155.305 200.165 146.39C200.039 138.581 199.688 130.774 199.165 122.976L198.931 119.634C198.278 110.706 197.417 101.793 196.448 92.8872C195.548 84.6073 194.549 76.3386 193.539 68.0659ZM70.5118 156.906C68.4289 158.328 66.154 159.453 63.8448 160.347C63.1891 160.601 62.5265 160.835 61.8605 161.056C61.9868 162.402 62.1141 163.747 62.2403 165.092C62.389 166.676 62.537 168.261 62.6857 169.845L64.2618 186.636V186.638C64.3849 187.976 64.4117 189.154 64.6398 190.325H64.6407C64.8018 191.136 65.1062 191.56 65.6983 191.804C66.5689 192.16 67.6373 192.236 68.7677 192.247H68.7687C69.522 192.255 70.2697 192.204 71.0118 192.097C71.0847 189.639 71.1376 187.181 71.1651 184.723C71.2662 175.447 71.0479 166.168 70.5118 156.906ZM108.048 67.8726C106.795 68.8489 105.469 69.7406 104.043 70.4624C102.206 71.3927 100.091 72.1109 97.9083 72.481C97.9396 73.3305 97.9713 74.1801 98.003 75.0298C98.0504 76.2985 98.0982 77.5683 98.1446 78.8374L98.6476 92.3901C98.8157 96.9072 98.9843 101.425 99.1515 105.943L99.1485 106.158C99.1478 106.17 99.1447 106.181 99.1437 106.193C99.5629 106.684 99.9668 107.192 100.354 107.717C103.187 111.568 105.065 116.45 104.541 121.42C104.133 125.286 102.459 128.734 100.283 131.76C100.272 133.007 100.266 134.256 100.266 135.5V135.502C100.251 145.695 100.569 155.888 101.218 166.062H101.219C101.541 171.163 101.948 176.262 102.442 181.348L102.82 185.094L102.892 185.942C102.913 186.222 102.933 186.489 102.96 186.752C103.015 187.283 103.094 187.747 103.234 188.149H103.234C103.287 188.301 103.367 188.383 103.532 188.46C103.746 188.561 104.038 188.62 104.478 188.687C105.599 188.858 106.781 188.908 107.914 188.873C109.052 188.837 110.176 188.723 111.245 188.475V188.474C112.018 188.295 112.336 188.072 112.489 187.673C112.748 187.001 112.741 186.236 112.757 185.242C112.776 183.953 112.794 182.668 112.809 181.381C112.864 176.3 112.853 171.218 112.775 166.137C112.62 155.914 112.2 145.69 111.518 135.49C110.92 126.564 110.118 117.65 109.117 108.759L108.779 105.85C107.554 104.872 106.534 103.648 105.851 102.186V102.185C105.146 100.679 104.777 99.0846 104.625 97.4858L104.573 96.8003C104.452 94.7021 104.718 92.6497 105.008 90.688C105.252 89.0355 105.508 87.4585 105.611 85.8843C105.549 85.7487 105.502 85.5988 105.478 85.4351L105.479 85.4341C105.221 83.7387 105.305 82.0229 105.776 80.355V80.354C106.276 78.5982 107.168 76.9512 108.371 75.5728L108.048 67.8726ZM62.3185 76.0483C59.327 74.2691 55.615 73.6448 52.1573 74.2144L51.8233 74.273C47.8858 75.0151 44.3116 77.2071 41.4083 80.0601C39.9054 81.5379 38.6231 83.113 37.4151 84.9556C36.8111 85.877 36.2692 86.8334 35.6866 87.8296C35.1833 88.6903 34.6543 89.5725 34.0558 90.4233L33.795 90.7856C33.0516 91.7962 32.2048 92.7772 31.1691 93.605L31.1681 93.604C30.1042 94.4579 28.9412 95.1407 27.8566 95.7856L27.8556 95.7866C26.1436 96.8015 24.5654 97.9362 23.1456 99.2886C17.5653 104.604 14.4719 112.422 14.9083 120.114L14.962 120.863C15.0936 122.36 15.3643 123.842 15.7862 125.273L16.0099 125.984V125.986C16.3553 127.022 16.8056 127.998 17.4005 128.872L17.6144 129.169C18.1326 129.854 18.7806 130.47 19.4972 131.065H19.4982C20.3171 131.745 21.1755 132.35 22.086 133.031C22.866 133.614 23.6636 134.239 24.4034 134.958L24.7169 135.271V135.272C26.3003 136.912 27.3149 138.893 28.0626 140.904L28.3673 141.767L28.3683 141.768C28.7324 142.855 29.0456 143.966 29.3595 145.026C29.6769 146.098 29.9998 147.135 30.3966 148.137L30.6847 148.829C31.2844 150.202 32.0245 151.524 32.878 152.757L33.3146 153.367L33.7589 153.944C36.0318 156.788 39.0881 158.958 42.5909 159.732L42.5929 159.733C44.9515 160.257 47.4604 160.164 49.9571 159.833C52.2869 159.523 54.612 159.038 56.9151 158.467C61.0654 157.437 65.0984 155.995 68.5382 153.601L69.1427 153.164C69.6699 152.766 70.1766 152.342 70.6612 151.894C70.7222 151.815 70.7863 151.742 70.8546 151.676C70.9287 151.605 71.0101 151.539 71.0968 151.479C71.7237 150.863 72.3088 150.205 72.8419 149.51V149.509C74.2717 147.649 75.7232 145.384 78.0441 143.914L78.4503 143.666C79.4029 143.106 80.3846 142.679 81.336 142.285C82.443 141.826 83.4924 141.418 84.5343 140.878C86.6179 139.799 88.5229 138.368 90.3302 136.78L90.9669 136.213C94.1367 133.366 97.0913 130.239 98.9982 126.559L98.9991 126.558C99.9408 124.742 100.578 122.851 100.733 120.794C100.887 118.734 100.544 116.677 99.8204 114.704C98.2126 110.326 95.1504 107.027 91.4239 104.288C87.6824 101.537 83.346 99.402 79.2267 97.3003L79.2257 97.2993C77.2383 96.2837 75.0753 95.239 73.1661 93.7817C71.2169 92.294 69.734 90.4555 68.8312 88.1235C68.4564 87.1557 68.1907 86.17 67.9581 85.2144C67.7201 84.2361 67.5258 83.3316 67.2755 82.4106L67.2745 82.4097C67.0119 81.4409 66.7047 80.5575 66.2735 79.7915C66.1672 79.6914 66.0662 79.5747 65.9747 79.4399V79.439C65.6976 79.032 65.3915 78.6458 65.0616 78.2808C65.0444 78.2658 65.0274 78.2496 65.0099 78.2349L65.0079 78.2339C64.8938 78.1373 64.7986 78.0304 64.7189 77.9185C64.0082 77.1991 63.1983 76.5717 62.3185 76.0483ZM55.9239 97.8657C57.607 97.9922 59.1231 99.2739 59.8067 100.775C60.6538 102.633 60.4752 104.792 61.3595 106.624C62.0506 108.058 63.2959 109.057 64.6446 109.848C65.3951 110.29 66.1976 110.685 66.963 111.042C67.7283 111.398 68.5419 111.703 69.2589 112.16C70.0355 112.654 70.7235 113.356 70.8907 114.292C71.069 115.296 70.6558 116.266 69.961 116.979C68.5714 118.409 66.483 118.283 64.7999 119.134C61.9206 120.591 60.315 123.731 59.1632 126.599C58.461 128.357 57.9041 130.448 56.4923 131.715C56.2808 131.905 56.0503 132.072 55.8097 132.221C55.7133 132.378 55.5783 132.521 55.4034 132.64C55.1878 132.787 54.9234 132.802 54.6837 132.727C53.5638 133.052 52.3506 132.913 51.3937 132.08C50.1304 130.98 50.0004 129.133 49.9298 127.576C49.8926 126.814 49.889 126.045 49.7403 125.291C49.5731 124.462 49.3062 123.659 48.9161 122.913C48.147 121.434 47.0025 120.163 45.5646 119.308C43.8814 118.312 41.8408 117.856 40.5626 116.273C39.4368 114.88 39.0806 112.954 40.2696 111.483C41.0127 110.565 42.1645 110.161 43.3087 109.919C44.4531 109.678 45.6237 109.592 46.7569 109.306C46.8651 109.279 46.9725 109.247 47.0802 109.215C47.0852 109.209 47.0897 109.201 47.0948 109.195C47.7191 108.4 48.3134 107.578 48.8819 106.742C50.0296 105.051 51.0636 103.286 51.9786 101.458C52.1589 101.022 52.3633 100.596 52.5939 100.181C52.8252 99.718 53.0841 99.2706 53.4308 98.8892C53.5451 98.7366 53.6637 98.586 53.7872 98.438C53.951 98.2422 54.1752 98.1589 54.4034 98.1606C54.8724 97.9345 55.3964 97.8262 55.9239 97.8657ZM146.897 61.6958C144.347 60.8322 141.54 61.0797 138.929 62.0083L138.409 62.2036C135.201 63.4663 132.452 65.5443 129.609 67.7573C126.801 69.9421 123.888 72.2682 120.477 73.8022L120.478 73.8032C118.893 74.5172 117.044 74.9891 115.563 75.5024C114.003 76.0426 112.65 76.6784 111.585 77.7671C110.03 79.3578 109.104 81.6166 109.17 83.813C109.399 84.131 109.523 84.5246 109.514 84.9575L109.515 84.9585C109.472 87.0089 109.151 89.0291 108.86 90.9614C108.367 94.2527 107.966 97.5644 109.238 100.343C109.763 101.49 110.578 102.464 111.593 103.148C112.663 103.869 113.877 104.374 115.184 104.86H115.183C117.892 105.865 121.134 106.862 123.457 109.294L123.693 109.548C124.236 110.146 124.718 110.779 125.17 111.369C125.632 111.971 126.067 112.533 126.54 113.045L126.746 113.262V113.263C127.703 114.244 128.791 115.072 129.989 115.756V115.757C135.075 118.665 141.36 118.692 146.875 116.661C149.866 115.559 152.57 113.962 155.208 111.886C157.842 109.813 160.131 107.388 162.436 104.85C163.652 103.507 164.915 102.147 166.356 100.911C167.814 99.6588 169.415 98.6782 170.949 97.7251V97.7241C172.304 96.8841 173.494 96.0261 174.371 94.8765C175.154 93.8449 175.722 92.642 176.067 91.3687V91.3677C176.768 88.7872 176.554 85.9615 175.445 83.5327V83.5317C174.343 81.1095 172.531 79.0414 170.332 77.4927L169.887 77.1899C168.675 76.3923 167.369 75.7499 165.994 75.2466V75.2456C165.238 74.9694 164.466 74.721 163.677 74.4692C162.893 74.2193 162.086 73.966 161.291 73.687C159.708 73.1315 158.059 72.4531 156.589 71.437L156.308 71.2368C154.923 70.2201 153.844 68.9638 152.898 67.6343L152.897 67.6333C151.921 66.2601 151.164 64.9778 150.193 63.9009C149.277 62.8842 148.17 62.1269 146.897 61.6958ZM66.88 113.024C66.8872 113.031 66.8944 113.039 66.9015 113.046C66.9052 113.044 66.9085 113.042 66.9122 113.04C66.9014 113.035 66.8909 113.029 66.88 113.024ZM143.067 76.3999C144.526 75.7204 146.005 76.3298 146.711 77.7524C147.8 79.9447 147.733 82.609 149.064 84.686C149.781 85.8045 150.947 86.1655 152.11 86.6597C153.47 87.2394 154.763 88.2948 154.859 89.8774C154.956 91.4601 153.444 92.378 152.441 93.3774C151.437 94.3769 150.542 95.4508 149.735 96.6509C148.929 97.851 148.227 99.1293 147.662 100.459C147.384 101.11 147.138 101.808 146.938 102.451C146.737 103.093 146.595 103.8 146.228 104.375C145.351 105.75 143.642 105.777 142.479 104.744C141.256 103.659 141.368 101.915 141.241 100.429C141.233 100.329 141.221 100.229 141.21 100.129C141.135 99.7234 141.075 99.3153 141.028 98.9058C140.396 95.6188 138.664 92.5663 136.226 90.2759C135.584 90.0414 134.942 89.8082 134.301 89.5728C133.576 89.3089 132.777 89.1232 132.142 88.6216C131.506 88.12 131.235 87.3058 131.532 86.5366C132.112 85.0319 133.944 84.6786 135.359 84.5337C136.682 84.3962 138.021 84.3632 139.087 83.4565C139.555 83.059 139.938 82.5722 140.191 82.0112C140.492 81.3424 140.591 80.584 140.747 79.8706C141.059 78.4587 141.606 77.0799 143.067 76.3999ZM139.49 90.9751C139.458 90.9956 139.424 91.0139 139.39 91.0298C139.409 91.0544 139.427 91.0793 139.446 91.104C139.459 91.0779 139.472 91.0519 139.486 91.0259C139.488 91.009 139.489 90.992 139.49 90.9751ZM98.8741 7.86377V7.86475C95.3061 7.92532 91.7972 8.81872 88.6905 10.5474C85.908 12.0951 83.4999 14.2693 81.878 16.9595L81.5646 17.5044C81.1289 18.2977 80.808 19.1516 80.4708 20.0796C80.1414 20.9862 79.7923 21.9769 79.3136 22.9224C78.3479 24.8282 76.7621 26.1477 74.8829 26.9497H74.8819C73.2662 27.6371 71.381 27.9857 69.8497 28.4009C68.2409 28.8371 66.8596 29.3732 65.7833 30.4097C63.552 32.559 62.8613 36.0118 62.6847 39.3325C62.4667 43.5146 62.936 47.7782 64.8077 51.4136L65.1134 51.9761C66.7013 54.7588 69.178 57.0851 72.1495 58.0884C73.7611 58.6323 75.407 58.6522 77.3077 58.6978C79.0654 58.7391 81.1926 58.8397 83.0294 59.8413L83.3927 60.0542L83.3937 60.0552C84.434 60.7091 85.154 61.5725 85.7296 62.4556C86.2731 63.2894 86.7763 64.2965 87.2198 65.064V65.0649C87.8994 66.2417 88.7999 67.162 89.9444 67.8022H89.9454C92.2555 69.0974 95.2281 69.1742 97.9991 68.564C101.205 67.8577 103.98 66.2479 106.554 64.0952L107.121 63.6128C108.437 62.4759 109.697 61.2656 110.974 60.0327C112.425 58.6316 113.901 57.1982 115.466 55.8579L115.468 55.8569C117.062 54.4968 118.768 53.1973 120.637 52.1333C122.323 51.1703 124.107 50.4209 125.868 49.7524L125.869 49.7515C129.403 48.4143 132.775 47.5176 135.988 45.8833C139.113 44.2942 141.623 42.0329 142.989 38.8853L143.235 38.2827C145.646 31.9924 143.929 23.8534 138.976 19.313C136.293 16.852 132.687 15.9282 128.902 15.4478C124.939 14.947 120.527 14.7815 116.489 13.2466C116.454 13.2331 116.419 13.2171 116.386 13.1997C116.12 13.0816 115.861 12.9032 115.65 12.6724C114.395 11.9457 113.111 11.2775 111.796 10.6929L111.09 10.3882C107.204 8.76192 103.045 7.7923 98.8741 7.86377ZM194.067 16.7505C192.552 15.4109 190.295 14.9941 188.134 15.2524C185.571 15.5599 183.323 16.8007 181.204 18.48C179.063 20.1777 177.17 22.2209 175.204 24.1255L175.203 24.1245C173.072 26.1916 170.745 28.2133 167.987 29.645C167.369 29.9658 166.733 30.2625 166.114 30.5493C165.49 30.8389 164.884 31.1186 164.292 31.4175C163.109 32.0153 162.044 32.6623 161.167 33.5142C159.208 35.4176 158.438 37.9229 158.298 40.6978C158.17 43.2401 158.575 45.9175 159.019 48.4204C159.474 49.3134 160.046 50.1321 160.727 50.8726L161.08 51.2437C162.877 53.0635 165.08 54.3607 167.467 55.5747C169.964 56.845 172.745 58.0586 175.197 59.6646C175.839 60.0848 176.459 60.5273 177.059 60.9605C177.664 61.3975 178.247 61.8225 178.841 62.2271C179.878 62.9334 180.909 63.5497 182.026 63.9907L182.511 64.1685L182.512 64.1694C184.82 64.9573 187.33 65.1872 189.775 64.8999L190.263 64.8355C192.905 64.4473 195.35 63.5443 197.786 62.1421C200.216 60.7432 202.348 58.9511 204.392 56.9478H204.393C205.465 55.8976 206.581 54.7949 207.819 53.8159L208.67 53.1636C209.535 52.5173 210.429 51.8911 211.237 51.2876L211.238 51.2866C213.303 49.7473 214.945 48.0363 215.659 45.7388L215.78 45.3179C216.343 43.2058 216.244 40.9639 215.567 38.7944C214.849 36.4976 213.443 34.4199 211.705 32.6646L211.704 32.6636C209.907 30.845 207.809 29.4493 205.484 28.1567C203.17 26.8709 200.482 25.4697 198.573 23.187L198.572 23.186C197.652 22.0831 196.949 20.7946 196.291 19.6851C195.609 18.5361 194.951 17.5312 194.067 16.7515L194.067 16.7505ZM190.769 30.0249C191.504 29.7686 192.266 30.0695 192.745 30.6528C194.536 32.8338 194.209 36.0252 195.881 38.2769C196.193 38.693 196.576 39.0613 197.033 39.314C197.587 39.6223 198.2 39.6407 198.82 39.6704C200.188 39.7336 201.733 40.0757 202.317 41.4839C202.863 42.803 201.986 43.9694 200.871 44.6011C199.849 45.1844 198.761 45.5748 197.892 46.355C197.022 47.1353 196.305 48.105 195.862 49.1899C195.342 50.4681 195.358 51.9288 194.849 53.1587C194.34 54.3885 193.136 55.4545 191.724 55.3247C190.234 55.1872 189.55 53.8567 189.486 52.5005C189.431 51.3339 189.653 50.2267 189.312 49.0786C188.996 48.0272 188.313 47.1502 187.25 46.7935C185.983 46.3699 184.549 46.4255 183.341 45.9722C182.133 45.5189 180.956 44.6683 180.543 43.394C180.216 42.3872 180.517 41.2239 181.278 40.4956C181.91 39.8901 182.765 39.5818 183.597 39.3589C184.215 39.1934 184.845 39.0714 185.463 38.9048C185.932 38.5091 186.424 38.1391 186.938 37.8003C187.161 37.2345 187.385 36.6699 187.607 36.103C188.208 34.5798 188.773 33.0343 189.412 31.5259C189.68 30.8942 190.089 30.2627 190.769 30.0249ZM105.3 20.1821C106.927 19.6731 108.7 20.6954 109.689 21.9439C110.759 23.2926 111.074 25.1358 112.196 26.4214C113.319 27.7068 115.102 27.9856 116.633 28.5317C118.268 29.1151 119.876 30.1515 120.53 31.8345C121.233 33.6403 120.174 35.2609 118.855 36.4165C117.606 37.5126 116.481 38.6125 115.548 39.9946C113.686 42.7628 112.471 45.8985 110.684 48.7075C108.941 51.4496 105.854 55.1209 102.164 53.646C101.343 53.3153 100.634 52.7538 100.21 51.9624C99.7457 51.0931 99.6409 50.1237 99.5294 49.1577C99.3548 47.6381 98.9943 46.0922 98.255 44.7397C97.8909 44.0709 97.4299 43.4537 96.88 42.9595C96.3301 42.4654 95.6651 42.1456 95.0001 41.8335C93.5288 41.1461 92.0091 40.2912 91.8419 38.4966C91.6972 36.9436 92.719 35.3873 93.8038 34.3618C94.7848 33.4403 95.9443 32.7716 97.1593 32.1548C98.3743 31.538 99.6223 30.9834 100.785 30.27C101.117 30.0653 101.435 29.8419 101.735 29.603C101.793 29.4786 101.849 29.3527 101.897 29.2231C102.465 27.6812 102.573 26.0645 102.818 24.3999C103.064 22.7353 103.468 20.7581 105.3 20.1821ZM191.379 52.7876C191.417 53.0077 191.486 53.2062 191.605 53.3345C191.52 53.1548 191.446 52.9722 191.379 52.7876ZM111.467 38.8882C111.47 38.8891 111.474 38.8901 111.478 38.8911C111.489 38.8464 111.501 38.8018 111.513 38.7573C111.508 38.7574 111.504 38.7563 111.499 38.7564C111.488 38.8002 111.478 38.8444 111.467 38.8882ZM96.4386 34.6772C96.4516 34.6795 96.4647 34.6813 96.4776 34.6841C96.4922 34.6647 96.5058 34.6447 96.5206 34.6255C96.493 34.6425 96.4659 34.6601 96.4386 34.6772ZM109.317 32.7564C109.318 32.7551 109.318 32.7537 109.318 32.7524L109.317 32.7515C109.317 32.7531 109.317 32.7547 109.317 32.7564ZM115.154 31.5103C115.156 31.5088 115.158 31.5078 115.159 31.5064C115.158 31.5058 115.156 31.505 115.154 31.5044C115.154 31.5063 115.154 31.5083 115.154 31.5103Z" fill="#4D58D8"/>
</svg>
