<svg width="225" height="205" viewBox="0 0 225 205" fill="none" xmlns="http://www.w3.org/2000/svg">
<path d="M92.3381 4.92004C101.338 2.4342 110.858 5.24094 118.454 9.84875C120.032 10.3728 121.686 10.7012 123.383 10.9396H123.382C124.401 11.082 125.444 11.1966 126.507 11.3116C127.565 11.4261 128.645 11.5408 129.714 11.6827C131.851 11.9663 134.007 12.3632 136.009 13.1144C140.038 14.626 143.246 17.5142 145.316 21.2462L145.681 21.9347C149.335 29.1381 149.21 39.0737 143.332 45.2814C140.506 48.2652 136.925 49.8858 133.344 51.1954C129.697 52.529 126.147 53.5173 122.971 55.2443L122.97 55.2452C119.475 57.1448 116.604 59.9561 113.627 62.8322C113.022 63.4172 112.403 64.0148 111.771 64.6144L111.994 69.921C112.033 70.8523 112.072 71.7836 112.112 72.715C112.213 72.6666 112.316 72.6197 112.419 72.5743C113.366 72.1586 114.336 71.8508 115.262 71.5675C116.204 71.2793 117.091 71.0192 117.954 70.6876C119.564 70.0669 121.092 69.1816 122.582 68.1945C124.054 67.2169 125.491 66.1194 126.959 64.9904C128.419 63.8681 129.913 62.7132 131.459 61.6593C134.556 59.5492 137.951 57.7811 141.982 57.3761C145.509 57.0206 149.347 57.891 152.096 60.3409C153.455 61.5525 154.44 63.0734 155.351 64.42C156.29 65.808 157.165 67.0377 158.357 67.9523C159.568 68.8822 160.985 69.5065 162.532 70.046C163.306 70.3159 164.094 70.5584 164.903 70.8116C165.704 71.0626 166.522 71.3233 167.322 71.6202C170.561 72.8227 173.589 74.7157 175.925 77.3185C178.258 79.918 179.842 83.1284 180.24 86.6583L180.297 87.2863C180.519 90.4383 179.753 93.7433 177.992 96.4152C176.964 97.9785 175.645 99.2143 174.15 100.241L174.151 100.242C173.362 100.785 172.53 101.278 171.764 101.751C170.983 102.233 170.248 102.705 169.573 103.243C168.185 104.353 166.938 105.635 165.695 106.99C164.467 108.328 163.215 109.768 161.887 111.095C157.699 115.28 152.565 118.989 146.74 120.786L146.898 123.943C147.115 128.134 147.356 132.326 147.617 136.514L147.858 140.241C148.432 148.939 149.104 157.631 149.874 166.314C150.647 174.996 151.517 183.671 152.484 192.334L152.904 196.047L152.905 196.05C152.978 196.712 152.668 197.237 152.301 197.56C151.95 197.868 151.499 198.048 151.071 198.086H151.068C147.853 198.364 144.577 198.059 141.468 197.179L141.467 197.178C140.173 196.81 138.459 196.229 137.537 194.536C137.096 193.725 136.916 192.848 136.828 192.04C136.745 191.266 136.736 190.402 136.699 189.765L136.459 185.414C135.925 175.262 135.585 165.102 135.435 154.936C135.271 143.846 135.342 132.756 135.636 121.669C131.542 121.059 127.605 119.381 124.524 116.481C123.822 115.819 123.224 115.096 122.673 114.397C122.109 113.681 121.613 113.016 121.055 112.373C120.141 111.324 119.023 110.567 117.699 109.952C116.39 109.346 115.033 108.913 113.567 108.365C113.35 108.285 113.133 108.201 112.915 108.115L112.967 108.558V108.559C114.143 118.998 115.04 129.409 115.661 139.957C116.283 150.505 116.629 161.071 116.689 171.638C116.704 174.251 116.7 176.861 116.681 179.473C116.673 180.795 116.659 182.116 116.641 183.437V183.439C116.623 184.527 116.653 185.823 116.535 186.979C116.416 188.154 116.118 189.481 115.184 190.567C114.339 191.548 113.17 191.986 112.139 192.227L111.706 192.318C109.054 192.831 106.34 192.874 103.676 192.463C102.51 192.283 101.14 191.874 100.223 190.636C99.3476 189.454 99.2539 187.969 99.1448 186.959C98.8618 184.33 98.6006 181.698 98.3586 179.067V179.066C97.9416 174.511 97.5935 169.95 97.3108 165.387L97.1936 163.431C96.6686 154.41 96.408 145.373 96.4036 136.336C95.2882 137.487 94.1197 138.586 92.8381 139.704C90.8827 141.411 88.7557 143.031 86.387 144.26H86.386C85.2567 144.844 84.0529 145.309 82.9602 145.765C81.8424 146.231 80.8056 146.701 79.8704 147.322C78.9923 147.906 78.2663 148.692 77.554 149.605C77.1972 150.061 76.8562 150.534 76.4973 151.026C76.143 151.511 75.7736 152.011 75.3811 152.493C75 152.962 74.5997 153.41 74.1838 153.839L74.2737 155.225C74.413 157.466 74.5344 159.711 74.635 161.957L74.7209 163.942C75.1221 173.865 75.1537 183.802 74.8254 193.73V193.734C74.7974 194.489 74.302 195.342 73.3762 195.564C71.6926 195.97 69.942 196.164 68.1946 196.089C66.7771 196.029 65.1004 195.863 63.634 195.086V195.085C62.0164 194.23 61.29 192.797 60.9368 191.365C60.6836 190.339 60.6004 189.197 60.5295 188.211L60.4573 187.288C60.3179 185.811 60.1797 184.334 60.0413 182.859C59.9029 181.383 59.7645 179.906 59.6252 178.43L58.0969 162.149C57.835 162.215 57.5731 162.28 57.3108 162.343V162.344C54.8114 162.941 52.2584 163.442 49.677 163.741L49.678 163.742C46.8822 164.07 43.9511 164.078 41.1204 163.354C38.9402 162.797 36.8716 161.796 35.0627 160.482C31.5226 157.914 28.9145 154.34 27.1819 150.427L26.8469 149.64C26.3999 148.546 26.0455 147.413 25.7161 146.306C25.3825 145.184 25.0788 144.103 24.72 143.044C24.0502 141.067 23.2299 139.301 21.8567 137.882L21.5745 137.603C20.7918 136.86 19.9183 136.209 18.9885 135.524C18.0742 134.85 17.099 134.139 16.2034 133.319C14.1708 131.461 12.9016 129.096 12.135 126.562C10.8429 122.287 10.7131 117.73 11.4758 113.388C12.225 109.12 13.9067 104.99 16.3372 101.407V101.406C18.878 97.6644 22.1638 94.6747 26.0305 92.3868C27.111 91.7455 28.1296 91.157 28.9407 90.4503C29.7505 89.7447 30.441 88.8973 31.0657 87.962L31.0667 87.9611C31.6873 87.0346 32.2488 86.0679 32.8362 85.0665C33.4176 84.0753 34.0226 83.0532 34.7073 82.0714L35.219 81.3575C37.832 77.8087 41.2719 74.5845 45.0686 72.6115C49.1231 70.5045 53.683 69.6821 58.2327 70.5011C61.7385 71.1323 65.0703 72.7798 67.5667 75.3546C67.5821 75.3668 67.5986 75.3781 67.6135 75.3907C69.2161 76.7422 70.1194 78.5917 70.7014 80.3937L70.8137 80.7531L70.8147 80.754C71.1176 81.7612 71.3393 82.7682 71.5637 83.7228C71.7913 84.6909 72.0257 85.6276 72.3625 86.5734C72.9967 88.3535 74.1728 89.7827 75.761 90.9132L75.762 90.9142C77.6014 92.2259 79.6704 93.2015 81.802 94.2843L81.803 94.2853C84.0839 95.448 86.4099 96.6201 88.6653 97.9132C90.9216 99.2078 93.1257 100.651 95.1575 102.318C95.1561 102.282 95.1549 102.247 95.1536 102.211C95.1062 100.943 95.0594 99.6734 95.0129 98.4044L94.509 84.8517C94.3588 80.8158 94.2083 76.7791 94.0588 72.7423C93.9334 72.7373 93.8079 72.7345 93.6829 72.7267C90.083 72.5012 86.5923 71.0656 84.3362 67.7228V67.7218C84.0434 67.2887 83.7925 66.8292 83.5657 66.3947C83.3303 65.9436 83.1302 65.5386 82.9036 65.1349C82.4556 64.3369 82.0054 63.7342 81.3938 63.3507C80.129 62.5581 78.498 62.5766 76.6194 62.5411C74.6351 62.5036 72.5517 62.3697 70.5266 61.5988C68.5122 60.8319 66.6966 59.6586 65.1409 58.1974H65.1399C61.8481 55.1028 59.9662 50.881 59.2288 46.5724V46.5704C58.8253 44.1917 58.711 41.7819 58.8254 39.3927V39.3917C58.9206 37.4305 59.1812 35.3668 59.7512 33.4679C60.3194 31.5753 61.2037 29.7236 62.5862 28.174C64.0051 26.5835 65.9249 25.6083 67.7288 25.0333C68.6188 24.7496 69.5283 24.5334 70.3821 24.3224C71.0328 24.1615 71.6576 24.0021 72.262 23.8136L72.8606 23.6134C74.3104 23.0927 75.3478 22.2702 75.9885 20.9581C76.4242 20.0614 76.6378 19.2141 77.0598 18.1085C77.4175 17.1678 77.8432 16.24 78.3469 15.3546H78.3479C79.3354 13.6225 80.5938 12.0445 82.0276 10.6808C84.916 7.93245 88.5235 5.97492 92.3372 4.92004H92.3381ZM183.35 12.67C185.89 11.5389 188.733 11.0274 191.552 11.5187L192.115 11.63L192.116 11.631C193.496 11.9403 194.865 12.5248 196.026 13.4015C197.328 14.3834 198.312 15.6847 199.077 16.9103C199.885 18.203 200.439 19.3395 201.236 20.3702C201.978 21.3308 202.944 22.1333 204.023 22.8439H204.022C205.159 23.5922 206.344 24.2374 207.581 24.9327C208.804 25.6199 210.064 26.3495 211.269 27.2355C213.649 28.9857 215.81 31.1115 217.408 33.6857C220.376 38.463 221.153 45.189 217.777 50.1691L217.437 50.6456C215.544 53.1698 212.794 54.8386 210.594 56.5245C209.415 57.4276 208.339 58.4622 207.223 59.546C206.12 60.617 204.974 61.7389 203.71 62.7404C201.739 64.3044 199.564 65.6748 197.244 66.7218L197.551 69.2306C197.685 70.3276 197.819 71.4256 197.952 72.5236C199.049 81.5515 200.1 90.5656 201.027 99.6447C201.953 108.725 202.739 117.824 203.279 126.945C203.815 136.002 204.016 145.057 204.116 154.114C204.213 162.993 204.354 171.841 205.523 180.578L205.751 182.192C205.993 183.802 206.274 185.407 206.594 187.001V187.002C206.922 188.64 207.467 190.711 207.081 192.745L206.991 193.151C206.478 195.177 204.88 196.785 202.788 197.211H202.787C200.922 197.589 198.908 197.169 197.336 196.118C195.498 194.89 194.409 193.066 193.677 191.187C192.952 189.325 192.533 187.281 192.123 185.595V185.594C191.212 181.832 190.398 178.048 189.674 174.246L189.369 172.616C187.883 164.503 186.798 156.32 186.02 148.115L185.867 146.475C185.085 137.717 184.645 128.933 184.441 120.151L184.373 116.834C184.241 109.098 184.276 101.362 184.4 93.6329C184.533 85.3125 184.772 76.9962 185.02 68.6866C182.348 68.3284 179.752 67.4435 177.447 65.9659C176.741 65.5141 176.068 65.026 175.421 64.5499C174.93 64.1888 174.456 63.8364 173.978 63.4982L173.497 63.1642C172.234 62.3075 170.876 61.5682 169.475 60.8585V60.8575C166.97 59.5908 164.111 58.2871 161.597 56.6105C159.455 55.1819 157.492 53.4376 156.105 51.1193C155.773 50.8786 155.475 50.5084 155.384 50.004L155.385 50.0031C155.355 49.8401 155.327 49.6765 155.297 49.5128C155.246 49.3446 155.212 49.1655 155.202 48.9825C154.963 47.6314 154.738 46.2582 154.583 44.8732V44.8722C154.236 41.7426 154.306 38.3647 155.539 35.2628L155.768 34.7198C156.328 33.4589 157.074 32.2505 157.995 31.2365C159.054 30.0717 160.33 29.1919 161.657 28.462C162.942 27.756 164.349 27.1498 165.591 26.5323C166.864 25.8993 168.072 25.168 169.183 24.3107V24.3097C171.566 22.4749 173.611 20.2123 175.836 18.0948C178.008 16.0285 180.454 13.9607 183.35 12.67ZM142.924 121.66C141.792 121.83 140.64 121.92 139.483 121.932C139.331 127.681 139.238 133.434 139.211 139.186C139.159 150.467 139.341 161.75 139.76 173.024C139.972 178.694 140.242 184.357 140.573 190.02L140.602 190.873C140.61 191.159 140.621 191.432 140.648 191.69C140.703 192.234 140.814 192.57 140.957 192.756C141.103 192.945 141.379 193.125 141.84 193.288C142.307 193.454 142.782 193.545 143.316 193.677H143.317C145.124 194.121 146.977 194.331 148.838 194.326C148.281 189.407 147.752 184.483 147.259 179.555C146.266 169.626 145.396 159.681 144.659 149.73C143.968 140.381 143.389 131.022 142.924 121.66ZM193.539 68.0665C192.024 68.4839 190.465 68.7519 188.874 68.839C188.828 70.4044 188.781 71.9706 188.737 73.5343C188.488 82.2091 188.265 90.8818 188.184 99.5441C188.102 108.206 188.158 116.867 188.458 125.517L188.582 128.736C188.9 136.25 189.415 143.762 190.199 151.219C191.096 159.74 192.354 168.221 194.071 176.609H194.072C194.508 178.743 194.974 180.875 195.47 182.994H195.469C195.927 184.945 196.349 186.852 196.923 188.708H196.922C197.414 190.291 198.057 191.713 199.149 192.669C199.884 193.312 201.048 193.632 201.901 193.46C202.389 193.362 202.721 193.126 202.947 192.814C203.182 192.487 203.338 192.022 203.354 191.433L203.356 191.114C203.345 190.367 203.229 189.595 203.068 188.782C202.897 187.922 202.634 186.844 202.47 185.926L202.19 184.286C201.565 180.457 201.148 176.602 200.87 172.745C200.236 163.958 200.31 155.305 200.165 146.391C200.039 138.581 199.688 130.774 199.165 122.977L198.931 119.635C198.278 110.707 197.417 101.794 196.448 92.8878C195.548 84.6079 194.55 76.3392 193.539 68.0665ZM70.512 156.906C68.429 158.329 66.1541 159.454 63.845 160.348C63.1893 160.602 62.5267 160.836 61.8606 161.057C61.9869 162.403 62.1142 163.748 62.2405 165.093C62.3891 166.677 62.5372 168.261 62.6858 169.846L64.262 186.637V186.639C64.385 187.977 64.4118 189.155 64.6399 190.325H64.6409C64.8019 191.136 65.1064 191.561 65.6985 191.805C66.569 192.161 67.6375 192.236 68.7678 192.247H68.7688C69.5221 192.256 70.2699 192.204 71.012 192.098C71.0849 189.64 71.1378 187.182 71.1653 184.724C71.2664 175.447 71.0481 166.168 70.512 156.906ZM108.048 67.8732C106.795 68.8495 105.469 69.7412 104.043 70.463C102.206 71.3933 100.091 72.1115 97.9084 72.4816C97.9397 73.3311 97.9714 74.1807 98.0032 75.0304C98.0505 76.2991 98.0983 77.5688 98.1448 78.838L98.6477 92.3907C98.8158 96.9079 98.9844 101.425 99.1516 105.943L99.1487 106.158C99.1479 106.17 99.1448 106.182 99.1438 106.193C99.563 106.685 99.967 107.192 100.354 107.718C103.187 111.568 105.065 116.45 104.541 121.421C104.133 125.287 102.459 128.734 100.283 131.761C100.272 133.007 100.266 134.257 100.266 135.501V135.503C100.251 145.696 100.569 155.888 101.218 166.063H101.219C101.542 171.164 101.949 176.262 102.442 181.349L102.821 185.095L102.892 185.943C102.913 186.222 102.933 186.49 102.96 186.753C103.015 187.283 103.094 187.747 103.235 188.15H103.234C103.287 188.302 103.368 188.384 103.532 188.461C103.747 188.561 104.039 188.621 104.478 188.688C105.599 188.859 106.782 188.909 107.914 188.873C109.052 188.837 110.176 188.724 111.245 188.476V188.475C112.018 188.296 112.336 188.072 112.49 187.674C112.749 187.002 112.741 186.237 112.757 185.242C112.776 183.953 112.794 182.669 112.809 181.382C112.864 176.301 112.854 171.219 112.776 166.138C112.62 155.915 112.2 145.691 111.518 135.49C110.921 126.565 110.119 117.65 109.117 108.76L108.78 105.851C107.554 104.872 106.535 103.649 105.851 102.187V102.186C105.146 100.679 104.777 99.0853 104.625 97.4865L104.573 96.8009C104.452 94.7026 104.718 92.6504 105.008 90.6886C105.252 89.036 105.508 87.4591 105.612 85.8849C105.549 85.7493 105.502 85.5995 105.478 85.4357L105.479 85.4347C105.221 83.7392 105.305 82.0236 105.777 80.3556V80.3546C106.276 78.5987 107.168 76.9518 108.371 75.5734L108.048 67.8732ZM62.3186 76.049C59.3271 74.2696 55.6152 73.6454 52.1575 74.215L51.8235 74.2736C47.8858 75.0157 44.3118 77.2076 41.4084 80.0607C39.9054 81.5386 38.6233 83.1135 37.4153 84.9562C36.8112 85.8777 36.2695 86.8339 35.6868 87.8302C35.1834 88.691 34.6545 89.573 34.0559 90.424L33.7952 90.7863C33.0517 91.7969 32.205 92.7777 31.1692 93.6056L31.1682 93.6046C30.1043 94.4586 28.9414 95.1413 27.8567 95.7863L27.8557 95.7872C26.1437 96.8022 24.5656 97.9367 23.1458 99.2892C17.5654 104.605 14.4719 112.423 14.9084 120.114L14.9622 120.863C15.0937 122.36 15.3644 123.842 15.7864 125.274L16.01 125.984V125.986C16.3554 127.023 16.8057 127.998 17.4006 128.872L17.6145 129.17C18.1327 129.855 18.7808 130.471 19.4973 131.066H19.4983C20.3172 131.746 21.1757 132.351 22.0862 133.031C22.8662 133.615 23.6637 134.24 24.4036 134.958L24.717 135.272V135.273C26.3004 136.913 27.315 138.893 28.0627 140.904L28.3674 141.768L28.3684 141.769C28.7325 142.855 29.0457 143.966 29.3596 145.026C29.6771 146.098 29.9999 147.136 30.3967 148.138L30.6848 148.829C31.2846 150.203 32.0247 151.524 32.8782 152.758L33.3147 153.367L33.759 153.944C36.0319 156.789 39.0883 158.959 42.5911 159.733L42.593 159.734C44.9515 160.258 47.4606 160.164 49.9573 159.833C52.287 159.524 54.6122 159.038 56.9153 158.468C61.0656 157.438 65.0985 155.996 68.5383 153.602L69.1428 153.164C69.6688 152.768 70.1749 152.345 70.6584 151.899C70.7202 151.818 70.7854 151.743 70.8547 151.677C70.9289 151.606 71.0103 151.54 71.0969 151.48C71.7239 150.863 72.309 150.206 72.842 149.511V149.51C74.272 147.649 75.7232 145.385 78.0442 143.914L78.4504 143.666C79.4031 143.107 80.3847 142.679 81.3362 142.285C82.4431 141.827 83.4925 141.419 84.5344 140.879C86.6181 139.8 88.5229 138.369 90.3303 136.78L90.967 136.214C94.1369 133.367 97.0914 130.24 98.9983 126.56L98.9993 126.559C99.941 124.742 100.578 122.852 100.733 120.795C100.888 118.735 100.544 116.678 99.8206 114.704C98.2128 110.327 95.1505 107.027 91.4241 104.288C87.6825 101.538 83.3461 99.4026 79.2268 97.3009L79.2258 97.2999C77.2385 96.2844 75.0754 95.2395 73.1663 93.7823C71.2171 92.2946 69.7342 90.456 68.8313 88.1241C68.4565 87.1563 68.1908 86.1706 67.9583 85.215C67.7202 84.2366 67.526 83.3322 67.2756 82.4113L67.2747 82.4103C67.0121 81.4415 66.7048 80.5581 66.2737 79.7921C66.1673 79.6921 66.0664 79.5753 65.9749 79.4406V79.4396C65.6978 79.0326 65.3916 78.6465 65.0618 78.2814C65.0445 78.2664 65.0275 78.2502 65.01 78.2355L65.0081 78.2345C64.8939 78.1379 64.7987 78.031 64.719 77.9191C64.0084 77.1997 63.1984 76.5723 62.3186 76.049ZM55.9231 97.8654C57.6063 97.9917 59.1232 99.2734 59.8069 100.775C60.6541 102.632 60.4753 104.791 61.3596 106.623C62.0507 108.057 63.2951 109.057 64.6438 109.849C65.3944 110.291 66.1977 110.684 66.9631 111.041C67.7284 111.398 68.542 111.702 69.259 112.159C70.0355 112.653 70.7226 113.356 70.8899 114.292C71.0682 115.295 70.656 116.265 69.9612 116.979C68.5715 118.409 66.4832 118.283 64.8 119.134C61.9205 120.591 60.3152 123.73 59.1633 126.599C58.4612 128.356 57.9041 130.448 56.4924 131.715C56.2811 131.905 56.0503 132.072 55.8098 132.221C55.7134 132.378 55.5786 132.522 55.4036 132.641C55.1879 132.788 54.9235 132.802 54.6838 132.727C53.5639 133.052 52.3508 132.912 51.3938 132.079C50.1308 130.979 50.0005 129.133 49.9299 127.576C49.8928 126.815 49.889 126.045 49.7405 125.291C49.5733 124.463 49.3064 123.659 48.9163 122.912C48.1472 121.434 47.0024 120.163 45.5647 119.309C43.8815 118.313 41.8409 117.855 40.5627 116.273C39.437 114.879 39.0808 112.955 40.2698 111.484C41.0129 110.566 42.1644 110.161 43.3088 109.919C44.4533 109.678 45.6238 109.592 46.7571 109.306C46.8652 109.278 46.9726 109.247 47.0803 109.215C47.0854 109.208 47.0898 109.201 47.095 109.194C47.7191 108.399 48.3136 107.578 48.8821 106.742C50.0296 105.052 51.0638 103.287 51.9788 101.458C52.1604 101.019 52.3662 100.59 52.5989 100.172C52.8283 99.7135 53.0851 99.2708 53.428 98.8927C53.5432 98.7389 53.6628 98.5869 53.7874 98.4376C53.9514 98.2416 54.176 98.1582 54.4045 98.1603C54.8731 97.9345 55.3961 97.8259 55.9231 97.8654ZM146.897 61.6964C144.347 60.8328 141.54 61.0803 138.929 62.0089L138.409 62.2042C135.201 63.467 132.452 65.5448 129.609 67.7579C126.801 69.9428 123.888 72.2689 120.477 73.8029L120.478 73.8038C118.893 74.5178 117.044 74.9897 115.563 75.5031C114.003 76.0433 112.65 76.6788 111.585 77.7677C110.03 79.3585 109.104 81.6171 109.17 83.8136C109.399 84.1317 109.523 84.5251 109.514 84.9581L109.515 84.9591C109.472 87.0096 109.151 89.0296 108.861 90.962C108.367 94.2534 107.966 97.565 109.239 100.344C109.763 101.491 110.578 102.464 111.593 103.149C112.663 103.87 113.877 104.375 115.184 104.86H115.183C117.892 105.865 121.135 106.863 123.457 109.295L123.694 109.549C124.236 110.147 124.718 110.78 125.17 111.369C125.632 111.972 126.067 112.534 126.54 113.046L126.746 113.263V113.264C127.703 114.244 128.791 115.072 129.99 115.757V115.758C135.075 118.665 141.361 118.693 146.875 116.661C149.867 115.559 152.571 113.963 155.208 111.887C157.842 109.814 160.131 107.389 162.436 104.851C163.652 103.508 164.915 102.148 166.356 100.911C167.814 99.6593 169.415 98.6789 170.949 97.7257V97.7247C172.304 96.8847 173.494 96.0268 174.371 94.8771C175.155 93.8455 175.722 92.6427 176.067 91.3693V91.3683C176.768 88.7878 176.554 85.9621 175.446 83.5333V83.5323C174.343 81.11 172.531 79.042 170.332 77.4933L169.887 77.1906C168.675 76.3929 167.369 75.7505 165.994 75.2472V75.2462C165.238 74.9701 164.466 74.7215 163.677 74.4698C162.893 74.2199 162.086 73.9666 161.291 73.6876C159.708 73.1321 158.059 72.4536 156.589 71.4376L156.308 71.2374C154.923 70.2208 153.844 68.9644 152.898 67.6349L152.897 67.6339C151.922 66.2607 151.164 64.9784 150.194 63.9015C149.277 62.8848 148.17 62.1276 146.897 61.6964ZM66.8801 113.025C66.8871 113.032 66.8947 113.039 66.9016 113.046C66.9053 113.044 66.9086 113.041 66.9124 113.039C66.9016 113.034 66.8909 113.029 66.8801 113.025ZM143.066 76.4005C144.526 75.7205 146.005 76.3299 146.711 77.7531C147.8 79.9453 147.733 82.6096 149.063 84.6866C149.78 85.8049 150.947 86.1652 152.11 86.6593C153.47 87.2389 154.763 88.2942 154.86 89.8771C154.956 91.4599 153.444 92.3776 152.441 93.3771C151.437 94.3766 150.542 95.4504 149.736 96.6505C148.929 97.8506 148.227 99.129 147.662 100.459C147.384 101.109 147.138 101.808 146.938 102.451C146.737 103.094 146.596 103.8 146.228 104.376C145.351 105.75 143.642 105.776 142.479 104.743C141.257 103.658 141.368 101.916 141.241 100.43C141.233 100.33 141.221 100.23 141.21 100.13C141.135 99.7227 141.074 99.3133 141.028 98.9025C140.395 95.6154 138.661 92.5635 136.222 90.2736C135.582 90.0396 134.941 89.8073 134.301 89.5724C133.576 89.3086 132.777 89.1228 132.142 88.6212C131.507 88.1196 131.235 87.3054 131.532 86.5363C132.112 85.0318 133.944 84.6792 135.36 84.5343C136.682 84.3968 138.02 84.3627 139.086 83.4562C139.554 83.0586 139.937 82.5719 140.19 82.0109C140.491 81.3422 140.591 80.5845 140.747 79.8712C141.059 78.4594 141.606 77.0805 143.066 76.4005ZM139.49 90.9757C139.458 90.996 139.425 91.0137 139.391 91.0294C139.41 91.0539 139.428 91.0791 139.447 91.1036C139.459 91.078 139.472 91.0522 139.486 91.0265C139.487 91.0095 139.489 90.9927 139.49 90.9757ZM98.8743 7.86438V7.86536C95.3061 7.92593 91.7974 8.81928 88.6907 10.548C85.908 12.0958 83.5 14.2697 81.8782 16.9601L81.5647 17.505C81.129 18.2984 80.8082 19.1521 80.4709 20.0802C80.1415 20.9869 79.7925 21.9774 79.3137 22.923C78.348 24.8288 76.7623 26.1483 74.8831 26.9503H74.8821C73.2663 27.6377 71.3811 27.9863 69.8499 28.4015C68.2409 28.8378 66.8597 29.3737 65.7834 30.4103C63.552 32.5597 62.8614 36.0123 62.6848 39.3331C62.4669 43.5153 62.9361 47.7788 64.8079 51.4142L65.1135 51.9767C66.7015 54.7593 69.1782 57.0858 72.1497 58.089C73.7612 58.6328 75.4073 58.6528 77.3079 58.6984C79.0656 58.7397 81.1928 58.8403 83.0295 59.8419L83.3928 60.0548L83.3938 60.0558C84.4341 60.7097 85.1541 61.5731 85.7297 62.4562C86.2732 63.29 86.7765 64.2971 87.22 65.0646V65.0656C87.8995 66.2422 88.8001 67.1627 89.9446 67.8029H89.9456C92.2556 69.0978 95.2283 69.1748 97.9993 68.5646C101.205 67.8583 103.98 66.2485 106.554 64.0958L107.121 63.6134C108.437 62.4764 109.697 61.2662 110.974 60.0333C112.425 58.6321 113.901 57.1989 115.466 55.8585L115.468 55.8575C117.062 54.4974 118.768 53.198 120.637 52.1339C122.323 51.1709 124.107 50.4216 125.868 49.7531L125.869 49.7521C129.403 48.4149 132.775 47.5182 135.989 45.8839C139.113 44.2948 141.623 42.0335 142.99 38.8859L143.236 38.2833C145.647 31.993 143.929 23.8542 138.976 19.3136C136.293 16.8525 132.687 15.9288 128.903 15.4484C124.939 14.9476 120.527 14.782 116.49 13.2472C116.454 13.2337 116.42 13.2176 116.386 13.2003C116.12 13.0822 115.861 12.9037 115.651 12.673C114.396 11.9463 113.111 11.2781 111.796 10.6935L111.09 10.3888C107.204 8.76253 103.045 7.79293 98.8743 7.86438ZM194.067 16.7511C192.552 15.4114 190.295 14.9947 188.134 15.2531C185.571 15.5605 183.323 16.8012 181.204 18.4806C179.063 20.1784 177.17 22.2215 175.204 24.1261L175.203 24.1251C173.072 26.1922 170.745 28.2139 167.988 29.6456C167.369 29.9665 166.733 30.2631 166.115 30.5499C165.49 30.8395 164.884 31.1192 164.292 31.4181C163.109 32.0159 162.044 32.6628 161.167 33.5148C159.208 35.4183 158.438 37.9234 158.298 40.6984C158.17 43.2407 158.575 45.918 159.019 48.421C159.474 49.314 160.046 50.1327 160.727 50.8732L161.08 51.2443C162.877 53.064 165.081 54.3614 167.467 55.5753C169.964 56.8456 172.746 58.0592 175.198 59.6652C175.839 60.0854 176.459 60.5279 177.059 60.9611C177.664 61.3981 178.247 61.8231 178.841 62.2277C179.878 62.9339 180.91 63.5503 182.027 63.9913L182.511 64.1691L182.512 64.17C184.82 64.9578 187.331 65.1878 189.775 64.9005L190.263 64.8361C192.905 64.4479 195.35 63.5449 197.786 62.1427C200.217 60.7438 202.348 58.9518 204.392 56.9484H204.393C205.465 55.8981 206.581 54.7956 207.82 53.8165L208.67 53.1642C209.535 52.5179 210.429 51.8918 211.238 51.2882L211.239 51.2872C213.303 49.7479 214.945 48.037 215.659 45.7394L215.781 45.3185C216.343 43.2064 216.244 40.9646 215.567 38.795C214.849 36.4981 213.443 34.4206 211.705 32.6652L211.704 32.6642C209.907 30.8456 207.809 29.4499 205.484 28.1573C203.17 26.8715 200.483 25.4703 198.573 23.1876L198.573 23.1866C197.652 22.0837 196.95 20.7953 196.291 19.6857C195.61 18.5367 194.951 17.5318 194.068 16.7521L194.067 16.7511ZM190.769 30.0245C191.504 29.7684 192.266 30.0692 192.745 30.6525C194.536 32.8336 194.209 36.0258 195.881 38.2775C196.193 38.6936 196.576 39.061 197.033 39.3136C197.587 39.6219 198.2 39.6413 198.821 39.671C200.188 39.7342 201.733 40.0756 202.317 41.4835C202.863 42.8026 201.986 43.97 200.871 44.6017C199.85 45.1849 198.761 45.5747 197.892 46.3546C197.022 47.1349 196.305 48.1056 195.863 49.1906C195.343 50.4686 195.357 51.9286 194.848 53.1583C194.339 54.3881 193.136 55.4541 191.724 55.3243C190.234 55.1869 189.55 53.8572 189.487 52.5011C189.431 51.3344 189.654 50.2264 189.312 49.0782C188.996 48.0269 188.312 47.1498 187.249 46.7931C185.982 46.3697 184.548 46.4259 183.341 45.9728C182.134 45.5195 180.956 44.6681 180.543 43.3937C180.216 42.3867 180.517 41.2235 181.279 40.4952C181.91 39.8897 182.765 39.5814 183.597 39.3585C184.215 39.1929 184.846 39.0712 185.464 38.9044C185.933 38.509 186.425 38.1395 186.938 37.8009C187.161 37.2349 187.385 36.6707 187.607 36.1036C188.209 34.5802 188.773 33.0341 189.412 31.5255C189.68 30.8939 190.089 30.2623 190.769 30.0245ZM105.3 20.1827C106.928 19.6737 108.7 20.695 109.689 21.9435C110.759 23.2923 111.074 25.1354 112.197 26.421C113.319 27.7066 115.102 27.9852 116.633 28.5314C118.268 29.1147 119.877 30.1519 120.531 31.8351C121.233 33.6408 120.174 35.2606 118.855 36.4161C117.606 37.5122 116.481 38.6121 115.548 39.9943C113.687 42.7624 112.471 45.8991 110.684 48.7081C108.941 51.4502 105.854 55.1205 102.164 53.6456C101.343 53.315 100.633 52.7544 100.209 51.963C99.7448 51.0936 99.641 50.1234 99.5295 49.1573C99.3549 47.6377 98.9945 46.0919 98.2551 44.7394C97.891 44.0706 97.43 43.4533 96.8801 42.9591C96.3303 42.4651 95.6652 42.1461 95.0002 41.8341C93.5289 41.1467 92.0093 40.2917 91.842 38.4972C91.6971 36.944 92.719 35.387 93.804 34.3615C94.7849 33.44 95.9444 32.7712 97.1594 32.1544C98.3743 31.5377 99.6225 30.9839 100.785 30.2706C101.117 30.066 101.435 29.8425 101.736 29.6036C101.793 29.4789 101.849 29.3526 101.897 29.2228C102.465 27.6808 102.572 26.0642 102.818 24.3995C103.063 22.735 103.468 20.7587 105.3 20.1827ZM191.379 52.7882C191.417 53.0088 191.486 53.208 191.606 53.3361C191.521 53.156 191.446 52.9732 191.379 52.7882ZM111.467 38.8878C111.471 38.8888 111.474 38.8898 111.478 38.8907C111.489 38.8459 111.5 38.8007 111.512 38.756C111.508 38.7561 111.504 38.7559 111.499 38.756C111.488 38.7998 111.478 38.844 111.467 38.8878ZM96.4377 34.6779C96.4508 34.6801 96.4639 34.682 96.4768 34.6847C96.4919 34.6646 96.5064 34.644 96.5217 34.6241C96.4934 34.6416 96.4659 34.6602 96.4377 34.6779ZM109.317 32.757C109.317 32.7554 109.318 32.7537 109.319 32.7521C109.318 32.7516 109.317 32.7516 109.316 32.7511C109.316 32.7531 109.316 32.755 109.317 32.757ZM115.155 31.5099C115.156 31.5086 115.157 31.5072 115.158 31.506C115.157 31.5055 115.156 31.5045 115.155 31.504C115.155 31.506 115.155 31.5079 115.155 31.5099Z" fill="#4D58D8"/>
</svg>
